<svg xmlns="http://www.w3.org/2000/svg" xml:space="preserve" enable-background="new 0 0 800 600" viewBox="0 0 800 600">
  <g>
    <g>
      <g>
        <path fill="#d8d9d8" d="M258.63,184.73c0.06,0,0.06-0.1,0-0.1C258.56,184.63,258.56,184.73,258.63,184.73L258.63,184.73z"/>
      </g>
    </g>
    <g>
      <linearGradient id="a" x1="43.538" x2="772.559" y1="297.519" y2="297.519" gradientUnits="userSpaceOnUse">
        <stop offset="0" stop-color="#e2f4fd"/>
        <stop offset=".135" stop-color="#d6e9f6"/>
        <stop offset=".427" stop-color="#c1daed"/>
        <stop offset=".716" stop-color="#b5d1e8"/>
        <stop offset="1" stop-color="#b1cee7"/>
      </linearGradient>
      <path fill="url(#a)" d="M772.56,584.54H43.54
			c0-317.03,163.2-574.03,364.51-574.03S772.56,267.51,772.56,584.54"/>
      <g>
        <g>
          <rect width="372.88" height="229.07" y="124.11" fill="#5451a2"/>
          <linearGradient id="b" x1="6.977" x2="365.902" y1="238.651" y2="238.651" gradientUnits="userSpaceOnUse">
            <stop offset="0" stop-color="#e2f4fd"/>
            <stop offset=".135" stop-color="#d6e9f6"/>
            <stop offset=".427" stop-color="#c1daed"/>
            <stop offset=".716" stop-color="#b5d1e8"/>
            <stop offset="1" stop-color="#b1cee7"/>
          </linearGradient>
          <rect width="358.92" height="211.2" x="6.98" y="133.05" fill="url(#b)"/>
          <path fill="#fff" d="M138.7,133.05L6.98,264.78v79.48h28.93l211.2-211.2H138.7z M306.16,133.05l-211.2,211.2h133.73
					L365.9,207.04v-73.99H306.16z" opacity=".2"/>
        </g>
        <g>
          <linearGradient id="c" x1="68.135" x2="304.749" y1="222.636" y2="222.636" gradientUnits="userSpaceOnUse">
            <stop offset="0" stop-color="#f37333"/>
            <stop offset=".162" stop-color="#f47633"/>
            <stop offset=".328" stop-color="#f47f35"/>
            <stop offset=".496" stop-color="#f58d37"/>
            <stop offset=".664" stop-color="#f7a13b"/>
            <stop offset=".832" stop-color="#fabb40"/>
            <stop offset="1" stop-color="#fedb46"/>
          </linearGradient>
          <rect width="236.61" height="74.24" x="68.13" y="185.51" fill="url(#c)"/>
          <g>
            <path fill="#fff" d="M109.56,229.04c0,4.98-4.2,7.87-12.07,7.87H81.43v-28.55h15.25c7.87,0,11.54,3.14,11.54,7.46
						c0,2.65-1.35,4.85-3.96,6.16C107.61,223.21,109.56,225.65,109.56,229.04z M90.89,215.09v4.24h4.48c2.16,0,3.14-0.73,3.14-2.12
						c0-1.39-0.98-2.12-3.14-2.12H90.89z M99.86,227.94c0-1.47-1.06-2.24-3.18-2.24h-5.79v4.49h5.79
						C98.8,230.18,99.86,229.4,99.86,227.94z"/>
            <path fill="#fff" d="M112.95,208.36h9.63v21.08h12.89v7.46h-22.51V208.36z"/>
            <path fill="#fff" d="M136.57,222.64c0-8.65,6.81-14.93,16.11-14.93c9.3,0,16.11,6.28,16.11,14.93
						c0,8.64-6.81,14.93-16.11,14.93C143.38,237.56,136.57,231.28,136.57,222.64z M159.08,222.64c0-4.44-2.86-7.14-6.4-7.14
						c-3.55,0-6.4,2.69-6.4,7.14c0,4.44,2.86,7.14,6.4,7.14C156.22,229.77,159.08,227.08,159.08,222.64z"/>
            <path fill="#fff" d="M171.15,222.64c0-8.77,6.73-14.93,15.91-14.93c5.59,0,9.99,2.04,12.8,5.71l-6.08,5.42
						c-1.67-2.12-3.67-3.34-6.24-3.34c-4,0-6.69,2.77-6.69,7.14c0,4.36,2.69,7.14,6.69,7.14c2.57,0,4.57-1.22,6.24-3.34l6.08,5.42
						c-2.81,3.67-7.22,5.71-12.8,5.71C177.88,237.56,171.15,231.4,171.15,222.64z"/>
            <path fill="#fff" d="M214.26,227.45l-2.16,2.41v7.06h-9.46v-28.55h9.46v10.36l9.38-10.36h10.48l-11.42,12.56l11.99,15.99
						h-11.13L214.26,227.45z"/>
            <path fill="#fff" d="M257.57,229.65v7.26h-23.74v-28.55h23.2v7.26h-13.74v3.34h12.07v6.93h-12.07v3.75H257.57z"/>
            <path fill="#fff" d="M261.28,208.36h14.07c9.54,0,16.11,5.42,16.11,14.27c0,8.85-6.57,14.27-16.11,14.27h-14.07V208.36z
						 M274.94,229.4c4.04,0,6.81-2.41,6.81-6.77c0-4.36-2.77-6.77-6.81-6.77h-4.04v13.54H274.94z"/>
          </g>
        </g>
      </g>
      <g>
        <g>
          <path fill="#723192" d="M274.48,373.64h-90.69v-72.52c0-4.31,3.49-7.8,7.8-7.8h75.09c4.31,0,7.8,3.49,7.8,7.8V373.64z"/>
          <path fill="#4e266e" d="M203.54,293.31h-10.04v-20.58c0-19.65,15.98-35.63,35.63-35.63s35.63,15.98,35.63,35.63h-10.04
					c0-14.11-11.48-25.59-25.59-25.59c-14.11,0-25.59,11.48-25.59,25.59V293.31z"/>
          <path fill="#4e266e" d="M238.31,315.54c0-5.07-4.11-9.18-9.18-9.18c-5.07,0-9.18,4.11-9.18,9.18c0,2.82,1.3,5.31,3.3,6.99
					l-3.3,18.94h18.36l-3.3-18.94C237.02,320.85,238.31,318.36,238.31,315.54z"/>
        </g>
      </g>
      <g>
        <linearGradient id="d" x1="328.626" x2="631.511" y1="398.1" y2="398.1" gradientUnits="userSpaceOnUse">
          <stop offset="0" stop-color="#9dd0f1"/>
          <stop offset=".177" stop-color="#82b5e2"/>
          <stop offset=".385" stop-color="#6c9ed4"/>
          <stop offset=".593" stop-color="#5c8eca"/>
          <stop offset=".798" stop-color="#5286c5"/>
          <stop offset="1" stop-color="#4f83c3"/>
        </linearGradient>
        <path fill="url(#d)" d="
				M500.09,245.52c0,0,67.68,20.13,101.53,46.06c33.84,25.93,32.77,190.89,26.32,259.11H380.3c0,0-9.13-90.2-5.37-127.8l-46.31-1.29
				c0,0,21.48-115.81,32.76-127.09c11.28-11.28,75.85-33.41,75.85-33.41L500.09,245.52z"/>
        <g>
          <path fill="#f47954" d="M374.93,422.89l-46.31-1.29l-5.51,51.43
					l-101.08,33.55v24.07l156.15-4.32C375.74,497.28,372.39,448.32,374.93,422.89z"/>
        </g>
        <path fill="#f8a180" d="M520.81,425.54l-11.71,58.33l-105.06,10.11l-40.59,1c-10.14,0.15-16.54,2.25-21.05,6.76
				l-14.79,18.2c-0.92,1.13-1.45,2.52-1.51,3.98c-0.2,4.64-0.16,14.69,3.89,14.69c5.36,0,5.76-8.45,5.68-12.19
				c-0.03-1.2,0.29-2.38,0.91-3.42l1.58-2.64c0,0-2.36,19.62,4.99,19.62c5.18,0,6.12-12.46,6.28-17.64
				c0.05-1.45,0.63-2.83,1.64-3.87l6.19-6.38l-3.71,5.57c-0.75,1.12-1.18,2.41-1.25,3.76c-0.27,5.25-0.49,18.56,4.33,18.56
				c5.37,0,7.28-9.5,7.91-14.38c0.24-1.9,1.19-3.63,2.63-4.89l4.54-3.97c0,0-3.1,5.34-3.61,7.92c-0.52,2.58-0.86,15.32,5.51,15.32
				c5.02,0,5.93-11.8,5.93-11.8c1.24-0.48,4.52-1.82,5.77-2.42c4.77-2.29,11.75-2.82,16.63-1.58c14.91,3.81,28.64,6.45,28.64,6.45
				s96.09,21.78,117.38,14.37c21.29-7.4,55.17-90.28,55.17-90.28L520.81,425.54z"/>
        <g>
          <path fill="#eaae94" d="M371.73,516.75c2.65-3.14,5.55-6.04,8.69-8.7C377.76,511.19,374.86,514.09,371.73,516.75L371.73,516.75z"/>
        </g>
        <g>
          <path fill="#eaae94" d="M357.27,512.1c2.61-2.95,5.45-5.66,8.53-8.11C363.19,506.94,360.35,509.64,357.27,512.1L357.27,512.1z"/>
        </g>
        <g>
          <path fill="#eaae94" d="M338.16,520.36c3.69-5.27,7.64-10.33,11.86-15.18C346.34,510.45,342.38,515.51,338.16,520.36
					L338.16,520.36z"/>
        </g>
        <linearGradient id="e" x1="520.41" x2="615.947" y1="403.81" y2="403.81" gradientUnits="userSpaceOnUse">
          <stop offset="0" stop-color="#9dd0f1"/>
          <stop offset=".177" stop-color="#82b5e2"/>
          <stop offset=".385" stop-color="#6c9ed4"/>
          <stop offset=".593" stop-color="#5c8eca"/>
          <stop offset=".798" stop-color="#5286c5"/>
          <stop offset="1" stop-color="#4f83c3"/>
        </linearGradient>
        <path fill="url(#e)" d="M603.15,455.13
				c-0.04,0-0.09-0.01-0.13-0.02l-82.34-29.19c-0.18-0.07-0.29-0.26-0.26-0.45l13.89-72.65c0.04-0.22,0.25-0.36,0.46-0.32
				c0.22,0.04,0.36,0.25,0.32,0.46l-13.83,72.31l81.65,28.94l12.27-34.18c0.07-0.21,0.3-0.31,0.51-0.24
				c0.21,0.07,0.31,0.3,0.24,0.51l-12.4,34.55C603.46,455.03,603.31,455.13,603.15,455.13z"/>
        <linearGradient id="f" x1="374.535" x2="383.53" y1="387.29" y2="387.29" gradientUnits="userSpaceOnUse">
          <stop offset="0" stop-color="#9dd0f1"/>
          <stop offset=".177" stop-color="#82b5e2"/>
          <stop offset=".385" stop-color="#6c9ed4"/>
          <stop offset=".593" stop-color="#5c8eca"/>
          <stop offset=".798" stop-color="#5286c5"/>
          <stop offset="1" stop-color="#4f83c3"/>
        </linearGradient>
        <path fill="url(#f)" d="M374.93,423.28
				C374.93,423.28,374.93,423.28,374.93,423.28c-0.22,0-0.4-0.18-0.4-0.4c0-0.43,0.39-43.2,8.22-71.3c0.06-0.21,0.28-0.34,0.49-0.28
				c0.21,0.06,0.33,0.28,0.28,0.49c-7.8,28-8.18,70.66-8.19,71.09C375.33,423.11,375.15,423.28,374.93,423.28z"/>
        <g>
          <path fill="#f8a180" d="M500.09,245.52l-17.48-36.39c-1.36,24.82-11.69,44.68-29.43,51.52
					c-7.5,2.89-15.58,3.15-23.75,1.19c2.74,11.34,10.73,26.13,33.59,29.35C501.17,296.55,500.09,245.52,500.09,245.52z"/>
          <path fill="#f47954" d="M482.61,209.12c-1.36,24.82-11.69,44.68-29.43,51.52c-7.5,2.89-15.58,3.15-23.74,1.19
					c1.04,4.3,2.85,9.09,5.93,13.57c32.78,4.07,54.26-27.97,51.51-57.38L482.61,209.12z"/>
        </g>
        <g>
          <g>
            <g>
              <g>
                <path fill="#fcc7ad" d="M423.36,141.51
								c0.01,0,0.01,0.01,0.02,0.01l-0.01-0.01C423.37,141.51,423.37,141.51,423.36,141.51z"/>
                <path fill="#f8a180" d="M483.72,134.35
								c-4.47-1.31-9.11-0.73-13.38,1.25l-5.37,3.39c-5.37,5.88-4.53,26.32-4.01,34c0.12,1.82-0.82,3.53-2.42,4.41l0,0
								c-2.38,1.3-5.34,0.3-6.49-2.15c-10.01-21.46-28.66-33.72-28.66-33.72l-20.69,24.74c-6.53,7.8-16.57,11.69-26.66,10.4
								c-4.16-0.53-8.87-0.87-13.73-0.75c1.47,7.36,3.62,14.87,6.51,22.37c17.58,45.62,55.36,73.54,84.37,62.36
								c23.11-8.9,33.67-39.92,28.15-75.22c7-3.01,13.05-9.89,15.7-18.94C501.24,152.11,495.27,137.73,483.72,134.35z"/>
              </g>
            </g>
            <path fill="#423757" d="M470.42,135.55l-4.45-14.16l0,0
						c0,0-14.97-51.91-64.5-41.74c-36.27,7.45-40.79,40.41-41.43,58.5c0,0,0.08-0.1,0.23-0.27c-0.15,0.17-0.23,0.27-0.23,0.27
						l-25.11,42.63c-0.76,1.28,0.73,2.69,1.98,1.88c11.66-7.57,27.6-7.48,39.23-5.99c10.05,1.29,20.05-2.64,26.55-10.42l20.69-24.74
						c0,0,18.66,12.26,28.66,33.72c1.15,2.46,4.11,3.46,6.49,2.15l0,0c1.6-0.88,2.55-2.59,2.42-4.41c-0.52-7.68-1.36-28.12,4.01-34
						L470.42,135.55z"/>
          </g>
        </g>
      </g>
      <g>
        <g>
          <path fill="#723192" d="M781.65,589.5H51.47
					c-10.14,0-18.35-8.22-18.35-18.35v-2.11c0-10.14,8.22-18.35,18.35-18.35h730.17c10.14,0,18.35,8.22,18.35,18.35v2.11
					C800,581.28,791.78,589.5,781.65,589.5z"/>
          <path fill="#723192" d="M781.65,589.5H489.12c-10.14,0-18.35-8.22-18.35-18.35v-2.11
					c0-10.14,8.22-18.35,18.35-18.35h292.53c10.14,0,18.35,8.22,18.35,18.35v2.11C800,581.28,791.78,589.5,781.65,589.5z"/>
        </g>
        <g>
          <linearGradient id="g" x1="94.961" x2="296.506" y1="467.24" y2="467.24" gradientUnits="userSpaceOnUse">
            <stop offset="0" stop-color="#f37333"/>
            <stop offset=".162" stop-color="#f47633"/>
            <stop offset=".328" stop-color="#f47f35"/>
            <stop offset=".496" stop-color="#f58d37"/>
            <stop offset=".664" stop-color="#f7a13b"/>
            <stop offset=".832" stop-color="#fabb40"/>
            <stop offset="1" stop-color="#fedb46"/>
          </linearGradient>
          <path fill="url(#g)" d="M107.24,383.8h177
					c6.78,0,12.27,5.5,12.27,12.27v154.61H94.96V396.07C94.96,389.29,100.46,383.8,107.24,383.8z"/>
          <linearGradient id="h" x1="296.506" x2="431.922" y1="543.912" y2="543.912" gradientUnits="userSpaceOnUse">
            <stop offset="0" stop-color="#f37333"/>
            <stop offset=".162" stop-color="#f47633"/>
            <stop offset=".328" stop-color="#f47f35"/>
            <stop offset=".496" stop-color="#f58d37"/>
            <stop offset=".664" stop-color="#f7a13b"/>
            <stop offset=".832" stop-color="#fabb40"/>
            <stop offset="1" stop-color="#fedb46"/>
          </linearGradient>
          <path fill="url(#h)" d="M425.56,537.19H296.51
					v13.44h129.06c3.51,0,6.36-2.85,6.36-6.36v-0.73C431.92,540.04,429.08,537.19,425.56,537.19z"/>
          <circle cx="188.02" cy="467.24" r="28.93" fill="#ededee" transform="rotate(-76.626 188.016 467.229)"/>
        </g>
      </g>
      <g>
        <linearGradient id="i" x1="552.817" x2="739.994" y1="152.573" y2="152.573" gradientUnits="userSpaceOnUse">
          <stop offset="0" stop-color="#f37333"/>
          <stop offset=".162" stop-color="#f47633"/>
          <stop offset=".328" stop-color="#f47f35"/>
          <stop offset=".496" stop-color="#f58d37"/>
          <stop offset=".664" stop-color="#f7a13b"/>
          <stop offset=".832" stop-color="#fabb40"/>
          <stop offset="1" stop-color="#fedb46"/>
        </linearGradient>
        <rect width="187.18" height="125.04" x="552.82" y="90.05" fill="url(#i)"/>
        <path fill="#fed007" d="M622.04,76.94h-55.82c-3.06,0-5.87,1.38-7.29,3.59l-6.11,9.52h82.62l-6.11-9.52
				C627.91,78.33,625.1,76.94,622.04,76.94z"/>
      </g>
      <g>
        <path fill="#723192" d="M767.81,460.61h-83.78c-8.26,0-14.96-6.7-14.96-14.96V307.12c0-8.26,6.7-14.96,14.96-14.96h83.78
				c8.26,0,14.96,6.7,14.96,14.96v138.52C782.77,453.91,776.07,460.61,767.81,460.61z"/>
        <circle cx="725.92" cy="363.86" r="46.08" fill="#fff" transform="rotate(-13.432 725.788 363.808)"/>
        <path fill="#723192" d="M734.39,358.81c3.56-2.61,5.89-6.82,5.89-11.57c0-7.93-6.43-14.35-14.35-14.35s-14.35,6.43-14.35,14.35
				c0,4.76,2.32,8.96,5.89,11.57c-8.72,2.16-15.19,10.01-15.19,19.39v9.96h47.32v-9.96C749.58,368.82,743.11,360.97,734.39,358.81z"/>
        <g>
          <path fill="#fff" d="M704.99,433.06c0-3.15-2.55-5.71-5.71-5.71c-3.15,0-5.71,2.55-5.71,5.71c0,3.15,2.55,5.71,5.71,5.71
					C702.43,438.77,704.99,436.21,704.99,433.06z"/>
          <path fill="#fff" d="M731.62,433.06c0-3.15-2.55-5.71-5.71-5.71c-3.15,0-5.71,2.55-5.71,5.71c0,3.15,2.55,5.71,5.71,5.71
					C729.07,438.77,731.62,436.21,731.62,433.06z"/>
          <path fill="#fff" d="M758.26,433.06c0-3.15-2.55-5.71-5.71-5.71c-3.15,0-5.71,2.55-5.71,5.71c0,3.15,2.55,5.71,5.71,5.71
					C755.71,438.77,758.26,436.21,758.26,433.06z"/>
        </g>
      </g>
    </g>
  </g>
</svg>
