<svg xmlns="http://www.w3.org/2000/svg" viewBox="0 0 3800 3000" style="enable-background:new 0 0 3800 3000" xml:space="preserve"><style>.st3{opacity:.5}.st4{fill:#394ca4}.st5{fill:#e7edf7}.st6{fill:#7ac094}.st7{fill:#b8debf}.st8{fill:#5ca88d}.st9{opacity:.1;fill:#fff}.st10{fill:#28264a}.st11{fill:#fda7a8}.st12{fill:#202234}.st14{fill:#eab213}.st16{fill:#fff}.st17{opacity:.2;fill:#231f20}.st18{fill:#fcc61a}.st19,.st20{opacity:.1;fill:#231f20}.st20{fill:#201135}.st21{opacity:.05;fill:#33133f}.st23{fill:#44291f}.st24{opacity:.2;fill:#fff}.st25{fill:#e8ad80}.st33{fill:#ff97a6}.st37{fill:#22418a}.st41{fill:#eddaab}.st42{opacity:.49;fill:#f2faff}.st43{opacity:.15;fill:#202234}.st45{fill:#fbe034}.st46{fill:#ffc148}.st75{fill:#012f69}.st78{opacity:.05}.st79{fill:#33133f}</style><g id="Illustration"><path d="M429.29 2223.39c-94.93 56.64-212.78 21-50.03 168.04C542 2538.46 615.5 2489.45 825.49 2678.5s57.75 140.03 666.73 196.05c608.98 56.01 582.73-182.04 1013.21-63.02 430.48 119.03 267.74-385.09 482.98-392.09s435.73 28.01 362.24-119.03c-73.5-147.04-2545.83-301.08-2921.36-77.02z" style="fill:#c8d9fb"/><g class="st3"><path class="st4" d="M374.46 2176.11c-77.18 46.05-107.11 166.45 64.39 153.82 312.99-23.05 341.04 257.57 432.7 278.77 223.8 51.78 123.94-95.36 619.03-49.83 495.09 45.54 463.82-47.61 820.39 14.31 516.15 89.63 503.27-91.73 600.99-119.24 169.5-47.73 72.27-33.08 12.52-152.62-59.76-119.53-2244.73-307.36-2550.02-125.21z"/></g><path class="st5" d="M310.01 2245.18h2780.17s415.47-415.47 116.49-776.58-613.5-229.09-978.5-644.57-512.55-722.22-1063.92-706.69C612.88 132.88-148.18 940.52 310.01 2245.18z"/><path class="st5" d="M2735.63 493.68c-113.46-69.93-186.41-197.23-307.68-252.51-83.62-47.14-436.06-99.14-316.35 82.79 161.4 245.27 5.36 492.09 371.76 658 227.03 93.97 748.5 228.92 785.63-133.12-47.75-234.71-359.33-249.82-533.36-355.16z"/><path class="st6" d="M405.92 2193.61s22.26-161.61-22.07-145.66c-44.33 15.95-23.98 80.72 22.07 145.66z"/><path class="st7" d="M408.85 2192.05s-90.65-159.42-153.19-104.6c-62.54 54.81 153.19 104.6 153.19 104.6z"/><path class="st8" d="M281.29 2279.87h782.59l-11.22-39.12-26.4-92.66c-18.7-65.41-83.68-106.34-150.8-94.91l-33.88 5.88a44.9 44.9 0 0 1-7.48.64c-14.96 0-29.18-7.48-37.62-20.2-58.14-87.21-189.6-76.42-232.78 19.13l-5.77 12.82c-10.18 22.63-36.76 32.74-59.41 22.61l-33.79-15.12c-19.77-8.87-41.79-2.24-53.97 13.36-4.49 5.66-7.7 12.5-8.98 20.2l-5.02 29.29c-1.28 7.27-4.06 13.68-8.02 19.03-.75.96-1.5 1.92-2.24 2.78a45.255 45.255 0 0 1-26.29 14.96c-2.56.54-5.34.75-8.02.75-8.48 0-17.07-2.32-24.87-7.53-17.6-11.75-41.18-8.82-56.14 6.14l-22.7 22.7c-29.27 29.23-8.55 79.25 32.81 79.25z"/><path class="st9" d="M350.36 2279.87h713.52l-11.22-39.12c-35.27-31.64-84.01-47.13-133.6-38.58l-26.4 4.49-14.22 2.35c-3.1.53-6.2.75-9.19.75-6.63 0-13.15-1.17-19.24-3.52-10.26-3.95-19.24-10.91-25.65-20.52-8.98-13.57-19.56-25.12-31.1-34.63-4.49-3.85-9.08-7.26-13.89-10.37-25.97-17.2-55.79-25.75-85.72-26.08-17.53-.32-34.95 2.24-51.62 7.69-40.5 12.83-76.42 42-96.4 86.36l-6.95 15.18c-12.29 27.26-44.24 39.33-71.39 27.15l-20.52-9.19-19.77-8.87c-8.98-4.06-18.39-5.34-27.36-4.49-23.3 2.24-43.82 19.56-48.1 44.67l-1.18 6.73z"/><path class="st6" d="M898.75 2142.02c0 6.78 5.45 12.27 12.17 12.27s12.17-5.49 12.17-12.27c0-6.77-5.45-12.27-12.17-12.27-6.73.01-12.17 5.5-12.17 12.27z"/><path class="st7" d="M478.91 2200.53c0 6.25 5.07 11.32 11.32 11.32s11.32-5.07 11.32-11.32-5.07-11.32-11.32-11.32-11.32 5.07-11.32 11.32zM634.97 2070.55c0 14.18 11.49 25.67 25.67 25.67 14.18 0 25.67-11.49 25.67-25.67s-11.49-25.67-25.67-25.67c-14.18-.01-25.67 11.49-25.67 25.67z"/><path class="st6" d="M726.75 2277.7s101.37-127.82 55.1-136.63c-46.28-8.82-61.71 57.3-55.1 136.63z"/><path class="st7" d="M726.75 2277.7s-63.91-171.89-134.43-127.82c-70.52 44.08 134.43 127.82 134.43 127.82zM726.75 2277.7s235.8-28.65 176.3-66.11c-59.5-37.47-176.3 66.11-176.3 66.11z"/><path class="st10" d="M3261.35 2240.98s6.11-24.28-6.8-42.41c-12.91-18.13-37.89-32.65-37.89-32.65l-40.63 20.32s-12.38 9.24 1.79 30.85c0 0-85.43 42.17-86.48 71.69-1.29 36.12 40.03 16.91 40.03 16.91s97.58-26.12 129.98-64.71z"/><path class="st9" d="M3192.52 2234.36s-81.34 19.26-80.45 46.34c.9 27.07 80.45-46.34 80.45-46.34z"/><path class="st11" d="M3081.99 1879.81s-51.59-20.43-57.98 26.36c-6.38 46.79 155.97 292.89 155.97 292.89s33.81 31.11 42.86-11.23c.01 0-94.4-257.88-140.85-308.02z"/><path class="st12" d="M3281.17 1361.53s-79.08-112.28-170.61-57.91c0 0-190.39 376.83-176.22 485.15 14.42 110.29 223.84 379.38 223.84 379.38s14.38 12.11 38.03-1.27c22.9-12.95 18.01-36.74 18.01-36.74l-91.93-308.25s98.49-191.66 182.6-321.05c70.23-108.02-15.92-52.32-23.72-139.31z"/><path style="opacity:.6;fill:#231f20" d="m3215.5 1359.62-93.2 462.28 205.32-419.99z"/><path class="st11" d="M3032.96 1007.86c53.53 11.1 88.11 49.66 39.87 79.71-111.23 69.28-286.3 172.22-286.3 172.22l-15.73-42.43s208.62-220.6 262.16-209.5z"/><path class="st11" d="M3267.61 704.37c2.97 131.46-148.25 392.76-203.68 375.74-35.01-10.74-55.91-32.91-41.49-93.5 23.81-100.07 51.62-169.12 87.21-235.1 21.58-39.99 154.59-196.55 157.96-47.14z"/><path class="st14" d="M3054.76 831.19s27.74 13.7 60.5 28.41c38.92 17.42 84.97 36.2 100.25 34.82 0 0 109.66-181.02 61.11-258.96-11.57-18.42-.29-39.56-14.25-36.36-54.02 12.39-131.76 97.69-148.03 123.04-22.71 35.52-59.58 109.05-59.58 109.05z"/><path class="st10" d="M3478.44 2424.76s11.02-22.48 2.15-42.9c-8.87-20.42-30.29-39.8-30.29-39.8l-43.96 11.45s-14.03 6.47-4.65 30.55c0 0-92.32 23.52-99.48 52.18-8.75 35.07 35.65 24.85 35.65 24.85s100.88-5.31 140.58-36.33z"/><path class="st9" d="M3412.48 2404s-83.56 1.95-88.31 28.63 88.31-28.63 88.31-28.63z"/><path class="st11" d="M3433.19 2030.01s-40.74-37.69-63.58 3.64c-22.85 41.32 39.65 329.45 39.65 329.45s20.61 12.53 42.52-.75c-.01 0 6.61-268.81-18.59-332.34z"/><path d="M3513.1 1353.81s-261.11-160.23-352.64-105.87l105.07 647.93 126.6 436.09s-5.72 9.75 32.9 10.77c32.27.85 40.64-15.14 40.64-15.14l-21.64-465.98s-2.41-146.18 17.86-275.16c20.28-128.97 59.02-145.65 51.21-232.64z" style="fill:#373756"/><path class="st16" d="m3490.39 658.28-38.21-42.76s-130.59-68.1-228.45 5.55c-97.94 73.69-77.04 171.75-77.04 171.75s25.47 184.62-11.04 230.49c-56.44 70.93-107.39 244.24-46.61 312.88 58.82 66.42 312.11 112.14 383.34-7.24 71.3-119.34-9.24-330.93-9.24-330.93l27.25-339.74z"/><path class="st17" d="M3376.91 658.94s-46.54 290.21-75.14 381.09 49.68 289.36 37.76 325.62c-11.91 36.26-54.57 38.03-54.57 38.03s145.65 79.73 190.59 11.76c44.95-67.97-98.64-756.5-98.64-756.5z"/><path class="st18" d="M3404.33 1447.53s239.75-10.86 212.72-58.98c-34.65-61.76-57.92-125.91-73.19-188.22-25.89-106-28.55-206.74-24.58-281.76 4.23-77.64 15.5-127.82 15.5-127.82s33.39-175.69-146.56-197.92c-.01 0-104.16 520.12 16.11 854.7zM3265.2 599.15s-55.36 40.72-58.68 90.16c-20.25 301.84-141.15 461.06-62.67 682.82 0 0-72.56 3.78-108.54-9.63-33.3-95.62 58.62-509.25 58.62-509.25s29.69-219.87 171.27-254.1z"/><path class="st19" d="M3189.24 977.68s-11 115.75-35.45 155.84c-24.45 40.09-18.5 142.13 14.33 151.65 32.83 9.52 68.48-31.54 49.8-84.43-18.69-52.89-16.89-98.3-16.12-162.45.79-64.16-12.56-60.61-12.56-60.61z"/><path class="st17" d="M3410.14 907.79c35.74 39.61 57.5 34.17 57.5 34.17l18.56 134.91-5.02 177.36s-57.6 46.83-41.58 63.51c16.02 16.77 58.17 57.04 58.17 57.04l46.1-174.45c-25.89-106-28.55-206.74-24.58-281.76l-39.37-130.19-75.48-51.92s-30.13 131.72 5.7 171.33z"/><path class="st11" d="M3549.6 1020.25c43.66-26.05 91.59-21.38 77.43 29.54-32.64 117.4-92.35 320.23-92.35 320.23l-38.05-13.95c.01 0 9.32-309.76 52.97-335.82z"/><path class="st11" d="M3550.56 739.36c26.1 40.03 114.37 287.72 65.7 310.92-30.74 14.66-59 12.61-87.22-37.97-46.61-83.52-90.18-229.02-107.28-296.6-10.37-40.97 52.89-92.76 128.8 23.65z"/><path class="st14" d="M3453.45 885.52s27.62-8.06 59.31-18.59c37.61-12.54 80.97-28.62 90.57-39.18 0 0-38.69-192.96-120.97-215.82-19.5-5.34-34.52-3.32-45.95 3.53-36.88 22.11-36.81 93.42-32.01 121.01 6.78 38.62 49.05 149.05 49.05 149.05z"/><path class="st18" d="M3512.76 866.93c37.61-12.54 80.97-28.62 90.57-39.18 0 0-38.69-192.96-120.97-215.82-19.5-5.34-34.52-3.32-45.95 3.53-14.24 46.49 1.3 111.2 12.88 139.17 10.43 25.1 38.29 71.92 63.47 112.3z"/><path class="st20" d="M3263.95 651.81c.89 24.04 25.69 36.45 55.39 27.72s53.06-35.29 52.17-59.33c-.89-24.04-25.69-36.45-55.39-27.72-29.71 8.72-53.06 35.29-52.17 59.33z"/><path class="st17" d="M3274.9 640.88c.77 20.81 22.24 31.55 47.94 23.99s45.92-30.54 45.15-51.35c-.77-20.81-22.24-31.55-47.94-23.99s-45.92 30.55-45.15 51.35z"/><path class="st11" d="M3290.98 635.92c13.9 9.02 52.62-11.21 61.2-25.38 2.49-4.11-.72-8.14-1.75-19.16-2.08-23-5.32-58.57-5.35-59.51l-56.06 30.67 1.02 37.97c.01 0-6.49 30.59.94 35.41z"/><path class="st20" d="m3290.05 600.51.27.69s6.27-5.66 19-10.53c12.76-4.91 40.82 3.09 40.82 3.09l.3-2.37c-2.08-23-5.32-58.57-5.35-59.51l-56.06 30.67 1.02 37.96z"/><path class="st12" d="M3247.81 397.65s-27.54 44.84-5.58 78.35c21.96 33.52 101.71 74.73 101.71 74.73s72.78-29.34 64.83-118.78c-1.74-19.48-8.66-80.45-73.92-81.13-54.82-.56-87.04 46.83-87.04 46.83z"/><path class="st11" d="M3271.01 575.41c52.67 5.57 94.17-25.72 109.04-57.44 1.11-2.36 1.95-5.44 2.59-9.01 16.49-2.02 33.8-27.29 24.65-43.76-6.65-11.94-17.77-8.33-24.22-4.75-1.81-24.29-5.18-46.29-5.18-46.29-5.27-29.92-129.99-25.77-133.26 4.43 0 0-5.14 32.53-6.32 69.85-.27 7.89-.35 16-.14 24 .79 35.17-2.27 59.27 32.84 62.97z"/><path class="st20" d="M3400.1 478.47c-1.11-13.68-8.45-7.28-6.26-14.16 0 0 5.02-3.43 9.14 2.87 2.85 4.35 1.1 24.69-10.46 30.39 0 0 8.68-5.42 7.58-19.1z"/><path class="st12" d="M3384.76 459.34s-1.13 25.95-7.3 20.18c-6.17-5.78-17.61-49.92-9.4-62.82 0 0-77.4 30.49-120.16 3.33-1.98-1.26-8.99 49.47-9.05 47.48-.07-1.99-4.6-58.32 14.9-71.6 19.49-13.27 107.24-12.21 122.78-4.75 15.51 7.46 8.23 68.18 8.23 68.18z"/><path class="st21" d="M3329.64 510.91c.77 4.26-3.84 8.65-10.28 9.81-6.44 1.16-12.29-1.35-13.05-5.61-.77-4.26 3.83-8.65 10.28-9.81 6.44-1.16 12.28 1.35 13.05 5.61zM3262.72 513.59c.77 4.26-3.83 8.65-10.28 9.81-6.45 1.16-12.29-1.35-13.06-5.61-.77-4.26 3.84-8.65 10.28-9.81 6.45-1.16 12.29 1.35 13.06 5.61z"/><path class="st12" d="M3280.67 516.06c-2.98.03-5.45-.99-5.63-1.06a1.806 1.806 0 0 1 1.4-3.33c.05.02 5.29 2.15 8.35-.73a1.82 1.82 0 0 1 2.55.08c.68.72.65 1.87-.08 2.55-2 1.89-4.42 2.46-6.59 2.49zM3262.97 537.71s15.17-1.53 30.25-1.67c0 0-20.64 30.3-30.25 1.67z"/><path class="st16" d="M3262.97 537.71s.93 3.96 1.63 4.17c.7.21 20.79-.6 26.5-3.13l2.13-2.71c-.01 0-14.61-1.35-30.26 1.67z"/><path d="M3269.11 548.1s3.29-3.41 7.25-3.4c3.97.01 7.1 1.69 7.1 1.69s-6.99 7.47-14.35 1.71z" style="fill:#de5d36"/><path class="st12" d="M3268.77 470.37c-.21 0-.42-.03-.63-.11-.15-.05-14.94-5.29-26.06-4.8h-.06c-.97.01-1.78-.75-1.82-1.73-.04-1 .73-1.84 1.72-1.88 11.89-.44 26.8 4.78 27.43 5.01a1.8 1.8 0 0 1 1.09 2.31c-.25.73-.93 1.19-1.67 1.2zM3308.29 466.29c-.73.01-1.43-.44-1.71-1.16-.35-.93.11-1.97 1.04-2.33.62-.24 15.4-5.85 27.31-5.61 1 .02 1.79.85 1.77 1.84-.03.99-.89 1.81-1.84 1.77-11.19-.28-25.8 5.32-25.95 5.37a2 2 0 0 1-.62.12z"/><path class="st23" d="M3256.47 482.52c-2.94.03-5.29 2.67-5.25 5.9.03 3.23 2.45 5.81 5.38 5.78 2.94-.03 5.29-2.67 5.25-5.9-.03-3.22-2.44-5.81-5.38-5.78zM3320.85 478.17c-2.93.03-5.29 2.67-5.25 5.9.04 3.22 2.45 5.81 5.38 5.78 2.94-.03 5.29-2.67 5.25-5.9-.03-3.22-2.44-5.81-5.38-5.78z"/><path class="st12" d="m3375.47 468.49-34.64 7.17c-2.39-8.64-10.31-14.98-19.7-14.87-10.8.12-19.44 8.68-19.92 19.34-10.88-2.35-21.41.33-25.32 1.55-1.77-9.49-10.09-16.63-20.07-16.52-11.19.12-20.19 9.28-20.06 20.47.12 11.19 9.32 20.18 20.51 20.06 11.13-.12 20.04-9.22 20.01-20.34 2.83-.94 14.06-4.21 25.13-1.47 1.4 9.93 9.89 17.56 20.18 17.44 11.19-.12 20.18-9.32 20.06-20.5-.01-.55-.13-1.06-.18-1.6l34.75-7.19c.98-.2 1.61-1.16 1.4-2.13-.22-.99-1.19-1.63-2.15-1.41zm-103.05 16.72c.1 9.06-7.15 16.5-16.2 16.6-9.06.1-16.5-7.18-16.6-16.24-.1-9.06 7.18-16.47 16.24-16.57 9.06-.09 16.46 7.15 16.56 16.21zm65.35-4.36c.1 9.06-7.18 16.5-16.24 16.6-9.06.1-16.47-7.18-16.57-16.24-.1-9.06 7.15-16.47 16.21-16.57 9.06-.09 16.5 7.15 16.6 16.21z"/><path class="st11" d="M2781.41 1279.91c3.11-3.1 5.74-6.44 7.95-9.71 6.8-10.09 9.49-19.63 9.49-19.63l78.33-46.48c-5.95-16.6-21.8-35.01-24.69-38 0 0-68.11 49.2-83.69 47.34-.14.01-.3-.02-.43-.05-3.2-1.75-9.12-1.76-15.57-.57a70.01 70.01 0 0 0-13.38 3.96c-10.36 4.28-36.04-12.58-39.41-6.53-3.35 6.07 8.91 19.88 18.19 20.67 9.26.81 8.44 9.1 1 13.93-11.47 7.46-72.18 30.43-68.29 39.1 3.89 8.66 63.95-14.32 63.95-14.32s-63.7 37.49-55.54 43.88c8.15 6.37 65.79-29.6 65.79-29.6s-44.06 31.04-40.65 40.02c3.39 8.99 54.94-25.52 54.94-25.52s-28.26 26.19-24.6 34.04c3.65 7.84 53.88-39.89 66.61-52.53z"/><path class="st19" d="M2781.1 1218.58c5.84 2.53 9.97 7.84 12.59 13.5 2.6 5.61 3.96 12.12 2.75 18.26-.36 1.82-1 3.49-1.79 5.09.16-1 .29-1.98.32-2.93.41-11.6-10.96-17.54-10.96-17.54.09-2.71-5.23-11.85-11.59-18.28 2.94.39 5.92.71 8.68 1.9z"/><path class="st24" d="M2781.41 1279.91c3.11-3.1 5.74-6.44 7.95-9.71 2.74-5.39 5.43-12.09 5.62-17.7.41-11.6-10.96-17.54-10.96-17.54.11-3.21-7.41-15.51-15.23-21.55-.14.01-.3-.02-.43-.05-3.2-1.75-9.12-1.76-15.57-.57a70.01 70.01 0 0 0-13.38 3.96c-10.36 4.28-36.04-12.58-39.41-6.53-3.35 6.07 8.91 19.88 18.19 20.67 9.26.81 8.44 9.1 1 13.93-11.47 7.46-72.18 30.43-68.29 39.1 3.89 8.66 63.95-14.32 63.95-14.32s-63.7 37.49-55.54 43.88c8.15 6.37 65.79-29.6 65.79-29.6s-44.06 31.04-40.65 40.02c3.39 8.99 54.94-25.52 54.94-25.52s-28.26 26.19-24.6 34.04c3.66 7.86 53.89-39.87 66.62-52.51z"/><path class="st25" d="M2744.35 1300.26c-3.18-2.35-6.29-4.75-9.26-7.31-2.95-2.56-5.85-5.22-8.17-8.29-2.4-3.06-4.55-6.36-6.61-9.68-2.04-3.34-3.95-6.77-5.49-10.41.96 3.85 2.63 7.48 4.49 10.98 1.87 3.51 4.06 6.81 6.42 10.03 2.51 3.17 5.49 5.85 8.62 8.28 3.16 2.41 6.48 4.59 10 6.4z"/><path class="st11" d="M3454.8 1446.99c3.26-11.85 6.7-22.28 9.28-27.35 1.99-3.92 4.34-7.46 6.77-10.57 2.09-2.67 4.22-5.01 6.23-7.02 5.19-5.23 9.49-8.09 9.49-8.09l19.91-88.88c17.63.51 40.04 9.88 43.79 11.69 0 0-25.66 80.01-19.06 94.25.03.13.11.28.18.39.14.16.32.33.49.51 2.38 2.7 4.07 8.01 4.88 14.12.59 4.48.72 9.38.38 13.95-.85 11.18 23.13 30.37 18.43 35.44-4.74 5.06-21.67-2.31-25.29-10.89-3.64-8.55-11.27-5.2-13.56 3.37l-.72 2.69c-4.57 17.11-18.97 69.98-27.9 69.04-5.82-.61-2.06-23.14 1.7-40.41-5.37 20.94-14.16 50.68-19.79 46.89-4.33-2.91.84-34 3.9-51.32-3.18 11.68-10.33 34.56-14.36 33.58-8.7-2.14-3.5-26.44 1-42.57-3.33 9.42-8.15 19.85-12.96 19.29-5.86-.72.19-32.76 7.21-58.11z"/><path class="st19" d="M3483.23 1399.43c1.3-1.22 2.67-2.36 4.29-3.27 5.45-3.03 12.07-3.76 18.2-3.04 6.19.75 12.54 3.01 16.75 7.8 1.76 1.97 2.9 4.28 4.02 6.65-8.99-5.28-20.49-4.35-20.49-4.35-8.02-3.55-15.54-4.71-22.07-3.48-.37-.25-.62-.35-.7-.31z"/><path class="st24" d="M3457.85 1447.38c-1.91-4.42 3.66-22.67 6.23-27.74 1.99-3.92 4.34-7.46 6.77-10.57 2.09-2.67 4.22-5.01 6.23-7.02 2.12-1.13 4.42-1.89 6.85-2.31 6.53-1.23 14.06-.07 22.07 3.48 0 0 11.5-.94 20.49 4.35 1.77 1.01 3.44 2.26 4.9 3.85.14.16.32.33.49.51 2.38 2.7 4.07 8.01 4.88 14.12.59 4.48.72 9.38.38 13.95-.85 11.18 23.13 30.37 18.43 35.44-4.74 5.06-21.67-2.31-25.29-10.89-3.64-8.55-9.08-4.98-15.8.82-5.82 5.03-16.85 5.6-31.14.68-15.2-5.19-22.33-15.14-25.49-18.67z"/><path class="st25" d="M3467.73 1458.46c-.07.08-.16.14-.19.25l-6.89 26.48 8.28-25.87c.61.43 1.18.89 1.8 1.3 2.84 1.86 5.83 3.55 9 4.91-.01.02-.03.03-.03.05l-5.25 26.85 6.68-26.33c.26.1.51.22.78.32 4.01 1.3 8.04 2.42 12.17 3.16.78.14 1.56.26 2.34.38-.01.03-.04.04-.04.07l-5.25 26.85 6.73-26.52c0-.01.01-.03.01-.04.01-.06-.03-.1-.03-.16 2.89.39 5.81.61 8.71.45-4.14-.38-8.21-1.19-12.23-2.16-4.01-.99-8.02-2.07-11.89-3.46-3.85-1.31-7.48-3.3-11.03-5.37-3.55-2.08-7-4.35-10.42-6.7 2.1 2.01 4.39 3.81 6.75 5.54z"/><radialGradient id="SVGID_2_" cx="1172.191" cy="2684.086" r="1137.301" gradientUnits="userSpaceOnUse"><stop offset="0" style="stop-color:#0272b0"/><stop offset=".055" style="stop-color:#026daa"/><stop offset=".544" style="stop-color:#01407b"/><stop offset=".788" style="stop-color:#012f69"/></radialGradient><path d="m968.85 2441.3-309.08-109.31-2.76 3.84s337.57 172.5 358.63 170.37c.93-.09-46.79-64.9-46.79-64.9z" style="fill:url(#SVGID_2_)"/><radialGradient id="SVGID_3_" cx="1589.523" cy="1542.905" r="1004.674" gradientUnits="userSpaceOnUse"><stop offset="0" style="stop-color:#0272b0"/><stop offset=".055" style="stop-color:#026daa"/><stop offset=".544" style="stop-color:#01407b"/><stop offset=".788" style="stop-color:#012f69"/></radialGradient><path d="M2743.68 2296.1c-19.06 26.74-47.28 42.08-77.24 42.08H663.71c-21.04 0-21.78-40.1-30.7-95.31L413.93 886.02c-5.69-34.41 2.23-69.32 21.29-96.3 19.31-26.73 47.53-42.08 77.48-42.08h1934.65c48.27 0 89.86 40.11 98.78 95.31l73.28 454.02 87.64 543.39 58.17 359.45c5.44 34.4-2.23 69.3-21.54 96.29z" style="fill:url(#SVGID_3_)"/><path d="M512.67 805.11h1934.58c24.58 0 45.67 20.33 50.19 48.38l206.19 1276.12c5.9 36.49-18.22 70.23-50.19 70.23H718.85c-24.58 0-45.66-20.33-50.19-48.37L462.48 875.34c-5.9-36.49 18.21-70.23 50.19-70.23z" style="fill:#0f1a68"/><linearGradient id="SVGID_4_" gradientUnits="userSpaceOnUse" x1="486.353" y1="1502.472" x2="2679.751" y2="1502.472"><stop offset="0" style="stop-color:#b0b0ff"/><stop offset="1" style="stop-color:#fff"/></linearGradient><path d="M2653.44 2171.08c7.86 0 15.23-4.03 20.25-11.05 5.02-7 7.06-16.17 5.61-25.13L2473.1 858.78c-2.34-14.45-13.2-24.92-25.86-24.92H512.67c-7.84 0-15.23 4.03-20.24 11.03-5.01 7.02-7.07 16.18-5.62 25.16l206.18 1276.12c2.33 14.43 13.2 24.91 25.86 24.91h1934.59z" style="fill:url(#SVGID_4_)"/><radialGradient id="SVGID_5_" cx="1179.347" cy="2895.147" r="1027.854" gradientUnits="userSpaceOnUse"><stop offset="0" style="stop-color:#0272b0"/><stop offset=".055" style="stop-color:#026daa"/><stop offset=".544" style="stop-color:#01407b"/><stop offset=".788" style="stop-color:#012f69"/></radialGradient><path d="M970.77 2507.91h2369.86c1.06 0 1.92-.86 1.92-1.92v-64.68H968.85v64.68c0 1.06.86 1.92 1.92 1.92z" style="fill:url(#SVGID_5_)"/><path class="st4" d="m3342.55 2441.3-636.72-109.31H656.74l311.74 109.52z"/><linearGradient id="SVGID_6_" gradientUnits="userSpaceOnUse" x1="1238.113" y1="2023.371" x2="3972.194" y2="3279.058"><stop offset="0" style="stop-color:#fff;stop-opacity:.92"/><stop offset=".064" style="stop-color:#f6f7fc;stop-opacity:.8785"/><stop offset=".17" style="stop-color:#dce3f4;stop-opacity:.8095"/><stop offset=".305" style="stop-color:#b3c1e7;stop-opacity:.7215"/><stop offset=".464" style="stop-color:#7993d5;stop-opacity:.618"/><stop offset=".642" style="stop-color:#3158be;stop-opacity:.5026"/><stop offset=".646" style="stop-color:#2f57bd;stop-opacity:.5"/></linearGradient><path style="opacity:.5;fill:url(#SVGID_6_)" d="m3044.72 2413.23-436.5-53.06H1013.71l202.4 53.16z"/><path d="M2693.48 1845.86s9.72-65.16-34.53-86.14c-44.25-20.98-52.62 9.75-52.62 9.75s56.19 39.4 60.87 54.95c4.68 15.56 13.9 34.13 26.28 21.44z" style="fill:#f492a6"/><path class="st33" d="M2711.98 1853.29s9.72-65.17-34.53-86.15c-44.25-20.98-52.63 9.76-52.63 9.76s56.19 39.4 60.88 54.95c4.68 15.55 13.9 34.12 26.28 21.44z"/><path d="M2731.49 1852.65s9.72-65.16-34.53-86.14c-44.25-20.98-52.63 9.75-52.63 9.75s56.19 39.4 60.88 54.95c4.68 15.56 13.9 34.13 26.28 21.44z" style="fill:#e8829b"/><path class="st33" d="M2475.42 1793.6s7.16-42.66 19.99-57.01c0 0 66.91 26.26 89.71 24.44 22.8-1.82 56.49-30.41 102.76-20.19 24.64 5.44 50.93 13.13 61.84 26.21 11.29 13.53 26.22 56.67 18.75 64.45-7.47 7.78-22.81-17.81-33.16-32.23-10.35-14.42-28.55-22.95-46.74-21.66-18.2 1.29-25.59 25.15-25.59 25.15s47.27 6.63 48.93 16.9c1.66 10.27-23.93 5.97-49.45 7.94-25.52 1.97-68.33 11.73-81.55-5.26-13.21-16.98-105.49-28.74-105.49-28.74z"/><path class="st24" d="M2696.37 1824.27c-.2-.07-2.62-7.85 1.61-8.63 4.23-.78 13.24 3.83 10.9 5.57-2.34 1.74-7.97 4.67-12.51 3.06zM2766.95 1831.56c-.38.09-2.22-9.86-1.12-12.69 1.1-2.82 3.01-2.67 3.01-2.67s2.89 14.21-1.89 15.36z"/><path class="st18" d="M1919.85 903.78c209.87 133.55 238.16 613.69 238.16 613.69L2562 1750.96l-24.04 60.78s-619.84-127.7-711.04-246.06c-91.2-118.36-283.88-695.29-283.88-695.29s272.88-32.74 376.81 33.39z"/><path class="st14" d="M979.24 2188.66h1067.02s107.3-908.07-126.42-1203.79c-152.79-193.33-363.14-247.11-695.18-142.44-332.04 104.66-25.26 1064.71-245.42 1346.23z"/><path d="M1445.59 2179.45c-30.14-8.1-63.9-18.75-85.58-42.52-14.73-16.15-21.84-38.52-26.12-59.53-4.48-21.97-6.06-44.09-1.94-66.22 6.39-34.36 24.5-63.98 51.03-86.51 25.67-21.79 56.01-36.96 85.01-53.7 30.28-17.47 60.27-37.27 81.03-66.01 17.09-23.66 34.81-56.71 12.75-82.95-19.46-23.15-52.97-33.33-80.58-42.59-31.53-10.58-63.61-19.55-93.07-35.3-67.99-36.34-123.14-91.85-164.63-156.39-43.38-67.49-72.55-143.37-94.58-220.21-21.2-73.95-35.86-149.58-48.48-225.42-71.52 323.86 66.54 932.08-101.19 1146.55h506.36c-13.43-2.65-26.79-5.65-40.01-9.2z" style="opacity:.5;fill:#50c0e0"/><path d="m1484.3 1333.5 196.98 362.7c10.41 19.16 2.16 43.63-18.32 54.79l-387.86 211.53-267.02 145.59c-20.69 11.28-45.75 4.85-56.21-14.4l-198.11-364.78c-10.47-19.28-2.31-43.98 18.41-55.19l393.93-213.06 58.96-31.9 203.22-109.9c20.52-11.1 45.62-4.54 56.02 14.62z" style="fill:#5f98ed"/><path class="st37" d="m931.65 2056.67 729.53-397.31-41.42-76.26-729.77 396.87z"/><path d="M1302.61 1529.15c75.33 138.7 59.31 304.01-27.5 433.38l-267.02 145.59c-20.69 11.28-45.75 4.85-56.21-14.4l-198.11-364.78c-10.47-19.28-2.31-43.98 18.41-55.19l393.93-213.06 58.96-31.9c30.47 28.45 56.73 62.04 77.54 100.36z" style="opacity:.1;fill:#23519b"/><path d="M1166.11 1460.69c94.62 201.12 5.51 450.05-206.63 565.57-11.55 6.27-23.14 12.03-34.9 17.18l-170.81-314.5c-10.47-19.28-2.31-43.98 18.41-55.19l393.93-213.06z" style="opacity:.25;fill:#50c0e0"/><g class="st3"><path class="st37" d="m1134.56 1668.38 336.91-182.74a6.297 6.297 0 0 0 2.53-8.55l-.01-.03a6.306 6.306 0 0 0-8.55-2.53l-336.92 182.72a6.31 6.31 0 0 0-2.54 8.55l.03.06a6.314 6.314 0 0 0 8.55 2.52zM1487.56 1502.06a6.306 6.306 0 0 0-8.55-2.53l-336.89 182.78a6.306 6.306 0 0 0-2.53 8.55l.02.03a6.297 6.297 0 0 0 8.54 2.53l336.87-182.81a6.3 6.3 0 0 0 2.54-8.55zM1035.86 1764.33l-115.84 62.87c-9.41 5.11-20.89 2.15-25.65-6.61l-47.26-87.01c-4.76-8.76-.98-19.99 8.43-25.09l115.9-62.76c9.39-5.09 20.86-2.12 25.61 6.63l47.2 86.91c4.75 8.74.99 19.96-8.39 25.06z"/><path class="st16" d="m1450.31 1465.38-99.96 53.07c-8.18 4.77-17.41 3.88-20.6-1.98l-29.64-54.57c-3.19-5.87.97-14.35 9.25-18.92l99.08-54.69c7.8-4.31 16.6-3.2 19.68 2.47l30.56 56.28c3.07 5.66-.66 13.86-8.37 18.34zM953.46 1887.38l-3.51-6.45c-.5-.93-.42-1.84.85-2.53 1.27-.69 2.08-.26 2.58.67l4.37 8.05c.62 1.15.04 2.04-.85 2.53l-13.51 7.34c-.89.48-1.96.49-2.58-.66-.62-1.15-.04-2.05.85-2.53l5.04-2.74-10.03-18.47-5.04 2.74c-.89.48-1.96.48-2.58-.67s-.04-2.05.85-2.53l8.47-4.6 11.76 21.66 3.33-1.81zM968.06 1879.45l11.79-6.41c.89-.48 1.96-.48 2.58.67.62 1.15.04 2.04-.85 2.53l-15.22 8.27-5.66-10.41c-1.3-2.4-.66-4.32 1.91-5.72l9.64-5.23-4.15-7.63-11.79 6.41c-.89.48-1.96.48-2.58-.67-.63-1.15-.04-2.04.84-2.53l11.39-6.18c1.13-.61 2.01-.88 3.26-.61 1.41.31 1.98 1.11 2.6 2.26l3.56 6.55c.62 1.15.99 2.07.48 3.42-.46 1.2-1.16 1.79-2.29 2.4l-9.67 5.25 4.16 7.63zM980.99 1848.51c-.89.48-1.96.49-2.58-.66-.62-1.15-.04-2.05.85-2.53l11.79-6.4c1.95-1.06 4.17-.49 5.16 1.33l3.33 6.13c.69 1.28.92 2.35.34 3.82 1.55.32 2.33 1.09 3.02 2.37l3.33 6.13c.99 1.82.26 4-1.69 5.06l-11.79 6.4c-.89.48-1.96.48-2.58-.66-.62-1.15-.04-2.05.85-2.53l11.79-6.41-2.88-5.3c-.97-1.79-2.02-1.92-2.98-1.4l-6.72 3.65c-.89.48-1.96.48-2.58-.67-.63-1.15-.04-2.05.85-2.53l6.72-3.65c.96-.52 1.42-1.47.45-3.26l-2.88-5.3-11.8 6.41zM1021.35 1839.99l-5.01-9.23c-.43-.8-.46-1.82.85-2.53 1.3-.71 2.15-.13 2.58.67l5.01 9.23c.89-.48 1.95-.48 2.58.67.62 1.15.04 2.04-.85 2.52l3.54 6.51c.56 1.02.39 1.86-.85 2.52-1.23.67-2.02.36-2.58-.66l-3.54-6.51-10.07 5.47-8.22-15.13c-.43-.8-.46-1.82.84-2.53 1.3-.71 2.15-.13 2.58.67l6.49 11.94 6.65-3.61zM1076.75 1820.38l-3.5-6.45c-.5-.93-.42-1.84.85-2.53 1.27-.69 2.08-.26 2.58.67l4.37 8.04c.62 1.15.04 2.04-.85 2.53l-13.48 7.33c-.89.48-1.96.48-2.58-.67-.62-1.15-.05-2.04.85-2.53l5.03-2.73-10.02-18.45-5.03 2.73c-.89.48-1.96.48-2.58-.67-.62-1.15-.04-2.04.85-2.53l8.46-4.59 11.75 21.64 3.3-1.79zM1091.33 1812.47l11.77-6.4c.89-.48 1.95-.48 2.58.67.62 1.15.04 2.04-.85 2.52l-15.19 8.26-5.65-10.4c-1.3-2.39-.66-4.31 1.91-5.71l9.61-5.22-4.14-7.62-11.77 6.4c-.89.48-1.95.48-2.58-.67-.62-1.15-.04-2.04.85-2.52l11.36-6.17c1.13-.61 2-.88 3.26-.61 1.41.31 1.98 1.11 2.6 2.26l3.55 6.54c.62 1.15.99 2.07.48 3.42-.46 1.2-1.16 1.78-2.29 2.4l-9.65 5.24 4.15 7.61zM1104.23 1781.57c-.89.48-1.95.49-2.58-.66-.62-1.15-.04-2.04.85-2.53l11.77-6.39c1.95-1.06 4.17-.49 5.15 1.33l3.33 6.13c.69 1.27.92 2.35.35 3.82 1.55.32 2.32 1.09 3.02 2.37l3.33 6.12c.99 1.82.26 3.99-1.69 5.05l-11.77 6.39c-.89.48-1.96.48-2.58-.66-.62-1.15-.04-2.04.85-2.53l11.77-6.39-2.88-5.3c-.97-1.79-2.02-1.92-2.97-1.4l-6.71 3.64c-.89.48-1.95.48-2.58-.67-.62-1.15-.04-2.04.85-2.52l6.71-3.64c.96-.52 1.41-1.47.44-3.26l-2.88-5.3-11.78 6.4zM1144.51 1773.08l-5.01-9.22c-.43-.8-.46-1.82.84-2.52s2.14-.13 2.58.67l5.01 9.22c.89-.48 1.95-.48 2.58.66.62 1.15.05 2.04-.84 2.53l3.53 6.51c.55 1.02.38 1.85-.85 2.52-1.23.67-2.02.35-2.58-.67l-3.53-6.5-10.06 5.46-8.21-15.12c-.43-.8-.46-1.82.84-2.52 1.3-.71 2.14-.13 2.58.66l6.48 11.93 6.64-3.61zM1199.82 1753.52l-3.5-6.44c-.5-.93-.42-1.84.84-2.52 1.27-.69 2.07-.26 2.57.67l4.36 8.03c.62 1.15.05 2.04-.84 2.52l-13.46 7.31c-.89.48-1.95.48-2.57-.66-.62-1.15-.04-2.04.84-2.52l5.02-2.73-10.01-18.43-5.02 2.73c-.89.48-1.95.48-2.58-.67-.62-1.15-.04-2.04.85-2.52l8.44-4.59 11.74 21.62 3.32-1.8zM1214.36 1745.62l11.75-6.38c.89-.48 1.95-.48 2.57.66.62 1.15.05 2.04-.84 2.52l-15.17 8.24-5.64-10.39c-1.3-2.39-.66-4.31 1.9-5.7l9.6-5.21-4.14-7.62-11.75 6.38c-.89.48-1.95.48-2.57-.67-.62-1.15-.05-2.04.84-2.52l11.34-6.16c1.13-.61 2-.88 3.25-.61 1.41.31 1.98 1.12 2.6 2.26l3.55 6.53c.62 1.15.99 2.07.48 3.41-.46 1.2-1.15 1.78-2.28 2.4l-9.63 5.23 4.14 7.63zM1227.22 1714.77c-.89.48-1.95.48-2.57-.67-.62-1.15-.04-2.04.84-2.52l11.74-6.38c1.95-1.06 4.16-.48 5.15 1.34l3.32 6.11c.69 1.28.92 2.35.35 3.82 1.54.32 2.32 1.09 3.01 2.37l3.32 6.12c.99 1.82.26 3.99-1.68 5.04l-11.74 6.38c-.89.48-1.95.48-2.57-.67-.62-1.15-.05-2.04.84-2.52l11.74-6.38-2.87-5.29c-.97-1.79-2.01-1.92-2.97-1.4l-6.69 3.64c-.89.48-1.95.48-2.57-.67s-.05-2.04.84-2.52l6.69-3.63c.95-.52 1.41-1.47.44-3.25l-2.87-5.29-11.75 6.37zM1267.44 1706.29l-5-9.21c-.43-.8-.46-1.82.84-2.52s2.14-.13 2.57.67l5 9.21c.89-.48 1.95-.48 2.57.67.62 1.15.04 2.04-.84 2.52l3.53 6.5c.55 1.02.39 1.85-.84 2.52-1.23.67-2.02.36-2.57-.67l-3.53-6.5-10.03 5.45-8.2-15.11c-.43-.8-.46-1.82.84-2.52 1.3-.71 2.14-.13 2.57.67l6.47 11.92 6.62-3.6zM1310.91 1665.19c1.87-1.02 4.19-.42 5.14 1.33l10 18.41c.97 1.78.26 3.98-1.68 5.04l-10.03 5.45c-1.94 1.06-4.17.45-5.14-1.33l-10-18.41c-.95-1.75-.2-4.02 1.68-5.04l10.03-5.45zm11.73 21.59-10-18.41-10.03 5.45 10 18.41 10.03-5.45zM1335.45 1651.86c1.87-1.02 4.19-.42 5.14 1.33l10 18.41c.97 1.78.26 3.98-1.68 5.04l-10.02 5.45c-1.94 1.06-4.17.45-5.14-1.33l-10-18.41c-.95-1.75-.2-4.02 1.68-5.04l10.02-5.45zm11.72 21.59-10-18.4-10.02 5.44 10 18.41 10.02-5.45zM1359.98 1638.54c1.87-1.02 4.19-.42 5.14 1.33l9.99 18.4c.97 1.79.27 3.98-1.68 5.04l-10.02 5.44c-1.94 1.06-4.17.45-5.14-1.33l-10-18.4c-.95-1.75-.2-4.02 1.68-5.04l10.03-5.44zm11.72 21.58-10-18.4-10.02 5.44 10 18.4 10.02-5.44zM1384.49 1625.22c1.88-1.02 4.19-.42 5.14 1.33l9.99 18.4c.97 1.78.26 3.98-1.68 5.04l-10.01 5.44c-1.94 1.06-4.17.45-5.13-1.33l-9.99-18.4c-.95-1.75-.2-4.02 1.68-5.03l10-5.45zm11.73 21.58-9.99-18.4-10.01 5.44 9.99 18.4 10.01-5.44zM1445.22 1620.17l-3.49-6.43c-.5-.92-.42-1.83.84-2.52s2.07-.26 2.57.67l4.35 8.02c.62 1.14.05 2.04-.84 2.52l-13.41 7.29c-.89.48-1.95.48-2.57-.67-.62-1.15-.05-2.04.84-2.52l5-2.72-9.99-18.39-5 2.72c-.89.48-1.95.48-2.57-.67s-.05-2.04.84-2.52l8.41-4.56 11.72 21.58 3.3-1.8zM1459.71 1612.3l11.7-6.36c.88-.48 1.94-.48 2.57.67.62 1.14.04 2.03-.84 2.51l-15.11 8.21-5.63-10.37c-1.29-2.39-.66-4.3 1.89-5.68l9.56-5.19-4.13-7.6-11.7 6.36c-.88.48-1.94.48-2.56-.67-.62-1.14-.05-2.04.84-2.52l11.3-6.13c1.12-.61 1.99-.88 3.24-.61 1.4.31 1.97 1.11 2.59 2.26l3.54 6.52c.62 1.14.99 2.06.48 3.4-.45 1.19-1.15 1.78-2.27 2.39l-9.6 5.22 4.13 7.59zM1472.5 1581.54c-.88.48-1.94.48-2.56-.67-.62-1.14-.05-2.03.83-2.52l11.7-6.35c1.94-1.05 4.15-.48 5.13 1.33l3.32 6.11c.69 1.27.92 2.34.35 3.81 1.54.32 2.31 1.09 3 2.36l3.32 6.11c.98 1.82.27 3.98-1.67 5.03l-11.7 6.36c-.88.48-1.94.48-2.57-.67s-.05-2.03.84-2.52l11.7-6.36-2.87-5.28c-.96-1.78-2.01-1.91-2.96-1.4l-6.67 3.62c-.88.48-1.94.48-2.56-.67-.62-1.14-.05-2.03.84-2.51l6.67-3.62c.95-.52 1.4-1.46.44-3.24l-2.87-5.28-11.71 6.36zM1512.57 1573.12l-4.99-9.19c-.43-.8-.46-1.81.84-2.52 1.29-.7 2.13-.13 2.56.67l4.99 9.19c.88-.48 1.94-.48 2.57.67.62 1.14.05 2.04-.84 2.52l3.52 6.49c.55 1.02.39 1.85-.83 2.51-1.22.67-2.01.35-2.56-.67l-3.52-6.49-10 5.43-8.19-15.08c-.43-.8-.46-1.81.84-2.51 1.29-.7 2.13-.13 2.56.67l6.46 11.89 6.59-3.58z"/></g><path class="st33" d="M1195.26 2014.79s-10.06-28.85-18.2-32.14c-18.89-7.64-38.85-2.3-43.29 2.39 23.55 6.89 61.49 29.75 61.49 29.75z"/><path d="M1164.33 1986.2c3.74-1.46 7.77-2.3 11.4-4.03-18.49-6.87-37.63-1.71-41.97 2.86 6.16 1.8 13.31 4.7 20.5 8 2.97-2.84 6.2-5.32 10.07-6.83z" style="fill:#ef8499"/><path class="st33" d="M1114.85 2054.17c4.7 3.91 9.61 7.56 14.52 10.59l-.01.02c.02.01.02.01.03.04.23.17 1.42 1.08 3.18 2.38l.02.01c1.4 1.03 3.15 2.23 5.06 3.47 0 0 20.55 15.29 27.17 11.34 6.62-3.95 5.17-9.57 5.17-9.57s7.18 2.04 11.48-3.88c4.3-5.92 1.53-10.52 1.53-10.52s6.58 2.06 11.48-4.65c4.91-6.72 1.67-13.58 1.67-13.58s10.12 2.48 10.51-10.38c.39-12.82-16.54-21.14-17.21-21.58-2.79-1.93-5.6-3.68-8.37-5.26-.76-.42-1.45-.99-2.28-1.26-59.07-19.2-130.6-93.26-141.05-89.71 0 0-39.32 32.58-33.26 43.69 8.93 7.66 93.22 66.5 93.22 66.5s-.46 17.68 17.14 32.35z"/><path class="st24" d="m1129.37 2064.76-.01.02c.02.01.02.01.03.04.23.17 1.42 1.08 3.18 2.38l.02.01c1.4 1.03 3.15 2.23 5.06 3.47 0 0 20.55 15.29 27.17 11.34 6.62-3.95 5.17-9.57 5.17-9.57s7.18 2.04 11.48-3.88c4.3-5.92 1.53-10.52 1.53-10.52s6.58 2.06 11.48-4.65c4.91-6.72 1.67-13.58 1.67-13.58s10.12 2.48 10.51-10.38c.14-4.61-1.97-8.62-4.75-11.91.17 4.84-1.02 10.19-3.97 13.96-.76.97-1.67 1.84-2.73 2.47-1.21.73-2.6 1.1-3.87 1.71-2.76 1.32-3.33 4.33-4.2 7.02-1.11 3.48-2.54 6.76-5.36 9.18-2.12 1.82-4.7 2.93-7.15 4.21-2.58 1.34-4.91 3.04-6.31 5.67-1.33 2.5-2.5 4.88-4.68 6.78-3.77 3.27-8.82 3.47-13.44 2.21-3.2-.87-6.14-2.42-9.1-3.89-3.85-1.91-7.66-3.89-11.47-5.87-6.53-3.39-13.03-6.69-19.1-10.84 1.31 1.36 2.71 2.72 4.3 4.05 4.71 3.89 9.63 7.55 14.54 10.57z"/><path class="st18" d="M1264.37 1246.66c-61.45 167.38-461.98 375.36-461.98 375.36l324.15 347.16-45.34 46.69s-899.59-227.83-654.17-650.11c245.43-422.28 871.51-592.22 931.18-541.87 115.5 97.45-61.7 335.21-93.84 422.77z"/><path class="st6" d="M1742.73 2236.12s30.08-218.36-29.81-196.81c-59.9 21.55-32.4 109.06 29.81 196.81z"/><path class="st7" d="M1746.69 2234s-122.48-215.39-206.98-141.33c-84.5 74.07 206.98 141.33 206.98 141.33z"/><path class="st8" d="M1574.34 2352.66h1057.39l-15.16-52.85-35.67-125.2c-25.27-88.38-113.07-143.69-203.76-128.24l-45.78 7.94c-3.47.58-6.79.87-10.11.87-20.22 0-39.42-10.11-50.83-27.3-78.56-117.84-256.18-103.25-314.52 25.85l-7.8 17.33c-13.75 30.57-49.67 44.24-80.27 30.54l-45.65-20.44c-26.72-11.98-56.47-3.03-72.93 18.05-6.07 7.65-10.4 16.89-12.13 27.29l-6.79 39.57c-1.74 9.82-5.49 18.48-10.83 25.71-1.01 1.3-2.02 2.6-3.03 3.75a61.187 61.187 0 0 1-35.53 20.22c-3.46.72-7.22 1.01-10.83 1.01-11.45 0-23.06-3.14-33.6-10.18-23.77-15.87-55.65-11.92-75.86 8.3l-30.67 30.67c-39.51 39.54-11.52 107.11 44.36 107.11z"/><path class="st9" d="M1667.66 2352.66h964.07l-15.16-52.85c-47.65-42.74-113.51-63.68-180.51-52.13l-35.67 6.06-19.21 3.18c-4.19.72-8.37 1.01-12.42 1.01-8.96 0-17.76-1.58-25.99-4.76-13.86-5.34-25.99-14.74-34.65-27.73-12.13-18.34-26.43-33.93-42.02-46.79a170.68 170.68 0 0 0-18.77-14.01c-35.09-23.25-75.38-34.8-115.82-35.24-23.68-.43-47.22 3.03-69.75 10.4-54.73 17.33-103.25 56.75-130.25 116.68l-9.39 20.51c-16.61 36.83-59.78 53.14-96.46 36.68l-27.73-12.42-26.72-11.99c-12.13-5.49-24.84-7.22-36.97-6.06-31.48 3.03-59.21 26.43-64.99 60.36l-1.59 9.1z"/><path class="st6" d="M2408.61 2166.42c0 9.15 7.36 16.57 16.44 16.57 9.08 0 16.44-7.42 16.44-16.57s-7.36-16.57-16.44-16.57c-9.08-.01-16.44 7.41-16.44 16.57z"/><path class="st7" d="M1841.36 2245.47c0 8.45 6.85 15.3 15.3 15.3 8.45 0 15.3-6.85 15.3-15.3 0-8.45-6.85-15.3-15.3-15.3-8.45 0-15.3 6.85-15.3 15.3zM2052.21 2069.84c0 19.16 15.53 34.68 34.68 34.68 19.16 0 34.69-15.53 34.69-34.68 0-19.16-15.53-34.69-34.69-34.69-19.15.01-34.68 15.54-34.68 34.69z"/><path class="st6" d="M2176.22 2349.74s136.97-172.7 74.44-184.61c-62.53-11.92-83.37 77.42-74.44 184.61z"/><path class="st7" d="M2176.22 2349.74s-86.35-232.25-181.63-172.7c-95.28 59.55 181.63 172.7 181.63 172.7zM2176.22 2349.74s318.6-38.71 238.21-89.33c-80.4-50.62-238.21 89.33-238.21 89.33z"/><path class="st14" d="M1058.03 644.57c-8.78 29.38-39.72 46.07-69.1 37.29-29.38-8.78-46.07-39.72-37.29-69.1 8.78-29.38 39.72-46.07 69.1-37.29 29.39 8.78 46.08 39.72 37.29 69.1z"/><path class="st41" d="M1053.34 643.17c-8.01 26.79-36.22 42.01-63.01 34-26.79-8.01-42.01-36.22-34-63.01 8.01-26.79 36.22-42.01 63.01-34 26.79 8.01 42.01 36.22 34 63.01z"/><path class="st42" d="M978.81 596.86c3.77-3.57 6.97-7.3 11.74-9.62 4.69-2.28 9.77-3.25 14.93-3.65 7.61-.59 15.16.21 22.74.29-2.81-1.47-5.73-2.77-8.88-3.72-21.1-6.31-43.04 1.84-55.34 18.66 4.53 2.42 10.37 2.23 14.81-1.96z"/><path class="st43" d="M1043.42 604.95c-3.25 2.38-2.2 9.37-1.92 12.75.38 4.51 1.36 9.01 1.4 13.54.09 11.51-2.25 25.44-12.39 32.43-3.21 2.21-6.99 3.16-10.39 4.99-2.94 1.58-5.61 3.59-8.66 4.99-6.25 2.87-13.04 2.93-19.41.42-6.24-2.46-15.94-10.18-24.35-11.06 5.95 6.44 13.61 11.46 22.62 14.16 26.79 8.01 55-7.21 63.01-34 4.04-13.53 2.15-27.41-4.15-38.88-1.98-.64-3.99-.64-5.76.66z"/><path class="st14" d="M1016.35 650.48c-3.37 1.85-7.62 2.42-12.74 1.69l-2.16 7.23-7.82-2.34 2.08-6.97c-3.19-1.19-6.11-2.67-8.75-4.43-2.64-1.76-4.73-3.58-6.25-5.45l7.08-8.24c1.64 1.96 3.68 3.75 6.12 5.38 2.45 1.63 4.97 2.84 7.58 3.61 4.95 1.48 7.8.98 8.54-1.49.39-1.3-.03-2.48-1.25-3.53-1.22-1.05-3.29-2.39-6.21-4.02-3.21-1.76-5.84-3.41-7.89-4.95-2.05-1.53-3.62-3.48-4.71-5.84-1.09-2.36-1.16-5.12-.22-8.3 1.12-3.73 3.42-6.53 6.91-8.4s7.87-2.34 13.13-1.43l2.14-7.16 7.82 2.34-2.1 7.04c2.41.96 4.66 2.1 6.74 3.43 2.09 1.34 3.86 2.79 5.33 4.36l-6.84 8.39c-3.64-3.64-7.5-6.07-11.58-7.29-2.56-.77-4.54-.94-5.94-.54-1.4.41-2.28 1.22-2.65 2.44-.36 1.22.06 2.34 1.27 3.36 1.21 1.03 3.25 2.32 6.14 3.9 3.26 1.78 5.89 3.43 7.92 4.96 2.03 1.53 3.6 3.47 4.72 5.81 1.12 2.34 1.21 5.1.26 8.27-1.08 3.59-3.3 6.32-6.67 8.17zM343.3 1377.2c-8.79 29.38-39.72 46.07-69.1 37.29-29.38-8.78-46.07-39.72-37.29-69.1 8.78-29.38 39.72-46.07 69.1-37.29 29.38 8.78 46.07 39.71 37.29 69.1z"/><path class="st41" d="M338.6 1375.79c-8.01 26.79-36.22 42.01-63.01 34-26.79-8.01-42.01-36.22-34-63.01 8.01-26.79 36.22-42.01 63-34 26.8 8.02 42.02 36.22 34.01 63.01z"/><path class="st42" d="M264.07 1329.48c3.77-3.56 6.97-7.3 11.74-9.62 4.69-2.28 9.77-3.25 14.93-3.65 7.61-.59 15.16.21 22.74.29-2.81-1.47-5.73-2.77-8.88-3.72-21.1-6.31-43.04 1.84-55.34 18.66 4.53 2.42 10.37 2.23 14.81-1.96z"/><path class="st43" d="M328.68 1337.58c-3.25 2.38-2.2 9.37-1.92 12.75.38 4.51 1.36 9 1.4 13.54.09 11.51-2.25 25.44-12.39 32.43-3.21 2.22-6.99 3.16-10.39 4.99-2.94 1.58-5.61 3.59-8.66 4.99-6.25 2.87-13.04 2.93-19.41.42-6.24-2.46-15.94-10.18-24.35-11.06 5.95 6.44 13.61 11.46 22.62 14.16 26.79 8.01 55-7.21 63.01-34 4.04-13.53 2.15-27.41-4.15-38.88-1.98-.65-3.99-.65-5.76.66z"/><path class="st14" d="M301.61 1383.1c-3.37 1.86-7.61 2.42-12.74 1.69l-2.16 7.23-7.82-2.34 2.08-6.97c-3.19-1.19-6.11-2.67-8.75-4.43-2.64-1.76-4.73-3.58-6.25-5.45l7.08-8.24c1.64 1.96 3.68 3.75 6.12 5.38 2.45 1.63 4.97 2.84 7.58 3.61 4.95 1.48 7.8.98 8.53-1.49.39-1.3-.03-2.48-1.25-3.53-1.22-1.05-3.29-2.39-6.21-4.02-3.21-1.76-5.84-3.41-7.89-4.95-2.05-1.53-3.62-3.48-4.71-5.84-1.09-2.36-1.16-5.12-.21-8.3 1.11-3.73 3.42-6.53 6.91-8.4s7.87-2.34 13.13-1.43l2.14-7.16 7.82 2.34-2.1 7.04c2.41.96 4.66 2.1 6.74 3.43 2.09 1.34 3.86 2.79 5.33 4.36l-6.84 8.39c-3.64-3.64-7.5-6.08-11.58-7.29-2.56-.77-4.54-.94-5.94-.54-1.4.41-2.28 1.22-2.65 2.44-.36 1.22.06 2.34 1.27 3.36 1.21 1.03 3.25 2.32 6.14 3.9 3.26 1.78 5.89 3.43 7.92 4.96 2.03 1.53 3.6 3.46 4.72 5.81s1.21 5.1.26 8.28c-1.08 3.58-3.3 6.31-6.67 8.16zM2735.69 631.42c-40.49-19.42-95.6 4.81-93.27 52.18 2.42 47.49 54.62 79.37 92.6 79.03 38.98.02 60.49-19.22 60.59-47.07-.89-28.1-19.34-65.24-59.92-84.14z"/><path class="st43" d="M2735.69 631.42c-40.49-19.42-95.6 4.81-93.27 52.18 2.42 47.49 54.62 79.37 92.6 79.03 38.98.02 60.49-19.22 60.59-47.07-.89-28.1-19.34-65.24-59.92-84.14z"/><path class="st14" d="M2801.46 705.93c-.42 27.12-23.06 46.1-63.71 46.54-39.6.77-90.03-34.42-92.02-80.64-1.89-46.11 52.2-65.59 94.2-47.15 42.11 17.93 60.93 53.89 61.53 81.25z"/><path class="st41" d="M2794.75 703.79c-.46 25.38-21.89 43.02-59.28 42.59-36.57-.18-81.28-32.47-82.77-73.72-1.47-41.15 46.12-59.23 84.63-43.11 38.64 15.76 57.07 48.69 57.42 74.24z"/><path class="st42" d="M2661.5 653.39c3.86-5.77 7.61-11.08 13.42-15.07 5.86-4.03 12.68-6.12 19.68-7.04 7.51-.98 15.07-.66 22.63-.65 5.68.01 11.88.32 17.28-1.75.14-.05.26-.15.4-.21-34.46-13.05-74.96.6-81.26 33.23 3.24-2.08 6.07-5.83 7.85-8.51z"/><path class="st43" d="M2776.64 658.42c.66 2.74 1.2 5.52 1.6 8.36 2.88 20.3 2.29 45.77-8.54 63.81-10.66 17.74-29.26 14.99-46.77 11.37-5.48-1.13-11.12-2.33-16.54-1.78 9.65 3.94 19.63 6.16 29.07 6.2 37.4.43 58.82-17.21 59.28-42.59-.18-14.27-6.25-30.77-18.1-45.37z"/><path class="st14" d="M2749.65 710.23c-3.37 2.34-8.46 3.41-15.42 3.23.48 2.98 1.05 5.97 1.71 8.98-3.75-.48-7.5-.93-11.24-1.35-.66-2.99-1.24-5.98-1.73-8.95-4.77-.93-9.35-2.21-13.76-3.92s-8.14-3.61-11.16-5.72c1.46-4.06 3.11-8 4.93-11.83 3.1 2.26 6.68 4.25 10.71 5.96 4.03 1.72 7.94 2.9 11.75 3.57 7.22 1.29 10.68.51 10.5-2.46-.09-1.56-1.16-2.93-3.25-4.13-2.09-1.2-5.43-2.71-10.03-4.5-5.05-1.95-9.28-3.78-12.67-5.52-3.39-1.74-6.31-4.06-8.69-6.96-2.37-2.9-3.47-6.44-3.11-10.51.42-4.8 3.02-8.4 7.61-10.65s10.81-2.59 18.46-1.06c.65-2.76 1.4-5.5 2.24-8.2 3.83 1.23 7.64 2.49 11.44 3.78-.81 2.57-1.53 5.17-2.17 7.79 3.57 1.39 6.92 2.97 10.07 4.76 3.16 1.79 5.89 3.66 8.25 5.62-2.64 2.79-5.14 5.69-7.49 8.71-6.03-4.44-11.97-7.57-17.98-9.22-3.76-1.03-6.58-1.31-8.43-.85-1.85.46-2.86 1.44-3.02 2.92-.15 1.49.78 2.85 2.77 4.08s5.23 2.79 9.7 4.68c5.04 2.14 9.2 4.14 12.48 5.97 3.28 1.83 6.1 4.11 8.5 6.81 2.4 2.71 3.62 5.82 3.78 9.41.16 4.08-1.38 7.21-4.75 9.56z"/><radialGradient id="SVGID_7_" cx="1966.997" cy="1296.383" r="886.657" gradientTransform="matrix(1 0 -.0336 .7462 72.425 1252.109)" gradientUnits="userSpaceOnUse"><stop offset="0" style="stop-color:#fbe034"/><stop offset=".149" style="stop-color:#fac63e"/><stop offset=".319" style="stop-color:#f8af46"/><stop offset=".504" style="stop-color:#f89f4c"/><stop offset=".714" style="stop-color:#f79650"/><stop offset="1" style="stop-color:#f79351"/></radialGradient><path d="M2271.75 2292.26c-20.88-1.06-42.91-1.64-65.75-1.64-17.01 0-33.61.32-49.64.92l-146.77-.92c-2.48-1.26-43.52 0-43.52 0l-2.43 42.96c-1.07 23.73 105.71 42.96 238.5 42.96 132.79 0 241.3-19.23 242.37-42.96l1.81-40.22-174.57-1.1z" style="fill:url(#SVGID_7_)"/><path class="st45" d="M2446.31 2293.35c-1.07 23.73-109.58 42.96-242.37 42.96-132.79 0-239.57-19.23-238.5-42.96 1.07-23.73 109.58-42.96 242.37-42.96 132.79 0 239.57 19.23 238.5 42.96z"/><path class="st46" d="M2438.97 2293.35c-1 22.21-106.17 40.22-234.91 40.22-128.73 0-232.29-18.01-231.28-40.22 1-22.22 106.17-40.22 234.91-40.22 128.73 0 232.28 18.01 231.28 40.22z"/><path class="st41" d="M2432.76 2293.35c-.9 20-103.21 36.22-228.52 36.22-125.31 0-226.16-16.22-225.25-36.22.9-20 103.21-36.22 228.52-36.22 125.3 0 226.16 16.22 225.25 36.22z"/><radialGradient id="SVGID_8_" cx="1950.838" cy="1222.982" r="886.657" gradientTransform="matrix(1 0 -.0336 .7462 72.425 1252.109)" gradientUnits="userSpaceOnUse"><stop offset="0" style="stop-color:#fbe034"/><stop offset=".149" style="stop-color:#fac63e"/><stop offset=".319" style="stop-color:#f8af46"/><stop offset=".504" style="stop-color:#f89f4c"/><stop offset=".714" style="stop-color:#f79650"/><stop offset="1" style="stop-color:#f79351"/></radialGradient><path d="M2258.06 2237.49c-20.88-1.06-42.91-1.64-65.75-1.64-17.01 0-33.61.32-49.64.92l-146.77-.92c-2.48-1.26-43.52 0-43.52 0l-2.43 42.96c-1.07 23.73 105.71 42.96 238.5 42.96 132.79 0 241.3-19.23 242.37-42.96l1.81-40.22-174.57-1.1z" style="fill:url(#SVGID_8_)"/><path class="st45" d="M2432.62 2238.58c-1.07 23.73-109.58 42.96-242.37 42.96-132.79 0-239.57-19.23-238.5-42.96 1.07-23.73 109.58-42.96 242.37-42.96 132.79 0 239.57 19.23 238.5 42.96z"/><path class="st46" d="M2425.28 2238.58c-1 22.21-106.17 40.22-234.91 40.22-128.73 0-232.29-18.01-231.28-40.22 1-22.22 106.17-40.22 234.9-40.22 128.74 0 232.29 18 231.29 40.22z"/><path class="st41" d="M2419.07 2238.58c-.9 20-103.21 36.22-228.52 36.22-125.3 0-226.16-16.22-225.25-36.22.9-20 103.21-36.22 228.52-36.22 125.3 0 226.15 16.21 225.25 36.22z"/><radialGradient id="SVGID_9_" cx="1950.987" cy="1145.912" r="886.655" gradientTransform="matrix(1 0 -.0336 .7462 72.425 1252.109)" gradientUnits="userSpaceOnUse"><stop offset="0" style="stop-color:#fbe034"/><stop offset=".149" style="stop-color:#fac63e"/><stop offset=".319" style="stop-color:#f8af46"/><stop offset=".504" style="stop-color:#f89f4c"/><stop offset=".714" style="stop-color:#f79650"/><stop offset="1" style="stop-color:#f79351"/></radialGradient><path d="M2260.8 2179.98c-20.88-1.06-42.91-1.64-65.75-1.64-17.01 0-33.61.32-49.64.92l-146.77-.92c-2.48-1.26-43.52 0-43.52 0l-2.43 42.96c-1.07 23.73 105.71 42.96 238.5 42.96 132.79 0 241.3-19.23 242.37-42.96l1.81-40.22-174.57-1.1z" style="fill:url(#SVGID_9_)"/><path class="st45" d="M2435.36 2181.07c-1.07 23.73-109.58 42.96-242.37 42.96s-239.57-19.24-238.5-42.96c1.07-23.73 109.58-42.96 242.37-42.96 132.79 0 239.56 19.23 238.5 42.96z"/><path class="st46" d="M2428.02 2181.07c-1 22.21-106.17 40.22-234.91 40.22-128.73 0-232.29-18.01-231.28-40.22 1-22.22 106.17-40.22 234.9-40.22 128.74 0 232.29 18 231.29 40.22z"/><path class="st41" d="M2421.81 2181.07c-.9 20-103.21 36.22-228.52 36.22-125.3 0-226.16-16.22-225.25-36.22.9-20 103.21-36.22 228.52-36.22 125.3 0 226.15 16.21 225.25 36.22z"/><radialGradient id="SVGID_10_" cx="1989.476" cy="1068.841" r="886.655" gradientTransform="matrix(1 0 -.0336 .7462 72.425 1252.109)" gradientUnits="userSpaceOnUse"><stop offset="0" style="stop-color:#fbe034"/><stop offset=".149" style="stop-color:#fac63e"/><stop offset=".319" style="stop-color:#f8af46"/><stop offset=".504" style="stop-color:#f89f4c"/><stop offset=".714" style="stop-color:#f79650"/><stop offset="1" style="stop-color:#f79351"/></radialGradient><path d="M2301.87 2122.47c-20.88-1.06-42.91-1.64-65.75-1.64-17.01 0-33.61.32-49.64.92l-146.77-.92c-2.48-1.26-43.52 0-43.52 0l-2.43 42.96c-1.07 23.73 105.71 42.96 238.5 42.96 132.79 0 241.3-19.23 242.37-42.96l1.81-40.22-174.57-1.1z" style="fill:url(#SVGID_10_)"/><path class="st45" d="M2476.44 2123.56c-1.07 23.73-109.58 42.96-242.37 42.96-132.79 0-239.57-19.24-238.5-42.96 1.07-23.73 109.58-42.96 242.37-42.96s239.56 19.23 238.5 42.96z"/><path class="st46" d="M2469.1 2123.56c-1 22.21-106.17 40.22-234.91 40.22-128.73 0-232.29-18.01-231.28-40.22 1-22.22 106.17-40.22 234.9-40.22 128.74 0 232.29 18 231.29 40.22z"/><path class="st41" d="M2462.89 2123.56c-.9 20-103.21 36.22-228.52 36.22-125.3 0-226.16-16.22-225.25-36.22.9-20 103.21-36.22 228.52-36.22 125.3 0 226.15 16.21 225.25 36.22z"/><radialGradient id="SVGID_11_" cx="1956.03" cy="989.001" r="886.657" gradientTransform="matrix(1 0 -.0336 .7462 72.425 1252.109)" gradientUnits="userSpaceOnUse"><stop offset="0" style="stop-color:#fbe034"/><stop offset=".149" style="stop-color:#fac63e"/><stop offset=".319" style="stop-color:#f8af46"/><stop offset=".504" style="stop-color:#f89f4c"/><stop offset=".714" style="stop-color:#f79650"/><stop offset="1" style="stop-color:#f79351"/></radialGradient><path d="M2271.11 2062.89c-20.88-1.06-42.91-1.64-65.75-1.64-17.01 0-33.61.32-49.64.92l-146.77-.92c-2.48-1.26-43.52 0-43.52 0l-2.43 42.96c-1.07 23.73 105.71 42.96 238.5 42.96 132.79 0 241.3-19.23 242.37-42.96l1.81-40.22-174.57-1.1z" style="fill:url(#SVGID_11_)"/><path class="st45" d="M2445.67 2063.98c-1.07 23.73-109.58 42.96-242.37 42.96-132.79 0-239.57-19.24-238.5-42.96 1.07-23.73 109.58-42.96 242.37-42.96 132.79.01 239.57 19.24 238.5 42.96z"/><path class="st46" d="M2438.33 2063.98c-1 22.21-106.17 40.22-234.91 40.22-128.73 0-232.29-18.01-231.28-40.22 1-22.22 106.17-40.22 234.91-40.22s232.28 18.01 231.28 40.22z"/><path class="st41" d="M2432.13 2063.98c-.9 20-103.21 36.22-228.52 36.22-125.31 0-226.16-16.22-225.25-36.22.9-20 103.21-36.22 228.52-36.22 125.3 0 226.15 16.22 225.25 36.22z"/><radialGradient id="SVGID_12_" cx="2005.589" cy="896.35" r="886.654" gradientTransform="matrix(1 0 -.0336 .7462 72.425 1252.109)" gradientUnits="userSpaceOnUse"><stop offset="0" style="stop-color:#fbe034"/><stop offset=".149" style="stop-color:#fac63e"/><stop offset=".319" style="stop-color:#f8af46"/><stop offset=".504" style="stop-color:#f89f4c"/><stop offset=".714" style="stop-color:#f79650"/><stop offset="1" style="stop-color:#f79351"/></radialGradient><path d="M2323.78 1993.75c-20.88-1.06-42.91-1.64-65.75-1.64-17.01 0-33.61.32-49.64.92l-146.77-.92c-2.48-1.26-43.52 0-43.52 0l-2.43 42.96c-1.07 23.73 105.71 42.96 238.5 42.96 132.79 0 241.3-19.23 242.37-42.96l1.81-40.22-174.57-1.1z" style="fill:url(#SVGID_12_)"/><path class="st45" d="M2498.34 1994.84c-1.07 23.73-109.58 42.96-242.37 42.96-132.79 0-239.57-19.24-238.5-42.96 1.07-23.73 109.58-42.96 242.37-42.96 132.79.01 239.57 19.24 238.5 42.96z"/><path class="st46" d="M2491.01 1994.84c-1 22.21-106.17 40.22-234.91 40.22-128.73 0-232.29-18.01-231.28-40.22 1-22.22 106.17-40.22 234.91-40.22 128.73 0 232.28 18.01 231.28 40.22z"/><path class="st41" d="M2484.8 1994.84c-.9 20-103.21 36.22-228.52 36.22-125.31 0-226.16-16.22-225.25-36.22.9-20 103.21-36.22 228.52-36.22 125.3 0 226.15 16.22 225.25 36.22z"/><radialGradient id="SVGID_13_" cx="1973.277" cy="811.823" r="886.661" gradientTransform="matrix(1 0 -.0336 .7462 72.425 1252.109)" gradientUnits="userSpaceOnUse"><stop offset="0" style="stop-color:#fbe034"/><stop offset=".149" style="stop-color:#fac63e"/><stop offset=".319" style="stop-color:#f8af46"/><stop offset=".504" style="stop-color:#f89f4c"/><stop offset=".714" style="stop-color:#f79650"/><stop offset="1" style="stop-color:#f79351"/></radialGradient><path d="M2294.31 1930.68c-20.88-1.06-42.91-1.64-65.75-1.64-17.01 0-33.61.32-49.64.92l-146.77-.92c-2.48-1.27-43.53 0-43.53 0l-2.43 42.96c-1.07 23.73 105.71 42.96 238.5 42.96 132.78 0 241.3-19.23 242.37-42.96l1.81-40.22-174.56-1.1z" style="fill:url(#SVGID_13_)"/><path class="st45" d="M2468.87 1931.77c-1.07 23.73-109.58 42.96-242.37 42.96-132.79 0-239.57-19.23-238.5-42.96 1.07-23.73 109.58-42.96 242.37-42.96 132.79 0 239.57 19.23 238.5 42.96z"/><path class="st46" d="M2461.53 1931.77c-1 22.21-106.17 40.22-234.9 40.22-128.74 0-232.28-18.01-231.28-40.22 1-22.22 106.17-40.23 234.9-40.23 128.74.01 232.29 18.02 231.28 40.23z"/><path class="st41" d="M2455.33 1931.77c-.9 20-103.21 36.22-228.52 36.22s-226.15-16.22-225.25-36.22c.9-20 103.21-36.22 228.52-36.22 125.3 0 226.15 16.22 225.25 36.22z"/><radialGradient id="SVGID_14_" cx="2135.824" cy="844.584" r="344.547" gradientTransform="matrix(1 0 -.0336 .7462 72.425 1252.109)" gradientUnits="userSpaceOnUse"><stop offset="0" style="stop-color:#fbe034"/><stop offset=".149" style="stop-color:#fac63e"/><stop offset=".319" style="stop-color:#f8af46"/><stop offset=".504" style="stop-color:#f89f4c"/><stop offset=".714" style="stop-color:#f79650"/><stop offset="1" style="stop-color:#f79351"/></radialGradient><path d="M2269.48 1926.56c-6.37 0-11.33.27-14.94.83-3.66.56-6.99 1.55-10.04 2.97a95.009 95.009 0 0 1-9.85 3.96c-3.49 1.19-7.62 2.23-12.37 3.12-4.85.92-10.61 1.64-17.26 2.16-6.73.54-14.67.8-23.76.8-15.67 0-27.67-.91-35.73-2.69-7.73-1.7-10.62-3.86-9-6.39h-26.6l.22-4.85 30.27-1.66c4.61-2.16 12.52-.41 22.86-1.52 10.02-1.08 22.19-6.45 36.3-6.45l-.08 5.82-2.49 3.88c-9.32 0-16.5.3-21.62.9-5.2.61-8.29 1.45-9.24 2.54-.96 1.1.22 1.97 3.6 2.6 3.44.64 8.68.97 15.67.97 6.48 0 11.83-.32 15.98-.95 4.09-.62 8.34-1.74 12.67-3.32 4.15-1.52 7.89-2.72 11.27-3.64 3.3-.89 6.92-1.63 10.89-2.22 3.9-.58 8.31-1.01 13.25-1.31 4.89-.29 10.61-.44 17.2-.44 12.31 0 22.77.56 31.63 1.7 9.17 1.19 14.02-.87 18.2 1.43l30.67 2.08-.22 4.84h-24.74c1.58 2.95-2.07 5.39-11.36 7.21-9.71 1.91-24.4 2.89-43.73 2.89l-2.9-7.06c.28-2.4-.41-2.28.22-4.84 7.82-.12 18.55 4.28 22.61 3.6 4.79-.81 6.54-1.95 5.38-3.38-.93-1.15-3.5-2.04-7.65-2.67-4.09-.6-9.17-.91-15.31-.91z" style="fill:url(#SVGID_14_)"/><path class="st14" d="M2269.7 1921.71c-6.37 0-11.33.28-14.94.83-3.66.56-6.99 1.54-10.04 2.97a95.009 95.009 0 0 1-9.85 3.96c-3.49 1.18-7.61 2.23-12.36 3.12-4.86.91-10.61 1.64-17.26 2.16-6.73.53-14.67.8-23.76.8-15.67 0-27.67-.92-35.73-2.69-7.73-1.7-10.63-3.86-9-6.4h-26.6l5.03-3.15h25.86c4.61-2.16 12.12-3.76 22.46-4.88 10.02-1.08 21.97-1.61 36.08-1.61l-2.35 4.86c-9.32 0-16.5.3-21.62.91-5.2.61-8.29 1.45-9.24 2.53-.96 1.1.22 1.97 3.6 2.61 3.44.64 8.68.97 15.67.97 6.48 0 11.83-.32 15.98-.94 4.09-.62 8.34-1.74 12.67-3.32 4.15-1.52 7.89-2.72 11.27-3.64 3.3-.89 6.92-1.63 10.89-2.22 3.9-.58 8.31-1.01 13.24-1.31 4.89-.29 10.61-.44 17.2-.44 12.31 0 22.77.56 31.63 1.7 9.16 1.18 15.86 2.89 20.04 5.18h23.84l4.77 3.17h-24.75c1.59 2.95-2.07 5.39-11.35 7.21-9.71 1.91-24.4 2.9-43.73 2.9l-2.9-7.06c10.31 0 17.94-.42 22.83-1.25 4.79-.81 6.54-1.95 5.38-3.38-.93-1.15-3.5-2.03-7.65-2.66-4.09-.62-9.17-.93-15.31-.93z"/><path d="m2493.13 2110.95-1.81 40.23c-.35 7.82-12.51 15.16-33.29 21.5l-1.52 33.77c-.1 2.25-1.16 4.41-3.06 6.54 3.16 1.92 5.64 3.97 7.23 6.02 1.63 2.09 2.42 4.17 2.32 6.34l-1.81 40.19c-.11 2.41-1.38 4.77-3.6 7.06 5.3 2.44 9.4 5.01 12.12 7.66 2.77 2.61 4.13 5.33 4.01 8.14l-1.81 40.22c-1.07 23.74-109.58 42.95-242.37 42.95-57.43 0-109.97-3.61-151.01-9.62l1.15-20.17c-.21-.8-.37-1.65-.33-2.49.04-.88.28-1.76.64-2.65l.01-.08h.04c2.71-6.82 14.27-13.19 32.69-18.81l1.77-31.24c-.25-.8-.37-1.64-.33-2.49.02-.44.16-.88.25-1.28-20.37-6.34-31.91-13.72-31.55-21.58l2.14-37.7c-.2-.84-.36-1.69-.33-2.53.04-.88.28-1.77.64-2.65v-.08h.04c2.71-6.82 14.31-13.19 32.73-18.81l1.63-29c-.24-.84-.36-1.64-.33-2.49.02-.44.16-.88.26-1.32-20.37-6.34-31.91-13.68-31.56-21.54l2.14-37.7c-.2-.84-.36-1.69-.33-2.53.04-.88.28-1.76.64-2.65v-.08h.04c8.91-22.46 114.07-40.22 241.69-40.22 48.25 0 93.01 2.53 130.43 6.9l-.87 19.33c-.02.44-.16.88-.26 1.32 10.16 3.17 18.15 6.58 23.57 10.19 5.38 3.62 8.17 7.42 7.99 11.35z" style="opacity:.2;fill:#1a2326"/><radialGradient id="SVGID_15_" cx="2135.271" cy="1320.732" r="886.663" gradientTransform="matrix(1 0 -.0336 .7462 72.425 1252.109)" gradientUnits="userSpaceOnUse"><stop offset="0" style="stop-color:#fbe034"/><stop offset=".149" style="stop-color:#fac63e"/><stop offset=".319" style="stop-color:#f8af46"/><stop offset=".504" style="stop-color:#f89f4c"/><stop offset=".714" style="stop-color:#f79650"/><stop offset="1" style="stop-color:#f79351"/></radialGradient><path d="M2439.2 2310.43c-20.88-1.06-42.91-1.64-65.75-1.64-17.01 0-33.61.32-49.64.92l-146.77-.92c-2.48-1.26-43.52 0-43.52 0l-2.43 42.96c-1.07 23.72 105.71 42.96 238.5 42.96 132.79 0 241.3-19.24 242.37-42.96l1.81-40.22-174.57-1.1z" style="fill:url(#SVGID_15_)"/><path class="st45" d="M2613.77 2311.52c-1.07 23.73-109.58 42.96-242.37 42.96-132.79 0-239.57-19.24-238.5-42.96 1.07-23.73 109.58-42.96 242.37-42.96 132.79 0 239.57 19.24 238.5 42.96z"/><path class="st46" d="M2606.43 2311.52c-1 22.21-106.17 40.22-234.91 40.22-128.73 0-232.29-18.01-231.28-40.22 1-22.22 106.17-40.22 234.91-40.22 128.73 0 232.28 18.01 231.28 40.22z"/><path class="st45" d="M2600.22 2311.52c-.9 20-103.21 36.22-228.52 36.22s-226.16-16.22-225.26-36.22 103.21-36.22 228.52-36.22c125.31 0 226.16 16.22 225.26 36.22z"/><radialGradient id="SVGID_16_" cx="2297.818" cy="1353.49" r="344.548" gradientTransform="matrix(1 0 -.0336 .7462 72.425 1252.109)" gradientUnits="userSpaceOnUse"><stop offset="0" style="stop-color:#fbe034"/><stop offset=".149" style="stop-color:#fac63e"/><stop offset=".319" style="stop-color:#f8af46"/><stop offset=".504" style="stop-color:#f89f4c"/><stop offset=".714" style="stop-color:#f79650"/><stop offset="1" style="stop-color:#f79351"/></radialGradient><path d="M2414.37 2306.31c-6.37 0-11.33.27-14.94.83-3.66.56-6.99 1.54-10.04 2.97a95.009 95.009 0 0 1-9.85 3.96c-3.49 1.18-7.62 2.23-12.37 3.12-4.86.91-10.61 1.64-17.26 2.16-6.73.53-14.67.8-23.76.8-15.67 0-27.67-.92-35.73-2.69-7.73-1.7-10.62-3.86-9-6.39h-26.6l.22-4.85 30.27-1.66c4.62-2.16 12.52-.41 22.87-1.52 10.01-1.08 22.18-6.45 36.3-6.45l-.08 5.82-2.49 3.88c-9.32 0-16.5.3-21.62.9-5.2.61-8.29 1.46-9.24 2.54-.96 1.1.22 1.98 3.6 2.6 3.44.64 8.68.96 15.67.96 6.48 0 11.83-.31 15.98-.94 4.09-.62 8.34-1.74 12.67-3.33 4.15-1.52 7.89-2.72 11.27-3.64 3.3-.89 6.93-1.63 10.89-2.22 3.9-.58 8.31-1.01 13.25-1.31 4.89-.3 10.61-.44 17.2-.44 12.31 0 22.78.56 31.63 1.71 9.17 1.19 14.02-.87 18.2 1.42l30.67 2.08-.22 4.84h-24.75c1.58 2.94-2.07 5.39-11.36 7.21-9.71 1.91-24.4 2.89-43.73 2.89l-2.9-7.06c.28-2.4-.41-2.28.22-4.84 7.82-.12 18.55 4.28 22.61 3.6 4.78-.81 6.54-1.95 5.38-3.38-.93-1.15-3.5-2.03-7.66-2.67-4.08-.6-9.16-.9-15.3-.9z" style="fill:url(#SVGID_16_)"/><path class="st14" d="M2414.59 2301.46c-6.37 0-11.33.27-14.94.83-3.66.56-6.99 1.54-10.03 2.97a95.912 95.912 0 0 1-9.85 3.96c-3.49 1.19-7.62 2.23-12.36 3.12-4.86.91-10.61 1.64-17.26 2.16-6.73.53-14.67.8-23.76.8-15.67 0-27.67-.91-35.73-2.69-7.73-1.7-10.62-3.86-9-6.39h-26.6l5.03-3.15h25.86c4.61-2.16 12.12-3.76 22.46-4.88 10.01-1.08 21.96-1.61 36.08-1.61l-2.35 4.86c-9.32 0-16.5.3-21.61.9-5.2.61-8.3 1.46-9.24 2.54-.96 1.1.22 1.97 3.6 2.6 3.43.64 8.68.97 15.67.97 6.48 0 11.83-.32 15.98-.95 4.09-.61 8.34-1.74 12.67-3.32 4.15-1.52 7.89-2.72 11.27-3.63 3.3-.89 6.93-1.63 10.89-2.22 3.9-.58 8.31-1.01 13.25-1.31 4.89-.3 10.61-.45 17.2-.45 12.3 0 22.77.56 31.63 1.7 9.17 1.19 15.86 2.89 20.04 5.18h23.84l4.77 3.17h-24.75c1.59 2.95-2.07 5.39-11.36 7.21-9.71 1.91-24.4 2.89-43.73 2.89l-2.9-7.06c10.31 0 17.94-.42 22.82-1.25 4.79-.81 6.54-1.95 5.38-3.39-.93-1.15-3.5-2.03-7.66-2.67-4.09-.58-9.17-.89-15.31-.89z"/><radialGradient id="SVGID_17_" cx="2167.582" cy="1246.66" r="886.657" gradientTransform="matrix(1 0 -.0336 .7462 72.425 1252.109)" gradientUnits="userSpaceOnUse"><stop offset="0" style="stop-color:#fbe034"/><stop offset=".149" style="stop-color:#fac63e"/><stop offset=".319" style="stop-color:#f8af46"/><stop offset=".504" style="stop-color:#f89f4c"/><stop offset=".714" style="stop-color:#f79650"/><stop offset="1" style="stop-color:#f79351"/></radialGradient><path d="M2474.01 2255.16c-20.88-1.06-42.91-1.64-65.75-1.64-17.01 0-33.61.32-49.65.92l-146.77-.92c-2.48-1.26-43.52 0-43.52 0l-2.43 42.96c-1.07 23.72 105.71 42.96 238.5 42.96s241.3-19.23 242.37-42.96l1.81-40.22-174.56-1.1z" style="fill:url(#SVGID_17_)"/><path class="st45" d="M2648.57 2256.25c-1.07 23.73-109.58 42.96-242.37 42.96-132.79 0-239.57-19.24-238.5-42.96 1.07-23.73 109.58-42.96 242.37-42.96 132.78 0 239.57 19.23 238.5 42.96z"/><path class="st46" d="M2641.23 2256.25c-1 22.21-106.17 40.22-234.91 40.22s-232.28-18.01-231.28-40.22c1-22.22 106.17-40.23 234.91-40.23 128.73 0 232.28 18.01 231.28 40.23z"/><path class="st45" d="M2635.02 2256.25c-.9 20-103.21 36.22-228.52 36.22-125.31 0-226.16-16.22-225.25-36.22.9-20 103.21-36.22 228.52-36.22 125.3 0 226.15 16.22 225.25 36.22z"/><radialGradient id="SVGID_18_" cx="2330.127" cy="1279.417" r="344.548" gradientTransform="matrix(1 0 -.0336 .7462 72.425 1252.109)" gradientUnits="userSpaceOnUse"><stop offset="0" style="stop-color:#fbe034"/><stop offset=".149" style="stop-color:#fac63e"/><stop offset=".319" style="stop-color:#f8af46"/><stop offset=".504" style="stop-color:#f89f4c"/><stop offset=".714" style="stop-color:#f79650"/><stop offset="1" style="stop-color:#f79351"/></radialGradient><path d="M2449.17 2251.03c-6.37 0-11.33.27-14.94.83-3.66.56-6.99 1.54-10.04 2.97a95.009 95.009 0 0 1-9.85 3.96c-3.49 1.18-7.62 2.23-12.37 3.12-4.85.91-10.61 1.64-17.26 2.16-6.73.53-14.68.8-23.76.8-15.67 0-27.67-.92-35.73-2.69-7.73-1.7-10.62-3.86-9-6.39h-26.6l.22-4.84 30.27-1.67c4.61-2.16 12.52-.41 22.86-1.52 10.01-1.08 22.18-6.45 36.3-6.45l-.07 5.82-2.5 3.88c-9.32 0-16.5.3-21.61.91-5.2.61-8.29 1.45-9.24 2.54-.96 1.1.22 1.97 3.6 2.6 3.44.64 8.68.96 15.67.96 6.49 0 11.83-.32 15.98-.94 4.09-.62 8.34-1.74 12.67-3.32 4.15-1.52 7.89-2.72 11.27-3.64 3.3-.89 6.93-1.63 10.89-2.21 3.9-.58 8.31-1.02 13.24-1.31 4.89-.3 10.61-.44 17.2-.44 12.3 0 22.78.56 31.64 1.71 9.17 1.19 14.02-.87 18.2 1.42l30.67 2.08-.22 4.84h-24.74c1.59 2.95-2.07 5.39-11.36 7.21-9.71 1.91-24.4 2.89-43.73 2.89l-2.9-7.06c.28-2.4-.41-2.28.22-4.84 7.82-.12 18.55 4.28 22.61 3.59 4.79-.81 6.54-1.95 5.38-3.38-.93-1.15-3.49-2.04-7.65-2.67-4.1-.61-9.18-.92-15.32-.92z" style="fill:url(#SVGID_18_)"/><path class="st14" d="M2449.39 2246.19c-6.37 0-11.33.27-14.94.83-3.66.56-6.99 1.55-10.04 2.97a95.737 95.737 0 0 1-9.84 3.96c-3.49 1.19-7.62 2.23-12.37 3.12-4.86.92-10.61 1.64-17.26 2.16-6.73.53-14.67.8-23.76.8-15.67 0-27.67-.92-35.73-2.69-7.73-1.7-10.63-3.86-9-6.39h-26.6l5.03-3.15h25.86c4.61-2.16 12.12-3.76 22.47-4.88 10.02-1.07 21.96-1.6 36.08-1.6l-2.35 4.86c-9.32 0-16.5.3-21.61.9-5.2.62-8.29 1.46-9.24 2.54-.96 1.1.22 1.97 3.6 2.6 3.44.64 8.68.97 15.67.97 6.49 0 11.83-.32 15.98-.95 4.09-.62 8.34-1.74 12.67-3.32 4.15-1.52 7.89-2.72 11.27-3.64 3.3-.89 6.93-1.63 10.89-2.22 3.9-.58 8.31-1.01 13.25-1.31 4.89-.29 10.62-.44 17.2-.44 12.31 0 22.78.56 31.64 1.7 9.17 1.19 15.86 2.89 20.03 5.18h23.84l4.77 3.16h-24.75c1.59 2.95-2.07 5.39-11.36 7.21-9.71 1.91-24.4 2.89-43.73 2.89l-2.9-7.06c10.31 0 17.94-.42 22.83-1.25 4.79-.81 6.54-1.95 5.38-3.39-.93-1.14-3.49-2.03-7.65-2.67-4.11-.58-9.19-.89-15.33-.89z"/><radialGradient id="SVGID_19_" cx="2135.271" cy="1162.13" r="886.667" gradientTransform="matrix(1 0 -.0336 .7462 72.425 1252.109)" gradientUnits="userSpaceOnUse"><stop offset="0" style="stop-color:#fbe034"/><stop offset=".149" style="stop-color:#fac63e"/><stop offset=".319" style="stop-color:#f8af46"/><stop offset=".504" style="stop-color:#f89f4c"/><stop offset=".714" style="stop-color:#f79650"/><stop offset="1" style="stop-color:#f79351"/></radialGradient><path d="M2444.53 2192.08c-20.88-1.06-42.91-1.64-65.75-1.64-17.01 0-33.6.32-49.64.92l-146.76-.92c-2.49-1.26-43.53 0-43.53 0l-2.43 42.96c-1.07 23.73 105.71 42.96 238.5 42.96 132.79 0 241.3-19.24 242.37-42.96l1.81-40.22-174.57-1.1z" style="fill:url(#SVGID_19_)"/><path class="st45" d="M2619.1 2193.18c-1.07 23.72-109.58 42.96-242.37 42.96-132.79 0-239.57-19.23-238.5-42.96 1.07-23.73 109.58-42.96 242.37-42.96 132.79 0 239.57 19.23 238.5 42.96z"/><path class="st46" d="M2611.76 2193.18c-1 22.22-106.17 40.22-234.91 40.22-128.73 0-232.28-18.01-231.28-40.22 1-22.21 106.17-40.22 234.91-40.22 128.73-.01 232.28 18 231.28 40.22z"/><path class="st45" d="M2605.55 2193.18c-.9 20-103.21 36.22-228.52 36.22-125.31 0-226.16-16.22-225.26-36.22.9-20 103.21-36.22 228.52-36.22 125.31 0 226.16 16.21 225.26 36.22z"/><radialGradient id="SVGID_20_" cx="2297.817" cy="1194.893" r="344.548" gradientTransform="matrix(1 0 -.0336 .7462 72.425 1252.109)" gradientUnits="userSpaceOnUse"><stop offset="0" style="stop-color:#fbe034"/><stop offset=".149" style="stop-color:#fac63e"/><stop offset=".319" style="stop-color:#f8af46"/><stop offset=".504" style="stop-color:#f89f4c"/><stop offset=".714" style="stop-color:#f79650"/><stop offset="1" style="stop-color:#f79351"/></radialGradient><path d="M2419.7 2187.96c-6.37 0-11.33.27-14.94.83-3.66.56-6.99 1.54-10.04 2.97a95.009 95.009 0 0 1-9.85 3.96c-3.49 1.18-7.61 2.23-12.36 3.12-4.86.91-10.61 1.64-17.26 2.16-6.73.53-14.67.8-23.76.8-15.67 0-27.67-.92-35.73-2.69-7.73-1.7-10.62-3.86-9-6.39h-26.6l.22-4.85 30.27-1.66c4.62-2.16 12.52-.41 22.87-1.52 10.02-1.08 22.18-6.45 36.3-6.45l-.08 5.82-2.49 3.88c-9.32 0-16.5.3-21.61.91-5.2.61-8.3 1.46-9.24 2.54-.96 1.1.22 1.97 3.6 2.61 3.44.64 8.68.97 15.67.97 6.48 0 11.83-.32 15.98-.95 4.09-.62 8.34-1.74 12.67-3.32 4.15-1.52 7.89-2.72 11.27-3.64 3.3-.89 6.93-1.63 10.9-2.22 3.9-.58 8.31-1.01 13.25-1.31 4.89-.29 10.61-.44 17.2-.44 12.31 0 22.78.56 31.64 1.7 9.16 1.18 14.02-.87 18.2 1.42l30.67 2.08-.22 4.84h-24.75c1.59 2.95-2.07 5.39-11.36 7.21-9.71 1.9-24.4 2.89-43.73 2.89l-2.9-7.06c.28-2.4-.41-2.28.22-4.84 7.82-.12 18.55 4.28 22.61 3.6 4.79-.81 6.54-1.95 5.38-3.38-.93-1.15-3.5-2.03-7.66-2.67-4.12-.61-9.2-.92-15.34-.92z" style="fill:url(#SVGID_20_)"/><path class="st14" d="M2419.92 2183.12c-6.37 0-11.33.27-14.94.83-3.66.57-6.99 1.55-10.04 2.97a95.009 95.009 0 0 1-9.85 3.96c-3.49 1.19-7.62 2.23-12.36 3.13-4.86.91-10.61 1.64-17.26 2.16-6.73.53-14.67.8-23.76.8-15.67 0-27.67-.92-35.73-2.69-7.72-1.7-10.62-3.86-9-6.39h-26.6l5.03-3.15h25.86c4.61-2.16 12.12-3.76 22.46-4.88 10.02-1.08 21.96-1.61 36.08-1.61l-2.35 4.86c-9.32 0-16.5.3-21.61.9-5.2.62-8.3 1.46-9.24 2.54-.96 1.1.22 1.97 3.6 2.61 3.43.64 8.68.97 15.67.97 6.48 0 11.83-.32 15.98-.95 4.09-.62 8.34-1.74 12.67-3.32 4.15-1.52 7.89-2.72 11.27-3.64 3.3-.89 6.93-1.62 10.89-2.21 3.9-.58 8.31-1.01 13.25-1.31 4.89-.29 10.61-.44 17.2-.44 12.31 0 22.78.56 31.63 1.7 9.17 1.19 15.86 2.89 20.04 5.18h23.84l4.77 3.16h-24.74c1.58 2.95-2.07 5.39-11.36 7.21-9.71 1.9-24.4 2.89-43.73 2.89l-2.9-7.06c10.31 0 17.94-.42 22.83-1.25 4.79-.81 6.54-1.95 5.38-3.38-.93-1.15-3.5-2.03-7.66-2.67-4.1-.62-9.18-.92-15.32-.92z"/><radialGradient id="SVGID_21_" cx="2167.582" cy="1091.061" r="886.659" gradientTransform="matrix(1 0 -.0336 .7462 72.425 1252.109)" gradientUnits="userSpaceOnUse"><stop offset="0" style="stop-color:#fbe034"/><stop offset=".149" style="stop-color:#fac63e"/><stop offset=".319" style="stop-color:#f8af46"/><stop offset=".504" style="stop-color:#f89f4c"/><stop offset=".714" style="stop-color:#f79650"/><stop offset="1" style="stop-color:#f79351"/></radialGradient><path d="M2479.23 2139.04c-20.88-1.06-42.91-1.64-65.75-1.64-17.01 0-33.61.32-49.64.92l-146.77-.92c-2.48-1.26-43.52 0-43.52 0l-2.43 42.96c-1.07 23.73 105.71 42.96 238.5 42.96 132.78 0 241.3-19.23 242.37-42.96l1.81-40.23-174.57-1.09z" style="fill:url(#SVGID_21_)"/><path class="st45" d="M2653.8 2140.14c-1.07 23.73-109.58 42.96-242.37 42.96-132.79 0-239.57-19.23-238.5-42.96 1.07-23.73 109.58-42.96 242.37-42.96 132.78 0 239.56 19.23 238.5 42.96z"/><path class="st46" d="M2646.46 2140.14c-1 22.22-106.17 40.23-234.9 40.23-128.74 0-232.29-18.01-231.29-40.23 1-22.21 106.17-40.22 234.91-40.22 128.73-.01 232.28 18 231.28 40.22z"/><path class="st41" d="M2640.25 2140.14c-.9 20.01-103.21 36.23-228.52 36.23-125.3 0-226.16-16.22-225.25-36.23.9-20 103.21-36.22 228.52-36.22 125.3 0 226.15 16.22 225.25 36.22z"/><radialGradient id="SVGID_22_" cx="2330.128" cy="1123.821" r="344.543" gradientTransform="matrix(1 0 -.0336 .7462 72.425 1252.109)" gradientUnits="userSpaceOnUse"><stop offset="0" style="stop-color:#fbe034"/><stop offset=".149" style="stop-color:#fac63e"/><stop offset=".319" style="stop-color:#f8af46"/><stop offset=".504" style="stop-color:#f89f4c"/><stop offset=".714" style="stop-color:#f79650"/><stop offset="1" style="stop-color:#f79351"/></radialGradient><path d="M2454.4 2134.92c-6.37 0-11.34.27-14.94.83-3.66.56-6.99 1.55-10.04 2.97a95.009 95.009 0 0 1-9.85 3.96c-3.49 1.19-7.62 2.23-12.36 3.12-4.86.92-10.61 1.64-17.26 2.16-6.73.53-14.67.8-23.76.8-15.67 0-27.67-.92-35.73-2.69-7.73-1.7-10.62-3.86-9-6.39h-26.6l.22-4.85 30.27-1.66c4.61-2.16 12.52-.41 22.86-1.52 10.01-1.08 22.19-6.45 36.29-6.45l-.07 5.82-2.5 3.88c-9.32 0-16.5.3-21.61.9-5.2.61-8.29 1.45-9.24 2.54-.96 1.1.22 1.97 3.6 2.6 3.44.64 8.68.97 15.67.97 6.49 0 11.83-.32 15.98-.95 4.09-.62 8.34-1.74 12.67-3.32 4.15-1.52 7.89-2.72 11.27-3.64 3.3-.89 6.93-1.63 10.89-2.22 3.9-.58 8.32-1.01 13.25-1.31 4.89-.3 10.62-.44 17.2-.44 12.3 0 22.78.56 31.63 1.71 9.16 1.19 14.02-.87 18.2 1.42l30.67 2.08-.22 4.84h-24.75c1.59 2.95-2.07 5.39-11.36 7.21-9.71 1.91-24.4 2.89-43.73 2.89l-2.9-7.06c.28-2.4-.41-2.28.22-4.85 7.82-.12 18.55 4.29 22.61 3.6 4.79-.81 6.54-1.95 5.38-3.39-.93-1.14-3.5-2.03-7.66-2.66-4.08-.59-9.16-.9-15.3-.9z" style="fill:url(#SVGID_22_)"/><path class="st14" d="M2454.62 2130.08c-6.37 0-11.34.27-14.94.83-3.66.56-6.99 1.54-10.04 2.97a95.009 95.009 0 0 1-9.85 3.96c-3.49 1.18-7.62 2.23-12.36 3.12-4.86.91-10.61 1.64-17.26 2.16-6.73.53-14.67.8-23.76.8-15.67 0-27.67-.92-35.73-2.69-7.73-1.7-10.62-3.85-9-6.39h-26.6l5.03-3.15h25.86c4.61-2.16 12.12-3.76 22.46-4.88 10.02-1.07 21.97-1.6 36.08-1.6l-2.35 4.86c-9.32 0-16.5.3-21.61.9-5.2.61-8.29 1.46-9.24 2.53-.96 1.1.22 1.98 3.6 2.61 3.44.64 8.67.97 15.67.97 6.49 0 11.83-.32 15.98-.94 4.09-.62 8.34-1.74 12.67-3.32 4.15-1.52 7.89-2.72 11.27-3.64 3.3-.89 6.93-1.63 10.89-2.22 3.9-.58 8.31-1.01 13.25-1.31 4.89-.3 10.61-.44 17.2-.44 12.3 0 22.78.56 31.64 1.7 9.16 1.18 15.86 2.89 20.04 5.18h23.84l4.77 3.17h-24.74c1.59 2.95-2.07 5.39-11.36 7.21-9.71 1.9-24.4 2.89-43.73 2.89l-2.9-7.07c10.31 0 17.94-.42 22.83-1.25 4.78-.81 6.54-1.95 5.38-3.38-.93-1.15-3.5-2.03-7.66-2.67-4.11-.6-9.19-.91-15.33-.91z"/><radialGradient id="SVGID_23_" cx="2135.273" cy="1006.528" r="886.666" gradientTransform="matrix(1 0 -.0336 .7462 72.425 1252.109)" gradientUnits="userSpaceOnUse"><stop offset="0" style="stop-color:#fbe034"/><stop offset=".149" style="stop-color:#fac63e"/><stop offset=".319" style="stop-color:#f8af46"/><stop offset=".504" style="stop-color:#f89f4c"/><stop offset=".714" style="stop-color:#f79650"/><stop offset="1" style="stop-color:#f79351"/></radialGradient><path d="M2449.76 2075.97c-20.88-1.06-42.91-1.64-65.75-1.64-17.01 0-33.61.32-49.64.92l-146.77-.92c-2.48-1.26-43.52 0-43.52 0l-2.43 42.96c-1.07 23.73 105.71 42.96 238.5 42.96 132.79 0 241.3-19.24 242.37-42.96l1.81-40.22-174.57-1.1z" style="fill:url(#SVGID_23_)"/><ellipse transform="translate(-3.081 3.542)" class="st45" cx="2383.89" cy="2077.07" rx="240.44" ry="42.96"/><path class="st46" d="M2616.99 2077.07c-1 22.22-467.19 22.22-466.19 0 1-22.21 106.17-40.22 234.9-40.22 128.74 0 232.29 18 231.29 40.22z"/><path class="st41" d="M2610.78 2077.07c-.9 20-103.21 36.22-228.52 36.22-125.3 0-226.16-16.22-225.26-36.22.9-20 103.21-36.22 228.52-36.22 125.31-.01 226.16 16.21 225.26 36.22z"/><radialGradient id="SVGID_24_" cx="2297.818" cy="1039.291" r="344.548" gradientTransform="matrix(1 0 -.0336 .7462 72.425 1252.109)" gradientUnits="userSpaceOnUse"><stop offset="0" style="stop-color:#fbe034"/><stop offset=".149" style="stop-color:#fac63e"/><stop offset=".319" style="stop-color:#f8af46"/><stop offset=".504" style="stop-color:#f89f4c"/><stop offset=".714" style="stop-color:#f79650"/><stop offset="1" style="stop-color:#f79351"/></radialGradient><path d="M2424.93 2071.85c-6.37 0-11.33.27-14.94.83-3.66.56-6.99 1.55-10.04 2.97a95.009 95.009 0 0 1-9.85 3.96c-3.49 1.19-7.62 2.23-12.36 3.12-4.86.91-10.62 1.64-17.26 2.16-6.73.54-14.67.8-23.76.8-15.67 0-27.67-.92-35.73-2.69-7.72-1.7-10.62-3.86-9-6.39h-26.6l.22-4.84 30.27-1.66c4.61-2.16 12.52-.41 22.86-1.52 10.01-1.08 22.18-6.45 36.3-6.45l-.07 5.82-2.5 3.88c-9.32 0-16.5.3-21.62.91-5.2.61-8.3 1.45-9.24 2.54-.96 1.1.22 1.97 3.6 2.61 3.43.64 8.68.97 15.67.97 6.48 0 11.83-.32 15.98-.95 4.09-.62 8.34-1.74 12.67-3.32 4.15-1.52 7.89-2.72 11.27-3.64 3.3-.89 6.93-1.62 10.89-2.21 3.9-.58 8.31-1.01 13.25-1.31 4.89-.29 10.61-.44 17.2-.44 12.31 0 22.78.56 31.64 1.7 9.16 1.19 14.02-.87 18.2 1.43l30.67 2.08-.22 4.84h-24.74c1.58 2.95-2.07 5.39-11.36 7.21-9.71 1.9-24.4 2.89-43.73 2.89l-2.9-7.06c.28-2.4-.41-2.28.22-4.84 7.82-.12 18.55 4.28 22.61 3.59 4.78-.81 6.54-1.95 5.38-3.38-.93-1.15-3.5-2.03-7.66-2.67-4.1-.63-9.18-.94-15.32-.94z" style="fill:url(#SVGID_24_)"/><path class="st14" d="M2425.15 2067.01c-6.37 0-11.33.27-14.94.83-3.66.56-6.99 1.54-10.04 2.97a95.009 95.009 0 0 1-9.85 3.96c-3.49 1.19-7.62 2.23-12.37 3.12-4.86.91-10.61 1.64-17.26 2.17-6.73.53-14.67.8-23.76.8-15.67 0-27.67-.92-35.73-2.69-7.73-1.7-10.62-3.86-9-6.39h-26.6l5.03-3.15h25.86c4.62-2.16 12.12-3.77 22.46-4.88 10.01-1.08 21.96-1.61 36.08-1.61l-2.35 4.86c-9.32 0-16.5.3-21.62.9-5.2.62-8.3 1.46-9.24 2.54-.96 1.1.22 1.97 3.6 2.61 3.44.64 8.68.96 15.67.96 6.48 0 11.83-.32 15.98-.95 4.09-.62 8.34-1.74 12.67-3.32 4.15-1.52 7.89-2.72 11.27-3.64 3.3-.89 6.93-1.63 10.89-2.21 3.9-.58 8.31-1.01 13.25-1.31 4.89-.29 10.61-.44 17.2-.44 12.31 0 22.78.56 31.64 1.71 9.17 1.18 15.86 2.89 20.04 5.18h23.84l4.77 3.17h-24.75c1.59 2.95-2.07 5.39-11.36 7.21-9.71 1.9-24.4 2.89-43.73 2.89l-2.9-7.06c10.31 0 17.94-.42 22.83-1.25 4.78-.81 6.54-1.95 5.38-3.38-.93-1.15-3.5-2.03-7.66-2.67-4.08-.63-9.16-.93-15.3-.93z"/><radialGradient id="SVGID_25_" cx="2292.308" cy="1363.296" r="886.663" gradientTransform="matrix(1 0 -.0336 .7462 72.425 1252.109)" gradientUnits="userSpaceOnUse"><stop offset="0" style="stop-color:#fbe034"/><stop offset=".149" style="stop-color:#fac63e"/><stop offset=".319" style="stop-color:#f8af46"/><stop offset=".504" style="stop-color:#f89f4c"/><stop offset=".714" style="stop-color:#f79650"/><stop offset="1" style="stop-color:#f79351"/></radialGradient><path d="M2594.81 2342.19c-20.88-1.06-42.91-1.64-65.74-1.64-17.01 0-33.61.32-49.64.92l-146.77-.92c-2.48-1.26-43.53 0-43.53 0l-2.43 42.96c-1.07 23.73 105.72 42.96 238.5 42.96 132.79 0 241.3-19.24 242.36-42.96l1.81-40.22-174.56-1.1z" style="fill:url(#SVGID_25_)"/><path class="st45" d="M2769.38 2343.28c-1.07 23.73-109.58 42.96-242.36 42.96-132.79 0-239.57-19.24-238.5-42.96 1.07-23.73 109.58-42.96 242.37-42.96 132.78 0 239.56 19.24 238.49 42.96z"/><path class="st46" d="M2762.04 2343.28c-1 22.21-106.18 40.22-234.91 40.22s-232.29-18.01-231.29-40.22c1-22.22 106.17-40.22 234.91-40.22s232.29 18.01 231.29 40.22z"/><path class="st41" d="M2755.83 2343.28c-.9 20.01-103.21 36.22-228.52 36.22-125.31 0-226.16-16.21-225.26-36.22.9-20 103.21-36.22 228.52-36.22s226.16 16.22 225.26 36.22z"/><radialGradient id="SVGID_26_" cx="2454.856" cy="1396.058" r="344.548" gradientTransform="matrix(1 0 -.0336 .7462 72.425 1252.109)" gradientUnits="userSpaceOnUse"><stop offset="0" style="stop-color:#fbe034"/><stop offset=".149" style="stop-color:#fac63e"/><stop offset=".319" style="stop-color:#f8af46"/><stop offset=".504" style="stop-color:#f89f4c"/><stop offset=".714" style="stop-color:#f79650"/><stop offset="1" style="stop-color:#f79351"/></radialGradient><path d="M2569.98 2338.07c-6.37 0-11.33.27-14.94.83-3.66.56-6.99 1.54-10.04 2.97a95.009 95.009 0 0 1-9.85 3.96c-3.5 1.19-7.62 2.23-12.36 3.12-4.86.92-10.61 1.64-17.26 2.16-6.73.53-14.67.8-23.76.8-15.67 0-27.67-.92-35.73-2.69-7.72-1.7-10.62-3.86-9-6.39h-26.6l.22-4.84 30.27-1.67c4.62-2.16 12.52-.41 22.86-1.52 10.01-1.08 22.18-6.45 36.3-6.45l-.07 5.82-2.5 3.88c-9.32 0-16.5.3-21.62.9-5.19.61-8.29 1.46-9.24 2.54-.96 1.1.22 1.97 3.6 2.61 3.43.64 8.67.97 15.67.97 6.48 0 11.83-.32 15.98-.95 4.09-.62 8.34-1.74 12.67-3.32 4.15-1.52 7.89-2.72 11.27-3.63 3.3-.89 6.93-1.63 10.89-2.21 3.9-.58 8.31-1.02 13.25-1.32 4.89-.29 10.61-.44 17.2-.44 12.31 0 22.78.56 31.63 1.71 9.17 1.19 14.02-.87 18.2 1.42l30.67 2.08-.22 4.85h-24.74c1.58 2.95-2.07 5.39-11.36 7.21-9.71 1.91-24.4 2.89-43.73 2.89l-2.9-7.06c.28-2.4-.41-2.28.22-4.85 7.82-.11 18.54 4.29 22.61 3.6 4.79-.81 6.54-1.95 5.38-3.38-.93-1.15-3.49-2.03-7.65-2.67-4.1-.63-9.18-.93-15.32-.93z" style="fill:url(#SVGID_26_)"/><path class="st14" d="M2570.2 2333.22c-6.37 0-11.33.27-14.94.83-3.66.56-6.99 1.54-10.04 2.97a95.009 95.009 0 0 1-9.85 3.96c-3.5 1.19-7.62 2.23-12.37 3.12-4.85.91-10.61 1.64-17.26 2.16-6.73.54-14.68.8-23.76.8-15.67 0-27.67-.91-35.73-2.69-7.73-1.7-10.62-3.86-9-6.39h-26.6l5.03-3.15h25.85c4.62-2.16 12.12-3.76 22.47-4.88 10.01-1.08 21.96-1.61 36.08-1.61l-2.35 4.86c-9.32 0-16.5.3-21.62.91-5.19.61-8.29 1.46-9.23 2.54-.96 1.1.22 1.97 3.6 2.6 3.44.64 8.68.97 15.67.97 6.48 0 11.83-.32 15.98-.94 4.09-.62 8.34-1.74 12.67-3.32 4.15-1.52 7.89-2.72 11.27-3.64 3.3-.89 6.93-1.63 10.89-2.21 3.9-.58 8.31-1.01 13.24-1.31 4.89-.3 10.61-.44 17.2-.44 12.31 0 22.78.56 31.63 1.71 9.17 1.18 15.86 2.89 20.04 5.18h23.84l4.77 3.16h-24.74c1.58 2.95-2.07 5.39-11.36 7.22-9.71 1.91-24.4 2.89-43.73 2.89l-2.89-7.06c10.3 0 17.94-.42 22.83-1.25 4.78-.81 6.54-1.95 5.38-3.38-.93-1.15-3.49-2.03-7.65-2.67-4.1-.63-9.18-.94-15.32-.94z"/><radialGradient id="SVGID_27_" cx="2324.622" cy="1289.227" r="886.653" gradientTransform="matrix(1 0 -.0336 .7462 72.425 1252.109)" gradientUnits="userSpaceOnUse"><stop offset="0" style="stop-color:#fbe034"/><stop offset=".149" style="stop-color:#fac63e"/><stop offset=".319" style="stop-color:#f8af46"/><stop offset=".504" style="stop-color:#f89f4c"/><stop offset=".714" style="stop-color:#f79650"/><stop offset="1" style="stop-color:#f79351"/></radialGradient><path d="M2629.61 2286.92c-20.88-1.06-42.91-1.64-65.75-1.64-17 0-33.6.32-49.64.92l-146.77-.92c-2.48-1.26-43.52 0-43.52 0l-2.43 42.96c-1.07 23.73 105.71 42.96 238.49 42.96 132.79 0 241.3-19.23 242.37-42.96l1.81-40.22-174.56-1.1z" style="fill:url(#SVGID_27_)"/><path class="st45" d="M2804.18 2288.01c-1.07 23.73-109.58 42.96-242.37 42.96-132.79 0-239.56-19.24-238.5-42.96 1.07-23.73 109.58-42.96 242.37-42.96s239.57 19.23 238.5 42.96z"/><path class="st46" d="M2796.84 2288.01c-1 22.21-106.17 40.22-234.91 40.22-128.73 0-232.29-18.01-231.29-40.22 1-22.22 106.17-40.22 234.91-40.22 128.74-.01 232.29 18 231.29 40.22z"/><path class="st41" d="M2790.63 2288.01c-.9 20-103.21 36.22-228.52 36.22-125.3 0-226.16-16.22-225.25-36.22.9-20 103.21-36.22 228.52-36.22 125.3 0 226.15 16.21 225.25 36.22z"/><radialGradient id="SVGID_28_" cx="2487.169" cy="1321.984" r="344.546" gradientTransform="matrix(1 0 -.0336 .7462 72.425 1252.109)" gradientUnits="userSpaceOnUse"><stop offset="0" style="stop-color:#fbe034"/><stop offset=".149" style="stop-color:#fac63e"/><stop offset=".319" style="stop-color:#f8af46"/><stop offset=".504" style="stop-color:#f89f4c"/><stop offset=".714" style="stop-color:#f79650"/><stop offset="1" style="stop-color:#f79351"/></radialGradient><path d="M2604.78 2282.79c-6.37 0-11.33.27-14.94.83-3.66.56-6.99 1.55-10.04 2.97a95.009 95.009 0 0 1-9.85 3.96c-3.49 1.19-7.61 2.23-12.36 3.12-4.86.91-10.61 1.64-17.26 2.16-6.73.53-14.67.8-23.76.8-15.67 0-27.67-.92-35.73-2.69-7.73-1.7-10.62-3.86-9-6.39h-26.6l.22-4.84 30.27-1.66c4.62-2.16 12.52-.41 22.87-1.52 10.01-1.08 22.18-6.45 36.3-6.45l-.08 5.82-2.5 3.88c-9.32 0-16.5.3-21.62.9-5.2.61-8.29 1.46-9.24 2.54-.96 1.1.22 1.97 3.6 2.61 3.44.64 8.68.97 15.67.97 6.48 0 11.83-.32 15.98-.95 4.09-.62 8.34-1.74 12.67-3.32 4.15-1.52 7.89-2.72 11.27-3.64 3.3-.89 6.93-1.63 10.89-2.21 3.9-.58 8.31-1.01 13.24-1.32 4.89-.3 10.61-.44 17.2-.44 12.31 0 22.78.56 31.64 1.71 9.17 1.19 14.02-.87 18.2 1.42l30.67 2.08-.22 4.84h-24.75c1.58 2.95-2.07 5.39-11.36 7.21-9.71 1.91-24.4 2.89-43.73 2.89l-2.9-7.06c.29-2.4-.41-2.28.22-4.84 7.82-.12 18.55 4.28 22.61 3.59 4.79-.81 6.54-1.95 5.38-3.38-.93-1.15-3.49-2.03-7.66-2.67-4.08-.61-9.16-.92-15.3-.92z" style="fill:url(#SVGID_28_)"/><path class="st14" d="M2605 2277.95c-6.37 0-11.33.28-14.94.83-3.66.56-6.99 1.54-10.04 2.97a95.009 95.009 0 0 1-9.85 3.96c-3.49 1.19-7.61 2.23-12.36 3.13-4.86.91-10.61 1.64-17.26 2.16-6.73.53-14.67.8-23.76.8-15.67 0-27.67-.92-35.73-2.69-7.72-1.7-10.62-3.86-9-6.39h-26.6l5.03-3.15h25.85c4.62-2.16 12.12-3.76 22.47-4.88 10.01-1.08 21.96-1.6 36.08-1.6l-2.35 4.86c-9.32 0-16.5.3-21.62.9-5.19.62-8.29 1.46-9.24 2.54-.96 1.1.22 1.97 3.6 2.6 3.44.64 8.68.97 15.67.97 6.48 0 11.83-.32 15.98-.94 4.09-.62 8.34-1.74 12.67-3.32 4.15-1.52 7.89-2.73 11.27-3.64 3.3-.89 6.93-1.63 10.9-2.21 3.9-.58 8.31-1.02 13.24-1.31 4.89-.3 10.61-.44 17.2-.44 12.3 0 22.77.56 31.63 1.71 9.16 1.18 15.86 2.88 20.04 5.18h23.84l4.77 3.17h-24.74c1.58 2.94-2.07 5.39-11.36 7.21-9.71 1.91-24.4 2.9-43.73 2.9l-2.9-7.07c10.31 0 17.94-.42 22.83-1.25 4.79-.81 6.54-1.95 5.38-3.38-.93-1.15-3.5-2.04-7.65-2.67-4.1-.64-9.18-.95-15.32-.95z"/><radialGradient id="SVGID_29_" cx="2292.31" cy="1218.257" r="886.662" gradientTransform="matrix(1 0 -.0336 .7462 72.425 1252.109)" gradientUnits="userSpaceOnUse"><stop offset="0" style="stop-color:#fbe034"/><stop offset=".149" style="stop-color:#fac63e"/><stop offset=".319" style="stop-color:#f8af46"/><stop offset=".504" style="stop-color:#f89f4c"/><stop offset=".714" style="stop-color:#f79650"/><stop offset="1" style="stop-color:#f79351"/></radialGradient><path d="M2599.69 2233.96c-20.88-1.06-42.91-1.64-65.75-1.64-17.01 0-33.6.32-49.64.92l-146.77-.92c-2.48-1.27-43.52 0-43.52 0l-2.43 42.96c-1.07 23.73 105.71 42.96 238.5 42.96 132.78 0 241.29-19.24 242.36-42.96l1.81-40.22-174.56-1.1z" style="fill:url(#SVGID_29_)"/><path class="st45" d="M2774.25 2235.06c-1.07 23.72-109.58 42.96-242.36 42.96-132.79 0-239.57-19.23-238.5-42.96 1.07-23.73 109.58-42.96 242.37-42.96 132.78-.01 239.56 19.23 238.49 42.96z"/><path class="st46" d="M2766.91 2235.06c-1 22.21-106.17 40.22-234.9 40.22-128.74 0-232.29-18.01-231.29-40.22 1-22.22 106.18-40.23 234.91-40.23s232.28 18.01 231.28 40.23z"/><path class="st41" d="M2760.71 2235.06c-.9 20-103.21 36.22-228.52 36.22-125.31 0-226.16-16.22-225.26-36.22.9-20.01 103.21-36.23 228.52-36.23 125.31 0 226.15 16.22 225.26 36.23z"/><radialGradient id="SVGID_30_" cx="2454.857" cy="1251.017" r="344.552" gradientTransform="matrix(1 0 -.0336 .7462 72.425 1252.109)" gradientUnits="userSpaceOnUse"><stop offset="0" style="stop-color:#fbe034"/><stop offset=".149" style="stop-color:#fac63e"/><stop offset=".319" style="stop-color:#f8af46"/><stop offset=".504" style="stop-color:#f89f4c"/><stop offset=".714" style="stop-color:#f79650"/><stop offset="1" style="stop-color:#f79351"/></radialGradient><path d="M2574.86 2229.84c-6.37 0-11.33.27-14.94.83-3.66.56-6.99 1.54-10.04 2.97a95.009 95.009 0 0 1-9.85 3.96c-3.5 1.19-7.62 2.23-12.37 3.12-4.86.92-10.61 1.64-17.26 2.16-6.73.53-14.67.8-23.76.8-15.67 0-27.67-.92-35.73-2.69-7.73-1.7-10.62-3.86-9-6.39h-26.6l.22-4.84 30.27-1.66c4.62-2.16 12.52-.41 22.87-1.52 10.01-1.08 22.18-6.45 36.3-6.45l-.08 5.82-2.5 3.89c-9.32 0-16.5.3-21.62.9-5.2.62-8.29 1.46-9.24 2.54-.96 1.1.22 1.97 3.6 2.6 3.44.64 8.68.97 15.67.97 6.48 0 11.83-.32 15.98-.94 4.09-.62 8.34-1.74 12.67-3.32 4.15-1.52 7.89-2.72 11.27-3.64 3.3-.89 6.93-1.63 10.89-2.22 3.9-.58 8.31-1.01 13.24-1.31 4.89-.3 10.61-.44 17.2-.44 12.31 0 22.78.56 31.63 1.7 9.17 1.19 14.02-.87 18.2 1.43l30.67 2.08-.22 4.84h-24.75c1.59 2.95-2.07 5.39-11.36 7.21-9.71 1.91-24.4 2.9-43.73 2.9l-2.9-7.07c.28-2.4-.42-2.27.22-4.84 7.82-.12 18.55 4.28 22.61 3.6 4.78-.81 6.54-1.95 5.38-3.38-.93-1.15-3.49-2.04-7.65-2.67-4.07-.63-9.16-.94-15.29-.94z" style="fill:url(#SVGID_30_)"/><path class="st14" d="M2575.08 2224.99c-6.37 0-11.33.27-14.94.83-3.66.56-6.99 1.54-10.04 2.97a95.009 95.009 0 0 1-9.85 3.96c-3.5 1.19-7.62 2.23-12.36 3.13-4.86.91-10.61 1.64-17.26 2.16-6.73.53-14.67.8-23.76.8-15.67 0-27.67-.92-35.73-2.69-7.72-1.7-10.62-3.86-9-6.39h-26.6l5.03-3.15h25.85c4.62-2.16 12.12-3.76 22.47-4.88 10.01-1.08 21.96-1.61 36.08-1.61l-2.35 4.86c-9.32 0-16.5.3-21.62.9-5.2.62-8.29 1.46-9.24 2.54-.96 1.1.22 1.98 3.6 2.61 3.44.64 8.68.97 15.67.97 6.48 0 11.83-.32 15.98-.95 4.08-.62 8.34-1.74 12.67-3.32 4.15-1.52 7.89-2.72 11.27-3.64 3.3-.89 6.93-1.63 10.9-2.22 3.9-.58 8.31-1.01 13.24-1.31 4.89-.3 10.61-.44 17.2-.44 12.3 0 22.77.56 31.63 1.7 9.17 1.19 15.86 2.89 20.04 5.18h23.84l4.77 3.16h-24.74c1.59 2.94-2.07 5.39-11.36 7.21-9.71 1.91-24.4 2.89-43.73 2.89l-2.9-7.06c10.31 0 17.94-.42 22.83-1.25 4.79-.81 6.54-1.95 5.38-3.38-.94-1.15-3.5-2.03-7.66-2.67-4.09-.6-9.18-.91-15.31-.91z"/><radialGradient id="SVGID_31_" cx="4318.645" cy="-1253.811" r="643.945" gradientTransform="matrix(-.2657 .9202 1.0064 .0392 4568.82 -1833.763)" gradientUnits="userSpaceOnUse"><stop offset="0" style="stop-color:#fbe034"/><stop offset=".149" style="stop-color:#fac63e"/><stop offset=".319" style="stop-color:#f8af46"/><stop offset=".504" style="stop-color:#f89f4c"/><stop offset=".714" style="stop-color:#f79650"/><stop offset="1" style="stop-color:#f79351"/></radialGradient><path d="M2176.94 2280.45c3-14.03 6.68-28.79 11.09-44.05 3.28-11.36 6.8-22.43 10.48-33.11l27.43-98.15c-.75-1.74 8.4-29.09 8.4-29.09l42.17 1.31c23.24.91 21.31 73.58-4.32 162.33-25.63 88.74-65.24 159.95-88.48 159.04l-39.39-1.53 32.62-116.75z" style="fill:url(#SVGID_31_)"/><path class="st45" d="M2144.32 2397.18c23.24.9 62.85-70.3 88.47-159.04 25.63-88.74 27.56-161.42 4.32-162.32-23.24-.91-62.85 70.3-88.48 159.04-25.61 88.74-27.55 161.42-4.31 162.32z"/><path class="st46" d="M2145.74 2392.28c21.76.85 59.53-68.21 84.38-154.24 24.84-86.03 27.34-156.46 5.58-157.32-21.76-.85-59.53 68.21-84.38 154.24-24.84 86.04-27.34 156.47-5.58 157.32z"/><path class="st41" d="M2146.94 2388.13c19.59.76 55.08-66.51 79.26-150.25 24.18-83.74 27.9-152.25 8.3-153.01-19.59-.76-55.08 66.5-79.26 150.25-24.18 83.74-27.9 152.25-8.3 153.01z"/><radialGradient id="SVGID_32_" cx="2197.142" cy="2049.875" r="723.134" gradientTransform="matrix(1.2136 0 .0122 .9643 -518.281 -38.625)" gradientUnits="userSpaceOnUse"><stop offset="0" style="stop-color:#fbe034"/><stop offset=".149" style="stop-color:#fac63e"/><stop offset=".319" style="stop-color:#f8af46"/><stop offset=".504" style="stop-color:#f89f4c"/><stop offset=".714" style="stop-color:#f79650"/><stop offset="1" style="stop-color:#f79351"/></radialGradient><path d="M2175.69 2273.86c-.18 2.82.18 4.6 1.11 5.3 1.17.87 2.61-.22 4.32-3.36 1.45-2.67-.75-10.14.88-15.36 2.61-.25 2.36.21 4.74.18l6.29 2.42c-3.73 12.92-7.52 22.67-11.25 29.03-3.56 6.08-6.64 8.36-9.2 7.1l-4.77 16.54-4.75-.18 3.9-20.63c-1.41-2.95 1.52-6.06 2.13-12.27.6-6 2.08-13.03 4.45-21.25 1.27-4.4 2.52-8.22 3.75-11.47 1.24-3.28 2.52-6.19 3.83-8.76 1.34-2.61 2.75-4.98 4.25-7.13 1.54-2.2 3.43-4.62 5.7-7.28 2.37-2.78 4.28-5.55 5.67-8.24 1.41-2.73 2.75-6.28 4-10.61 1.35-4.67 2.04-8.2 2.08-10.54.04-2.3-.58-3.15-1.83-2.58-1.23.56-2.64 2.57-4.25 6-1.58 3.38-3.25 8.16-5.05 14.39l-4.25 1.4-5.67-.35c2.72-9.43 10.28-17.2 13.26-23.82 3.08-6.84 2.9-12.24 5.89-15.17l7.45-20.12 4.74.18-5.13 17.78c2.77-.91 4.3 1.17 4.46 6.45.17 5.51-1.26 13.59-4.28 24.06-1.76 6.07-3.55 11.36-5.36 15.82-1.79 4.41-3.61 8.21-5.43 11.39-1.78 3.11-3.6 5.8-5.42 8.05-1.77 2.19-3.7 4.3-5.75 6.31-1.97 1.94-3.57 4.1-4.82 6.51-1.24 2.37-2.46 5.67-3.69 9.93-1.14 4.09-1.82 7.51-2 10.28z" style="fill:url(#SVGID_32_)"/><path class="st14" d="M2170.94 2273.68c-.18 2.82.18 4.59 1.11 5.3 1.17.88 2.61-.22 4.32-3.36 1.74-3.21 3.63-8.28 5.62-15.17l6.29 2.42c-3.73 12.92-7.52 22.67-11.25 29.02-3.56 6.09-6.64 8.36-9.19 7.1l-4.77 16.54-2.15-3.4 4.6-15.93c-1.42-2.95-1.78-7.54-1.16-13.75.6-6 2.07-13.03 4.45-21.26 1.27-4.4 2.52-8.21 3.75-11.46 1.24-3.28 2.51-6.2 3.83-8.76 1.34-2.61 2.75-4.99 4.25-7.13 1.54-2.2 3.43-4.61 5.71-7.28 2.37-2.78 4.28-5.55 5.67-8.24 1.41-2.73 2.75-6.28 4-10.61 1.35-4.67 2.04-8.2 2.08-10.54.04-2.3-.58-3.15-1.83-2.58-1.23.56-2.64 2.57-4.25 6-1.58 3.37-3.25 8.15-5.05 14.38l-5.17 1.24c2.72-9.43 5.54-17.38 8.52-24 3.08-6.84 6.08-11.74 9.07-14.68l4.99-17.28 4.03-3.15-5.13 17.77c2.77-.91 4.31 1.17 4.46 6.45.17 5.5-1.26 13.59-4.28 24.06-1.76 6.07-3.55 11.36-5.37 15.83-1.79 4.41-3.61 8.21-5.43 11.39-1.78 3.11-3.6 5.79-5.42 8.05-1.77 2.19-3.7 4.3-5.74 6.31a25.53 25.53 0 0 0-4.82 6.5c-1.24 2.37-2.46 5.67-3.69 9.93-1.18 4.1-1.86 7.52-2.05 10.29z"/><path style="fill:#f7e8d0" d="m2440.95 2257.99-41.67-26.31-27.21 6.9 3.24-19.74 29.21-177.71 29.99 178.5z"/><path class="st16" d="m2666.71 2248.05-221.28 10c-9 .41-17.22-7.19-18.3-16.98l-22.6-199.95c-1.11-9.7 5.35-17.27 14.38-16.89l17.95.73 204.66 8.41c7.57.3 14.49 7.7 15.54 16.52l10.89 92.61 10.46 88.88c1.03 8.89-4.16 16.35-11.7 16.67z"/><path class="st14" d="m2657.05 2049.88 3.75 31.9-252.32-5.52-3.97-35.13c-1.1-9.7 5.38-17.26 14.4-16.89l222.59 9.13c7.58.3 14.52 7.69 15.55 16.51z"/><path class="st16" d="M2477.62 2048.21c.07.44.1.9.09 1.38-.01.48-.09.93-.23 1.34-.14.41-.35.75-.64 1.02-.29.27-.67.4-1.16.38-.73-.02-1.3-.18-1.71-.48-.4-.3-.72-.67-.94-1.12-.22-.44-.38-.92-.47-1.42-.09-.5-.19-.97-.28-1.41a3.92 3.92 0 0 0-.38-1.1c-.17-.3-.44-.45-.81-.46-.42-.01-.76.14-1.02.47-.26.33-.46.75-.6 1.28-.14.53-.24 1.12-.28 1.79-.04.67-.06 1.33-.04 1.99.01.66.05 1.28.11 1.87.06.59.12 1.07.18 1.44.08.49.19 1.07.34 1.74.14.67.35 1.32.62 1.94.27.62.61 1.15 1.02 1.59.41.44.93.67 1.55.69.42.01.82-.04 1.2-.14.38-.11.76-.23 1.13-.37.37-.14.75-.26 1.14-.37.39-.1.79-.15 1.21-.14.48.01.91.24 1.3.68.39.44.62.92.71 1.45.12.74.03 1.42-.28 2.05-.31.63-.74 1.17-1.27 1.64-.54.47-1.14.83-1.82 1.09-.68.26-1.31.38-1.9.36-1.51-.04-2.86-.45-4.03-1.24-1.18-.78-2.19-1.78-3.05-3-.85-1.22-1.54-2.57-2.07-4.05a25.42 25.42 0 0 1-1.16-4.43c-.16-.98-.26-2.04-.28-3.2-.02-1.16.04-2.32.18-3.48.14-1.16.38-2.28.72-3.36.33-1.08.78-2.02 1.34-2.83s1.23-1.46 2.02-1.94 1.71-.7 2.76-.66c1.03.04 1.94.35 2.72.94.79.59 1.46 1.33 2.02 2.21.56.88 1.01 1.84 1.35 2.88.3 1.07.55 2.05.71 2.98zM2497.5 2061.26c.08.46.13 1.01.17 1.66.03.64 0 1.26-.11 1.84-.11.58-.31 1.07-.59 1.46-.29.39-.72.58-1.3.57-.77-.02-1.39-.35-1.88-.98s-.89-1.38-1.2-2.25c-.31-.87-.56-1.76-.74-2.66-.18-.9-.33-1.62-.43-2.15-1.45.23-2.89.43-4.31.6.05.53.07 1.19.07 1.97-.01.78-.09 1.53-.25 2.25s-.42 1.34-.78 1.86c-.36.52-.86.77-1.51.75-.5-.01-.93-.23-1.27-.64-.35-.41-.64-.9-.88-1.46-.24-.56-.42-1.14-.55-1.73a27.628 27.628 0 0 1-.66-5.38c-.02-1.28-.02-2.55.02-3.82.01-.67.05-1.45.11-2.34.06-.89.16-1.82.3-2.77.14-.95.34-1.89.59-2.81.25-.92.57-1.74.97-2.47.4-.72.89-1.3 1.48-1.74.59-.44 1.29-.64 2.1-.61.79.03 1.51.25 2.16.66.65.41 1.24.95 1.78 1.61.54.66 1.03 1.4 1.45 2.23.43.83.81 1.67 1.15 2.51.34.85.64 1.68.91 2.49l.72 2.16c.52 1.51 1 3.03 1.44 4.56.44 1.55.79 3.09 1.04 4.63zm-7.4-8.58c-.05-.28-.14-.73-.27-1.37-.14-.64-.31-1.27-.52-1.91-.21-.64-.46-1.21-.77-1.71-.3-.5-.64-.76-1.01-.77-.21-.01-.38.14-.51.45-.14.31-.24.69-.3 1.16s-.11.99-.13 1.56c-.02.57-.02 1.12-.02 1.65 0 .53.02 1.01.05 1.43.03.43.05.73.06.92 1.23-.08 2.43-.21 3.59-.41l-.17-1zM2515.09 2062.12c.1.57-.02 1.11-.36 1.6-.34.49-.8.94-1.4 1.33-.6.39-1.28.73-2.05 1.02-.77.29-1.54.53-2.3.72-.77.2-1.49.34-2.19.44-.69.09-1.24.14-1.65.12a7.53 7.53 0 0 1-1.27-.15c-.46-.09-.85-.28-1.19-.56-.19-.14-.38-.46-.59-.94-.2-.49-.42-1.07-.64-1.74-.23-.67-.44-1.39-.65-2.17-.21-.77-.41-1.53-.58-2.27s-.33-1.42-.46-2.04c-.13-.62-.23-1.11-.29-1.45-.09-.57-.2-1.27-.3-2.09-.11-.82-.2-1.69-.3-2.62-.09-.93-.17-1.88-.23-2.84s-.09-1.87-.1-2.73c-.01-.86.03-1.63.11-2.31.08-.68.2-1.22.37-1.6.29-.61.73-.9 1.33-.88.41.01.79.18 1.13.5.34.32.64.73.9 1.23s.48 1.06.68 1.67c.2.61.36 1.22.5 1.82.14.6.25 1.15.34 1.66.08.51.15.91.2 1.21.3 1.79.56 3.57.78 5.32.22 1.76.48 3.53.78 5.32l.22 1.34c.87-.29 1.83-.57 2.87-.82 1.04-.26 2.05-.37 3.04-.34.35.01.71.04 1.07.1.37.06.7.17 1 .32.3.16.56.38.78.67.22.29.37.67.45 1.16zM2529.86 2061.89c.07.43.04.85-.09 1.26-.14.38-.54.83-1.2 1.33-.67.51-1.42.98-2.25 1.42-.84.44-1.66.82-2.46 1.13-.8.3-1.4.46-1.81.45-.29-.01-.64-.09-1.05-.25-.41-.16-.83-.36-1.26-.6a7.61 7.61 0 0 1-1.19-.82c-.37-.31-.65-.6-.83-.88-.11-.16-.24-.48-.39-.97-.15-.48-.31-1.04-.47-1.69-.16-.64-.32-1.33-.48-2.05-.16-.72-.31-1.41-.45-2.06-.14-.66-.26-1.24-.35-1.74-.09-.5-.16-.87-.2-1.1-.14-.85-.28-1.82-.41-2.92-.13-1.1-.22-2.2-.26-3.31-.04-1.11-.01-2.16.1-3.18.11-1.01.33-1.86.69-2.55.11-.2.36-.41.75-.62.39-.21.86-.41 1.41-.6.55-.19 1.14-.36 1.79-.52.64-.16 1.27-.29 1.87-.4.6-.1 1.15-.19 1.64-.25s.88-.09 1.14-.08c.3.01.61.1.91.25.3.16.56.36.8.62.23.26.43.54.6.85.16.31.27.64.33.98.05.3.06.55.02.75-.04.2-.11.43-.21.67-.15.29-.52.63-1.1 1.02-.58.39-1.22.77-1.92 1.15-.69.37-1.37.71-2.02 1.01-.65.3-1.11.51-1.37.64.01.52.01 1.05.01 1.58 0 .54.02 1.07.07 1.62.57-.35 1.23-.67 1.97-.96.74-.29 1.47-.43 2.18-.41 1.44.05 2.3.87 2.57 2.47.06.39.06.73-.03 1.02-.08.29-.21.55-.39.77-.17.22-.39.41-.63.58-.25.16-.49.32-.73.47-.59.37-1.21.68-1.88.95-.67.26-1.33.52-2 .77-.01.18-.02.38-.02.6-.01.22.01.43.04.63.05.32.13.64.22.96.09.32.19.64.28.96.23-.08.6-.22 1.1-.41.51-.19 1.03-.38 1.59-.57.56-.19 1.1-.35 1.62-.48.53-.13.92-.2 1.18-.19.3.01.6.09.89.25.29.15.54.35.77.6.22.25.42.53.58.85.17.36.28.68.33 1zM2548.07 2053.21c.08.5.18 1.21.3 2.13.12.92.21 1.92.28 3.02.07 1.1.11 2.22.1 3.36-.01 1.14-.1 2.17-.26 3.09-.17.92-.43 1.68-.79 2.27-.36.59-.86.88-1.51.86-.6-.01-1.19-.23-1.76-.64a8.65 8.65 0 0 1-1.6-1.5c-.5-.59-.96-1.22-1.37-1.89-.41-.67-.77-1.28-1.06-1.83-.62-1.17-1.23-2.33-1.84-3.47-.61-1.14-1.21-2.3-1.79-3.47l.16.96c.17.98.32 1.95.47 2.92.15.97.25 1.93.29 2.88.02.38.05.83.09 1.34.04.51.05 1.01.03 1.51-.02.5-.09.96-.21 1.39-.12.43-.32.74-.61.93a1.1 1.1 0 0 1-.46.19c-.15.02-.31.05-.48.09h-.09c-.47-.01-.89-.2-1.27-.56-.38-.36-.73-.83-1.05-1.39-.32-.56-.6-1.2-.85-1.9s-.46-1.39-.65-2.06c-.18-.67-.33-1.3-.45-1.87-.12-.57-.2-1.03-.26-1.37-.09-.52-.2-1.29-.32-2.31-.13-1.01-.23-2.13-.3-3.36-.07-1.23-.11-2.49-.12-3.78-.01-1.29.08-2.46.24-3.51.17-1.05.44-1.9.81-2.55.37-.65.88-.97 1.53-.95.63.02 1.23.32 1.82.88.59.56 1.13 1.23 1.64 1.99s.96 1.56 1.36 2.39c.4.83.74 1.52 1.01 2.07.52 1.08 1.03 2.16 1.53 3.22.5 1.07.99 2.15 1.48 3.25.03.05.09.17.18.38s.2.44.33.69c.12.28.28.59.46.93-.05-.3-.09-.5-.12-.63-.03-.12-.06-.24-.07-.34-.02-.1-.04-.23-.06-.39-.03-.16-.07-.41-.13-.75-.14-.75-.29-1.5-.42-2.25-.14-.75-.26-1.49-.39-2.21l-.21-1.33c-.09-.57-.16-1.18-.21-1.82-.06-.65-.09-1.3-.1-1.95-.01-.65.04-1.24.14-1.77s.27-.96.51-1.29c.23-.33.56-.49.99-.47.5.02.97.25 1.4.69.43.44.83 1.01 1.18 1.68.35.68.67 1.43.95 2.26.28.83.53 1.65.74 2.44.21.8.38 1.54.52 2.22.11.66.21 1.2.27 1.58zM2566.12 2053.08c.33 1.99.3 3.89-.11 5.7-.41 1.82-1.09 3.42-2.06 4.81-.96 1.39-2.18 2.48-3.64 3.29s-3.08 1.18-4.86 1.14h-.06c-.36-.01-.69-.2-.98-.59-.29-.38-.57-.86-.82-1.43s-.48-1.21-.68-1.92c-.2-.7-.37-1.39-.53-2.06-.15-.67-.27-1.27-.36-1.8-.09-.53-.15-.93-.2-1.21-.13-.77-.25-1.53-.35-2.29-.11-.76-.2-1.52-.29-2.29-.04-.25-.09-.62-.14-1.1-.05-.49-.11-1.03-.17-1.65a81.154 81.154 0 0 1-.29-3.78c-.03-.58-.04-1.08-.04-1.52 0-.44.03-.74.1-.89.18-.49.5-.92.98-1.28.48-.37 1.01-.66 1.6-.89.59-.23 1.2-.39 1.82-.49.63-.1 1.18-.14 1.66-.13 1.32.05 2.5.36 3.56.95s1.99 1.36 2.79 2.32c.8.96 1.46 2.05 1.98 3.28.5 1.22.86 2.5 1.09 3.83zm-4.85.82c-.08-.5-.25-1.01-.49-1.53-.25-.52-.55-1.01-.91-1.45-.36-.44-.77-.79-1.22-1.07a2.87 2.87 0 0 0-1.43-.43c-.42-.01-.83.09-1.23.3-.09.06-.14.27-.16.62-.02.35-.01.77.02 1.27s.08 1.04.14 1.63c.06.59.13 1.15.21 1.68a320.572 320.572 0 0 1 .33 2.22c.04.22.09.56.17 1a21.747 21.747 0 0 0 .55 2.43c.09.32.19.48.29.48.6.02 1.15-.23 1.65-.74s.92-1.15 1.27-1.9.6-1.54.75-2.37c.13-.85.16-1.55.06-2.14zM2584.88 2063.79c.07.45.13.99.17 1.61.04.63 0 1.22-.1 1.79-.1.57-.28 1.04-.55 1.43-.27.38-.68.57-1.23.55-.73-.02-1.32-.34-1.79-.96-.47-.62-.85-1.35-1.15-2.2-.3-.85-.54-1.71-.71-2.59-.18-.88-.32-1.58-.42-2.09-1.37.23-2.74.42-4.09.58.05.52.07 1.16.07 1.92s-.07 1.49-.22 2.19-.39 1.31-.73 1.81c-.34.51-.81.75-1.43.74-.47-.01-.88-.22-1.21-.62-.33-.4-.61-.88-.84-1.42-.23-.54-.41-1.1-.54-1.68-.12-.57-.22-1.05-.28-1.44-.22-1.29-.34-2.55-.37-3.8a76.89 76.89 0 0 1 0-3.72c.01-.65.04-1.41.09-2.28.05-.87.14-1.77.27-2.7.13-.93.31-1.84.54-2.74.23-.9.53-1.7.91-2.4.37-.7.84-1.27 1.4-1.7.56-.43 1.22-.63 1.99-.6.75.03 1.43.24 2.05.64.61.4 1.18.92 1.7 1.57.52.64.98 1.37 1.39 2.17.41.81.78 1.62 1.1 2.45.32.83.61 1.63.88 2.42l.69 2.1c.5 1.47.97 2.95 1.39 4.45.43 1.52.76 3.02 1.02 4.52zm-7.08-8.36c-.04-.27-.13-.71-.27-1.33-.13-.62-.3-1.24-.5-1.86-.2-.62-.45-1.18-.74-1.67s-.61-.74-.97-.75c-.2-.01-.36.14-.49.44s-.22.68-.28 1.13c-.06.46-.1.96-.11 1.52-.01.56-.02 1.1-.01 1.61.01.52.03.98.06 1.4.03.42.05.71.06.89 1.17-.08 2.3-.21 3.41-.4l-.16-.98zM2599.71 2051.62c.26 1.54.18 2.91-.24 4.12a8.412 8.412 0 0 1-1.94 3.17c.4.55.83 1.18 1.28 1.91.45.72.88 1.49 1.27 2.29s.74 1.6 1.04 2.4c.3.8.51 1.53.62 2.2.12.72.08 1.35-.13 1.92-.21.56-.67.83-1.39.81-.6-.02-1.18-.37-1.73-1.05s-1.08-1.49-1.57-2.43c-.5-.94-.97-1.89-1.41-2.86-.44-.97-.84-1.75-1.19-2.34-.33.12-.65.26-.95.42-.3.16-.62.31-.94.46.06.49.14 1.17.24 2.03.1.86.13 1.71.11 2.56-.02.85-.15 1.58-.38 2.2-.23.62-.64.92-1.22.9-.65-.02-1.2-.33-1.65-.95-.46-.61-.82-1.34-1.11-2.17-.29-.83-.51-1.68-.68-2.55-.16-.87-.29-1.54-.37-2.04-.18-1.05-.33-2.09-.46-3.11s-.29-2.06-.46-3.11c-.16-.96-.34-1.93-.53-2.89-.19-.97-.37-1.94-.53-2.93-.04-.22-.09-.51-.15-.86s-.1-.7-.14-1.07c-.03-.37-.06-.72-.08-1.06-.02-.33.01-.6.07-.8.12-.46.49-.9 1.11-1.3.62-.4 1.33-.75 2.1-1.05.78-.3 1.55-.52 2.31-.69.76-.16 1.34-.23 1.73-.22 1 .03 1.91.28 2.74.73a7.66 7.66 0 0 1 2.19 1.79c.63.74 1.15 1.59 1.56 2.55.41.97.7 1.97.88 3.02zm-5.33.29c-.1-.58-.29-1.03-.58-1.34-.28-.31-.69-.47-1.22-.49-.39-.01-.77.05-1.15.2-.38.15-.71.31-1.01.5.38 1.77.7 3.53.98 5.28.38-.14.77-.33 1.16-.57.39-.23.73-.52 1.03-.87.3-.35.53-.74.69-1.18.17-.43.2-.95.1-1.53z"/><path d="m2408.49 2076.26 252.31 5.52-2.04-17.34c.01 0-62.68-9.39-250.27 11.82z" style="opacity:.2;fill:#012f69"/><path class="st75" d="M2464.08 2128.87c-2.23-19.5 9.92-30.62 34.23-30.6 23.98.02 38.2 10.94 40.41 30.03l7.17 62.11c2.21 19.14-9.46 30.51-33.39 31.32-24.25.82-38.92-9.89-41.15-29.44l-7.27-63.42zm32.29 64.02c.99 8.66 6.31 11.81 14.14 11.59 7.79-.23 12.3-3.64 11.31-12.24l-7.47-64.95c-.99-8.58-6.25-11.82-14.06-11.79-7.84.03-12.41 3.33-11.42 11.98l7.5 65.41zM2567.29 2114.55c18.19-.07 21.44-6.96 24.13-14.85l15.62.01 13.62 117.03-23.21.78-10.43-89.91-18.19.14-1.54-13.2z"/><path class="st12" d="M1601.49 680.31c-44.57 45.8-22.69 79.99-80.25 45.1-57.56-34.89-95.67-39.13-97.12-144.95-1.45-105.82 41.05-42.18 48.1-135.04 7.05-92.86 49.27-49.43 92.63-96.4 43.36-46.97 114.3 9.14 142.63-5.52 28.34-14.66 70.76 43.03 41.63 87.43-29.13 44.4-127.67 56.45-173.42 102.27-45.75 45.82 25.8 147.11 25.8 147.11z"/><path class="st11" d="m1543.46 818.44 10.55-136.89s-3.1-18.03-18.21-18.89c-23.44-1.33-36.28-40.93-23.98-59.67 17.34-26.38 39.14-3 39.14-3s52.9-78.99 92.69-94.75c54-21.39 105.67-3.01 105.67-3.01s45.71 177.05 15.96 221.52c-29.76 44.48-95.03 26.56-95.03 26.56l23.08 89.52s-22.5 54.8-76.52 46.99c-54.01-7.8-73.35-68.38-73.35-68.38z"/><path d="M1704.35 753.71c-9.72-4.72-19.73-8.87-29.28-12.49-21.98-8.32-44.5-17.58-67.39-24.11 8.62 30.46 29.05 57.17 38.45 87.54 9.75 31.53 12.26 24.34-11.94 48.91-11.2 11.38-25.19 19.46-40.21 25.73 6.88 3.44 14.28 6.3 22.83 7.54 54.01 7.81 76.52-46.99 76.52-46.99l-23.07-89.52c-.01 0 15.16 4.02 34.09 3.39z" style="opacity:.1;fill:#0f1019"/><path d="M1533.35 604.86s-15.75-.16-17.02 7.28c-1.28 7.44 5.58 35.21 5.58 35.21s.6-26.16 3-31.31c2.41-5.16 10.59-8.62 8.44-11.18z" style="fill:#ef9a9e"/><g class="st78"><path class="st79" d="M1619.11 656.58c-.06 7.19 8.71 13.11 19.6 13.2 10.89.1 19.76-5.65 19.83-12.85.06-7.2-8.71-13.11-19.59-13.21-10.89-.09-19.78 5.66-19.84 12.86z"/></g><g class="st78"><path class="st79" d="M1739.32 638.09c-.06 7.2 8.71 13.11 19.59 13.21 10.89.1 19.76-5.66 19.83-12.86.06-7.19-8.71-13.11-19.59-13.2-10.89-.09-19.76 5.66-19.83 12.85z"/></g><path class="st12" d="M1710.77 657.82c4.79-.98 8.34-3.21 8.61-3.38 2.24-1.42 2.89-4.4 1.46-6.63-1.42-2.22-4.39-2.84-6.61-1.47-.07.05-7.1 4.36-11.94 1.17a4.798 4.798 0 0 0-6.65 1.35c-1.47 2.2-.86 5.19 1.35 6.66 4.63 3.07 9.67 3.15 13.78 2.3zM1733.08 565.76c.48-.1.95-.27 1.39-.53.23-.11 22.62-12.74 40.73-14.93 2.61-.39 4.49-2.74 4.16-5.37a4.813 4.813 0 0 0-5.37-4.17c-19.96 2.58-43.25 15.56-44.23 16.11-2.31 1.3-3.12 4.22-1.82 6.54a4.788 4.788 0 0 0 5.14 2.35zM1748.96 591.49c.85 5.3 5.44 8.97 10.27 8.2 4.82-.77 8.04-5.69 7.2-10.98-.84-5.3-5.44-8.97-10.26-8.2-4.82.77-8.05 5.69-7.21 10.98zM1667.17 570.13a4.789 4.789 0 0 0 3.75-3.76c.52-2.6-1.16-5.13-3.77-5.65-1.1-.21-27.26-5.36-47.04-1.55-2.4.12-4.3 3.01-3.81 5.63.5 2.6 3.02 4.31 5.62 3.81 17.91-3.46 43.09 1.49 43.34 1.54.66.11 1.31.11 1.91-.02zM1659.66 599.59c.85 5.3-2.38 10.21-7.2 10.99-4.83.77-9.42-2.91-10.27-8.2-.84-5.3 2.38-10.21 7.2-10.98 4.83-.78 9.43 2.89 10.27 8.19zM1730.15 692.25c.85 5.29-2.38 10.21-7.21 10.98-4.83.77-9.42-2.9-10.26-8.19-.84-5.3 2.38-10.21 7.21-10.99 4.82-.76 9.42 2.91 10.26 8.2z"/><path class="st12" d="M1583.94 570.55c-16.2-8.55-21.83 56.19-21.83 56.19s-8.02-20.7-12.29-28.97c-4.28-8.27-8.9 1.31-22.38-28.23-13.48-29.54-42.69-33.9 21.33-91.86s30.55-70.58 112.12-62.78c81.57 7.8 119.98-9.37 125.82 26.22 5.84 35.6-22.11 78.79-50.74 72.64-28.62-6.14 4.66-7.2-60.49 11.53s-65.19 59.17-91.54 45.26z"/></g></svg>