<svg xmlns="http://www.w3.org/2000/svg" version="1.1" id="Layer_1" x="0" y="0" viewBox="0 0 600 600" style="enable-background:new 0 0 600 600" xml:space="preserve"><style>.st0{fill:#111228}.st2{fill:#ff4129}.st3{fill:#fff}.st4{fill:#373a50}.st14{fill:#ffdad9}.st15{fill:#fecdcb}.st17{fill:#657bff}.st44{fill:#3dcfa4}.st45{fill:#30bb93}.st59{fill:#c70000}.st157{fill:#909eff}.st380{fill:#d8e2ff}</style><g id="Dashboard"><linearGradient id="SVGID_1_" gradientUnits="userSpaceOnUse" x1="404.172" y1="64.397" x2="223.419" y2="455.143"><stop offset="0" style="stop-color:#cedcf9;stop-opacity:0"/><stop offset="1" style="stop-color:#c3d2ff"/></linearGradient><path d="M499.836 403.953H98.756c-49.989 0-72.917-56.604-34.64-85.731 9.7-7.579 15.388-16.174 15.388-30.826 3.397-18.348-15.359-23.236-20.375-55.035-8.832-55.89 21.209-92.615 54.796-111.302 111.968-62.316 324.468-62.316 415.952-2.016 17.613 11.623 26.93 44.455 19.808 59.952-43.85 95.437-20.087 121.216-1.719 154.873 17.624 32.276-8.384 70.085-48.13 70.085z" style="fill:url(#SVGID_1_)"/><linearGradient id="SVGID_2_" gradientUnits="userSpaceOnUse" x1="303.625" y1="522.535" x2="293.234" y2="399.224"><stop offset="0" style="stop-color:#cedcf9;stop-opacity:0"/><stop offset="1" style="stop-color:#c3d2ff"/></linearGradient><path d="M553.495 454.568v1.31c-.158 27.469-39.935 41.148-179.727 40.482-18.339-.079-37.492-.427-56.943-.993-10.371 14.186-66.966 24.795-135.173 24.478-75.51-.368-136.634-14.008-136.525-30.468.01-1.947.874-3.854 2.523-5.692 7.103-7.888 6.537-18.816-.387-26.822-2.327-2.691-2.278-4.355-2.195-6.468.894-26.027 22.709-46.462 48.756-46.442l408.223.209c28.014.01 51.11 22.411 51.448 50.406z" style="fill:url(#SVGID_2_)"/><linearGradient id="SVGID_3_" gradientUnits="userSpaceOnUse" x1="415.883" y1="226.935" x2="458.402" y2="231.098"><stop offset="0" style="stop-color:#d1deff"/><stop offset="1" style="stop-color:#b2c7ff"/></linearGradient><path d="M452.824 86.66h-12.085v286.672h7.683c10.532 0 19.063-8.531 19.063-19.052V101.32c0-8.097-6.564-14.66-14.661-14.66z" style="fill:url(#SVGID_3_)"/><path class="st3" d="M457.184 106.545V354.28c0 10.521-8.531 19.052-19.063 19.052H175.924c-10.532 0-19.063-8.53-19.063-19.052V106.545h300.323z"/><linearGradient id="SVGID_4_" gradientUnits="userSpaceOnUse" x1="291.947" y1="94.326" x2="390.262" y2="120.085"><stop offset="0" style="stop-color:#d1deff"/><stop offset="1" style="stop-color:#b2c7ff"/></linearGradient><path d="M457.184 106.545v-5.221c0-8.097-6.564-14.661-14.661-14.661H171.522c-8.108 0-14.661 6.564-14.661 14.66v5.222h300.323z" style="fill:url(#SVGID_4_)"/><path class="st3" d="M174.167 98.358a3.502 3.502 0 1 1-7.002 0 3.501 3.501 0 1 1 7.002 0zM183.639 98.42a3.502 3.502 0 1 1-7.003 0 3.501 3.501 0 1 1 7.003 0zM193.173 98.42a3.502 3.502 0 1 1-7.002 0 3.501 3.501 0 1 1 7.002 0z"/><linearGradient id="SVGID_5_" gradientUnits="userSpaceOnUse" x1="200.76" y1="231.069" x2="244.39" y2="242.5"><stop offset="0" style="stop-color:#d1deff"/><stop offset="1" style="stop-color:#b2c7ff"/></linearGradient><path d="M237.4 121.375h-4.268v237.671h4.267a5.93 5.93 0 0 0 5.931-5.93v-225.81a5.93 5.93 0 0 0-5.93-5.93z" style="fill:url(#SVGID_5_)"/><linearGradient id="SVGID_6_" gradientUnits="userSpaceOnUse" x1="195.644" y1="238.321" x2="239.344" y2="249.77"><stop offset="0" style="stop-color:#ebf2ff"/><stop offset="1" style="stop-color:#e1e8ff"/></linearGradient><path d="M234.67 359.046h-63.624a5.457 5.457 0 0 1-5.457-5.457V126.832a5.457 5.457 0 0 1 5.457-5.457h63.624a5.457 5.457 0 0 1 5.456 5.457V353.59a5.457 5.457 0 0 1-5.456 5.457z" style="fill:url(#SVGID_6_)"/><linearGradient id="SVGID_7_" gradientUnits="userSpaceOnUse" x1="185.301" y1="148.109" x2="220.415" y2="148.109"><stop offset="0" style="stop-color:#909eff"/><stop offset="1" style="stop-color:#6977e3"/></linearGradient><path d="M220.415 148.102c0 9.706-7.87 17.564-17.564 17.564-9.693 0-17.55-7.858-17.55-17.564 0-9.693 7.857-17.55 17.55-17.55 9.693 0 17.564 7.857 17.564 17.55z" style="fill:url(#SVGID_7_)"/><ellipse class="st3" cx="202.858" cy="142.703" rx="3.204" ry="3.257"/><path class="st3" d="M210.352 155.02c-.16-4.072-3.449-7.326-7.494-7.326-4.046 0-7.335 3.254-7.495 7.327h14.99z"/><linearGradient id="SVGID_8_" gradientUnits="userSpaceOnUse" x1="202.86" y1="173.196" x2="202.86" y2="180.841"><stop offset="0" style="stop-color:#d1deff"/><stop offset="1" style="stop-color:#b2c7ff"/></linearGradient><path d="M226.137 174.335v5.368c0 .634-.593 1.138-1.339 1.138h-43.876c-.746 0-1.338-.504-1.338-1.138v-5.368c0-.627.592-1.139 1.338-1.139h43.876c.746 0 1.339.512 1.339 1.139z" style="fill:url(#SVGID_8_)"/><linearGradient id="SVGID_9_" gradientUnits="userSpaceOnUse" x1="202.86" y1="186.373" x2="202.86" y2="194.018"><stop offset="0" style="stop-color:#d1deff"/><stop offset="1" style="stop-color:#b2c7ff"/></linearGradient><path d="M226.137 187.511v5.368c0 .635-.593 1.139-1.339 1.139h-43.876c-.746 0-1.338-.504-1.338-1.139v-5.368c0-.626.592-1.138 1.338-1.138h43.876c.746 0 1.339.512 1.339 1.138z" style="fill:url(#SVGID_9_)"/><linearGradient id="SVGID_10_" gradientUnits="userSpaceOnUse" x1="191.711" y1="208.559" x2="191.711" y2="219.855"><stop offset="0" style="stop-color:#f34b6d"/><stop offset="1" style="stop-color:#e24067"/></linearGradient><path d="M207.833 219.855h-32.244a1.299 1.299 0 0 1-1.3-1.299v-8.698c0-.718.582-1.3 1.3-1.3h32.244c.717 0 1.298.582 1.298 1.3v8.698c0 .718-.581 1.3-1.298 1.3z" style="fill:url(#SVGID_10_)"/><linearGradient id="SVGID_11_" gradientUnits="userSpaceOnUse" x1="191.711" y1="274.717" x2="191.711" y2="286.014"><stop offset="0" style="stop-color:#fadf68"/><stop offset="1" style="stop-color:#eac250"/></linearGradient><path d="M207.833 286.014h-32.244a1.299 1.299 0 0 1-1.3-1.299v-8.699c0-.717.582-1.299 1.3-1.299h32.244c.717 0 1.298.582 1.298 1.3v8.698c0 .717-.581 1.299-1.298 1.299z" style="fill:url(#SVGID_11_)"/><linearGradient id="SVGID_12_" gradientUnits="userSpaceOnUse" x1="178.054" y1="227.62" x2="178.054" y2="238.549"><stop offset="0" style="stop-color:#d1deff"/><stop offset="1" style="stop-color:#b2c7ff"/></linearGradient><circle cx="178.054" cy="233.084" r="5.465" style="fill:url(#SVGID_12_)"/><linearGradient id="SVGID_13_" gradientUnits="userSpaceOnUse" x1="210.69" y1="231.184" x2="210.69" y2="235.517"><stop offset="0" style="stop-color:#d1deff"/><stop offset="1" style="stop-color:#b2c7ff"/></linearGradient><path d="M231.133 235.517h-40.887c-1.1 0-1.993-.893-1.993-1.993v-.347c0-1.1.892-1.993 1.993-1.993h40.887c1.101 0 1.993.893 1.993 1.993v.347c0 1.1-.892 1.993-1.993 1.993z" style="fill:url(#SVGID_13_)"/><linearGradient id="SVGID_14_" gradientUnits="userSpaceOnUse" x1="178.054" y1="241.952" x2="178.054" y2="252.882"><stop offset="0" style="stop-color:#d1deff"/><stop offset="1" style="stop-color:#b2c7ff"/></linearGradient><circle cx="178.054" cy="247.417" r="5.465" style="fill:url(#SVGID_14_)"/><linearGradient id="SVGID_15_" gradientUnits="userSpaceOnUse" x1="210.69" y1="245.517" x2="210.69" y2="249.849"><stop offset="0" style="stop-color:#d1deff"/><stop offset="1" style="stop-color:#b2c7ff"/></linearGradient><path d="M231.133 249.85h-40.887c-1.1 0-1.993-.893-1.993-1.994v-.346c0-1.1.892-1.993 1.993-1.993h40.887c1.101 0 1.993.892 1.993 1.993v.346c0 1.1-.892 1.993-1.993 1.993z" style="fill:url(#SVGID_15_)"/><linearGradient id="SVGID_16_" gradientUnits="userSpaceOnUse" x1="178.054" y1="256.285" x2="178.054" y2="267.214"><stop offset="0" style="stop-color:#d1deff"/><stop offset="1" style="stop-color:#b2c7ff"/></linearGradient><circle cx="178.054" cy="261.75" r="5.465" style="fill:url(#SVGID_16_)"/><linearGradient id="SVGID_17_" gradientUnits="userSpaceOnUse" x1="210.69" y1="259.85" x2="210.69" y2="264.182"><stop offset="0" style="stop-color:#d1deff"/><stop offset="1" style="stop-color:#b2c7ff"/></linearGradient><path d="M231.133 264.182h-40.887c-1.1 0-1.993-.892-1.993-1.993v-.346c0-1.101.892-1.993 1.993-1.993h40.887c1.101 0 1.993.892 1.993 1.993v.346c0 1.1-.892 1.993-1.993 1.993z" style="fill:url(#SVGID_17_)"/><linearGradient id="SVGID_18_" gradientUnits="userSpaceOnUse" x1="178.054" y1="293.517" x2="178.054" y2="304.446"><stop offset="0" style="stop-color:#d1deff"/><stop offset="1" style="stop-color:#b2c7ff"/></linearGradient><circle cx="178.054" cy="298.982" r="5.465" style="fill:url(#SVGID_18_)"/><linearGradient id="SVGID_19_" gradientUnits="userSpaceOnUse" x1="210.69" y1="297.082" x2="210.69" y2="301.414"><stop offset="0" style="stop-color:#d1deff"/><stop offset="1" style="stop-color:#b2c7ff"/></linearGradient><path d="M231.133 301.414h-40.887c-1.1 0-1.993-.893-1.993-1.993v-.346c0-1.101.892-1.993 1.993-1.993h40.887c1.101 0 1.993.892 1.993 1.993v.346c0 1.1-.892 1.993-1.993 1.993z" style="fill:url(#SVGID_19_)"/><linearGradient id="SVGID_20_" gradientUnits="userSpaceOnUse" x1="178.054" y1="307.85" x2="178.054" y2="318.779"><stop offset="0" style="stop-color:#d1deff"/><stop offset="1" style="stop-color:#b2c7ff"/></linearGradient><circle cx="178.054" cy="313.314" r="5.465" style="fill:url(#SVGID_20_)"/><linearGradient id="SVGID_21_" gradientUnits="userSpaceOnUse" x1="210.69" y1="311.414" x2="210.69" y2="315.746"><stop offset="0" style="stop-color:#d1deff"/><stop offset="1" style="stop-color:#b2c7ff"/></linearGradient><path d="M231.133 315.746h-40.887c-1.1 0-1.993-.892-1.993-1.993v-.346c0-1.1.892-1.993 1.993-1.993h40.887c1.101 0 1.993.893 1.993 1.993v.346c0 1.101-.892 1.993-1.993 1.993z" style="fill:url(#SVGID_21_)"/><linearGradient id="SVGID_22_" gradientUnits="userSpaceOnUse" x1="178.054" y1="322.182" x2="178.054" y2="333.111"><stop offset="0" style="stop-color:#d1deff"/><stop offset="1" style="stop-color:#b2c7ff"/></linearGradient><circle cx="178.054" cy="327.647" r="5.465" style="fill:url(#SVGID_22_)"/><linearGradient id="SVGID_23_" gradientUnits="userSpaceOnUse" x1="210.69" y1="325.747" x2="210.69" y2="330.079"><stop offset="0" style="stop-color:#d1deff"/><stop offset="1" style="stop-color:#b2c7ff"/></linearGradient><path d="M231.133 330.079h-40.887c-1.1 0-1.993-.892-1.993-1.993v-.346c0-1.1.892-1.993 1.993-1.993h40.887c1.101 0 1.993.892 1.993 1.993v.346c0 1.1-.892 1.993-1.993 1.993z" style="fill:url(#SVGID_23_)"/><linearGradient id="SVGID_24_" gradientUnits="userSpaceOnUse" x1="381.116" y1="123.539" x2="381.116" y2="187.848"><stop offset="0" style="stop-color:#d1deff"/><stop offset="1" style="stop-color:#b2c7ff"/></linearGradient><path d="M386.022 123.54h-12.746v64.308h12.746a2.935 2.935 0 0 0 2.935-2.935v-58.439a2.935 2.935 0 0 0-2.935-2.935z" style="fill:url(#SVGID_24_)"/><linearGradient id="SVGID_25_" gradientUnits="userSpaceOnUse" x1="320.495" y1="123.539" x2="320.495" y2="187.848"><stop offset="0" style="stop-color:#ebf2ff"/><stop offset="1" style="stop-color:#e1e8ff"/></linearGradient><path d="M384.123 187.848H256.868a2.147 2.147 0 0 1-2.147-2.147v-60.015c0-1.185.96-2.147 2.147-2.147h127.255c1.186 0 2.147.962 2.147 2.147v60.015a2.147 2.147 0 0 1-2.147 2.147z" style="fill:url(#SVGID_25_)"/><linearGradient id="SVGID_26_" gradientUnits="userSpaceOnUse" x1="265.803" y1="146.788" x2="374.64" y2="146.788"><stop offset="0" style="stop-color:#d1deff"/><stop offset="1" style="stop-color:#b2c7ff"/></linearGradient><path style="fill:url(#SVGID_26_)" d="M265.803 145.421H374.64v2.734H265.803z"/><linearGradient id="SVGID_27_" gradientUnits="userSpaceOnUse" x1="266.72" y1="135.102" x2="296.342" y2="135.102"><stop offset="0" style="stop-color:#909eff"/><stop offset="1" style="stop-color:#6977e3"/></linearGradient><path style="fill:url(#SVGID_27_)" d="M266.72 130.69h29.622v8.824H266.72z"/><linearGradient id="SVGID_28_" gradientUnits="userSpaceOnUse" x1="274.809" y1="160.063" x2="288.294" y2="174.34"><stop offset="0" style="stop-color:#d1deff"/><stop offset="1" style="stop-color:#b2c7ff"/></linearGradient><path d="M281.508 180.697c-7.467 0-13.541-6.075-13.541-13.541h4.1c0 5.205 4.235 9.44 9.441 9.44s9.44-4.235 9.44-9.44c0-5.206-4.234-9.44-9.44-9.44v-4.101c7.467 0 13.541 6.074 13.541 13.54 0 7.467-6.074 13.542-13.541 13.542z" style="fill:url(#SVGID_28_)"/><path class="st2" d="M270.017 170.573a3.417 3.417 0 0 1-3.417-3.417c0-8.22 6.687-14.908 14.908-14.908a3.417 3.417 0 1 1 0 6.834c-4.451 0-8.074 3.622-8.074 8.074a3.417 3.417 0 0 1-3.417 3.417z"/><linearGradient id="SVGID_29_" gradientUnits="userSpaceOnUse" x1="314.308" y1="157.425" x2="314.308" y2="164.007"><stop offset="0" style="stop-color:#d1deff"/><stop offset="1" style="stop-color:#b2c7ff"/></linearGradient><path d="M324.182 161.03a2.352 2.352 0 0 1-2.347 2.347h-15.053a2.339 2.339 0 1 1 0-4.679h15.053c1.285 0 2.347 1.046 2.347 2.331z" style="fill:url(#SVGID_29_)"/><linearGradient id="SVGID_30_" gradientUnits="userSpaceOnUse" x1="333.24" y1="165.783" x2="333.24" y2="168.473"><stop offset="0" style="stop-color:#d1deff"/><stop offset="1" style="stop-color:#b2c7ff"/></linearGradient><path d="M361.649 168.147c0 .666-.54 1.205-1.206 1.205h-54.407a1.205 1.205 0 1 1 0-2.41h54.407c.666 0 1.206.539 1.206 1.205z" style="fill:url(#SVGID_30_)"/><linearGradient id="SVGID_31_" gradientUnits="userSpaceOnUse" x1="320.327" y1="171.454" x2="320.327" y2="174.001"><stop offset="0" style="stop-color:#d1deff"/><stop offset="1" style="stop-color:#b2c7ff"/></linearGradient><path d="M335.823 173.905c0 .666-.54 1.205-1.205 1.205h-28.582a1.205 1.205 0 1 1 0-2.41h28.582c.666 0 1.205.54 1.205 1.205z" style="fill:url(#SVGID_31_)"/><linearGradient id="SVGID_32_" gradientUnits="userSpaceOnUse" x1="387.707" y1="195.917" x2="387.707" y2="286.389"><stop offset="0" style="stop-color:#d1deff"/><stop offset="1" style="stop-color:#b2c7ff"/></linearGradient><path d="M388.957 286.389h-2.5a.375.375 0 0 1 0-.75h2.125v-2.125a.375.375 0 0 1 .75 0v2.5a.375.375 0 0 1-.375.375z" style="fill:url(#SVGID_32_)"/><linearGradient id="SVGID_33_" gradientUnits="userSpaceOnUse" x1="321.839" y1="195.917" x2="321.839" y2="286.389"><stop offset="0" style="stop-color:#d1deff"/><stop offset="1" style="stop-color:#b2c7ff"/></linearGradient><path d="M381.288 286.389h-5.17a.375.375 0 0 1 0-.75h5.17a.375.375 0 0 1 0 .75zm-10.34 0h-5.169a.375.375 0 0 1 0-.75h5.17a.375.375 0 0 1 0 .75zm-10.338 0h-5.17a.375.375 0 0 1 0-.75h5.17a.375.375 0 0 1 0 .75zm-10.339 0h-5.17a.375.375 0 0 1 0-.75h5.17a.375.375 0 0 1 0 .75zm-10.339 0h-5.17a.375.375 0 0 1 0-.75h5.17a.375.375 0 0 1 0 .75zm-10.339 0h-5.17a.375.375 0 0 1 0-.75h5.17a.375.375 0 0 1 0 .75zm-10.338 0h-5.17a.375.375 0 0 1 0-.75h5.17a.375.375 0 0 1 0 .75zm-10.34 0h-5.17a.375.375 0 0 1 0-.75h5.17a.375.375 0 0 1 0 .75zm-10.338 0h-5.17a.375.375 0 0 1 0-.75h5.17a.375.375 0 0 1 0 .75zm-10.34 0h-5.169a.375.375 0 0 1 0-.75h5.17a.375.375 0 0 1 0 .75zm-10.338 0h-5.17a.375.375 0 0 1 0-.75h5.17a.375.375 0 0 1 0 .75zm-10.339 0h-5.17a.375.375 0 0 1 0-.75h5.17a.375.375 0 0 1 0 .75z" style="fill:url(#SVGID_33_)"/><linearGradient id="SVGID_34_" gradientUnits="userSpaceOnUse" x1="255.97" y1="195.917" x2="255.97" y2="286.389"><stop offset="0" style="stop-color:#d1deff"/><stop offset="1" style="stop-color:#b2c7ff"/></linearGradient><path d="M257.22 286.389h-2.5a.375.375 0 0 1-.375-.375v-2.5a.375.375 0 0 1 .75 0v2.125h2.125a.375.375 0 0 1 0 .75z" style="fill:url(#SVGID_34_)"/><linearGradient id="SVGID_35_" gradientUnits="userSpaceOnUse" x1="254.72" y1="198.569" x2="254.72" y2="286.15"><stop offset="0" style="stop-color:#d1deff"/><stop offset="1" style="stop-color:#b2c7ff"/></linearGradient><path d="M254.72 278.905a.375.375 0 0 1-.375-.375v-4.983a.375.375 0 0 1 .75 0v4.983a.375.375 0 0 1-.375.375zm0-9.967a.375.375 0 0 1-.375-.375v-4.983a.375.375 0 0 1 .75 0v4.983a.375.375 0 0 1-.375.375zm0-9.967a.375.375 0 0 1-.375-.375v-4.984a.375.375 0 0 1 .75 0v4.984a.375.375 0 0 1-.375.375zm0-9.967a.375.375 0 0 1-.375-.375v-4.984a.375.375 0 0 1 .75 0v4.984a.375.375 0 0 1-.375.375zm0-9.967a.375.375 0 0 1-.375-.375v-4.984a.375.375 0 0 1 .75 0v4.984a.375.375 0 0 1-.375.375zm0-9.968a.375.375 0 0 1-.375-.375v-4.983a.375.375 0 0 1 .75 0v4.983a.375.375 0 0 1-.375.375zm0-9.967a.375.375 0 0 1-.375-.375v-4.984a.375.375 0 0 1 .75 0v4.984a.375.375 0 0 1-.375.375zm0-9.967a.375.375 0 0 1-.375-.375v-4.984a.375.375 0 0 1 .75 0v4.984a.375.375 0 0 1-.375.375z" style="fill:url(#SVGID_35_)"/><linearGradient id="SVGID_36_" gradientUnits="userSpaceOnUse" x1="255.97" y1="195.918" x2="255.97" y2="286.389"><stop offset="0" style="stop-color:#d1deff"/><stop offset="1" style="stop-color:#b2c7ff"/></linearGradient><path d="M254.72 199.168a.375.375 0 0 1-.375-.375v-2.5c0-.207.168-.375.375-.375h2.5a.375.375 0 0 1 0 .75h-2.125v2.125a.375.375 0 0 1-.375.375z" style="fill:url(#SVGID_36_)"/><linearGradient id="SVGID_37_" gradientUnits="userSpaceOnUse" x1="321.839" y1="195.918" x2="321.839" y2="286.389"><stop offset="0" style="stop-color:#d1deff"/><stop offset="1" style="stop-color:#b2c7ff"/></linearGradient><path d="M381.288 196.668h-5.17a.375.375 0 0 1 0-.75h5.17a.375.375 0 0 1 0 .75zm-10.34 0h-5.169a.375.375 0 0 1 0-.75h5.17a.375.375 0 0 1 0 .75zm-10.338 0h-5.17a.375.375 0 0 1 0-.75h5.17a.375.375 0 0 1 0 .75zm-10.339 0h-5.17a.375.375 0 0 1 0-.75h5.17a.375.375 0 0 1 0 .75zm-10.339 0h-5.17a.375.375 0 0 1 0-.75h5.17a.375.375 0 0 1 0 .75zm-10.339 0h-5.17a.375.375 0 0 1 0-.75h5.17a.375.375 0 0 1 0 .75zm-10.338 0h-5.17a.375.375 0 0 1 0-.75h5.17a.375.375 0 0 1 0 .75zm-10.34 0h-5.17a.375.375 0 0 1 0-.75h5.17a.375.375 0 0 1 0 .75zm-10.338 0h-5.17a.375.375 0 0 1 0-.75h5.17a.375.375 0 0 1 0 .75zm-10.34 0h-5.169a.375.375 0 0 1 0-.75h5.17a.375.375 0 0 1 0 .75zm-10.338 0h-5.17a.375.375 0 0 1 0-.75h5.17a.375.375 0 0 1 0 .75zm-10.339 0h-5.17a.375.375 0 0 1 0-.75h5.17a.375.375 0 0 1 0 .75z" style="fill:url(#SVGID_37_)"/><linearGradient id="SVGID_38_" gradientUnits="userSpaceOnUse" x1="387.707" y1="195.918" x2="387.707" y2="286.389"><stop offset="0" style="stop-color:#d1deff"/><stop offset="1" style="stop-color:#b2c7ff"/></linearGradient><path d="M388.957 199.168a.375.375 0 0 1-.375-.375v-2.125h-2.125a.375.375 0 0 1 0-.75h2.5c.207 0 .375.168.375.375v2.5a.375.375 0 0 1-.375.375z" style="fill:url(#SVGID_38_)"/><linearGradient id="SVGID_39_" gradientUnits="userSpaceOnUse" x1="388.957" y1="196.157" x2="388.957" y2="283.738"><stop offset="0" style="stop-color:#d1deff"/><stop offset="1" style="stop-color:#b2c7ff"/></linearGradient><path d="M388.957 278.905a.375.375 0 0 1-.375-.375v-4.983a.375.375 0 0 1 .75 0v4.983a.375.375 0 0 1-.375.375zm0-9.967a.375.375 0 0 1-.375-.375v-4.983a.375.375 0 0 1 .75 0v4.983a.375.375 0 0 1-.375.375zm0-9.967a.375.375 0 0 1-.375-.375v-4.984a.375.375 0 0 1 .75 0v4.984a.375.375 0 0 1-.375.375zm0-9.967a.375.375 0 0 1-.375-.375v-4.984a.375.375 0 0 1 .75 0v4.984a.375.375 0 0 1-.375.375zm0-9.968a.375.375 0 0 1-.375-.375v-4.983a.375.375 0 0 1 .75 0v4.983a.375.375 0 0 1-.375.375zm0-9.967a.375.375 0 0 1-.375-.375v-4.983a.375.375 0 0 1 .75 0v4.983a.375.375 0 0 1-.375.375zm0-9.967a.375.375 0 0 1-.375-.375v-4.984a.375.375 0 0 1 .75 0v4.984a.375.375 0 0 1-.375.375zm0-9.967a.375.375 0 0 1-.375-.375v-4.984a.375.375 0 0 1 .75 0v4.984a.375.375 0 0 1-.375.375z" style="fill:url(#SVGID_39_)"/><linearGradient id="SVGID_40_" gradientUnits="userSpaceOnUse" x1="320.899" y1="238.178" x2="320.899" y2="274.903"><stop offset="0" style="stop-color:#fadf68"/><stop offset="1" style="stop-color:#eac250"/></linearGradient><path d="M268.16 238.178c22.571 1.344 19.345 19.487 34.969 20.915 17.451 1.596 20.411-17.051 35.111-19.24s18.564 8.069 24.864 12.689c6.3 4.62 10.533 5.04 10.533 5.04v17.321H268.16v-36.725z" style="fill:url(#SVGID_40_)"/><linearGradient id="SVGID_41_" gradientUnits="userSpaceOnUse" x1="320.899" y1="212.476" x2="320.899" y2="274.903"><stop offset="0" style="stop-color:#f34b6d"/><stop offset="1" style="stop-color:#e24067"/></linearGradient><path d="M268.16 254.492s10.635-2.405 15.146-17.942c4.511-15.537 9.842-25.71 24.058-23.857 19.47 2.536 21.193 42.604 38.491 51.021 16.425 7.993 27.782 4.692 27.782 4.692v6.497H268.16v-20.41z" style="fill:url(#SVGID_41_)"/><path class="st380" d="M305.193 259.69c-.68 0-1.383-.032-2.11-.099-7.256-.663-10.568-4.828-14.074-9.239-4.28-5.383-8.706-10.95-20.878-11.675l.058-.998c12.62.75 17.392 6.755 21.603 12.051 3.515 4.422 6.551 8.241 13.382 8.866 9.382.854 14.383-4.193 19.663-9.541 4.217-4.273 8.578-8.692 15.33-9.697 11.195-1.668 16.264 3.733 20.73 8.5 1.507 1.608 2.93 3.128 4.503 4.28 6.09 4.467 10.246 4.942 10.288 4.946l-.1.995c-.178-.018-4.442-.487-10.78-5.134-1.646-1.208-3.1-2.76-4.64-4.404-4.298-4.586-9.165-9.787-19.855-8.194-6.42.956-10.473 5.063-14.765 9.41-4.826 4.89-9.804 9.932-18.355 9.933z"/><path class="st3" d="M349.453 275.522h-1v-.743h1v.743zm0-1.743h-1v-1h1v1zm0-2h-1v-1h1v1zm0-2h-1v-1h1v1zm0-2h-1v-1h1v1zm0-2h-1v-1h1v1zm0-2h-1v-1h1v1zm0-2h-1v-1h1v1zm0-2h-1v-1h1v1zm0-2h-1v-1h1v1zm0-2h-1v-1h1v1zm0-2h-1v-1h1v1zm0-2h-1v-1h1v1zm0-2h-1v-1h1v1zm0-2h-1v-1h1v1zm0-2h-1v-1h1v1zm0-2h-1v-1h1v1zm0-2h-1v-1h1v1z"/><circle class="st4" cx="348.953" cy="240.779" r="2.601"/><path class="st3" d="M330.943 275.522h-1v-.669h1v.669zm0-1.669h-1v-1h1v1zm0-2h-1v-1h1v1zm0-2h-1v-1h1v1zm0-2h-1v-1h1v1zm0-2h-1v-1h1v1zm0-2h-1v-1h1v1zm0-2h-1v-1h1v1zm0-2h-1v-1h1v1zm0-2h-1v-1h1v1zm0-2h-1v-1h1v1zm0-2h-1v-1h1v1zm0-2h-1v-1h1v1zm0-2h-1v-1h1v1zm0-2h-1v-1h1v1zm0-2h-1v-1h1v1zm0-2h-1v-1h1v1z"/><circle class="st4" cx="330.443" cy="274.903" r="2.601"/><path class="st3" d="M281.754 274.903h-1v-.899h1v.899zm0-1.899h-1v-1h1v1zm0-2h-1v-1h1v1zm0-2h-1v-1h1v1zm0-2h-1v-1h1v1zm0-2h-1v-1h1v1zm0-2h-1v-1h1v1zm0-2h-1v-1h1v1zm0-2h-1v-1h1v1zm0-2h-1v-1h1v1zm0-2h-1v-1h1v1zm0-2h-1v-1h1v1zm0-2h-1v-1h1v1zm0-2h-1v-1h1v1zm0-2h-1v-1h1v1zm0-2h-1v-1h1v1zm0-2h-1v-1h1v1z"/><path class="st380" d="M367.215 269.602c-4.971 0-12.484-1.012-21.579-5.438-8.169-3.975-12.936-14.87-17.547-25.408-5.456-12.466-10.609-24.24-20.79-25.567-13.449-1.755-18.807 7.29-23.512 23.5-4.541 15.64-15.07 18.19-15.517 18.291l-.222-.975c.104-.024 10.412-2.553 14.778-17.595 4.736-16.311 10.513-26.048 24.602-24.213 10.742 1.4 16.25 13.986 21.577 26.158 4.538 10.372 9.231 21.096 17.069 24.91 16.064 7.818 27.312 4.694 27.424 4.661l.279.96c-.21.061-2.564.716-6.562.716z"/><circle class="st4" cx="330.443" cy="242.627" r="2.601"/><path class="st4" d="M375.517 275.403H267.66v-68.095h1v67.095h106.857z"/><path class="st3" d="M315.563 275.022h1v.5h-1zM316.563 274.013h-1v-1.008h1v1.008zm0-2.016h-1v-1.009h1v1.009zm0-2.017h-1v-1.008h1v1.008zm0-2.017h-1v-1.008h1v1.008zm0-2.017h-1v-1.008h1v1.008zm0-2.016h-1v-1.009h1v1.009zm0-2.017h-1v-1.008h1v1.008zm0-2.017h-1v-1.008h1v1.008zm0-2.016h-1v-1.009h1v1.009zm0-2.017h-1v-1.009h1v1.009zm0-2.017h-1v-1.008h1v1.008zm0-2.016h-1v-1.009h1v1.009zm0-2.017h-1v-1.009h1v1.009zm0-2.017h-1v-1.008h1v1.008zm0-2.017h-1v-1.008h1v1.008zm0-2.016h-1v-1.009h1v1.009zm0-2.017h-1v-1.008h1v1.008zm0-2.017h-1v-1.008h1v1.008zm0-2.017h-1v-1.008h1v1.008zm0-2.016h-1v-1.009h1v1.009zm0-2.017h-1v-1.008h1v1.008zm0-2.017h-1v-1.008h1v1.008zm0-2.017h-1v-1.008h1v1.008zm0-2.016h-1v-1.009h1v1.009zm0-2.017h-1v-1.008h1v1.008zm0-2.017h-1v-1.008h1v1.008zm0-2.016h-1v-1.009h1v1.009zm0-2.017h-1v-1.008h1v1.008zM315.563 217.046h1v.5h-1z"/><circle class="st4" cx="316.064" cy="274.903" r="2.601"/><circle class="st4" cx="316.064" cy="255.549" r="2.601"/><circle class="st4" cx="348.953" cy="274.903" r="2.601"/><circle class="st4" cx="281.776" cy="274.903" r="2.601"/><circle class="st4" cx="281.254" cy="242.004" r="2.601"/><path class="st3" d="M348.952 242.075a1.298 1.298 0 0 1 0-2.593c.715 0 1.297.582 1.297 1.297s-.582 1.296-1.297 1.296zM330.443 276.2c-.715 0-1.297-.582-1.297-1.297s.582-1.297 1.297-1.297a1.298 1.298 0 0 1 0 2.594zM330.443 243.924c-.715 0-1.297-.582-1.297-1.297s.582-1.296 1.297-1.296a1.298 1.298 0 0 1 0 2.593zM316.064 276.2c-.715 0-1.297-.582-1.297-1.297s.582-1.297 1.297-1.297a1.298 1.298 0 0 1 0 2.594zM316.064 256.846c-.715 0-1.297-.582-1.297-1.297s.582-1.296 1.297-1.296a1.298 1.298 0 0 1 0 2.593zM348.952 276.2a1.298 1.298 0 0 1 0-2.594c.715 0 1.297.582 1.297 1.297s-.582 1.297-1.297 1.297zM281.776 276.2a1.298 1.298 0 0 1 0-2.594c.715 0 1.297.582 1.297 1.297s-.582 1.297-1.297 1.297zM281.253 243.301a1.298 1.298 0 0 1 0-2.593c.716 0 1.297.581 1.297 1.296s-.581 1.297-1.297 1.297z"/><linearGradient id="SVGID_42_" gradientUnits="userSpaceOnUse" x1="398.687" y1="130.249" x2="407.505" y2="130.249"><stop offset="0" style="stop-color:#ebf2ff"/><stop offset="1" style="stop-color:#e1e8ff"/></linearGradient><path d="M407.505 130.258c0 2.43-1.97 4.4-4.4 4.4-2.43 0-4.418-1.97-4.418-4.4a4.418 4.418 0 0 1 4.418-4.417c2.43 0 4.4 1.969 4.4 4.417z" style="fill:url(#SVGID_42_)"/><linearGradient id="SVGID_43_" gradientUnits="userSpaceOnUse" x1="414.002" y1="130.249" x2="449.497" y2="130.249"><stop offset="0" style="stop-color:#ebf2ff"/><stop offset="1" style="stop-color:#e1e8ff"/></linearGradient><path style="fill:url(#SVGID_43_)" d="M414.002 128.651h35.494v3.196h-35.494z"/><linearGradient id="SVGID_44_" gradientUnits="userSpaceOnUse" x1="398.687" y1="143.138" x2="407.505" y2="143.138"><stop offset="0" style="stop-color:#ebf2ff"/><stop offset="1" style="stop-color:#e1e8ff"/></linearGradient><path d="M407.505 143.147c0 2.431-1.97 4.4-4.4 4.4-2.43 0-4.418-1.969-4.418-4.4a4.418 4.418 0 0 1 4.418-4.417c2.43 0 4.4 1.969 4.4 4.417z" style="fill:url(#SVGID_44_)"/><linearGradient id="SVGID_45_" gradientUnits="userSpaceOnUse" x1="414.002" y1="143.138" x2="449.497" y2="143.138"><stop offset="0" style="stop-color:#ebf2ff"/><stop offset="1" style="stop-color:#e1e8ff"/></linearGradient><path style="fill:url(#SVGID_45_)" d="M414.002 141.541h35.494v3.196h-35.494z"/><linearGradient id="SVGID_46_" gradientUnits="userSpaceOnUse" x1="398.687" y1="156.028" x2="407.505" y2="156.028"><stop offset="0" style="stop-color:#ebf2ff"/><stop offset="1" style="stop-color:#e1e8ff"/></linearGradient><path d="M407.505 156.036c0 2.431-1.97 4.4-4.4 4.4-2.43 0-4.418-1.969-4.418-4.4a4.418 4.418 0 0 1 4.418-4.417c2.43 0 4.4 1.97 4.4 4.417z" style="fill:url(#SVGID_46_)"/><linearGradient id="SVGID_47_" gradientUnits="userSpaceOnUse" x1="414.002" y1="156.028" x2="449.497" y2="156.028"><stop offset="0" style="stop-color:#ebf2ff"/><stop offset="1" style="stop-color:#e1e8ff"/></linearGradient><path style="fill:url(#SVGID_47_)" d="M414.002 154.43h35.494v3.196h-35.494z"/><linearGradient id="SVGID_48_" gradientUnits="userSpaceOnUse" x1="398.687" y1="168.917" x2="407.505" y2="168.917"><stop offset="0" style="stop-color:#3dcfa4"/><stop offset="1" style="stop-color:#30bb93"/></linearGradient><path d="M407.505 168.926c0 2.43-1.97 4.4-4.4 4.4-2.43 0-4.418-1.97-4.418-4.4a4.418 4.418 0 0 1 4.418-4.418c2.43 0 4.4 1.97 4.4 4.418z" style="fill:url(#SVGID_48_)"/><linearGradient id="SVGID_49_" gradientUnits="userSpaceOnUse" x1="414.002" y1="168.917" x2="449.497" y2="168.917"><stop offset="0" style="stop-color:#3dcfa4"/><stop offset="1" style="stop-color:#30bb93"/></linearGradient><path style="fill:url(#SVGID_49_)" d="M414.002 167.319h35.494v3.196h-35.494z"/><linearGradient id="SVGID_50_" gradientUnits="userSpaceOnUse" x1="398.687" y1="181.806" x2="407.505" y2="181.806"><stop offset="0" style="stop-color:#ebf2ff"/><stop offset="1" style="stop-color:#e1e8ff"/></linearGradient><path d="M407.505 181.815c0 2.43-1.97 4.4-4.4 4.4-2.43 0-4.418-1.97-4.418-4.4a4.418 4.418 0 0 1 4.418-4.418c2.43 0 4.4 1.97 4.4 4.418z" style="fill:url(#SVGID_50_)"/><linearGradient id="SVGID_51_" gradientUnits="userSpaceOnUse" x1="414.002" y1="181.806" x2="449.497" y2="181.806"><stop offset="0" style="stop-color:#ebf2ff"/><stop offset="1" style="stop-color:#e1e8ff"/></linearGradient><path style="fill:url(#SVGID_51_)" d="M414.002 180.208h35.494v3.196h-35.494z"/><linearGradient id="SVGID_52_" gradientUnits="userSpaceOnUse" x1="507.671" y1="216.26" x2="507.671" y2="249.737"><stop offset="0" style="stop-color:#d1deff"/><stop offset="1" style="stop-color:#b2c7ff"/></linearGradient><path d="M508.44 193.933h-7.143v70.212h7.142a5.609 5.609 0 0 0 5.606-5.606v-59a5.609 5.609 0 0 0-5.606-5.606z" style="fill:url(#SVGID_52_)"/><linearGradient id="SVGID_53_" gradientUnits="userSpaceOnUse" x1="455.01" y1="216.26" x2="455.01" y2="249.737"><stop offset="0" style="stop-color:#ebf2ff"/><stop offset="1" style="stop-color:#e1e8ff"/></linearGradient><path d="M509.697 199.539v59a5.609 5.609 0 0 1-5.606 5.607H405.93a5.609 5.609 0 0 1-5.607-5.607v-59a5.609 5.609 0 0 1 5.607-5.606h98.16a5.609 5.609 0 0 1 5.607 5.606z" style="fill:url(#SVGID_53_)"/><path class="st17" d="M431.461 221.323h5.245v30.662h-5.245z"/><path class="st3" d="M445.41 213.533h5.245v38.452h-5.245z"/><path class="st17" d="M459.358 206.094h5.245v45.891h-5.245z"/><path class="st3" d="M417.512 232.127h5.245v19.858h-5.245zM473.307 231.424h5.252v20.561h-5.252z"/><path class="st17" d="M487.264 222.562h5.245v29.423h-5.245z"/><path d="M322.885 329.042c0 17.66-14.076 31.988-31.426 31.988-17.334 0-31.41-14.328-31.41-31.988s14.076-31.989 31.41-31.989c17.35 0 31.426 14.329 31.426 31.989z" style="fill:#b2c7ff"/><path class="st3" d="M311.89 329.042c0 11.48-9.15 20.793-20.428 20.793-11.268 0-20.418-9.314-20.418-20.793 0-11.48 9.15-20.794 20.418-20.794 11.278 0 20.427 9.314 20.427 20.794z"/><path class="st2" d="M311.89 329.042h-20.428v-20.794c11.278 0 20.427 9.314 20.427 20.794z"/><path class="st4" d="M291.466 330.042a1 1 0 0 1-.712-1.701l17.244-17.553a1 1 0 1 1 1.425 1.402l-17.244 17.552c-.195.2-.454.3-.713.3z"/><path class="st4" d="M295.687 329.042c0 2.372-1.895 4.29-4.225 4.29-2.33 0-4.216-1.918-4.216-4.29s1.885-4.291 4.216-4.291c2.33 0 4.225 1.919 4.225 4.29z"/><path class="st3" d="M290.466 301.112h2v3.369h-2z"/><path transform="rotate(-29.571 278.574 306.312)" class="st3" d="M277.574 304.635h2.001v3.354h-2.001z"/><path transform="rotate(-59.559 269.137 315.919)" class="st3" d="M268.137 314.257h2v3.324h-2z"/><path class="st3" d="M264.028 328.042h3.309v2h-3.309z"/><path transform="rotate(-30.453 269.137 342.165)" class="st3" d="M267.475 341.165h3.324v2h-3.324z"/><path transform="rotate(-60.456 278.575 351.771)" class="st3" d="M276.898 350.771h3.354v2h-3.354z"/><path class="st3" d="M290.466 353.603h2v3.369h-2z"/><path transform="rotate(-29.557 304.359 351.771)" class="st3" d="M303.359 350.094h2v3.354h-2z"/><path transform="rotate(-59.559 313.796 342.164)" class="st3" d="M312.796 340.502h2v3.324h-2z"/><path class="st3" d="M315.596 328.041h3.309v2h-3.309z"/><path transform="rotate(-30.453 313.796 315.919)" class="st3" d="M312.134 314.919h3.324v2h-3.324z"/><path transform="rotate(-60.444 304.359 306.312)" class="st3" d="M302.681 305.312h3.354v2.001h-3.354z"/><linearGradient id="SVGID_54_" gradientUnits="userSpaceOnUse" x1="338.178" y1="329.192" x2="430.465" y2="329.192"><stop offset="0" style="stop-color:#d1deff"/><stop offset="1" style="stop-color:#b2c7ff"/></linearGradient><path d="M424.42 297.95h-7.82v62.484h7.82a6.051 6.051 0 0 0 6.046-6.046v-50.39a6.052 6.052 0 0 0-6.047-6.047z" style="fill:url(#SVGID_54_)"/><linearGradient id="SVGID_55_" gradientUnits="userSpaceOnUse" x1="335.112" y1="329.193" x2="427.399" y2="329.193"><stop offset="0" style="stop-color:#ebf2ff"/><stop offset="1" style="stop-color:#e1e8ff"/></linearGradient><path d="M427.399 303.997v50.391a6.051 6.051 0 0 1-6.046 6.046h-80.195a6.051 6.051 0 0 1-6.046-6.046v-50.39a6.051 6.051 0 0 1 6.046-6.047h80.195a6.051 6.051 0 0 1 6.046 6.046z" style="fill:url(#SVGID_55_)"/><path class="st3" d="M350.739 330.153h8.082v21.658h-8.082zM368.543 323.271h8.082v28.54h-8.082zM386.348 321.6h8.082v30.212h-8.082zM404.153 309.212h8.082v42.6h-8.082z"/><path class="st4" d="m419.086 314.752-3.346 7.917c-.312.739-1.316.82-1.731.138l-2.343-3.854-31.656 19.62a.749.749 0 0 1-.843-.024l-7.34-5.1-12.867 12.313a.733.733 0 0 1-.531.22.744.744 0 0 1-.404-.116c-5.528-3.44-13.976-8.644-14.864-9.06a.773.773 0 0 1-.543-.738c0-.416.346-.762.773-.762.278 0 .554 0 14.934 8.944l12.902-12.348a.781.781 0 0 1 .97-.07l7.432 5.17 31.24-19.365-2.088-3.427c-.416-.681.127-1.547.911-1.489l8.575.68a.98.98 0 0 1 .82 1.351zM83.688 435.761h6.966v77.669h-6.966z"/><path class="st157" d="M130.295 430.244v6.24a2.61 2.61 0 0 1-2.61 2.608H59.88a2.61 2.61 0 0 1-2.609-2.609v-6.239a2.61 2.61 0 0 1 2.61-2.61h67.805a2.61 2.61 0 0 1 2.61 2.61z"/><path class="st157" d="m68.138 437.557-8.259 1.535a2.61 2.61 0 0 1-2.981-2.174l-12.866-81.807a2.61 2.61 0 0 1 2.174-2.981l8.258-1.535a2.61 2.61 0 0 1 2.982 2.173l12.866 81.808a2.61 2.61 0 0 1-2.174 2.981z"/><path class="st157" d="m98.97 439.092 8.258-1.535a2.61 2.61 0 0 0 2.174-2.981l-12.866-81.808a2.61 2.61 0 0 0-2.982-2.173h-39.09a2.61 2.61 0 0 1 2.982 2.173l12.866 81.808a2.61 2.61 0 0 1-2.174 2.981l-8.259 1.535h39.09z"/><path class="st4" d="M114.259 520.003c-.254-1.468-1.464-2.635-2.996-2.768-11.497-.99-22.903-8.195-22.903-8.195h-2.37s-11.406 7.205-22.904 8.195c-1.532.133-2.741 1.3-2.995 2.768h54.168zM154.876 504.612l-2.578 10.77a3.76 3.76 0 0 0 3.563 4.48c9.503.318 28.182.003 31.63-.028a.513.513 0 0 0 .508-.494c.154-3.295-2.035-5.39-5.26-7.01l-12.43-8.372a.136.136 0 0 0-.077-.019l-15.356.673z"/><path class="st14" d="M154.875 504.61c.14 3.192 15.496 2.52 15.357-.67l.304-12.614-14.38-.447-1.281 13.732z"/><path class="st0" d="M120.1 393.778h33.776c13.739 0 24.5 11.816 23.22 25.495l-2.396 77.193c-.053 2.902-22.858 1.623-22.805-1.28l-3.973-69.188-53.975-24.476 3.607-15.072 22.546 7.328z"/><path class="st4" d="m122.05 504.612-2.579 10.77a3.76 3.76 0 0 0 3.563 4.48c9.503.318 28.182.003 31.63-.028a.513.513 0 0 0 .508-.494c.154-3.295-2.035-5.39-5.26-7.01l-12.43-8.372a.136.136 0 0 0-.077-.019l-15.356.673z"/><path class="st14" d="M122.048 504.61c.14 3.192 15.496 2.52 15.357-.67l.304-12.614-14.38-.447-1.281 13.732z"/><path class="st4" d="M99.633 394.62s41.685.252 49.907 10.704c11.056 14.054-.017 71.802-8.774 90.883-.078 2.82-21.823 2.218-21.745-.602l3.137-67.417-27.655-.21c-14.488-.11-26.31-11.623-26.825-26.102-.18-5.046.13-8.658.13-8.658l31.825 1.402z"/><path class="st14" d="M173.984 369.129s3.795-7.049 7.482-5.748c3.687 1.302 0 4.663 0 4.663s13.655-.404 11.812 6.102-4.23 9.759-6.615 5.422c-2.385-4.338-14.956-1.656-14.956-1.656"/><path class="st2" d="m175.624 364.995-.72 12.079-.1 1.673s-40.662 5.762-53.867 2.556c-1.22-.305-2.212-.68-2.908-1.141-10.523-7.005-13.15-28.77-15.51-41.053-3.308-17.191 9.584-31.326 20.607-17.543 4.152 5.191 8.147 38.543 8.147 38.543l44.351 4.886z"/><path class="st59" d="m174.905 377.074-.102 1.673s-40.661 5.762-53.866 2.556c-1.923-1.962-3.15-4.612-3.721-7.317-.72-3.394-.516-6.912-.14-10.36a106.992 106.992 0 0 1 4.182-20.107c.555-1.782 1.485-4.597 3.354-5.434 2.666-1.196 2.369 3.636 2.587 5.2.83 5.91 1.658 11.828 2.487 17.738.484 3.464 1.094 7.185 3.549 9.671 2.697 2.737 6.864 3.237 10.695 3.58 10.328.931 20.647 1.87 30.975 2.8z"/><path class="st2" d="M127.254 367.731c-.14 7.466-.484 14.26-.774 19.076-.273 4.456-.508 7.216-.508 7.216-4.073 3.3-33.672 6.035-49.55 4.276-2.26-.25-4.23-.586-5.817-1.023-1.438-.407-2.556-.884-3.268-1.455a2.764 2.764 0 0 1-.61-.649c.006-.31-7.578-61.76 1.767-72.113 6.732-7.49 42.554-16.464 52.905-2.439 5.378 7.294 6.191 29.138 5.855 47.111z"/><path class="st59" d="M127.254 367.731c-.14 7.466-.484 14.26-.774 19.076l-28.09-.422-19.412-.281c-1.642-.024-3.346-.032-4.808.703-2.556 1.29-3.557 4.44-3.65 7.294-.032 1.055.023 2.119.085 3.175-1.438-.407-2.556-.884-3.268-1.455a2.764 2.764 0 0 1-.61-.649s-6.582-54.39.235-69.626c2.408-.376 4.832-.61 7.263-.525 6.145.22 11.242 2.448 14.283 7.772a52.443 52.443 0 0 1 6.505 19.53c.352 2.837.531 5.886 2.251 8.169 2.213 2.931 6.224 3.69 9.851 4.237 6.716 1 13.424 2.001 20.14 3.002z"/><path class="st14" d="M106.867 322.412c-10.885 3.74-17.445-10.048-17.445-10.048l-.308-21.4 7.623 4.479 7.17 4.218-.11 1.274-.544 6.382-.205 4.77s10.142 8.153 3.82 10.325z"/><path class="st15" d="m103.798 300.935-.545 6.382c-1.87-1.593-5.778-5.057-7.246-7.581-.57-.99-.352-1.853.235-2.558l7.556 3.757z"/><path class="st14" d="M110.768 304.167c-9.276 1.607-20.549-8.71-21.937-9.986-.07-.085-.107-.115-.107-.115s-5.906-1.625-5.071-6.627c1.181-6.979 5.683-1.798 5.683-1.798l-2.72-13 5.917-7.05 23.92 5.16s.518 5.683.536 12.474c.034 9.223-1.547 20.133-6.221 20.942z"/><path class="st0" d="M119.913 276.273c-3.077 2.43-20.177 7.94-24.281 1.25-.939-1.53-3.313 9.192-4.502 9.67-1.188.476-1.794-1.552-1.794-1.552s-4.502-5.18-5.683 1.798c-.835 5.002 5.05 6.621 5.05 6.621s1.259 1.116 1.33 1.201l-.517 7.861c-12.068-10.548-14.612-26.667-7.868-34.95 6.743-8.27 10.032-8.192 17.498-6.754 7.465 1.44 10.859-3.743 16.317-.408 5.46 3.321 7.437 12.903 4.45 15.263z"/><path class="st14" d="M114.055 286.411c-.128-.862-.732-1.496-1.36-1.398-.62.088-1.018.86-.88 1.723M105.177 286.47c-.127-.863-.741-1.498-1.36-1.4-.619.089-1.017.861-.89 1.724"/><path class="st0" d="M102.926 286.797c.131.868.731 1.49 1.356 1.397.618-.085 1.018-.86.894-1.728-.13-.86-.738-1.49-1.356-1.397-.625.092-1.025.86-.894 1.728zM111.81 286.74c.123.867.73 1.489 1.348 1.396.625-.085 1.025-.86.894-1.728-.123-.86-.73-1.49-1.356-1.397-.618.093-1.017.86-.886 1.728zM114.304 284.408c-1.067-.32-1.442-.667-2.294-.145-.215.187-.466.37-.78.537.072-.33.188-.664.375-.96.505-.68 1.413-.773 2.078-.249.29.217.475.504.62.817zM104.759 284.213c-1.07-.32-1.441-.666-2.294-.145a4.14 4.14 0 0 1-.78.537c.072-.33.188-.663.375-.96.505-.68 1.413-.773 2.079-.248.289.216.474.504.62.816zM108.729 285.801c.124.85.193 1.702.254 2.553.117 1.286-.008 2.525.799 3.524.664.905.992 1.544.225 2.51-.295.342-.645.597-1.009.825 1.533-1.51 1.2-2.131.414-3.04-.924-1.05-.83-2.421-.812-3.81.02-.853.047-1.707.129-2.562z"/><path class="st3" d="M107.185 297.692c.01 1.634 1.175 2.951 2.595 2.942 1.414-.01 2.56-1.342 2.55-2.976 0-.029-.008-.051-.008-.073-1.44.348-3.148.36-5.13.033 0 .022-.007.045-.007.074z"/><path d="M264.983 393.667v9.971c0 .844-.68 1.537-1.537 1.537H92.19a1.535 1.535 0 0 1-1.537-1.537v-9.97c0-.857.68-1.538 1.537-1.538h171.256c.857 0 1.537.68 1.537 1.537z" style="fill:#ebf2ff"/><linearGradient id="SVGID_56_" gradientUnits="userSpaceOnUse" x1="243.441" y1="462.587" x2="251.76" y2="462.587"><stop offset="0" style="stop-color:#d1deff"/><stop offset="1" style="stop-color:#b2c7ff"/></linearGradient><path style="fill:url(#SVGID_56_)" d="M243.441 405.171h8.318v114.83h-8.318z"/><linearGradient id="SVGID_57_" gradientUnits="userSpaceOnUse" x1="103.877" y1="462.589" x2="112.199" y2="462.589"><stop offset="0" style="stop-color:#d1deff"/><stop offset="1" style="stop-color:#b2c7ff"/></linearGradient><path style="fill:url(#SVGID_57_)" d="M103.877 405.175h8.321v114.828h-8.321z"/><path class="st0" d="M136.541 392.13h42.368l20.554-53.561h-3.544l-20.003 47.723-34.561 1.14a4.7 4.7 0 0 0-4.814 4.698z"/><path class="st4" d="M178.909 392.13h48.468l19.465-54.24-47.38.679z"/><path class="st14" d="M135.338 372.702s3.795-7.048 7.482-5.747c3.687 1.301 0 4.662 0 4.662s13.655-.404 11.812 6.102-4.229 9.76-6.614 5.422c-2.386-4.338-14.957-1.656-14.957-1.656"/><path class="st2" d="M84.962 325.722c4.152 5.191 7.664 37.957 7.664 37.957l44.35 4.892-.817 13.753s-48.549 6.88-56.773 1.409c-10.525-7.001-13.152-28.764-15.516-41.052-3.307-17.187 10.066-30.746 21.092-16.959z"/><path class="st4" d="m552.095 511.317 2.448 10.228a3.57 3.57 0 0 1-3.383 4.254c-9.025.303-26.763.003-30.038-.026a.487.487 0 0 1-.481-.47c-.147-3.129 2.078-4.523 4.994-6.656l11.805-7.95a.129.129 0 0 1 .073-.019l14.582.639z"/><path class="st14" d="M537.226 498.706s.15 11.99.214 11.99c-.165 3.901 14.49 4.521 14.655.62l-1.217-13.037-13.652.427z"/><path d="M535.984 366.802 556 505.092c0 3.022-21.307 3.022-21.307 0L513.18 403.466l15.393-41.133 7.411 4.47z" style="fill:#5062eb"/><path class="st4" d="m509.19 511.317 2.449 10.228a3.57 3.57 0 0 1-3.383 4.254c-9.025.303-26.763.003-30.038-.026a.487.487 0 0 1-.482-.47c-.146-3.129 2.079-4.523 4.994-6.656l11.806-7.95a.129.129 0 0 1 .072-.019l14.583.639z"/><path class="st14" d="M494.322 498.706s.149 11.99.214 11.99c-.165 3.901 14.49 4.521 14.655.62l-1.217-13.037-13.652.427z"/><path class="st17" d="m488.92 371.145-2.908 70.701 4.554 63.54c0 4.367 21.14 4.367 21.14 0l-1.173-61.898s5.25-24.712 8.11-32.612c5.555-15.346 14.918-28.839 4.543-42.811l-34.265 3.08z"/><path class="st14" d="M428.593 326.714c1.693 3.163 5.502 4.398 5.502 4.398s19.881 27.441 30.428 27.452c7.665 0 16.048-15.26 16.048-15.26L465.3 331.97l-5.467 6.96-20.34-13.767s1.446-7.784-1.13-7.267c-2.562.518-1.54 3.163-1.54 3.163s-7.277-11.251-8.888-9.406c-1.622 1.835 4.997 9.406 4.997 9.406s-6.031 2.493-4.338 5.655zM548.946 337.09s5.664 10.742 5.075 14.55c-1.946 12.582-23.221 15.344-23.221 15.344l-3.187-23.37 1.166-7.117 20.167.592zM497.786 291.682l.362 6.08.343 5.763 13.523.761-1.494-17.133-7.936-7.425-1.828 4.548z"/><path class="st15" d="m497.786 291.682.362 6.08c.937-.734 5.708-4.604 6.896-7.936 1.048-2.942-2.72-4.882-4.288-5.55l-2.97 7.406z"/><path class="st14" d="M488.69 280.582c.112.148.232.306.362.445a43.053 43.053 0 0 0-.074 3.258c.01.77.037 1.522.093 2.237.25 3.257.965 5.921 2.19 7.249 4.53 4.89 19.259-6.618 19.259-6.618v-17.031s-9.81-10.46-13.83-8.79c-3.23 1.337-5.559 6.785-6.775 12.902a17.637 17.637 0 0 1-1.373 4.083c-.475.975-.546 1.356.148 2.265z"/><path class="st44" d="M528.172 331.248c1.69 7.833 3.462 14.46 3.462 14.46.473 1.104 4.297.213 8.409-1.365 5.448-2.107 11.425-5.42 10.794-6.886 0 0-11.824-24.568-22.59-30.962-5.18-3.082-2.738 12.344-.075 24.753z"/><path class="st45" d="M534.65 326.329c-.872-3.147-1.494-6.534-2.682-9.57-.844.557-1.04 3.11-1.29 4.094a3481.53 3481.53 0 0 1-1.225 4.798c-.111.464-.705 3.183-1.28 5.597 1.688 7.833 3.461 14.46 3.461 14.46.473 1.104 4.297.213 8.409-1.365-1.114-2.664-1.921-5.494-2.692-8.279"/><path class="st44" d="M480.95 327.832c1.401 19.528 7.217 57.313 7.217 57.313.158.863 2.2 1.336 5.383 1.513 13.059.705 45.264-3.63 44.633-7.156 0 0-3.161-67.318-9.937-73.007-10.172-8.548-40.66-4.715-46.85 5.949-1.022 1.763-1.003 7.722-.446 15.388z"/><path class="st45" d="M480.95 327.832c1.401 19.528 7.217 57.313 7.217 57.313.158.863 2.2 1.336 5.383 1.513-3.461-6.776-7.69-20.987-7.32-28.477.316-6.673 3.518-12.798 5.839-19.054 2.33-6.265 3.74-13.513.64-19.425l.52 2.821c-4.604-.454-9.16 1.875-12.28 5.309z"/><path class="st44" d="M483.334 310.012c-2.477 1.234-20.403 20.412-20.403 20.412-2.134 1.763 13.736 20.974 15.87 19.21 0 0 11.585-12.726 13.958-19.172 3.759-10.212-4.788-22.762-9.425-20.45z"/><path class="st0" d="M511.59 296.487s-8.053-5.252-7.995-10.037c.059-4.785 5.52-10.445 1.302-12.196-4.22-1.75-4.511 4.201-6.378 2.86-1.868-1.343-.736-4.027-.736-4.027s-8.601-2.451-8.426-10.504c.175-8.053 5.722-13.422 10.389-10.854 4.666 2.568.465 5.777 5.95 6.069 5.486.292 17.74 5.719 16.981 10.854-.758 5.135 5.894 5.923 2.51 11.073-3.385 5.15-13.597 16.762-13.597 16.762z"/><ellipse transform="rotate(-80.803 491.258 275.32)" class="st0" cx="491.258" cy="275.32" rx="1.55" ry=".835"/><path class="st0" d="M490.766 273.42c.223-.505.929-.728 1.483-.487.555.238.877.906.66 1.414-.376-.94-1.204-1.297-2.143-.927z"/><path class="st3" d="M488.978 284.285c.01.77.037 1.522.093 2.237.056.019.12.037.186.046 1.058.158 1.911-.705 1.949-1.94l-2.228-.343z"/></g></svg>