<svg xmlns="http://www.w3.org/2000/svg" xml:space="preserve" id="Layer_1" x="0" y="0" enable-background="new 0 0 600 600" version="1.1" viewBox="0 0 600 600">
  <g id="_x39_0_1_">
    <g>
      <g>
        <path fill="#f4f2f6" d="M457.1979065,443.0587158H116.8190689
				c-42.3711548-16.2015686-73.2490692-45.588562-72.8145447-74.2024536
				c0.6322594-41.7335815,60.1191139-75.6947937,138.3939972-82.3554077
				c0.929184-16.187439,4.7615356-32.480484,11.7719727-48.362381
				c36.3057556-82.2975159,144.0573425-122.4976959,240.65271-89.7958527
				c96.6063538,32.7124481,145.486969,125.9334106,109.1811829,208.2308044
				C527.6295776,393.6858521,495.0516968,425.8940735,457.1979065,443.0587158z" opacity=".7"/>
      </g>
      <path fill="#dbcfdf" d="M512.1572266,447.878418c0,9.5112915-92.3046265,17.2154236-206.1698608,17.2154236
			S99.8175049,457.3897095,99.8175049,447.878418s92.3047028-17.2216797,206.1698608-17.2216797
			S512.1572266,438.3671265,512.1572266,447.878418z"/>
      <path fill="#b9a7c1" d="M495.1375427,445.4978943c0,3.5922241-13.7360229,6.5028687-30.676178,6.5028687
			c-16.9449158,0-30.6809387-2.9106445-30.6809387-6.5028687c0-3.5922546,13.7360229-6.5028687,30.6809387-6.5028687
			C481.4015198,438.9950256,495.1375427,441.9056396,495.1375427,445.4978943z"/>
      <g>
        <g>
          <path fill="#854d88" d="M393.6630554,441.9953003c0,3.0728455,1.8674927,5.5617676,4.1722717,5.5617676
					c2.304657,0,4.1721191-2.4889221,4.1721191-5.5617676c0-3.072937-1.8674622-5.5650024-4.1721191-5.5650024
					C395.5305481,436.4302979,393.6630554,438.9223633,393.6630554,441.9953003z"/>
          <path fill="#6a4466" d="M397.8353271,447.5570679h7.6010132c2.304657,0,4.1721191-2.4889221,4.1721191-5.5617676
					c0-3.072937-1.8674622-5.5650024-4.1721191-5.5650024h-7.6010132c2.304657,0,4.1721191,2.4920654,4.1721191,5.5650024
					C402.0074463,445.0681458,400.1399841,447.5570679,397.8353271,447.5570679z"/>
        </g>
        <g>
          <path fill="#854d88" d="M373.4620667,447.9222717c0,3.0728455,1.8674622,5.5617676,4.1722717,5.5617676
					c2.3046265,0,4.1720886-2.4889221,4.1720886-5.5617676c0-3.072937-1.8674622-5.5649719-4.1720886-5.5649719
					C375.3295288,442.3572998,373.4620667,444.8493347,373.4620667,447.9222717z"/>
          <path fill="#6a4466" d="M377.6343384,453.4840393h7.6010132c2.3046265,0,4.1721191-2.4889221,4.1721191-5.5617676
					c0-3.072937-1.8674927-5.5649719-4.1721191-5.5649719h-7.6010132c2.3046265,0,4.1720886,2.4920349,4.1720886,5.5649719
					C381.806427,450.9951172,379.9389648,453.4840393,377.6343384,453.4840393z"/>
        </g>
        <g>
          <path fill="#854d88" d="M276.1692505,442.3588867c0,3.072876-1.8674927,5.5617981-4.1722717,5.5617981
					c-2.304657,0-4.1721191-2.4889221-4.1721191-5.5617981c0-3.0729065,1.8674622-5.5649719,4.1721191-5.5649719
					C274.3017578,436.7939148,276.1692505,439.2859802,276.1692505,442.3588867z"/>
          <path fill="#6a4466" d="M271.9969788,447.9206848h-7.6010132c-2.304657,0-4.1721191-2.4889221-4.1721191-5.5617981
					c0-3.0729065,1.8674622-5.5649719,4.1721191-5.5649719h7.6010132c-2.304657,0-4.1721191,2.4920654-4.1721191,5.5649719
					C267.8248596,445.4317627,269.6923218,447.9206848,271.9969788,447.9206848z"/>
        </g>
        <g>
          <path fill="#854d88" d="M307.6026611,449.5148315c0,3.072876-1.8674622,5.5617981-4.1722717,5.5617981
					c-2.3046265,0-4.1720886-2.4889221-4.1720886-5.5617981c0-3.0729065,1.8674622-5.5649719,4.1720886-5.5649719
					C305.735199,443.9498596,307.6026611,446.441925,307.6026611,449.5148315z"/>
          <path fill="#6a4466" d="M303.4303894,455.0766296h-7.6010132c-2.3046265,0-4.1721191-2.4889221-4.1721191-5.5617981
					c0-3.0729065,1.8674927-5.5649719,4.1721191-5.5649719h7.6010132c-2.3046265,0-4.1720886,2.4920654-4.1720886,5.5649719
					C299.2583008,452.5877075,301.1257629,455.0766296,303.4303894,455.0766296z"/>
        </g>
        <linearGradient id="SVGID_1_" x1="335.621" x2="335.621" y1="373.209" y2="355.325" gradientUnits="userSpaceOnUse">
          <stop offset="0" stop-color="#afcaf4"/>
          <stop offset=".996" stop-color="#7b92d2"/>
        </linearGradient>
        <rect width="33.633" height="10.558" x="318.804" y="353.203" fill="url(#SVGID_1_)"/>
        <linearGradient id="SVGID_2_" x1="332.83" x2="338.412" y1="375.902" y2="375.902" gradientUnits="userSpaceOnUse">
          <stop offset="0" stop-color="#afcaf4"/>
          <stop offset=".996" stop-color="#7b92d2"/>
        </linearGradient>
        <rect width="5.582" height="24.282" x="332.83" y="363.762" fill="url(#SVGID_2_)"/>
        <polyline fill="#fff" points="389.833 446.479 336.331 435.215 336.331 429.017 389.833 438.538"/>
        <polygon fill="#b9a7c1" points="336.331 429.017 296.214 438.538 291.657 438.538 331.962 428.058"/>
        <polygon fill="#fff" points="296.214 438.538 296.214 446.479 336.331 435.215 336.331 429.017"/>
        <polygon fill="#b9a7c1" points="331.632 428.058 259.673 429.526 259.673 432.651 324.608 429.971"/>
        <polygon fill="#fff" points="259.673 432.651 259.673 438.538 291.657 438.538 324.608 429.971"/>
        <polygon fill="#b9a7c1" points="339.127 428.058 394.453 437.748 389.833 438.538 336.331 429.017"/>
        <polygon fill="#b9a7c1" points="340.825 427.23 409.699 428.619 409.699 431.047 340.051 429.139"/>
        <polygon fill="#fff" points="409.699 431.047 409.699 438.538 394.453 437.748 340.051 429.139"/>
        <linearGradient id="SVGID_3_" x1="330.417" x2="340.825" y1="409.259" y2="409.259" gradientUnits="userSpaceOnUse">
          <stop offset="0" stop-color="#854d88"/>
          <stop offset=".989" stop-color="#6a4466"/>
        </linearGradient>
        <path fill="url(#SVGID_3_)" d="M340.8253784,388.0431824l0.0000305,40.6282959c0,2.4046021-10.4086914,2.4046021-10.4086914,0
				l0.0000305-40.6282959H340.8253784z"/>
        <path fill="#ffbab4" d="M193.9413605,403.9908142c-2.8955688,8.1086121-6.4546814,15.9801636-10.6300659,23.5100708
				c-0.6974182,1.2577515-0.4337158,1.7630005,0.6339722,2.2401428c3.0418854,1.359314,6.1469727,2.1208191,9.3514709,3.0273438
				c1.7627716,0.4986877,10.1893311,2.8625793,11.5954132,1.3258667c3.9925232-4.3634033,5.6245728-9.4777222,12.6749115-26.5872192
				"/>
        <linearGradient id="SVGID_4_" x1="259.024" x2="253.654" y1="363.639" y2="322.377" gradientUnits="userSpaceOnUse">
          <stop offset="0" stop-color="#ff7869"/>
          <stop offset=".996" stop-color="#ee566e"/>
        </linearGradient>
        <path fill="url(#SVGID_4_)" d="M331.9612732,321.8426208c-7.7314453,2.2835693-17.7922058,5.1865234-24.1320801,6.9907532
				c-6.3006897,1.7991943-12.6077271,3.5726624-18.9212952,5.3268433
				c-6.5328064,1.818573-28.6141968,5.7653503-35.3468933,6.9519348c-1.2446136,0.2127991-1.9669647,0.3418274-1.9669647,0.3418274
				s-1.0769348,2.7149963-2.8826752,7.1583557c-6.0877991,15.0067749-23.5129547,50.3407593-33.2316132,67.5724182
				c-0.9415283,6.339325-29.4136963,2.089447-28.4657135-4.2434998
				c4.1891022-17.234436,18.9544373-72.5257874,21.5717926-78.9935303
				c2.2765198-5.4945374,6.2103729-10.6343384,11.756485-12.8012085
				c61.3067932-44.1603699,46.331543-33.3734131,48.7220764-35.0953674
				c12.47229-1.9411316,25.0414124,3.5018311,35.1856384,11.0084534
				C314.3878174,303.5726929,322.2749023,313.7555542,331.9612732,321.8426208z"/>
        <path fill="#dd3852" d="M317.3349609,326.1053772c-3.1664734,0.9157715-6.3328552,1.8250427-9.5057678,2.7279968
				c-9.6927795-6.0298767-27.9692383-22.7907715-27.9692383-22.7907715l37.6556091,14.0071716
				C317.515564,320.0497742,317.8572998,323.1840515,317.3349609,326.1053772z"/>
        <path fill="#dd3852" d="M271.368927,302.6761475c-6.872406,5.4466248-14.820343,9.3236389-22.7058716,13.163269
				c-13.6822052,6.6597595-27.3770905,13.3258057-41.065567,19.9856262
				c0.4314423-1.3569946,0.7691498-2.3387451,0.9879913-2.8765869c2.2762299-5.4966431,6.2095947-10.6369324,11.7563019-12.8005371
				l5.1027374-3.6707153C240.9777679,312.5188599,256.5985718,308.8356628,271.368927,302.6761475z"/>
        <path fill="#ffbab4" d="M193.5496368,312.7248535c-2.6753387,2.4468079-6.0923309,3.8985596-9.4657898,5.2268372
				c-3.6512756,1.4376526-7.3381958,2.7847595-11.0562286,4.0397339c1.9837189,6.1543579,7.2169495,10.8110352,9.3941345,16.8996887
				c2.8344879-1.1957703,5.6866913-2.3495483,8.5553589-3.4608154c5.697937-2.2072144,12.0755157-4.5628662,14.9366913-10.3383179"/>
        <linearGradient id="SVGID_5_" x1="309.93" x2="343.021" y1="189.451" y2="189.451" gradientUnits="userSpaceOnUse">
          <stop offset=".004" stop-color="#ffaca5"/>
          <stop offset="1" stop-color="#ffbab4"/>
        </linearGradient>
        <path fill="url(#SVGID_5_)" d="M324.1091003,205.6873779c0.2011719-1.3064728,0.463501-2.6035461,0.7858582-3.8855133
				c0.3397522-1.3513031,0.6400757-1.6764679,1.6791077-2.2450409c2.7095032-1.4826355,5.5467224-2.7317352,8.4699402-3.7288971
				c2.37146-0.8089447,3.2911072-3.6578827,4.8993225-5.5792542c2.1061707-2.5162811,1.9446411-3.1964569,2.3400879-6.9465637
				c0.6630859-6.2880707,0.8623962-6.6303711,0.6646118-7.2322083c-0.2260132-0.6877747-0.9233704-0.9645233-1.5921326-0.1069794
				c-1.645813,2.1104126-1.9038086,6.1247559-5.2313843,10.3045959c3.5243225-11.2845917,3.5284119-10.9572906,3.3902893-11.7679596
				c-0.1636963-0.9606171-1.1188049-1.7364502-2.322876-0.4387665c-3.286377,3.5419617-4.1889648,8.8704529-7.6791687,12.2117615
				c1.742218-4.2250061,3.5129089-8.5878296,3.5035095-13.1579285c-0.0031738-1.5370789-0.7558594-2.4988403-2.0145264-1.7781067
				c-3.2175903,1.842453-1.0302734,7.1031342-6.6810913,14.1061554c0.6386414-1.7264709,3.8438721-10.2127228,3.485199-11.9932251
				c-0.1086731-0.539505-0.5001221-1.0600433-1.043396-1.1478882c-0.6726074-0.1087494-1.2597351,0.4462738-1.6667175,0.9927063
				c-2.4799805,3.3299255-2.8457642,7.968399-5.6542969,11.026413c-2.7420959,2.9856567-6.1722717,4.7051697-6.7229919,9.1029663
				c-0.2418518,1.931366-0.1014404,3.8970947-0.3708801,5.8248138c-0.4110107,2.9403229-1.7548218,5.6674652-2.4172668,8.5615082"/>
        <linearGradient id="SVGID_6_" x1="300.436" x2="360.251" y1="235.294" y2="235.294" gradientUnits="userSpaceOnUse">
          <stop offset="0" stop-color="#854d88"/>
          <stop offset=".989" stop-color="#6a4466"/>
        </linearGradient>
        <path fill="url(#SVGID_6_)" d="M360.2505798,211.5310974c0,0-6.557312,1.0596466-12.6201477,5.8975677
				c-6.0628052,4.8379059-23.3851624,18.8690033-23.3851624,18.8690033l0.6928406-30.5680542
				c0-2.3639526-17.6687622-2.3639526-17.6687622,0l-1.2125244,9.4347992c0,0-4.1299744,2.7715759-4.3168945,9.8737335
				c-0.1868896,7.1021576-3.6513672,31.1802063,1.5453186,37.7626953
				c5.1967163,6.582489,33.2588806,6.0628052,46.5971069-12.6453094"/>
        <g>
          <path fill="#6a4466" d="M311.7973938,217.1951599c-2.1308594,0-4.2568359-0.2802734-6.2988281-0.8515625
					c-0.265625-0.0742188-0.4208984-0.3505859-0.3466797-0.6162109c0.0742188-0.2646484,0.3505859-0.4179688,0.6162109-0.3466797
					c5.9570313,1.6689453,12.6699219,0.7470703,17.9560547-2.4658203c0.234375-0.1416016,0.5419922-0.0683594,0.6875,0.1679688
					c0.1425781,0.2363281,0.0683594,0.5439453-0.1679688,0.6875
					C320.5366516,216.0223083,316.1577454,217.1951599,311.7973938,217.1951599z"/>
        </g>
        <g>
          <path fill="#ffbab4" d="M384.5325317,184.4878387c-0.5159607,1.7464447-3.0744629,8.2580872-4.7520142,13.125824
					c-0.8065491,2.3361816-4.3491211,10.3524475-4.4257202,11.2223511
					c-0.2381592,2.6837006,3.0307617-0.5743408,4.3424377,1.7801819c4.8681641,8.7386627,16.8645325,8.914093,20.8139954,1.3373566
					c0.773407-1.4837341,1.139679-3.1417694,1.4502258-4.7859192c0.8227844-4.3562775,1.8139648-8.6556854,2.7060547-13.0292358
					c0.8648682-4.2402344,1.6654053-8.8674622,3.7045593-12.7334747c-4.7114868,1.7089539-9.6830139,5.1252747-14.3191833,6.9105682
					C389.3864441,190.1165314,389.5254517,184.7606964,384.5325317,184.4878387z"/>
          <linearGradient id="SVGID_7_" x1="382.513" x2="417.712" y1="245.375" y2="210.177" gradientUnits="userSpaceOnUse">
            <stop offset="0" stop-color="#854d88"/>
            <stop offset=".989" stop-color="#6a4466"/>
          </linearGradient>
          <path fill="url(#SVGID_7_)" d="M370.6214294,207.9472504c0,0-6.4667969,2.576355-10.3708496,3.583847
					c-3.9040527,1.0075073-5.9190674,2.3928223-8.1859436,6.5487518s-15.9940491,59.5684052-15.9940491,59.5684052
					s18.6387329,21.5353088,37.655304,19.8981323c19.0165405-1.637207,30.4768677-15.1125183,30.4768677-15.1125183
					l16.252655-74.3527374l-11.8744507-0.7196808l-26.4172668,2.028717l-2.6578674-4.7218018L370.6214294,207.9472504z"/>
          <path fill="#6a4466" d="M363.4000549,285.9541016l10.0747375,1.6218567c0,0,2.4023438,2.4841614,6.8466797,2.4363403
					c4.4443359-0.0478516-0.2402344-7.1347656-0.2402344-7.1347656L363.4000549,285.9541016z"/>
          <path fill="#6a4466" d="M363.4000549,267.6776428l10.7053223-1.0462036c0,0,3.0175171-3.4697876,10.0033569-4.8667603
					s21.7790833-3.2382507,21.7790833-3.2382507c-1.925415-13.2252197-1.3417358-26.8103027,1.5198364-37.0390015
					l1.7984619,33.1637573l0.87323,9.6385803l-26.7208252,5.7633057L363.4000549,267.6776428z"/>
          <path fill="#ffaca5" d="M384.5325317,184.4878387c-0.5159607,1.7464447-3.0744629,8.2580872-4.7520142,13.125824
					c3.8495483,1.1164398,7.9765015,1.2718048,11.8960876,0.4333954c4.328125-0.9232635,11.2024231-6.521347,14.4226074-9.5571594
					l-6.8131714-2.646347c-1.7655029,0.9320831-3.5194092,1.8120117-5.2331543,2.4719391
					C389.3864441,190.1165314,389.5254517,184.7606964,384.5325317,184.4878387z"/>
          <g>
            <g>
              <linearGradient id="SVGID_8_" x1="-6184.045" x2="-6170.089" y1="8086.835" y2="8086.835" gradientTransform="rotate(76.401 2166.262 8306.325)" gradientUnits="userSpaceOnUse">
                <stop offset="0" stop-color="#6a4466"/>
                <stop offset=".993" stop-color="#854d88"/>
              </linearGradient>
              <path fill="url(#SVGID_8_)" d="M412.3325195,150.8143311c1.8605957-1.2899628,3.2453918-3.2507019,3.8388672-5.4355469
							c0.5934753-2.1848297,0.3910522-4.5767212-0.5611877-6.630722c2.1948853,0.4179993,4.3286133,1.1557617,6.3128967,2.1827698
							c0.9152832,0.4737244,1.8609924,1.080307,2.2198181,2.0464325c0.4208374,1.1331787-0.130127,2.4463043-1.028595,3.2550049
							c-0.8984375,0.8087006-2.0794678,1.2163391-3.234436,1.5730438c-0.7940979,0.2452545-1.7618713,0.6961365-1.7312927,1.5266876
							c0.0101929,0.2765198,0.140686,0.5336151,0.1923523,0.8054657c0.1828308,0.9619751-0.6498718,1.8358765-1.538269,2.2476501
							c-0.8883972,0.4117889-1.8973694,0.5602875-2.7202148,1.091095"/>
              <linearGradient id="SVGID_9_" x1="9108.547" x2="9155.533" y1="2277.116" y2="2277.116" gradientTransform="matrix(-.83684 -.54744 -.54745 .83684 9294.71 3252.698)" gradientUnits="userSpaceOnUse">
                <stop offset="0" stop-color="#6a4466"/>
                <stop offset=".993" stop-color="#854d88"/>
              </linearGradient>
              <path fill="url(#SVGID_9_)" d="M385.7805786,159.9896851c-0.2689209-4.0515594,1.5845032-8.185318,4.7884521-10.6797638
							c-0.8114624-2.1118164-1.6373901-4.3388367-1.318512-6.578598s2.2219238-4.4269257,4.4739685-4.21138
							c1.6186218,0.1549225,2.8962708,1.4538116,3.7529907,2.8358002c0.0051575-2.6464539,2.2453308-4.8418732,4.7200317-5.7796936
							c3.4472656-1.3063812,7.5603943-0.6685486,10.4500732,1.6204834s4.4520264,6.1469727,3.9693604,9.801712
							c2.5464172-1.0285645,5.506134-1.1440735,8.0228577-0.0448303c2.5166931,1.0992279,4.5022888,3.4797363,4.8616943,6.2024078
							c0.359436,2.7226715-1.0672607,5.6628571-3.5493164,6.8383026c1.4832764-0.6400452,3.2638855,0.5730286,3.7304993,2.1196594
							c0.4665833,1.5466156-0.0460205,3.2206573-0.7653503,4.6671448
							c-3.1742249,6.3831787-10.2138062,10.4115295-12.5760498,17.137619
							c-2.9881592-1.8181152-6.6833191-1.8424225-10.1760864-2.0296631
							c-3.4927979-0.1872559-7.2724915-0.7282257-9.7247314-3.2224274
							c-1.5702209-1.5971069-2.3802795-3.8243561-2.6168213-6.0515594
							c-0.4365234-4.1097565,0.9159241-7.5370941,0.6066895-9.3943481c-0.1494446-0.8977661-0.687439-1.7901459-1.5457764-2.0927734
							c-1.0446472-0.3683319-2.1530151,0.2107697-3.2154846,0.5239716c-1.0625,0.3132172-2.5413513,0.1306152-2.8114624-0.943634"/>
              <linearGradient id="SVGID_10_" x1="8543.181" x2="8544.987" y1="1194.569" y2="1197.947" gradientTransform="matrix(-.83684 -.54744 -.54745 .83684 9294.71 3252.698)" gradientUnits="userSpaceOnUse">
                <stop offset=".004" stop-color="#ffaca5"/>
                <stop offset="1" stop-color="#ffbab4"/>
              </linearGradient>
              <path fill="url(#SVGID_10_)" d="M382.1938782,164.9344788c-3.3348694,5.5229034-6.6195068,12.7081146-5.0245667,19.2571106
							c2.5289001,10.3835602,19.2039795,13.9982452,28.9299011,4.2983093
							c1.8044739,1.0992584,3.986145,1.5069733,6.0724792,1.1790466c3.8770752-0.6095123,6.5795593-3.6507416,6.788208-5.8565826
							c0.24646-2.6092529-2.2356567-5.1244049-6.079895-4.8464355c-1.4728699,0.1072998-2.8933716,0.5926361-4.243927,1.1881561
							c3.1112366-3.9931488,5.5915222-8.1148987,7.7617798-12.6878357c0.8418884-1.7722931,1.6253357-3.7308655,1.2058105-5.6479034
							c-0.960083-4.384552-5.9162292-5.144455-10.3721619-4.8489685c-2.0818481,0.1386261-4.1762695,0.3931885-6.2480164,0.1385651
							c-3.5980835-0.441391-6.8013611-2.3220673-8.8478088-5.3141632
							C388.5784302,155.9869843,385.0359497,160.2268982,382.1938782,164.9344788z"/>
              <path fill="#6a4466" d="M402.9501648,170.9358063c-0.5999146,1.0505219-1.6427002,1.5834351-2.3302917,1.1907806
							c-0.6855164-0.3914642-0.7564392-1.5603943-0.1565247-2.6109161c0.5989075-1.0487671,1.6417236-1.5816803,2.32724-1.1902161
							C403.4781494,168.7181091,403.5491028,169.8870392,402.9501648,170.9358063z"/>
              <path fill="#6a4466" d="M391.0837708,163.008316c-0.5999146,1.0505219-1.6427307,1.5834351-2.3302917,1.1907806
							c-0.6855164-0.3914642-0.7564697-1.5603943-0.1565552-2.6109161c0.598938-1.0487823,1.6417236-1.5816956,2.32724-1.1902161
							C391.6117554,160.7906189,391.6826782,161.959549,391.0837708,163.008316z"/>
              <g opacity=".6">
                <path fill="#f46f67" d="M389.2876282,175.5887146c-0.7802734-0.1630859-1.7792969-0.4287109-2.5908203-1.0439453
								c-1.6286926-1.2348175-1.8430786-3.2875671-0.0761719-4.7792969
								c1.4097595-1.1893158,4.5480042-2.0460968,7.7275391-6.4091797c0.1630859-0.2226563,0.4765625-0.2714844,0.6992188-0.109375
								c0.2226563,0.1630859,0.2714844,0.4755859,0.109375,0.6992188c-4.3517151,5.9699097-8.5332031,5.633194-8.7636719,8.0253906
								c-0.0615234,0.6152344,0.2958984,1.3115234,0.9082031,1.7763672
								c0.6484375,0.4921875,1.4716797,0.7119141,2.1914063,0.8623047c0.2695313,0.0566406,0.4433594,0.3212891,0.3867188,0.5917969
								C389.8222046,175.4777985,389.5483093,175.646637,389.2876282,175.5887146z"/>
              </g>
              <g>
                <path fill="#6a4466" d="M407.9155579,167.6873474c-1.2226563-2.7363281-3.8095703-4.7890625-6.7519531-5.3574219
								c-0.2714844-0.0527344-0.4482422-0.3144531-0.3964844-0.5859375
								c0.0527344-0.2724609,0.3183594-0.4453125,0.5859375-0.3964844c3.2578125,0.6298828,6.1220703,2.9023438,7.4746094,5.9316406
								C409.1001892,167.8853149,408.1850281,168.2897034,407.9155579,167.6873474z"/>
              </g>
              <g>
                <path fill="#6a4466" d="M395.4897766,159.0213318c-1.4765625-1.8740234-3.7802734-3.0810547-6.1611328-3.2304688
								c-0.6683655-0.0426636-0.591156-1.0562897,0.0625-0.9980469c2.6611328,0.1669922,5.234375,1.515625,6.8837891,3.609375
								c0.1708984,0.2167969,0.1337891,0.53125-0.0830078,0.7021484
								C395.9759521,159.2743378,395.6619263,159.239502,395.4897766,159.0213318z"/>
              </g>
              <g opacity=".6">
                <path fill="#f46f67" d="M407.5259094,186.047699c-0.1123047-0.2519531,0.0019531-0.5478516,0.2548828-0.6591797
								c1.8447266-0.8173828,4.0058594-0.9296875,5.9228516-0.3095703c0.2626953,0.0849609,0.4072266,0.3662109,0.3222656,0.6289063
								c-0.0849609,0.2636719-0.3671875,0.4072266-0.6289063,0.3222656c-1.6875-0.5439453-3.5878906-0.4462891-5.2119141,0.2724609
								C407.938446,186.4130096,407.6397705,186.3049469,407.5259094,186.047699z"/>
              </g>
              <g opacity=".6">
                <path fill="#f46f67" d="M409.6509094,185.3260193c-0.1806641-0.2089844-0.1582031-0.5244141,0.0498047-0.7060547
								c0.9755859-0.8466797,1.7851563-1.9111328,2.3427734-3.0791016c0.1191406-0.2509766,0.4189453-0.3554688,0.6660156-0.2363281
								c0.25,0.1191406,0.3554688,0.4169922,0.2363281,0.6660156c-0.6152344,1.2910156-1.5107422,2.46875-2.5888672,3.4052734
								C410.1511841,185.5540009,409.8362732,185.53685,409.6509094,185.3260193z"/>
              </g>
            </g>
            <g opacity=".6">
              <path fill="#f46f67" d="M383.2680969,182.3494568c-0.1171875-0.25-0.0087891-0.5478516,0.2412109-0.6650391
							c2.1855469-1.0224609,4.8017578-1.0390625,7-0.0478516c0.5953674,0.269989,0.2047119,1.1764526-0.4121094,0.9121094
							c-1.9355469-0.8740234-4.2402344-0.8603516-6.1640625,0.0419922
							C383.6920776,182.7042999,383.389801,182.60672,383.2680969,182.3494568z"/>
            </g>
          </g>
        </g>
        <path fill="#854d88" d="M379.9237366,203.9378662c0.1670227,3.385376,0.026947,6.7858276-0.4179077,10.1459961
				c4.7804871-1.2578888,9.5609436-2.5157776,14.3414001-3.7736664c4.850708-1.2763519,9.7331543-2.5582428,14.7337341-2.9487457
				c-0.0870056-2.4828949-0.5793457-4.5843353-0.5223389-7.0680847c-3.3945007-0.6948853-7.0586548-0.1782379-10.4553223,0.5059814
				C391.7955933,201.969223,385.6552734,202.4385834,379.9237366,203.9378662z"/>
        <polygon fill="#854d88" points="379.924 203.938 378.43 201.033 367.007 209.322 379.991 207.024"/>
        <g>
          <path d="M301.39505,229.4881287l-2.0107422-8.5341797l24.3486328-2.7851563l2.0097656,8.5341797L301.39505,229.4881287z
					 M300.6147766,221.8191833l1.5498047,6.5751953l22.3476563-2.5566406l-1.5488281-6.5751953L300.6147766,221.8191833z"/>
        </g>
        <polygon fill="#9ee4a6" points="284.147 227.577 339.219 221.78 350.885 283.946 297.849 287.523"/>
        <path fill="#71c780" d="M324.4629211,265.2765503c0.5280457,0.8031311,1.5219421,1.1391296,2.4472351,1.399353
				c2.9832153,0.8390808,6.0306396,1.4498291,9.1068115,1.8251038c-4.0209656,1.5770264-8.0727234,3.0755615-12.1521912,4.4944763
				c4.6910706,1.5879822,9.7536926,2.0664978,14.6592102,1.3856506c-2.1616821,1.6820984-4.7414246,2.7222595-7.2838135,3.7413025
				c4.8057556,0.1171265,9.6023865,0.6084595,14.3320923,1.4681091c1.038208-6.6654358,0.3526611-9.3846436-7.27005-13.9501038"/>
        <linearGradient id="SVGID_11_" x1="190.697" x2="376.453" y1="297.77" y2="297.77" gradientUnits="userSpaceOnUse">
          <stop offset="0" stop-color="#ff7869"/>
          <stop offset=".996" stop-color="#ee566e"/>
        </linearGradient>
        <path fill="url(#SVGID_11_)" d="M376.4527893,297.2268982c0,0-12.7625732,35.637085-35.1533813,37.803833
				c-4.8690186,0.4707642-10.6860046-0.7544861-16.8060913-2.9600525
				c-4.4626465-1.6057739-9.0865784-3.7403564-13.6266174-6.1200867
				c-15.2519226-7.9838257-29.5105286-18.7277527-33.3412781-21.6814575
				c-0.6513367-0.5030212-1.0059814-0.780304-1.0059814-0.780304l-3.0310669,1.1930542l-71.5965729,27.0535278
				c-3.2115936,1.5476685-13.8072968-20.3659363-10.5957184-21.9136963c0,0,78.2713318-48.1867676,86.4292297-49.3024292
				c13.5299377-1.8508606,57.8989563,20.3723145,57.8989563,20.3723145L376.4527893,297.2268982z"/>
        <path fill="#dd3852" d="M374.7244263,297.4977112c-7.5274048,9.671875-12.0468445,15.2785645-16.6383362,19.0438538
				c-8.1394958,6.6764221-23.5452881,12.596283-33.5927734,15.5291138
				c-4.4626465-1.6057739-9.0865784-3.7403564-13.6266174-6.1200867
				C334.7578735,324.5283508,356.0307312,312.4502563,374.7244263,297.4977112z"/>
        <path fill="#ffbab4" d="M366.7009888,279.7219849c-3.2799377,0.4589539-5.3569336,4.0769043-8.5097961,4.8685913
				c-0.1779785,0.046814-0.3623047,0.0842285-0.5497131,0.1092529c-1.0304871,0.1405945-2.0766907-0.0562134-3.104126-0.2311096
				c-2.5014954-0.4187317-6.476532-1.0151062-8.7408447-0.6120605c-2.498291,0.4372559-4.8373718,1.9424133-7.3606873,1.7050781
				c-1.214325-0.1082153-1.7278442-0.9071045-0.6744385-1.9985962c1.8517761-1.8987427,4.8965759-2.3577881,6.5610657-4.2970886
				c0.8112183-0.9569397-0.1110229-2.1466675-0.6027527-2.0891724c-3.7910461,0.4527893-7.6040649,0.7088928-11.4170837,0.7744446
				c-0.7744751,0.0125122-1.5771484,0.0125122-2.2765808-0.3153992c-1.0548096-0.4897156-0.6360168-1.5429688,0.1872559-2.1953735
				c1.8050842-1.4428101,4.1910095-1.8768616,6.4706421-2.2672119c2.0205688-0.3466797,4.0284729-1.0523682,6.0490417-1.3990479
				c-5.5649109,0.7088928-11.1517639,1.2147522-16.7541809,1.5177612c-0.899353,0.0499268-2.0048523-0.0187683-2.4077148-0.8276062
				c-0.281189-0.559021-0.0594788-1.2710571,0.3716125-1.7269592c0.4309082-0.4590759,1.0304871-0.7151489,1.614502-0.9462585
				c4.6030273-1.8112793,9.3403931-3.0510559,14.2183533-3.0541687c-4.259491-0.1873169-8.5191345-0.3747253-12.7755737-0.5589905
				c-4.4512634-0.2008667-3.020813-4.7014465,7.0950928-4.3938293c3.1947021,0.0936279,6.3738098,0.4527893,9.5310059,0.9180908
				c2.7730713,0.4091187,5.967926,0.5683899,8.6191406,1.458374c1.7863464,0.5996399,3.1697083,1.9955444,4.7530823,3.0136108
				c0.8430786,0.5402527,1.7549438,0.977417,2.7043152,1.2959595c1.2428894,0.4247437,2.5545654,0.6495667,3.8692627,0.6589661
				c0.1436462,0.0062256,0.2903442,0.0031128,0.4341431,0L366.7009888,279.7219849z"/>
        <path fill="#ffaca5" d="M363.787323,280.9804993c-1.8424377,1.2679138-3.4819641,3.0791931-5.5961304,3.6100769
				c-0.3560791-3.1447754-0.543457-6.3019409-0.2061768-9.4405212c0.2467346-2.2827454,0.799469-4.5718384,1.7175903-6.6797791
				c1.2428894,0.4247437,2.5545654,0.6495667,3.8692627,0.6589661
				C363.5250549,273.0796204,363.5968933,277.0332336,363.787323,280.9804993z"/>
        <linearGradient id="SVGID_12_" x1="409.948" x2="440.837" y1="254.7" y2="269.095" gradientUnits="userSpaceOnUse">
          <stop offset="0" stop-color="#854d88"/>
          <stop offset=".989" stop-color="#6a4466"/>
        </linearGradient>
        <path fill="url(#SVGID_12_)" d="M439.3238831,276.3515015c0.5481262,13.0397949-39.8611755,13.3171387-49.8312683,12.7754517
				c-9.9701233-0.5481567-14.1490479-3.1728516-14.1490479-3.1728516h-11.943512c-1.3091736,0-1.3091736-18.2764587,0-18.2764587
				l11.943512,0.5159607c3.1341248-3.9081421,18.6310425-7.4163208,33.670105-7.7839661
				c-0.0581055-0.193512-0.1160278-0.3869324-0.1741333-0.5932617c-0.5545959-1.9411621-1.0704651-4.4176178-1.5091248-7.2229004
				c-1.7347412-11.1309509-2.1538391-27.3565979,2.0959167-35.1662292c5.436615-9.9959106,11.027832-9.3445587,11.027832-9.3445587
				c9.9378052-0.6771698,14.1619263,11.7306519,15.7935486,20.0626831
				c1.2768555,6.5457306,2.4506226,32.5544281,2.8891296,43.4016571
				C439.2593079,274.5135498,439.3238831,276.3515015,439.3238831,276.3515015z"/>
        <path fill="#dbcfdf" d="M351.6112976,177.4177704c0.0193787,0.7415619,0.0966797,1.4961243-0.1289368,2.1990356
				c-0.9237976,2.9594574-5.6666565,3.0688782-8.0999451,4.1918335c-2.5463867,1.1929626-5.4069824,3.0207825-8.2353821,1.96698
				c-0.6126099-0.225708-0.9802551-0.8384094-1.4316406-1.3156281c-1.3985596-1.4624329-2.993866-1.1289673-3.4824829-1.3091583
				c-1.1174927-0.4238586-1.2451477-2.9905701-2.4311829-4.4432678c-0.3289185-0.4127502-0.7546387-0.7481079-1.0512695-1.186676
				c-2.328064-3.3469849,2.9149475-5.2881317,3.6372375-8.0547638c0.2192383-0.831955,0.2515259-1.7153778,0.5030518-2.540863
				c0.3739929-1.231781,1.2575989-2.3023376,2.3926086-2.908493c1.9334717-1.0452118,2.6293335,0.42276,3.6565247,1.1930389
				c1.592865,1.1930542,3.8112793,0.7158356,5.7588806,0.1547699c8.4163818-2.5817566,6.9243164,3.2806854,8.8351746,6.0104218
				C352.810791,173.2130127,351.5532227,175.2572937,351.6112976,177.4177704z"/>
        <g>
          <path fill="#ffb1aa" d="M321.3411255,191.6852417c2.4778748-3.6720123,7.7320862-4.3336029,10.8084412-7.5209961
					c0.7678833-0.7956085,1.3809814-1.7320557,2.16922-2.5074768c1.4827576-1.4586487,2.9828796-1.5153198,3.5612793-1.1683655
					c0.4157104,0.2493439,0.5701599,0.7985382,0.4945679,1.2773438c-0.0756226,0.4788055-0.3352966,0.9055939-0.5895996,1.3182526
					c-6.2878723,10.2032166-6.7950745,11.2948608-8.4493713,12.6527252"/>
          <path fill="#f46f67" d="M328.948761,196.0545349c-0.1748047-0.2138672-0.1435547-0.5283203,0.0693359-0.7041016
					c1.5577087-1.2789001,1.9835815-2.2127991,8.3408203-12.5292969c0.2265625-0.3662109,0.4609375-0.7441406,0.5214844-1.1328125
					c0.0449219-0.2802734-0.0292969-0.6347656-0.2578125-0.7714844c-0.399231-0.2430115-1.7236023-0.1153412-2.953125,1.0966797
					c-1.9845886,1.9553833-1.506012,2.9381256-7.3320313,5.8759766c-2.2080078,1.1152344-4.2939453,2.1679688-5.5820313,4.0751953
					c-0.1523438,0.2304688-0.4667969,0.2919922-0.6933594,0.1347656c-0.2294922-0.1542969-0.2900391-0.4648438-0.1347656-0.6933594
					c1.4326172-2.1240234,3.734375-3.2861328,5.9599609-4.4091797c5.6541443-2.8537903,4.9319153-3.5806122,7.0810547-5.6962891
					c2.4576111-2.4181824,5.2473755-1.6477051,4.9003906,0.5429688c-0.0927734,0.5878906-0.40625,1.0957031-0.6591797,1.5029297
					c-6.215332,10.0866699-6.8213196,11.3518372-8.5566406,12.7773438
					C329.4429932,196.2961731,329.1283264,196.2710724,328.948761,196.0545349z"/>
        </g>
        <path fill="#fff" d="M179.4950104,322.9396973c-2.4000702,5.6523743,2.4400635,9.1147461,6.0380402,12.5219116
				c0.960968,0.9100037,1.9590759,1.8005676,3.1165466,2.4423218c1.1574554,0.6417236,4.1618652-0.251709,4.1618652-0.251709
				c-0.9185333,2.0749207-3.4824677,11.4810181-10.4568481,12.4215393
				c-1.3451996,0.1813965-2.7085419-0.0104675-4.0647278-0.0670166c-8.7814026-0.3661804-16.90448,4.8998718-25.6749725,5.47052
				c-6.5216827,0.4243469-13.1785278-1.9113159-18.0053711-6.3174438
				c-7.8103943-7.1296387,2.0627289-16.3795471,8.6598053-18.0614014c3.7888489-0.9659119,8.3531799,0.9075928,12.0858459-0.2567444
				c4.2848358-1.3365784,8.2089081-3.5999451,12.2585754-5.5355225s8.8584747-3.0979614,13.3466644-3.0489807
				C180.5623779,322.7552185,179.7442017,322.3528442,179.4950104,322.9396973z"/>
        <linearGradient id="SVGID_13_" x1="133.297" x2="194.422" y1="335.235" y2="335.235" gradientUnits="userSpaceOnUse">
          <stop offset="0" stop-color="#f99a5d"/>
          <stop offset=".996" stop-color="#f8c55e"/>
        </linearGradient>
        <path fill="url(#SVGID_13_)" d="M180.9511261,319.2833862c-2.4000702,5.6523743,2.4400635,9.1147461,6.0380402,12.5219116
				c0.960968,0.9100037,1.9590759,1.8005676,3.1165466,2.4422913c1.1574707,0.6417542,3.0045471,0.0075378,4.3159637-0.1707458
				c-0.4545288,0.0617981-1.6160889,3.704071-1.8366241,4.1633301c-0.7145386,1.4881592-1.5003204,2.9456787-2.5260468,4.2459412
				c-1.5625305,1.9807129-3.7480621,3.5941772-6.2482758,3.9313354c-1.3451843,0.1813965-2.7085266-0.0104675-4.0647125-0.0670166
				c-8.7814178-0.3661804-16.9044952,4.8998718-25.6749878,5.47052c-6.5216827,0.4243469-13.1785278-1.9113159-18.0053558-6.3174438
				c-7.8104095-7.1296387,2.7069702-14.0733337,9.3040466-15.7551575c3.7888489-0.9659119,7.7089233-1.3986816,11.4415894-2.5629883
				c4.2848358-1.3365784,8.2089081-3.5999756,12.2585754-5.535553c4.0496674-1.9355469,8.85849-3.0979614,13.3466797-3.0489502
				C182.0184937,319.0989075,181.2003174,318.6965332,180.9511261,319.2833862z"/>
        <path fill="#fff" d="M190.1713562,426.2796631c4.2948303,3.1775818,5.4671478,10.8938293,19.6962738,3.40979
				c-0.1751251,4.8409424,0.0012054,17.1459961-2.2317047,20.9062805c-1.7291718,2.9119263-5.4871368,3.9663391-8.8725128,3.8735657
				c-3.3853912-0.0927734-6.7071228-1.0633545-10.0937347-1.0810242c-2.5686188-0.0134277-5.045639,0.9884033-7.6264191,1.2615967
				c-10.7554321,1.1386414-22.3748016,0.0479126-32.4981079-3.8662415
				c-2.1478119-0.8304443-4.3137512-1.8304443-5.8559723-3.5404968c-3.8895111-4.3128662-2.2698364-12.258728,1.0909119-13.3980408
				c0.1360321-0.0461121,0.2872467-0.0821228,0.4206238-0.0288086c0.4192657,0.167572,0.0838928,0.6479492,1.9523163,1.309845
				c1.4957123,0.5298767,3.3312836,1.5701294,4.8922272,1.3807983c1.019455-0.1236572,10.2284088-1.6586609,14.1130219-2.542572
				c0.7975616-0.181488,1.8155823-0.6462402,2.6253662-0.6462402c4.6526642-1.2411804,9.7378235-4.4752502,13.6936035-7.2390137
				C184.1490784,424.2123718,187.3965607,424.2266846,190.1713562,426.2796631z"/>
        <linearGradient id="SVGID_14_" x1="141.559" x2="210.51" y1="434.799" y2="434.799" gradientUnits="userSpaceOnUse">
          <stop offset="0" stop-color="#f99a5d"/>
          <stop offset=".996" stop-color="#f8c55e"/>
        </linearGradient>
        <path fill="url(#SVGID_14_)" d="M190.8140259,421.1864014c4.2948303,3.1775818,5.4671478,10.8938293,19.6962585,3.40979
				c-0.1751099,4.8409424,0.0012207,17.1459961-2.2317047,20.9062805c-1.7291565,2.9119263-5.4871216,3.9663391-8.8725128,3.8735657
				c-3.385376-0.0927734-6.7071228-1.0633545-10.0937195-1.0810242c-2.568634-0.0134277-5.045639,0.9883728-7.6264343,1.2615967
				c-10.7554321,1.1386414-22.3748016,0.0479126-32.4980927-3.8662415
				c-2.1478119-0.8304443-4.3137665-1.8304443-5.8559723-3.5404968c-1.5422211-1.710083-2.3199463-4.2948914-1.3359985-6.3768616
				c1.2131195-2.5669556,4.3997803-3.3867798,7.1895752-3.9139099c17.4067078-3.289093,20.271286-2.0259094,32.934494-10.8732605
				C184.7917328,419.1191101,188.0392151,419.1334229,190.8140259,421.1864014z"/>
        <linearGradient id="SVGID_15_" x1="350.378" x2="369.043" y1="323.552" y2="374.57" gradientUnits="userSpaceOnUse">
          <stop offset="0" stop-color="#afcaf4"/>
          <stop offset=".996" stop-color="#7b92d2"/>
        </linearGradient>
        <path fill="url(#SVGID_15_)" d="M418.2658691,287.8414612c-2.2360229,9.2624817-9.2219238,36.4438782-17.2976074,50.6405029
				c-9.8370361,17.2850342-37.2089844,18.7028503-77.5222168,17.000885
				c-40.3161316-1.698822-48.6855164-17.3506775-48.6855164-17.3506775s14.7525024-10.421051,44.3009949-8.2319336
				c23.4497375,1.7363586,50.3251648-29.4017944,60.4182434-42.3242798c2.2858887,0.65271,5.5773926,1.3085632,10.0119324,1.5489502
				C394.4632874,289.396637,407.007843,289.4621887,418.2658691,287.8414612z"/>
        <rect width="4.556" height="7.942" x="291.657" y="438.538" fill="#f6f5f8"/>
        <polygon fill="#f6f5f8" points="394.453 437.748 394.453 445.947 389.833 446.479 389.833 438.538"/>
        <path fill="#dd3852" d="M253.5625,341.1082764c-1.2459412,0.2217102-1.9674988,0.3465881-1.9674988,0.3465881
				s-1.0740967,2.7106323-2.8791962,7.1576843c1.0617371-6.4956055,1.9580383-13.0629883,1.3584747-19.6022644
				C251.4795685,332.9669189,252.6474457,337.0110168,253.5625,341.1082764z"/>
        <path fill="#dd3852" d="M277.524292,304.2677917c-0.6526489-0.5028381-1.0024414-0.7807312-1.0024414-0.7807312
				l-3.0354919,1.1928711c2.1611633-4.2221069,3.2915039-9.046936,4.3502197-13.7218628
				C277.8803406,295.3800964,277.9146423,299.864502,277.524292,304.2677917z"/>
        <g opacity=".6">
          <path fill="#6a4466" d="M375.0386047,286.0379333c-0.2490234-0.1201172-0.3544922-0.4179688-0.2353516-0.6669922
					c0.9593811-2.0023804,1.3914795-4.9292908,1.7910156-7.2617188c0.1552734-0.8828125,0.3173828-1.7958984,0.3300781-2.6943359
					c0.0296021-2.0990295-1.2101135-4.9524231-2.046875-7.0390625c-0.1005859-0.2568359,0.0263672-0.546875,0.2832031-0.6484375
					c0.2548828-0.1005859,0.546875,0.0263672,0.6484375,0.2832031l0.3271484,0.8212891
					c2.2376099,5.5765076,1.9982605,6.2931824,1.2880859,10.3457031c-0.3779297,2.2138672-0.8066406,4.7226563-1.71875,6.625
					C375.5856934,286.0532532,375.2851563,286.1560059,375.0386047,286.0379333z"/>
        </g>
        <path fill="#6a4466" d="M418.7967224,260.7966309c-3.1728516-1.1285706-6.6295776-1.4639282-9.9571838-0.9802551
				c-0.5545959-1.9411621-1.0704651-4.4176178-1.5091248-7.2229004
				C411.6061707,254.5153351,415.4497375,257.3786316,418.7967224,260.7966309z"/>
      </g>
    </g>
    <path fill="#b9a7c1" d="M345.4847717,183.1121826c-2.1460876,0.5628204-2.2092896,0.7860718-4.3465881,1.7928314
		l-0.0903015-0.3096161c2.4054565-3.3469849,3.4437256-7.6483917,2.8375549-11.7306519
		C345.9487,175.5845947,346.7716675,179.4114075,345.4847717,183.1121826z"/>
    <path fill="#fff" d="M448.3131104,447.721283c1.4927673,0.9240723,3.4395752,0.6216736,5.078186-0.008667
		c6.1018372-2.3472595,7.3417358-7.7703552,4.9711304-10.7663879c-0.4456482-0.5632324-1.0212097-1.0394897-1.3214417-1.6919556
		c-1.2110901-2.631897,2.5604858-6.4077454,4.1784363-8.9691772c1.221405-1.9336243,2.0517273-4.355011,1.2501831-6.4970398
		c-1.2272949-3.2798462-5.5764465-4.1818237-8.9877319-3.389801c-2.1985779,0.510437-4.2072144,1.5267639-6.3330383,2.2479248
		c-2.2323303,0.7572632-4.7177734,0.7706909-6.8719788,1.6358643c-3.4440002,1.3831787-5.2863159,4.4734192-4.677063,8.1015625
		c0.7128906,4.2453918,3.679718,7.3457031,6.7862244,9.9381104
		C445.3519287,440.7968445,445.2263489,445.8102722,448.3131104,447.721283z"/>
    <path fill="#fff" d="M438.5843811,404.4283142c-0.7304688-0.5591125-1.1762695-1.4102478-1.5140686-2.2658691
		c-1.8148804-4.5969849-0.3677673-7.1874695-1.1062622-8.9283142c-0.3667297-0.8645325-1.1772461-1.4606018-1.6495056-2.2723389
		c-0.8311157-1.4285278-0.4605713-3.3026733,0.442749-4.686676c0.9033508-1.3840027,2.2542114-2.4006958,3.526062-3.4560852
		c0.3984375-0.3305969,0.8050232-0.6856384,1.0058289-1.1628418c0.6127319-1.4560852-0.9182129-2.8352966-1.5949402-4.2627869
		c-1.0112305-2.1331787,0.0354614-4.802063,1.8521729-6.3096313s4.2153625-2.0913391,6.5454102-2.4709473
		c1.7884827-0.2913513,2.1629639,0.0585938,3.2239075,1.3211975c4.1363831,4.9224854,8.727417,3.8941956,10.0794983,6.9501038
		c0.417572,0.9437561,0.3261414,2.0232239,0.2498169,3.0523987c-0.2138672,2.8829346-0.1600952,6.0480652,1.6591187,8.2947388
		c0.591156,0.730072,1.4049683,1.5149841,1.1967468,2.4310303c-0.2015381,0.8866272-1.316803,1.4204712-1.3228149,2.3297119
		c-0.0035095,0.5266418,0.3831787,0.9795837,0.4647827,1.4998779c0.348877,2.2245483-4.1710205,3.1433411-5.540863,3.796814
		c-1.6377258,0.78125-2.9794006,1.8560791-4.476593,2.8500061
		C448.8977356,402.9494934,441.694397,406.8904114,438.5843811,404.4283142z"/>
    <path fill="#dbcfdf" d="M461.7163086,421.309082c-2.8452759-1.3500977-5.0329895-4.6493835-4.0334778-7.6358948
		c0.1126099-0.3365173,0.2633972-0.6673889,0.2870178-1.0214844c0.0568237-0.8508911-0.6391907-1.583374-1.4061279-1.9562378
		s-1.6307373-0.5026245-2.413208-0.8417053c-2.3890381-1.0352783-3.5706787-3.878479-3.4534912-6.4795227
		c0.117218-2.6010742,1.264679-5.0297546,2.3909607-7.3772888c0.7887573-1.644104,1.6990662-3.4116516,3.3565369-4.1719055
		c1.400177-0.6422424,3.0326538-0.4155579,4.5368958-0.083252c2.1939087,0.4846497,4.7076416,1.5698853,6.9723511,1.4960938
		c2.0478516-0.0667114,4.2042542-0.8427429,6.2866821-1.0083618c0.2276917-0.0181274,0.4792786-0.0274963,0.6586304,0.1139526
		c0.1872559,0.1476746,0.2319946,0.4090576,0.2584534,0.6460876c0.1186218,1.0630188,0.1463928,2.1642456,0.5853577,3.1396484
		c0.739624,1.6435547,2.579834,2.7869568,2.7409973,4.5820313c0.0663757,0.7394104-0.1513062,1.5791626,0.3078308,2.1625671
		c0.3692017,0.4691467,1.0255432,0.5652161,1.6073608,0.6990967c4.9009399,1.127655,1.9806519,4.824646,4.7268982,7.8871765
		c0.326355,0.3639526,0.720459,0.7092896,0.8349304,1.1845398c0.1679688,0.6973572-0.3453674,1.3913879-0.9515076,1.7749329
		c-0.6060486,0.3834839-1.3191223,0.5731812-1.9224854,0.9608154c-1.606842,1.0323792-1.9652405,3.0319824-3.1174622,4.4346008
		c-1.5723572,1.914032-3.7756042,2.0372009-6.0780029,2.3476868
		C469.9554138,422.6934509,465.401062,423.0575256,461.7163086,421.309082z"/>
    <path fill="#dbcfdf" d="M459.2419434,392.0840149c-2.8452454-1.3500977-5.0329895-4.6494141-4.0334778-7.6359253
		c0.1126099-0.3365173,0.2633972-0.6673889,0.2870483-1.0214539c0.0567932-0.8508911-0.6391907-1.583374-1.4061279-1.9562378
		s-1.6307678-0.502655-2.4132385-0.8417053c-2.3890076-1.0352783-3.5706787-3.878479-3.4534912-6.4795532
		c0.117218-2.6010437,1.2647095-5.0297546,2.3909607-7.3772583c0.7887878-1.644104,1.6990662-3.4116516,3.3565369-4.1719055
		c3.2385254-1.4854736,7.8703613,1.5313721,11.5092773,1.4128418c2.3591309-0.0768433,6.2935181-1.4084778,6.945282-0.8944397
		c0.4813232,0.3796082,0.1500244,2.2440186,0.843811,3.7857666c0.739624,1.6435547,2.579834,2.7869263,2.7409973,4.5820007
		c0.0664063,0.7394409-0.1513062,1.5791931,0.3078308,2.1625671c0.3692017,0.4691467,1.0255737,0.5652466,1.6073608,0.6990967
		c4.9009399,1.127655,1.9806519,4.8246765,4.7268982,7.8871765c0.326355,0.3639526,0.720459,0.7092896,0.8349304,1.1845703
		c0.1679688,0.6973267-0.3453674,1.3913879-0.9515076,1.7749329c-0.6060486,0.3834839-1.3191223,0.5731506-1.9224854,0.9608154
		c-1.606842,1.0323486-1.9652405,3.0319519-3.1174622,4.4345703c-1.5723267,1.9140625-3.7756042,2.0372314-6.0780029,2.3477173
		C467.4810486,393.4683838,462.9267273,393.8324585,459.2419434,392.0840149z"/>
    <path fill="#fff" d="M471.9725037,385.1781311c2.2182922-2.3586426,5.2351379-3.771698,7.858551-5.6695251
		c1.1141663-0.8059998,2.2572937-1.9023743,2.2195435-3.2770081c-0.015625-0.5700378-0.2403564-1.1408081-0.1183167-1.6978149
		c0.1682434-0.7676697,0.9241028-1.2415771,1.6295776-1.5878601c2.6733093-1.3122253,5.62323-2.0574646,8.5990295-2.1723633
		c0.5843811-0.022583,1.2268677-0.0010376,1.6669617,0.3840942c0.5401611,0.4726868,0.5622864,1.296051,0.491272,2.0103149
		c-0.5472412,5.5032959-4.0924377,10.9475403-2.3453369,16.1947632c0.6230164,1.8710938,1.9130859,3.6878967,1.5303345,5.6224976
		c-0.3085632,1.5596924-1.6875916,2.9118652-1.4321899,4.4811401c0.0899963,0.552887,0.3833008,1.0652466,0.4128418,1.6246033
		c0.0643311,1.2171326-1.116272,2.1401367-2.2715149,2.528717c-2.992218,1.0065002-6.2469177-0.0475159-9.2128601-1.1291504
		C474.1724548,400.0004883,464.802948,392.801178,471.9725037,385.1781311z"/>
    <path fill="#fff" d="M480.5646057,440.1677246c2.4251709-2.6549988,13.0242615,0.3371582,13.5155029-2.5600281
		c0.4715576-2.7811584,1.1358032-5.141571-0.0668945-6.5361633c-0.6576538-0.7626038-1.7623596-1.0706482-2.3136902-1.9133606
		c-1.4312439-2.1876526,1.9459534-4.7855835-2.5291748-7.7489929c-0.5935059-0.3930359-1.2392883-0.7439575-1.9456177-0.8323364
		c-2.6998901-0.3378601-4.9874268,3.1556091-7.585907,2.3484497c-1.3248596-0.4115601-2.2374878-1.880127-3.6236877-1.9349976
		c-0.5065613-0.0200806-0.9970703,0.1604309-1.4718018,0.3382263c-1.0523376,0.3941345-2.1329041,0.8052368-2.9613647,1.5644531
		c-0.8284912,0.7592163-1.3550415,1.9599304-1.0001221,3.026123c0.2842712,0.8540344,1.0960693,1.6659546,0.7687378,2.5043945
		c-0.1703186,0.4362183-0.6056519,0.7001038-1.0124512,0.9320374c-2.3281555,1.3273621-8.9147339,4.56073-8.928894,7.6579285
		c-0.0031128,0.6805725,0.2743225,1.3299561,0.5899658,1.9329224c3.7881165,7.2367859,12.9834595,8.8572388,15.6097107,6.8309021
		C479.3040161,444.4693909,479.1206665,441.7485657,480.5646057,440.1677246z"/>
    <g>
      <g>
        <path fill="#dbcfdf" d="M464.4619751,370.6033325c-19.4888,0-35.2887878,2.9149475-35.2887878,6.5069885
				c0,3.5921326,15.7999878,6.5006409,35.2887878,6.5006409c19.4823303,0,35.2823486-2.9085083,35.2823486-6.5006409
				C499.7443237,373.51828,483.9443054,370.6033325,464.4619751,370.6033325z M464.4619751,381.9341431
				c-16.947937,0-30.6842957-2.1603088-30.6842957-4.823822c0-2.6697998,13.7363586-4.8302612,30.6842957-4.8302612
				c16.9414978,0,30.6778259,2.1604614,30.6778259,4.8302612
				C495.139801,379.7738342,481.4034729,381.9341431,464.4619751,381.9341431z"/>
        <g>
          <path fill="#b9a7c1" d="M464.4595032,452.4988708c-15.1142578,0-31.1787109-2.4541016-31.1787109-7.0029297l-4.5917969-68.1894531
					l0.9941406-0.1015625c0.3925781,2.8525391,14.4609375,5.90625,34.7763672,5.90625
					c20.3144531,0,34.3828125-3.0537109,34.7763672-5.90625l0.9941406,0.1015625l-4.59375,68.2226563
					C495.6372375,450.0447693,479.573761,452.4988708,464.4595032,452.4988708z M429.8032532,378.969574l4.4765625,66.4931641
					c0.0009766,2.8720703,12.3945313,6.0361328,30.1796875,6.0361328c17.7841797,0,30.1777344-3.1640625,30.1777344-6.0029297
					l4.4785156-66.5273438c-4.2724609,3.3525391-19.9882813,5.1425781-34.65625,5.1425781
					S434.0766907,382.3211365,429.8032532,378.969574z"/>
        </g>
      </g>
      <g>
        <rect width="30.722" height="1.001" x="426.915" y="393.391" fill="#b9a7c1" transform="rotate(-42.785 442.276 393.891)"/>
      </g>
      <g>
        <polygon fill="#b9a7c1" points="433.02 429.375 432.323 428.658 479.556 382.598 480.253 383.314"/>
      </g>
      <g>
        <rect width="83.583" height="1" x="427.69" y="419.235" fill="#b9a7c1" transform="rotate(-45.317 469.481 419.735)"/>
      </g>
      <g>
        <rect width="47.812" height="1" x="457.595" y="433.406" fill="#b9a7c1" transform="rotate(-49.119 481.501 433.906)"/>
      </g>
      <g>
        <rect width="1" height="34.446" x="483.65" y="376.749" fill="#b9a7c1" transform="rotate(-53.018 484.15 393.972)"/>
      </g>
      <g>
        <rect width=".999" height="77.296" x="464.13" y="363.584" fill="#b9a7c1" transform="rotate(-55.782 464.63 402.232)"/>
      </g>
      <g>
        <rect width=".999" height="77.482" x="462.286" y="383.963" fill="#b9a7c1" transform="rotate(-55.715 462.786 422.704)"/>
      </g>
      <g>
        <rect width="1" height="52.312" x="453.212" y="410.566" fill="#b9a7c1" transform="rotate(-55.37 453.712 436.722)"/>
      </g>
    </g>
  </g>
</svg>
