<svg xmlns="http://www.w3.org/2000/svg" enable-background="new 0 0 500 500" viewBox="0 0 500 500"><g><path fill="#F9E8DE" d="M227.57,294.41c0-4.26-14.65-5.07-25.04-5.47c-10.39-0.41-16.06-0.81-15.91-0.81s-4.72-15.81-17.17-15.81
		s-14.33,6.18-14.33,6.18s-4.8-24.12-12.68-24.12s-9.13,20.37-9.13,20.37s-6.67-11.25-16.69-6.99c-9.06,3.85-8.74,13.27-8.74,13.27
		s-4.29-4.33-8.19-2.74c-6.69,2.74-5.67,10.64-5.67,10.64s-8.5-7.09-12.76,0.41c0,0-73.07-2.03-73.86,1.82
		c-0.79,3.85,21.73,4.26,42.99,4.26S227.57,294.41,227.57,294.41z"/><path fill="#F9E8DE" d="M492.61,138.42c0-3.68-12.66-4.38-21.64-4.73c-8.98-0.35-13.88-0.7-13.75-0.7
		c0.14,0-4.08-13.66-14.84-13.66c-10.75,0-12.39,5.34-12.39,5.34s-4.15-20.84-10.96-20.84s-7.9,17.6-7.9,17.6s-5.77-9.73-14.43-6.04
		c-7.83,3.33-7.55,11.47-7.55,11.47s-3.71-3.74-7.08-2.36c-5.79,2.36-4.9,9.2-4.9,9.2s-7.35-6.13-11.03,0.35
		c0,0-63.16-1.75-63.84,1.58c-0.68,3.33,18.79,3.68,37.16,3.68C357.85,139.3,492.61,138.42,492.61,138.42z"/><g><g><g><g><g><g><path fill="#563025" d="M320.14,328.23c-0.4,1.09-1.48,2.04-3.04,2.86c-1.09-3.21-1.94-5.81-1.95-6.06
								c0,0.27,0.02,3.34,0.04,6.92c-11.82,4.65-40.02,4.9-40.02,4.9l-36.94,0.45l-0.04-11.1c0,0-2.21,7.32-3.25,11.14l-9.32,0.11
								c0,0,5.13-10.44,2.8-25.95c-2.83-18.87-3.23-31.25,2.72-45.29c5.96-14.04,20.04-13.19,20.04-13.19s8.65-10.31,29.7-8.24
								c13.29,1.31,24.94,9.11,24.66,30.23C305.09,307.86,321.38,324.87,320.14,328.23z"/></g></g><circle cx="247.82" cy="330.97" r="33.46" fill="#563025"/><circle cx="310.64" cy="343.36" r="26.14" fill="#563025"/><polygon fill="#E2825D" points="246.38 356.95 256.33 330.48 289.29 334.16 298.26 398.42 270.1 416.78"/><circle cx="309.64" cy="314.09" r="10.76" fill="#563025"/><circle cx="299.62" cy="292.3" r="19.55" fill="#563025"/><g><g><g><g><g><path fill="#E2825D" d="M272.5,345.77c10.2,0.2,28.65-15.15,29.19-40.54c0.54-25.4-11.29-45.24-30.65-43.12
											c-19.37,2.13-32.26,12.06-31.73,33.57C240.01,324.57,255.65,345.43,272.5,345.77z"/><path fill="#563025" d="M256.93,276.07c0,0,5.91,7.26,16.5,15.06c8.47,6.23,19.18,7.02,29.16,5.71
											c7.88-1.03-2.63-29.42-2.63-29.42l-11.57-8.74c0,0-13.08-3.17-13.64-2.86c-0.56,0.31-19.52,8.58-19.52,8.58l-11.88,6.34
											l-8.01,24.78l7.47,8.49C242.81,304.01,245.18,282.96,256.93,276.07z"/><path fill="none" stroke="#A05839" stroke-miterlimit="10" stroke-width=".784" d="M266.01,268.3
											c0,0,8.85,15.27,25.23,19.25"/><path fill="none" stroke="#A05839" stroke-miterlimit="10" stroke-width=".784" d="M243.88,259.23
											c0,0-6.42,3.32-8.85,13.06"/><path fill="none" stroke="#A05839" stroke-miterlimit="10" stroke-width=".784" d="M275.97,270.73
											c0,0,12.54,15.93,29.66,16.52"/><path fill="none" stroke="#563025" stroke-miterlimit="10" stroke-width=".784" d="M256.95,339.84
											c4.77,3.73,10.09,5.83,15.54,5.92c4.45,0.08,10.42-2.6,15.88-7.64"/></g><g><ellipse cx="284.45" cy="306.28" fill="#563025" rx="2.58" ry="3.12" transform="rotate(-3.583 284.356 306.185)"/><ellipse cx="257.89" cy="307.95" fill="#563025" rx="2.58" ry="3.12" transform="rotate(-3.583 257.805 307.847)"/><path fill="#563025" d="M278.67,297.33c0,0,6.93-2.67,12.63,2.95L278.67,297.33z"/><path fill="#563025" d="M249.83,300.89c0,0,5.44-5.06,12.82-1.97L249.83,300.89z"/><g><path fill="#563025" d="M270.87,320.16c-0.13,0.02-0.26,0.04-0.39,0.04l-0.65,0.01c-0.22,0-0.4-0.17-0.4-0.39
												c0-0.22,0.17-0.4,0.39-0.4l0.65-0.01c0.53-0.01,1.03-0.26,1.35-0.68c0.33-0.42,0.45-0.96,0.33-1.48l-0.7-3.04
												c-0.05-0.21,0.08-0.43,0.3-0.48c0.21-0.05,0.43,0.08,0.48,0.3l0.7,3.04c0.17,0.75,0,1.53-0.47,2.14
												C272.05,319.72,271.49,320.05,270.87,320.16z"/><path fill="#F9E8DE" d="M266.99,329.52c0,0,2.99,0.69,5.75,0.76c2.85,0.08,5.18-0.74,5.18-0.74s-1.6,4.1-5.58,3.86
												C268.24,333.17,266.99,329.52,266.99,329.52z"/></g></g><g><g><path fill="#E2825D" d="M298.69,298.41c0,0,4.79-3.53,7.81-2.59c3.03,0.94,6.31,9.52-6.24,20.16L298.69,298.41z"/></g><g><path fill="#563025" d="M301.76,300.03c0,0,5.65-0.19,3.97,3.36s-3.9,7-3.9,7L301.76,300.03z"/></g></g><g><g><path fill="#E2825D" d="M243.8,300.47c0,0-4.98-3.26-7.95-2.14c-2.97,1.11-5.76,9.86,7.38,19.77L243.8,300.47z"/></g><g><path fill="#563025" d="M240.83,302.26c0,0-5.65,0.13-3.77,3.58c1.88,3.45,4.29,6.77,4.29,6.77L240.83,302.26z"/></g></g></g></g></g></g></g><path fill="#E2825D" d="M339.64,415.73c-4.8,18.53-6.39,21.1-7.68,38.04c-0.04,0.68-0.11,1.35-0.17,2.05
					c-0.35,4.28-0.83,8.84-1.31,13.55c-0.02,0.31-0.04,0.59-0.09,0.89c-6.55,0.17-13.38,0.31-20.4,0.39
					c-8.77,0.11-17.87,0.17-27.21,0.17c-2.36,0-4.71,0-7.05-0.02c-13.36-0.04-26.19-0.2-38.15-0.48c-3.38-0.09-6.7-0.17-9.93-0.26
					c-0.61-3.36-1.83-8.25-3.4-13.97c-3.75-13.62-9.47-31.84-13.44-44.8c-2.36-7.64-4.08-13.44-4.45-15.38
					c-1.29-6.72,13.75-49.23,13.75-49.23l15.36,2.09l6.92,0.94l7.68,1.05c0,0,13.18,16.06,26.6,16.37
					c13.44,0.33,13.92-17.5,13.92-17.5s2.07-0.2,4.89-0.41c2.47-0.2,5.52-0.44,8.25-0.59c3.32-0.17,6.13-0.26,6.83-0.02
					c1.92,0.63,18.85,22.69,23.98,28.76c1.68,1.99,3.32,4.78,4.58,8.31C341.76,392.95,342.87,403.25,339.64,415.73z"/><path fill="#E2825D" d="M307.68,348.71c0,0,11.93-20.88,16.62-32.39s14.92-58.39,14.92-58.39l15.02-72.22l15.51,1.33
					c0,0,6.12,21.88,4.42,44.04s-11.2,45.2-11.2,45.2s-9.69,79.25-24.6,112.07S307.68,348.71,307.68,348.71z"/><path fill="#E2825D" d="M380.59,174.64c-0.2,1.71-0.59,3.56-1.12,5.07c-0.53,1.32-7.7,6.17-8.95,12.56l-16.6-4.26l0.33-2.31
					c-0.72-6.65-0.79-15.81,2.37-23.05c-0.73-1.25,0.13-2.83,0.13-2.83s-1.85-0.26-2.83-3.1c-0.99-2.9,11.46-7.71,11.46-7.71
					s-4.15-3.29-3.43-4.41c0.73-1.12,10.94,0.72,13.24,3.16c2.31,2.44-0.66,6.92-0.66,6.92c2.57,1.65,2.44,5.07,2.44,5.07
					c4.41,3.62,2.97,9.42,2.97,9.42C380.59,170.43,380.79,172.47,380.59,174.64z"/><path fill="#E2825D" d="M234.86,350.32c-21.42-17.51-57.17-85.14-60.57-95.8c-3.41-10.65-20.72-74.51-20.72-74.51l-14.26-9.3
					c0,0-7.35,32.41-1.68,57.39c6.39,28.13,14.92,46.45,14.92,46.45s24.72,85.66,55.4,124.02s19.18-36.65,19.18-36.65
					S237.5,352.48,234.86,350.32z"/><path fill="#E2825D" d="M127.22,168.95c0.2,1.71,0.59,3.56,1.12,5.07c0.53,1.32,6.94,7.71,8.19,14.1l17.36-5.8l-0.33-2.31
					c0.72-6.65,0.79-15.81-2.37-23.05c0.73-1.25-0.13-2.83-0.13-2.83s1.85-0.26,2.83-3.1c0.99-2.9-11.46-7.71-11.46-7.71
					s4.15-3.29,3.43-4.41c-0.73-1.12-10.94,0.72-13.24,3.16c-2.31,2.44,0.66,6.92,0.66,6.92c-2.57,1.65-2.44,5.07-2.44,5.07
					c-4.41,3.62-2.97,9.42-2.97,9.42C127.22,164.73,127.02,166.77,127.22,168.95z"/></g><path fill="#A2A2ED" d="M341.19,412.78c-4.08,15.38-1.5,53.12-1.93,56.69c-0.02,0.26-8.61,0.52-8.63,0.79h-0.24
				c-37.3,2.47-110.21-0.11-113.44-0.2c-0.35,0,3.72-22.91,1.73-25.4c-6.61-8.31-8.31-33.02-8.31-33.02s0.15-0.13,0.44-0.35
				c2.9-2.49,19.84-17.54,22.37-33.1c2.62-16.24,2.33-28.28,2.29-29.42c0-0.07,0-0.09,0-0.09l6.9,0.96c0,0,0,0.02,0.02,0.07
				c0.31,1.13,4.82,17.2,15.52,24.44c11.09,7.44,38.15,6.26,47.11,3.93c8.86-2.33-4.1-23.7-9.54-28.87
				c-0.04-0.04-0.11-0.09-0.15-0.13l8.36-0.5c0,0,0.02,0.02,0.04,0.04c0.72,0.79,10.34,11.43,15.08,18.59
				c4.25,6.46,16.95,16,20.32,18.46c0.52,0.39,0.83,0.61,0.83,0.61S344.1,401.68,341.19,412.78z"/><g><g><g><rect width="233.31" height="156.56" x="136.13" y="69.21" fill="#F9E8DE"/><path fill="#563025" d="M368.66,70v154.99H136.92V70H368.66 M370.23,68.43H135.35v158.13h234.88V68.43L370.23,68.43z"/></g></g><line x1="148.27" x2="206.7" y1="215.85" y2="215.85" fill="none" stroke="#563025" stroke-miterlimit="10" stroke-width=".784"/><g><g><polygon fill="#A05839" points="198.06 111.01 198.06 122.23 213.13 122.23 213.13 93.19 195.03 93.19 174.73 122.23 190.64 122.23"/><polygon fill="#563025" points="198.06 135.08 182.14 135.08 185.59 129.87 168.86 130.63 165.08 136.03 165.08 149.11 196.93 149.11 196.93 161.43 213.13 161.43 213.13 149.11 220.9 149.11 220.9 135.08 213.13 135.08 213.13 128.64 198.06 129.31"/><path fill="#563025" d="M255.49,145.98c-9.18,0-10.6-8.38-10.7-18.76l-15.89,0.71c0.46,19.4,7.54,33.21,26.59,33.21
							c19.71,0,26.63-14.78,26.63-35.25c0-0.12-0.01-0.23-0.01-0.35l-15.92,0.71C266.17,137.08,264.96,145.98,255.49,145.98z"/><path fill="#A05839" d="M255.49,105.99c8.45,0,10.33,7.24,10.65,16.24h15.9c-0.82-18.38-8.04-31.41-26.55-31.41
							c-18.5,0-25.73,13.03-26.55,31.41h15.9C245.17,113.23,247.04,105.99,255.49,105.99z"/><polygon fill="#563025" points="339.08 122.98 324.01 123.66 324.01 135.08 308.09 135.08 315.39 124.05 298.89 124.79 291.03 136.03 291.03 149.11 322.87 149.11 322.87 161.43 339.08 161.43 339.08 149.11 346.85 149.11 346.85 135.08 339.08 135.08"/><polygon fill="#A05839" points="324.01 111.01 324.01 122.23 339.08 122.23 339.08 93.19 320.98 93.19 300.68 122.23 316.59 122.23"/></g><text fill="#563025" font-family="'Poppins-Bold'" font-size="21.498" transform="translate(209.429 195.037)">ERROR</text></g></g><g><g><path fill="#E2825D" d="M375.21,147.79c2.3,2.43-0.69,6.93-0.69,6.93c2.55,1.6,2.47,5.02,2.47,5.02
						c4.37,3.67,2.95,9.43,2.95,9.43c0.68,1.26,0.83,3.32,0.64,5.48l-7.89,0.47c-0.17-0.35-0.32-0.63-0.42-0.82
						c-0.66-1.21-3.66-3.35-10.12-5.66c-6.46-2.31-3.91-4.82-3.91-4.82c-3.12-0.9-1.5-3.98-1.5-3.98s-1.85-0.24-2.84-3.13
						c-0.99-2.87,11.46-7.66,11.46-7.66s-4.16-3.31-3.41-4.43C362.69,143.5,372.88,145.36,375.21,147.79z"/><path fill="none" stroke="#563025" stroke-miterlimit="10" stroke-width=".784" d="M358.23,163.82c0,0-2.54,2.52,3.91,4.82
						c6.46,2.3,9.46,4.44,10.13,5.66"/><path fill="none" stroke="#563025" stroke-miterlimit="10" stroke-width=".784" d="M379.93,169.16c0,0-5.72-4.44-8.87-5.66
						c-3.15-1.22-12.84,0.32-12.84,0.32"/><path fill="none" stroke="#563025" stroke-miterlimit="10" stroke-width=".784" d="M376.55,159.78c0,0-2.94-3.39-6.13-3.84
						c-3.19-0.44-13.69,3.87-13.69,3.87"/><path fill="none" stroke="#563025" stroke-miterlimit="10" stroke-width=".784" d="M374.52,154.72c0,0-1.52-3.28-3.96-4.23
						s-5.2-1.45-5.2-1.45"/></g></g><g><g><path fill="#E2825D" d="M132.59,142.09c-2.3,2.43,0.69,6.93,0.69,6.93c-2.55,1.6-2.47,5.02-2.47,5.02
						c-4.37,3.67-2.95,9.43-2.95,9.43c-0.68,1.26-0.83,3.32-0.64,5.48l7.35,0.83c-0.03-0.64,0.17-1.16,0.28-1.36
						c0.66-1.21,4.34-3.19,10.8-5.49c6.46-2.31,3.91-4.82,3.91-4.82c3.12-0.9,1.5-3.98,1.5-3.98s1.85-0.24,2.84-3.13
						c0.99-2.87-11.46-7.66-11.46-7.66s4.16-3.31,3.41-4.43C145.12,137.81,134.92,139.66,132.59,142.09z"/><path fill="none" stroke="#563025" stroke-miterlimit="10" stroke-width=".784" d="M127.87,163.46c0,0,5.72-4.44,8.87-5.66
						c3.15-1.22,12.84,0.32,12.84,0.32"/><path fill="none" stroke="#563025" stroke-miterlimit="10" stroke-width=".784" d="M131.25,154.09c0,0,2.94-3.39,6.13-3.84
						c3.19-0.44,13.69,3.87,13.69,3.87"/><path fill="none" stroke="#563025" stroke-miterlimit="10" stroke-width=".784" d="M133.28,149.03c0,0,1.52-3.28,3.96-4.23
						c2.44-0.95,5.2-1.45,5.2-1.45"/></g></g></g><path fill="#A2A2ED" d="M303.68,348.59c0,0,1.45-0.32,1.83-0.45s0.36-1.1,1.18-1.36c0.82-0.26,2.11-0.41,2.7-1.69
			c0.59-1.28,4.03-9.6,6.19-14.99c2.16-5.39,5.85-7.24,7.39-12.94c1.54-5.7,8.29-28.18,9.98-32.18c0,0-1.2,11.23,14.51,15.85
			c15.71,4.62,20.64,10.01,21.26,11.55c0.62,1.54-2.77,15.71-2.46,21.57c0.31,5.85-5.85,14.17-8.63,20.64
			c-2.77,6.47-8.01,9.55-11.71,16.64c-3.7,7.09-5.39,18.95-5.39,18.95l-29.73-23.26L303.68,348.59z"/><path fill="#A2A2ED" d="M238.65,348.99c0,0-1.48-0.07-1.88-0.13c-0.4-0.06-0.54-1.03-1.4-1.14c-0.85-0.11-2.14-0.04-2.95-1.21
			c-0.8-1.16-5.62-8.77-8.67-13.71c-3.05-4.94-7.01-6.13-9.5-11.48c-2.5-5.35-16.26-21.82-18.62-25.48c0,0,1.6,8.76-13.09,16.01
			s-23.89,18.09-24.24,19.72s10.8,13.28,11.5,19.1c0.7,5.82,9.66,10.05,13.5,15.95c3.84,5.9,4.23,16.52,9.09,22.86
			c4.86,6.35,19.1,25.47,19.1,25.47l30.81-20.54L238.65,348.99z"/></g><path fill="none" stroke="#563025" stroke-miterlimit="10" stroke-width=".784" d="M77.93,141.93l0.1,0.27
		c1.44,3.76,4.43,6.71,8.21,8.09l0.51,0.19l-0.51,0.19c-3.78,1.38-6.77,4.34-8.21,8.09l-0.1,0.27l-0.1-0.27
		c-1.44-3.76-4.43-6.71-8.21-8.09l-0.51-0.19l0.51-0.19c3.78-1.38,6.77-4.34,8.21-8.09L77.93,141.93z"/><path fill="none" stroke="#563025" stroke-miterlimit="10" stroke-width=".784" d="M274.15,28.67l0.1,0.27
		c1.44,3.76,4.43,6.71,8.21,8.09l0.51,0.19l-0.51,0.19c-3.78,1.38-6.77,4.34-8.21,8.09l-0.1,0.27l-0.1-0.27
		c-1.44-3.76-4.43-6.71-8.21-8.09l-0.51-0.19l0.51-0.19c3.78-1.38,6.77-4.34,8.21-8.09L274.15,28.67z"/><path fill="none" stroke="#563025" stroke-miterlimit="10" stroke-width=".784" d="M417.6,260.72l0.1,0.27
		c1.44,3.76,4.43,6.71,8.21,8.09l0.51,0.19l-0.51,0.19c-3.78,1.38-6.77,4.34-8.21,8.09l-0.1,0.27l-0.1-0.27
		c-1.44-3.76-4.43-6.71-8.21-8.09l-0.51-0.19l0.51-0.19c3.78-1.38,6.77-4.34,8.21-8.09L417.6,260.72z"/><path fill="none" stroke="#563025" stroke-miterlimit="10" stroke-width=".784" d="M296.33,429.78c0,0,19.77,4.43,30.69-0.89"/><path fill="none" stroke="#563025" stroke-miterlimit="10" stroke-width=".784" d="M241.44,429.78c0,0,19.77,4.43,30.69-0.89"/><path fill="none" stroke="#563025" stroke-miterlimit="10" stroke-width=".784" d="M340.26,388.88c0,0-4.68-12.5-10.88-17.23"/><path fill="none" stroke="#563025" stroke-miterlimit="10" stroke-width=".784" d="M214,324.44c0,0-2.36,5.31-7.08,6.79"/><path fill="none" stroke="#563025" stroke-miterlimit="10" stroke-width=".784" d="M329.97,296.26c0,0,1.62,6.79,10.48,10.03
		c8.85,3.25,20.07,5.16,25.82,11.07"/><path fill="none" stroke="#563025" stroke-miterlimit="10" stroke-width=".784" d="M198.91,302.98c0,0-0.14,7.33-8.45,11.79
		c-13.35,7.16-22.21,12.84-26.77,19.7"/><line x1="174.61" x2="384.41" y1="470.36" y2="470.36" fill="none" stroke="#563025" stroke-miterlimit="10" stroke-width=".784"/></g></svg>