<svg xmlns="http://www.w3.org/2000/svg" id="Layer_1" x="0" y="0" enable-background="new 0 0 850 850" version="1.1" viewBox="0 0 850 850" xml:space="preserve"><g><g><g><path fill="#1d3b54" d="M674.06,601.81c0,0-2.36-3.86-5.6-5.36c-3.23-1.51-9.87,3.75-10.45,6.67l-7.69,11.22l1.46,1l4.1-5.99
				c-2.8,6.73-6.79,14.78-3.98,18.83c3.77,5.43,12.3,10.93,14.56,9.98c2.26-0.95,1.8-16.75,1.8-16.75
				C665.83,607.45,674.06,601.81,674.06,601.81z"/></g><g><g><path fill="#de9673" d="M674.06,601.81c0,0-2.8,5.39-4.24,9.57c-1.44,4.19-1.71,15.77-2.62,16.57c-0.91,0.8-8.06-2.8-9.02-7.14
					c-0.95-4.33,1.95-12.99,4.71-17.54c2.76-4.55,5.57-6.83,5.57-6.83S673.34,597.4,674.06,601.81z"/></g></g><g><path fill="#de9673" d="M701.68,500.29c0,0-4.38,23.26-4.38,28.82s-1.52,14.66-5.06,21.4c-3.54,6.74-19.07,52.79-20.42,58.16
				c-1.35,5.36-2.5,10.43-2.5,10.43s-7.75-3.54-7.75-8.6c0-5.06,6.74-46.85,7.92-55.11c1.18-8.26,10.95-50.56,10.95-50.56
				L701.68,500.29z"/></g><g><path fill="#eea886" d="M676.9,498.78c0,0,1.52,19.38,1.35,24.44c-0.17,5.06-2.53,16.51-2.53,19.55c0,3.03,0,65.89,2.51,73.47
				c2.51,7.59-7.06,2.37-7.06,2.37s-16.69-41.34-16.69-58.59c0-17.25,2.02-25.84,0.84-36.8c-1.18-10.96-6.42-25.38-6.42-25.38
				L676.9,498.78z"/></g><g><path fill="#281b22" d="M651.66,405.49c0,0-8.97,10.99-11.33,25.65c-2.36,14.66,2.79,42.31,4.63,50.31
				c1.61,7.02,4.68,29.49,4.85,31.84c0,0,30.16,3.41,53.08-3.83c0,0,2.1-31.38,3.45-44.69c1.35-13.31-5.23-58.27-5.23-58.27
				L651.66,405.49z"/></g><g><path fill="#1d3b54" d="M686.15,635.36c-10.8-9.43-7.91-19.12-7.91-19.12s-4.32-1.53-7.82-0.66c-3.51,0.87-5.39,9.24-3.98,11.91
				l1.09,13.74l1.78-0.14l-0.58-7.33c2.08,7.08,4.07,15.96,8.85,17.36c6.43,1.88,16.65,0.77,17.82-1.42
				C696.57,647.51,686.15,635.36,686.15,635.36z"/></g><g><path fill="#754836" d="M692.48,302.8c0,0-2.67,15.91-0.36,21.25c2.31,5.35-12.27-6.25-12.27-6.25S685.9,300.28,692.48,302.8z"/></g><g><path fill="#472639" d="M687.1,258.6c0,0-23.39-5.36-26.31,19.64c-2.91,25,7.61,28.13,0.48,45.07c-7.13,16.94,17.4-5.52,17.4-5.52
				L687.1,258.6z"/></g><g><path fill="#eea886" d="M685.08,258.24c6-0.12,19.22,3.27,20.82,19.22c0,0-0.6,4.27-1.73,7.61c-1.14,3.33,1.6,13.35,0.8,13.81
				c-0.8,0.47-4.07,1-4.07,1s-3.81,10.75-7.61,10.55c-3.8-0.2-18.13-3.58-24.54-17.26C662.34,279.49,660.83,258.73,685.08,258.24z"/></g><g><g><g><path fill="#1d3b54" d="M619.65,456.16c0,0,0.56-9.62,3.11-11.12c2.55-1.49,1.08,1.48,1.08,1.48s-1.43,6.98-1.75,9.81
						C622.07,456.47,619.65,456.16,619.65,456.16z"/></g></g></g><g><g><g><path fill="#eea886" d="M631.44,434.5c0,0,0.71,4.31,2.02,8.47c1.31,4.16,2.51,5.48,1.99,7.87c-0.39,1.8-2.43,3.15-2.94,2.57
						c-0.51-0.58-0.76-7.57-3.66-7.54c-2.9,0.03,0.87,8.66-0.86,8.02c-1.73-0.63-8.36-4.27-7.95-7.79c0.42-3.52,3.07-6.07,2.9-11.33
						c-0.15-4.78,1.33-6.77,1.33-6.77L631.44,434.5z"/></g></g></g><g><g><g><path fill="#1d3b54" d="M629.12,445.58c0,0,3.86,0.98,3.63,14.03l-4.37-0.73c0,0,0.08-7.21-1.22-11.14
						C627.16,447.74,627.38,445.19,629.12,445.58z"/></g></g></g><g><g><g><polygon fill="#eddad3" points="645.14 462.56 611.12 452.91 611.22 494.8 645.08 515.09"/></g></g></g><g><g><polygon fill="#eddad3" points="645.08 515.09 640.81 515.88 607.89 495.4 608.29 453.1 611.12 452.91"/></g></g><g><path fill="#d31679" d="M688.32,317.01c0,0,9.07,3.72,10.69,4.86c1.62,1.14,4.86,14.25,5.67,15.38c0.81,1.13,8.63,10.86,7.55,18.74
				c-0.85,6.19-4.35,9.47-6.62,11.9c-2.26,2.43-4.36,15.5-5.08,17.45c-0.71,1.94,1.55,27.45,1.55,27.45s-26.61,10.35-50.41-7.3
				c0,0,4.75-17.08,4.75-20.15s-3.07-24.77-11.33-37.57c-8.26-12.79,1.46-26.39,7.77-28.01c6.31-1.62,18.46-6.15,18.46-6.15
				L688.32,317.01z"/></g><g><path fill="#d31679" d="M659.29,317.83c0,0-13.32-0.82-20,6.95c-6.68,7.77-6.31,17-8.02,21.01c-1.7,4.01-5.59,21.25-6.44,24.05
				c-0.85,2.79-1.68,18.49-2.89,31.12c-1.21,12.63-0.97,36.21-0.97,36.21l12.74-2.31c0,0,0.51-22.48,0.84-35.52
				c0.32-13.04,10.93-36.07,14.94-46.15C653.5,343.12,669.46,324.15,659.29,317.83z"/></g><g><path fill="#eb4747" d="M697.68,321.13c0,0,5.85,0.37,8.65,6.2c2.79,5.83,3.86,10.68,4.59,12.14
				c0.73,1.46,10.83,20.65,11.44,24.9c0.61,4.25-0.37,12.02-5.71,14.09c-5.35,2.06-24.53,2.31-24.53,2.31s4.86-9.87,0.36-14.97
				c0,0,13.92-2.52,17.22-2.85C713.18,362.59,693.27,325.5,697.68,321.13z"/></g><g><g><polygon fill="#fff" points="665.78 337.61 691.73 398.21 724.08 382.97 700.15 324.78"/></g></g><g><g><path fill="#eea886" d="M680.67,367.38c0,0-3.51,0.93-4.63,1.09c-1.11,0.16,0.26,2.22,1.63,2.28
					C679.03,370.82,680.67,367.38,680.67,367.38z"/></g></g><g><g><path fill="#eea886" d="M683.02,384.62c0,0,1.63-0.08,2.33-0.46c0,0,1.21-0.79,2.11-1.31c0.29-0.16,0.54-0.3,0.71-0.37
					c0.72-0.29,2.38-0.72,3.9-1.9c1.53-1.18,6.49-5.91,6.49-5.91l-3.28-4.94l-2.54-3.94c0,0-10.66,0.29-12.21,1.23
					c-0.15,0.09-0.3,0.19-0.43,0.29c-1.23,0.92-1.76,2.13-2.36,2.68c-0.21,0.21-2.23,2.4-2.1,3.28c0.17,1.22,0.78,2,1.54,2.37
					c0,0,0.43,2.38,1.67,3.44c0,0,0.33,2.21,2.25,3.08C681.11,382.17,681.7,384.37,683.02,384.62z"/></g></g><g><path fill="#d31679" d="M692.48,365.79c0,0,15.8-2.82,20.16-3.29c0,0,0.3-5.54-0.5-10.24c-0.8-4.7-4.65-11-4.65-11l8.08,7.4
				c0,0,6.64,12.72,6.79,15.7c0.15,2.97,0.94,7.57-2.99,12.22c-3.93,4.66-22.48,2.52-22.48,2.52S698.44,373.41,692.48,365.79z"/></g><g><path fill="#eea886" d="M687.62,307.9c0,0-0.51,1.51-1.11,3.75c-0.31,1.15-0.63,2.48-0.92,3.9c-0.8,3.94-1.34,8.55-0.4,11.66
				c0,0-8.5,2.68-14.81-9.4c0,0,3.22-12.74-0.27-20.61C666.62,289.32,687.62,307.9,687.62,307.9z"/></g><g><path fill="#472639" d="M705.9,277.46c0,0-9.92,6.36-19.62,7.43c-9.7,1.07-15.1,15.74-15.1,15.74s-15.25-23.75-2.97-38.34
				C680.5,247.7,708.53,259,705.9,277.46z"/></g><g><path fill="#eea886" d="M682.28,284.34c0-1.87-2-4.74-5.14-2.27c-3.14,2.47,0.73,11.48,3.27,10.68
				C682.94,291.95,682.28,286.27,682.28,284.34z"/></g><g><path fill="#eea886" d="M688.85,317.23c0,0,4,11.8-5.35,11.74c-9.35-0.06-13.42-7.41-16.09-13.94c0,0,4.31-2.09,6.31-2.4
				C675.73,312.33,688.85,317.23,688.85,317.23z"/></g><g><polygon fill="#1d3b54" points="632.76 459.05 628.37 459.61 628.38 457.57"/></g><g><path fill="#1d3b54" d="M622.12,456.03l-2.42,0.29c0,0-0.01-0.73,0.01-0.97C619.73,455.1,622.03,455.88,622.12,456.03z"/></g><g><g><path fill="#eea886" d="M678.24,616.23c0,0,1.23,6.03,2.76,10.24c1.53,4.21,8.7,13.51,8.5,14.72c-0.2,1.21-8.14,2.93-11.65,0.12
					c-3.51-2.8-6.74-11.47-7.47-16.82c-0.72-5.34-0.34-8.8-0.34-8.8S674.86,613.22,678.24,616.23z"/></g></g><g><path fill="#a77860" d="M687.28,309.12c-0.3,1.15-0.76,2.52-1.11,3.89c-7.68-5.18-11.35-11.34-11.35-11.34
				C679.17,305.84,687.28,309.12,687.28,309.12z"/></g></g><g><g><g><g><path fill="#ae91dd" d="M372.83,289.63c-3.21-2.02-5.2-4.7-5.97-8.06c-0.77-3.36-0.26-6.45,1.51-9.28
						c1.82-2.9,4.38-4.68,7.66-5.34c3.29-0.65,6.54,0.03,9.75,2.04c3.28,2.06,5.33,4.7,6.13,7.92c0.8,3.22,0.29,6.28-1.53,9.19
						c-1.77,2.83-4.32,4.64-7.64,5.43C379.42,292.32,376.11,291.69,372.83,289.63z M382.18,255.38c1.68-2.67,3.61-4.77,5.78-6.28
						c2.17-1.51,4.43-2.65,6.78-3.41c2.34-0.77,4.71-1.36,7.11-1.77c2.39-0.42,4.65-0.84,6.78-1.26c2.13-0.42,4.07-1.04,5.81-1.87
						c1.74-0.82,3.14-2.08,4.2-3.76c1.73-2.75,1.99-5.68,0.79-8.77c-1.2-3.1-3.67-5.82-7.42-8.17c-3.59-2.26-7.27-3.53-11.03-3.81
						c-3.76-0.28-7.4,0.34-10.92,1.86l-8.76-16.85c5.98-2.74,12.56-3.81,19.74-3.19c7.18,0.62,14.62,3.35,22.34,8.19
						c5.73,3.6,10.26,7.59,13.59,11.96c3.33,4.38,5.25,8.91,5.76,13.61c0.51,4.69-0.67,9.33-3.54,13.92
						c-1.87,2.98-3.98,5.33-6.34,7.05c-2.36,1.72-4.79,2.96-7.3,3.73c-2.51,0.77-5.04,1.37-7.59,1.79
						c-2.56,0.42-4.99,0.86-7.31,1.33c-2.32,0.46-4.43,1.16-6.35,2.09c-1.92,0.93-3.52,2.43-4.82,4.49L382.18,255.38z"/></g></g></g><g><g><g><path fill="#efeaf8" d="M336.01,244.03c0.15-1.3,0.5-2.43,1.05-3.39c0.55-0.96,1.19-1.79,1.94-2.49
						c0.74-0.71,1.53-1.35,2.35-1.93c0.82-0.58,1.6-1.14,2.32-1.68c0.72-0.54,1.34-1.12,1.85-1.74c0.51-0.62,0.81-1.34,0.91-2.16
						c0.16-1.34-0.27-2.49-1.27-3.44c-1-0.95-2.42-1.53-4.25-1.74c-1.75-0.21-3.36-0.03-4.82,0.54c-1.46,0.56-2.72,1.45-3.77,2.65
						l-6.3-4.76c1.76-2.1,4.04-3.67,6.85-4.72c2.8-1.05,6.09-1.35,9.86-0.91c2.8,0.33,5.21,1.02,7.24,2.07
						c2.03,1.05,3.56,2.41,4.59,4.08c1.03,1.67,1.42,3.62,1.16,5.86c-0.17,1.45-0.55,2.71-1.12,3.78c-0.58,1.07-1.27,1.97-2.07,2.7
						c-0.81,0.74-1.65,1.41-2.53,2.03c-0.88,0.61-1.72,1.22-2.51,1.8c-0.79,0.59-1.46,1.23-2.01,1.92
						c-0.55,0.69-0.89,1.54-1.01,2.55L336.01,244.03z M338.61,258.57c-1.57-0.18-2.79-0.84-3.68-1.96
						c-0.89-1.12-1.25-2.38-1.09-3.76c0.17-1.42,0.81-2.54,1.93-3.37c1.12-0.83,2.46-1.16,4.03-0.97c1.6,0.19,2.84,0.81,3.72,1.88
						c0.87,1.07,1.23,2.31,1.07,3.72c-0.16,1.38-0.8,2.51-1.9,3.4C341.57,258.4,340.21,258.75,338.61,258.57z"/></g></g></g><g><g><g><path fill="#fba5cf" d="M398.85,327.32c-0.32-2.22,0.12-4.15,1.34-5.79c1.22-1.64,2.81-2.6,4.76-2.88
						c2.01-0.29,3.79,0.18,5.35,1.41c1.56,1.23,2.5,2.96,2.82,5.18c0.33,2.27-0.07,4.21-1.22,5.81c-1.14,1.6-2.72,2.54-4.73,2.84
						c-1.96,0.29-3.75-0.17-5.38-1.36C400.17,331.33,399.19,329.59,398.85,327.32z M417.88,318.38c1.85-0.27,3.53-0.21,5.05,0.19
						c1.52,0.4,2.9,0.98,4.14,1.74c1.24,0.76,2.42,1.6,3.53,2.52c1.11,0.92,2.16,1.78,3.17,2.57c1.01,0.8,2.03,1.43,3.07,1.9
						c1.04,0.47,2.14,0.62,3.31,0.45c1.9-0.28,3.32-1.28,4.26-3.01c0.93-1.73,1.21-3.89,0.83-6.48c-0.36-2.49-1.2-4.63-2.52-6.44
						c-1.32-1.81-2.99-3.21-5.03-4.21l4.23-10.42c3.53,1.64,6.54,4.2,9.02,7.67c2.48,3.47,4.11,7.88,4.89,13.22
						c0.58,3.96,0.52,7.54-0.18,10.72c-0.7,3.18-2,5.79-3.92,7.82c-1.92,2.03-4.46,3.28-7.63,3.75c-2.06,0.3-3.93,0.25-5.61-0.15
						c-1.68-0.4-3.17-1.02-4.48-1.86c-1.31-0.83-2.55-1.75-3.72-2.74c-1.17-0.99-2.31-1.92-3.4-2.78c-1.1-0.87-2.22-1.55-3.38-2.06
						c-1.16-0.51-2.44-0.66-3.87-0.45L417.88,318.38z"/></g></g></g></g><g><g><g><path fill="#efeaf8" fill-rule="evenodd" d="M125.92,388.2c0-5.68,4.6-10.28,10.28-10.28c56.37,0,367.01,0,423.39,0c5.68,0,10.28,4.6,10.28,10.28
					c0,32.27,0,131.36,0,163.64c0,5.68-4.6,10.28-10.28,10.28c-56.37,0-353.86,0-410.23,0c-5.68,0-23.43-4.6-23.43-10.28
					C125.92,519.56,125.92,420.47,125.92,388.2z" clip-rule="evenodd"/></g></g><g><g><path fill="#ae91dd" fill-rule="evenodd" d="M125.92,387.92c0-2.65,1.05-5.19,2.93-7.07c1.87-1.88,4.42-2.93,7.07-2.93h423.95c5.52,0,10,4.48,10,10
					c0,3.99,0,7.66,0,7.66H125.92C125.92,395.58,125.92,391.91,125.92,387.92z" clip-rule="evenodd"/></g></g><g><g><path fill="#ae91dd" fill-rule="evenodd" d="M569.87,539.59H125.92v12.6c0,5.48,4.44,9.92,9.92,9.92c55.7,0,368.4,0,424.1,0
					c5.48,0,9.92-4.44,9.92-9.92V539.59z" clip-rule="evenodd"/></g></g><g><g><path fill="#fff" fill-rule="evenodd" d="M224.98,545.05c3.2,0,5.81,2.6,5.81,5.81s-2.6,5.81-5.81,5.81c-3.2,0-5.81-2.6-5.81-5.81
					S221.78,545.05,224.98,545.05z" clip-rule="evenodd"/></g></g><g><g><rect width="279.65" height="1.32" x="253.73" y="546.86" fill="#fff"/></g></g><g><g><rect width="146.13" height="1.32" x="253.73" y="553.53" fill="#fff"/></g></g><g><g><path fill="#ae91dd" d="M252.28,459.8H156.1c-3.81,0-6.9-3.1-6.9-6.9v-28.15c0-3.81,3.1-6.9,6.9-6.9h96.18
					c3.81,0,6.9,3.1,6.9,6.9v28.15C259.18,456.7,256.09,459.8,252.28,459.8z M156.1,419.16c-3.08,0-5.59,2.51-5.59,5.59v28.15
					c0,3.08,2.51,5.59,5.59,5.59h96.18c3.08,0,5.59-2.51,5.59-5.59v-28.15c0-3.08-2.51-5.59-5.59-5.59H156.1z"/></g></g><g><g><rect width="83.84" height="1.32" x="162.27" y="431.64" fill="#fff"/></g></g><g><g><rect width="83.84" height="1.32" x="162.27" y="444.69" fill="#fff"/></g></g><g><g><path fill="#ae91dd" d="M252.28,522.19H156.1c-3.81,0-6.9-3.1-6.9-6.9v-28.15c0-3.81,3.1-6.9,6.9-6.9h96.18
					c3.81,0,6.9,3.1,6.9,6.9v28.15C259.18,519.1,256.09,522.19,252.28,522.19z M156.1,481.55c-3.08,0-5.59,2.51-5.59,5.59v28.15
					c0,3.08,2.51,5.59,5.59,5.59h96.18c3.08,0,5.59-2.51,5.59-5.59v-28.15c0-3.08-2.51-5.59-5.59-5.59H156.1z"/></g></g><g><g><rect width="83.84" height="1.32" x="162.27" y="494.03" fill="#fff"/></g></g><g><g><rect width="83.84" height="1.32" x="162.27" y="507.08" fill="#fff"/></g></g></g><g><g><g><path fill="#fba5cf" fill-rule="evenodd" d="M500.39,346.11c0-5.52,4.47-10,10-10c25.61,0,93.36,0,118.97,0c5.52,0,9.99,4.48,9.99,10
					c0,19.61,0,62.81,0,81.11c0,2.25-0.89,4.4-2.48,5.98c-1.59,1.59-3.74,2.48-5.98,2.48c-24.82,0-97.22,0-122.04,0
					c-2.25,0-4.4-0.89-5.98-2.48c-1.59-1.59-2.48-3.74-2.48-5.98C500.39,408.92,500.39,365.72,500.39,346.11z" clip-rule="evenodd"/></g></g><g><g><path fill="#fddbea" fill-rule="evenodd" d="M500.39,346.11c0-2.65,1.05-5.19,2.93-7.07c1.88-1.87,4.42-2.93,7.07-2.93h118.97
					c2.65,0,5.19,1.05,7.07,2.93c1.88,1.88,2.93,4.42,2.93,7.07c0,3.99,0,7.66,0,7.66H500.39
					C500.39,353.78,500.39,350.11,500.39,346.11z" clip-rule="evenodd"/></g></g><g><g><path fill="#fba5cf" fill-rule="evenodd" d="M512.68,341.52c1.89,0,3.43,1.54,3.43,3.43c0,1.89-1.54,3.43-3.43,3.43c-1.89,0-3.43-1.54-3.43-3.43
					C509.24,343.05,510.78,341.52,512.68,341.52z" clip-rule="evenodd"/></g></g><g><g><path fill="#fba5cf" fill-rule="evenodd" d="M524.98,341.52c1.89,0,3.43,1.54,3.43,3.43c0,1.89-1.54,3.43-3.43,3.43c-1.89,0-3.43-1.54-3.43-3.43
					C521.54,343.05,523.08,341.52,524.98,341.52z" clip-rule="evenodd"/></g></g><g><g><path fill="#fba5cf" fill-rule="evenodd" d="M537.27,341.52c1.89,0,3.43,1.54,3.43,3.43c0,1.89-1.54,3.43-3.43,3.43c-1.89,0-3.43-1.54-3.43-3.43
					C533.84,343.05,535.38,341.52,537.27,341.52z" clip-rule="evenodd"/></g></g></g><g><g><g><path fill="#fddbea" fill-rule="evenodd" d="M213.83,333.31c0-2.91,2.36-5.26,5.26-5.26H325.4c2.91,0,5.26,2.36,5.26,5.26v52.87
					c0,2.91-2.36,5.26-5.26,5.26h-42.86l9.06,28.78l-35.81-28.78h-36.7c-2.91,0-5.26-2.36-5.26-5.26V333.31z" clip-rule="evenodd"/></g></g><g><g><rect width="30.46" height="1.32" x="290.86" y="357.15" fill="#fff" transform="rotate(-45.001 306.097 357.814)"/></g></g><g><g><rect width="1.32" height="30.46" x="305.44" y="342.57" fill="#fff" transform="rotate(-45.001 306.084 357.807)"/></g></g><g><g><rect width="30.46" height="1.32" x="257.01" y="357.15" fill="#fff" transform="rotate(-45.001 272.247 357.814)"/></g></g><g><g><rect width="1.32" height="30.46" x="271.59" y="342.57" fill="#fff" transform="rotate(-45.001 272.235 357.807)"/></g></g><g><g><rect width="30.46" height="1.32" x="223.16" y="357.15" fill="#fff" transform="rotate(-45.001 238.392 357.81)"/></g></g><g><g><rect width="1.32" height="30.46" x="237.74" y="342.57" fill="#fff" transform="rotate(-45.001 238.392 357.81)"/></g></g></g><g><g><g><path fill="#9670d3" fill-rule="evenodd" d="M292.41,603.18c0-5.9,4.78-10.68,10.68-10.68c34.35,0,141.71,0,176.05,0c5.9,0,10.68,4.78,10.68,10.68
					c0,4.29,0,9.22,0,13.51c0,5.9-4.78,10.68-10.68,10.68c-34.35,0-141.7,0-176.05,0c-5.9,0-10.68-4.78-10.68-10.68
					C292.41,612.41,292.41,607.47,292.41,603.18z" clip-rule="evenodd"/></g></g><g><g><path fill="#fba5cf" fill-rule="evenodd" d="M431.42,603.18c0-2.83,1.13-5.55,3.13-7.55c2-2,4.72-3.13,7.55-3.13c10.53,0,26.52,0,37.04,0
					c2.83,0,5.55,1.12,7.55,3.13c2,2,3.13,4.72,3.13,7.55c0,4.49,0,9.68,0,14.1c0,5.57-4.52,10.09-10.09,10.09
					c-10.51,0-26.91,0-37.64,0c-2.83,0-5.55-1.13-7.55-3.13c-2-2-3.13-4.72-3.13-7.55C431.42,612.41,431.42,607.47,431.42,603.18z" clip-rule="evenodd"/></g></g><g><path fill="#f0ecf9" fill-rule="evenodd" d="M468.76,606.47c0-4.49-3.65-8.14-8.14-8.14c-4.49,0-8.14,3.65-8.14,8.14s3.65,8.14,8.14,8.14
				c0.48,0,0.94-0.05,1.4-0.13l3.71,7.06l2.68-1.41l-3.54-6.73C467.21,611.96,468.76,609.4,468.76,606.47z M454.17,606.47
				c0-3.56,2.89-6.46,6.45-6.46c3.56,0,6.45,2.89,6.45,6.46c0,3.56-2.89,6.45-6.45,6.45C457.06,612.92,454.17,610.03,454.17,606.47z
				" clip-rule="evenodd"/></g></g><g><g><g><path fill="#f7f7f8" fill-rule="evenodd" d="M638.73,521.51H529.02c-2.91,0-5.26,2.36-5.26,5.26v76.9c0,2.91,2.36,5.26,5.26,5.26h33.81l10.15,18.2
					l15.87-18.2h49.89c2.91,0,5.26-2.36,5.26-5.26v-76.9C643.99,523.87,641.64,521.51,638.73,521.51z" clip-rule="evenodd"/></g></g><g><g><path fill="#fff" fill-rule="evenodd" d="M550.97,556.54c4.91,0,8.89,3.99,8.89,8.89c0,4.91-3.99,8.89-8.89,8.89c-4.91,0-8.89-3.99-8.89-8.89
					C542.08,560.53,546.06,556.54,550.97,556.54z" clip-rule="evenodd"/></g></g><g><g><path fill="#fff" fill-rule="evenodd" d="M583.87,556.54c4.91,0,8.89,3.99,8.89,8.89c0,4.91-3.99,8.89-8.89,8.89c-4.91,0-8.89-3.99-8.89-8.89
					C574.98,560.53,578.96,556.54,583.87,556.54z" clip-rule="evenodd"/></g></g><g><g><path fill="#fff" fill-rule="evenodd" d="M616.78,556.54c4.91,0,8.89,3.99,8.89,8.89c0,4.91-3.99,8.89-8.89,8.89c-4.91,0-8.89-3.99-8.89-8.89
					C607.89,560.53,611.87,556.54,616.78,556.54z" clip-rule="evenodd"/></g></g></g><g><g><path fill="#ae91dd" d="M559.75,370.11v21.89h-2.56l-13.14-16.33v16.33h-3.13v-21.89h2.56l13.14,16.33v-16.33H559.75z"/></g><g><path fill="#ae91dd" d="M567.47,383.72c0-4.94,3.66-8.45,8.63-8.45s8.6,3.5,8.6,8.45s-3.63,8.48-8.6,8.48
				S567.47,388.66,567.47,383.72z M581.68,383.72c0-3.53-2.38-5.82-5.57-5.82s-5.6,2.28-5.6,5.82c0,3.53,2.41,5.85,5.6,5.85
				S581.68,387.25,581.68,383.72z"/></g><g><path fill="#ae91dd" d="M601.32,391.04c-0.91,0.78-2.28,1.16-3.63,1.16c-3.35,0-5.25-1.85-5.25-5.19v-9.1h-2.82v-2.47h2.82v-3.63
				h3v3.63h4.75v2.47h-4.75v8.98c0,1.78,0.94,2.78,2.6,2.78c0.88,0,1.72-0.28,2.35-0.78L601.32,391.04z"/></g><g><path fill="#ae91dd" d="M528.73,398.37v1.44h4.82v2.47h-4.75v14.11h-3v-14.11h-2.82v-2.47h2.82v-1.47c0-3.22,1.94-5.35,5.47-5.35
				c1.28,0,2.53,0.31,3.38,0.97l-0.91,2.28c-0.63-0.47-1.44-0.78-2.31-0.78C529.64,395.47,528.73,396.47,528.73,398.37z"/></g><g><path fill="#ae91dd" d="M534.86,408.1c0-4.94,3.66-8.45,8.63-8.45c4.97,0,8.6,3.5,8.6,8.45c0,4.94-3.63,8.48-8.6,8.48
				C538.52,416.58,534.86,413.04,534.86,408.1z M549.07,408.1c0-3.53-2.38-5.82-5.57-5.82c-3.19,0-5.6,2.28-5.6,5.82
				c0,3.53,2.41,5.85,5.6,5.85C546.69,413.95,549.07,411.64,549.07,408.1z"/></g><g><path fill="#ae91dd" d="M571.71,399.81v16.58h-2.85v-2.5c-1.22,1.72-3.28,2.69-5.63,2.69c-4.28,0-7.13-2.35-7.13-7.23v-9.54h3v9.2
				c0,3.25,1.63,4.88,4.47,4.88c3.13,0,5.13-1.94,5.13-5.51v-8.57H571.71z"/></g><g><path fill="#ae91dd" d="M593.17,406.85v9.54h-3v-9.2c0-3.25-1.63-4.85-4.47-4.85c-3.19,0-5.25,1.91-5.25,5.51v8.54h-3v-16.58h2.88
				v2.5c1.22-1.69,3.35-2.66,5.97-2.66C590.32,399.66,593.17,401.97,593.17,406.85z"/></g><g><path fill="#ae91dd" d="M614.38,393.18v23.21h-2.88v-2.63c-1.34,1.88-3.47,2.81-5.91,2.81c-4.85,0-8.38-3.41-8.38-8.48
				c0-5.07,3.53-8.45,8.38-8.45c2.35,0,4.41,0.88,5.79,2.66v-9.13H614.38z M611.41,408.1c0-3.53-2.41-5.82-5.57-5.82
				c-3.19,0-5.6,2.28-5.6,5.82c0,3.53,2.41,5.85,5.6,5.85C609,413.95,611.41,411.64,611.41,408.1z"/></g></g><g><g><path fill="#ae91dd" d="M356.73,463.79V420.8h6.06l13.78,21.75c3.19,5.04,5.68,9.57,7.72,13.97l0.13-0.06
				c-0.51-5.74-0.64-10.97-0.64-17.67V420.8H389v42.99h-5.61l-13.65-21.81c-3-4.78-5.87-9.7-8.04-14.35l-0.19,0.06
				c0.32,5.42,0.45,10.59,0.45,17.73v18.37H356.73z"/></g><g><path fill="#ae91dd" d="M441.81,441.85c0,14.8-8.99,22.64-19.97,22.64c-11.35,0-19.33-8.8-19.33-21.81
				c0-13.65,8.48-22.58,19.97-22.58C434.22,420.1,441.81,429.09,441.81,441.85z M408.45,442.55c0,9.19,4.98,17.41,13.71,17.41
				c8.8,0,13.78-8.1,13.78-17.86c0-8.55-4.46-17.48-13.71-17.48C413.05,424.63,408.45,433.11,408.45,442.55z"/></g><g><path fill="#ae91dd" d="M326.75,471.6c3.38-0.51,7.4-0.89,11.8-0.89c7.97,0,13.65,1.85,17.41,5.36c3.83,3.51,6.06,8.48,6.06,15.44
				c0,7.02-2.17,12.76-6.19,16.71c-4.02,4.02-10.65,6.19-19.01,6.19c-3.96,0-7.27-0.19-10.08-0.51V471.6z M332.3,509.62
				c1.4,0.26,3.44,0.32,5.61,0.32c11.86,0,18.31-6.63,18.31-18.24c0.06-10.14-5.68-16.58-17.41-16.58c-2.87,0-5.04,0.26-6.51,0.57
				V509.62z"/></g><g><path fill="#ae91dd" d="M376.18,500.5l-4.47,13.52h-5.74l14.61-42.99h6.7l14.67,42.99h-5.93l-4.59-13.52H376.18z M390.28,496.16
				l-4.21-12.37c-0.96-2.81-1.6-5.36-2.23-7.85h-0.13c-0.64,2.55-1.34,5.17-2.17,7.78l-4.21,12.44H390.28z"/></g><g><path fill="#ae91dd" d="M416.43,475.75h-13.08v-4.72h31.83v4.72h-13.14v38.27h-5.61V475.75z"/></g><g><path fill="#ae91dd" d="M446.92,500.5l-4.47,13.52h-5.74l14.61-42.99h6.7l14.67,42.99h-5.93l-4.59-13.52H446.92z M461.01,496.16
				l-4.21-12.37c-0.96-2.81-1.6-5.36-2.23-7.85h-0.13c-0.64,2.55-1.34,5.17-2.17,7.78l-4.21,12.44H461.01z"/></g></g><g><g><path fill="#fff" d="M319.31,604.44v11.58h-1.36l-6.95-8.64v8.64h-1.66v-11.58h1.36l6.95,8.64v-8.64H319.31z"/></g><g><path fill="#fff" d="M323.4,611.63c0-2.61,1.94-4.47,4.57-4.47s4.55,1.85,4.55,4.47c0,2.61-1.92,4.48-4.55,4.48
				S323.4,614.25,323.4,611.63z M330.91,611.63c0-1.87-1.26-3.08-2.95-3.08c-1.69,0-2.96,1.21-2.96,3.08c0,1.87,1.27,3.09,2.96,3.09
				C329.65,614.73,330.91,613.5,330.91,611.63z"/></g><g><path fill="#fff" d="M347.19,607.17v1.54c-0.13-0.02-0.25-0.02-0.36-0.02c-1.7,0-2.76,1.04-2.76,2.96v4.37h-1.59v-8.77H344
				v1.47C344.56,607.7,345.65,607.17,347.19,607.17z"/></g><g><path fill="#fff" d="M358.61,612.16h-7.12c0.2,1.54,1.44,2.57,3.18,2.57c1.03,0,1.89-0.35,2.53-1.06l0.88,1.03
				c-0.79,0.93-2,1.42-3.46,1.42c-2.83,0-4.72-1.87-4.72-4.48c0-2.6,1.87-4.47,4.4-4.47c2.53,0,4.34,1.82,4.34,4.52
				C358.64,611.82,358.63,612.01,358.61,612.16z M351.49,611.02h5.63c-0.16-1.47-1.27-2.52-2.81-2.52
				C352.78,608.51,351.66,609.53,351.49,611.02z"/></g><g><path fill="#fff" d="M361.39,615.09l0.66-1.26c0.74,0.53,1.94,0.91,3.08,0.91c1.47,0,2.08-0.45,2.08-1.19
				c0-1.97-5.54-0.26-5.54-3.76c0-1.57,1.41-2.63,3.66-2.63c1.14,0,2.43,0.3,3.19,0.79l-0.68,1.26c-0.79-0.51-1.67-0.7-2.53-0.7
				c-1.39,0-2.07,0.51-2.07,1.21c0,2.07,5.56,0.38,5.56,3.79c0,1.59-1.46,2.6-3.79,2.6C363.56,616.12,362.12,615.67,361.39,615.09z"/></g><g><path fill="#fff" d="M380.62,607.25v8.77h-1.51v-1.32c-0.65,0.91-1.74,1.42-2.98,1.42c-2.27,0-3.77-1.24-3.77-3.82v-5.05h1.59
				v4.87c0,1.72,0.86,2.58,2.37,2.58c1.65,0,2.71-1.03,2.71-2.91v-4.53H380.62z"/></g><g><path fill="#fff" d="M385.3,603.74h1.59v12.28h-1.59V603.74z"/></g><g><path fill="#fff" d="M396.71,615.51c-0.48,0.41-1.21,0.61-1.92,0.61c-1.77,0-2.78-0.98-2.78-2.75v-4.82h-1.49v-1.31h1.49v-1.92
				h1.59v1.92h2.52v1.31h-2.52v4.75c0,0.94,0.5,1.47,1.37,1.47c0.46,0,0.91-0.15,1.24-0.41L396.71,615.51z"/></g><g><path fill="#fff" d="M399.18,615.09l0.66-1.26c0.74,0.53,1.94,0.91,3.08,0.91c1.47,0,2.08-0.45,2.08-1.19
				c0-1.97-5.54-0.26-5.54-3.76c0-1.57,1.41-2.63,3.66-2.63c1.14,0,2.43,0.3,3.19,0.79l-0.68,1.26c-0.79-0.51-1.67-0.7-2.53-0.7
				c-1.39,0-2.07,0.51-2.07,1.21c0,2.07,5.56,0.38,5.56,3.79c0,1.59-1.46,2.6-3.79,2.6C401.35,616.12,399.91,615.67,399.18,615.09z"/></g></g></g></svg>