<svg xmlns="http://www.w3.org/2000/svg" viewBox="0 0 4680 3120" style="enable-background:new 0 0 4680 3120" xml:space="preserve"><path style="fill:#e0cfbb" d="M744.56 1101.852C845.33 553.918 1546.4 508.203 2095.475 666.46S3790.537 310.397 4000.26 417.755s-324.571 541.784-259.657 684.096c64.914 142.312-14.98 445.112-858.866 376.103S1828.129 1973.2 1233.913 1888.312c-594.214-84.887-529.3-569.247-489.353-786.46zM3935.813 2532.18c0 192.796-679.711 349.088-1518.177 349.088S630.66 2702.413 630.66 2509.617s948.51-326.525 1786.976-326.525 1518.177 156.292 1518.177 349.088z"/><path style="fill:#c1af9d" d="M1596.702 2342.432c-51.702 120.399-245.155 74.667-253.999 109.693-8.844 35.026 217.763 14.376 271.935 73.341s339.978 64.803 323.648-42.028-69.148-115.989-199.712-102.567-141.872-38.439-141.872-38.439z"/><path style="fill:#cabdad" d="M3152.516 2281.664H1908.602c-58.922 0-340.44-697.492-340.44-794.452 0-96.567 227.357-1209.542 235.607-1248.071.033-.131.049-.278.082-.409 0 0 942.755 18.921 952.576 22.194 9.821 3.273 130.938 320.799 160.399 399.362 29.461 78.563 297.885 1415.639 301.158 1445.984s-65.468 175.392-65.468 175.392z"/><path style="fill:#e7e6eb" d="M3217.985 2106.271 2859.542 660.288l-211.875-248.962-843.815-172.593s942.755 18.921 952.576 22.194c9.821 3.273 130.938 320.799 160.399 399.362 29.462 78.562 297.885 1415.638 301.158 1445.982z"/><path style="fill:#857b7c" d="M2364.53 2281.664h-455.927c-58.922 0-340.44-697.492-340.44-794.452 0-96.567 227.357-1209.542 235.607-1248.071-19.248 97.794 246.23 231.106 250.239 233.12l-225.426-73.849s-57.367 912.689-29.428 1035.754c27.923 123.05 130.268 134.719 107.288 190.188-22.98 55.452 105.094 285.985 184.721 271.468 79.626-14.534 101.591 274.545 174.082 296.952 18.626 5.76 55.191 40.475 99.284 88.89z"/><path style="fill:#e0cfbb" d="M1928.555 548.99s664.512 85.11 726.707 111.297c62.196 26.188 126.628 371.771 126.628 371.771l84.659-25.27s110.892 685.271 175.671 815.892-27.371 392.649-27.371 392.649l-582.182-17.921s-390.31-649.089-407.93-701.928c-17.619-52.836-96.182-946.49-96.182-946.49z"/><path style="fill:#857b7c" d="M3152.516 2281.664h-400.393l329.178-66.337 136.683-109.055c3.275 30.344-65.468 175.392-65.468 175.392z"/><path style="fill:#fc5761" d="M2326.731 2382.549c-7.587 21.496-30.979 63.609 0 54.565s84.086-5.954 82.822 17.79c-1.264 23.744 9.426 49.166 45.176 32.977s2.992-30.35 42.131-29.275c39.139 1.075 70.751-.822 58.739-35.594-12.012-34.772-52.72-57.927-84.525-65.949s-52.668-30.782-76.693-25.092c-24.027 5.689-67.65 50.578-67.65 50.578z"/><path style="fill:#857b7c" d="m2042.415 2332.068-406.662 31.123 96.606-187.767z"/><path style="fill:#6d6967" d="m2059.253 2312.679-16.838 19.389-303.777-149.317-19.124-9.388 9.286-16.308 19.308 9.083z"/><path style="fill:#c26925" d="M1803.814 2489.776c-4.973-.235-11.469-1.814-19.59-5.173-4.027-1.658-8.844-3.215-14.206-4.806-13.071-3.849-29.435-7.854-45.61-13.927-7.865-2.959-15.686-6.396-23.072-10.546-28.123-15.819-49.782-41.917-42.818-90.486 19.345-20.825 32.105-12.526 44.131 2.136 3.671 4.472 7.275 9.534 10.969 14.54 8.588 11.625 17.71 22.96 29.447 25.954 7.731 1.969 13.85 4.983 18.967 8.677 5.829 4.183 10.368 9.233 14.495 14.595h.011c4.717 6.129 8.922 12.67 13.939 18.8 3.426 4.172 7.231 8.166 11.825 11.703 4.005 3.081 7.186 6.308 9.478 9.411 1.19 1.613 2.147 3.204 2.859 4.728.145.312.278.612.401.913 3.27 7.93-.212 13.993-11.226 13.481z"/><path style="fill:#c26925" d="M1798.964 2360.109s-17.332 50.705-30.125 52.875c-1.557.267-3.838 1.38-6.808 3.159-3.293 1.98-7.442 4.783-12.404 8.176-4.383 3.015-9.411 6.498-15.063 10.279-9.389 6.307-20.502 13.461-33.229 20.725a430.657 430.657 0 0 1-14.706 8.043c-20.836 10.902-45.177 21.459-72.721 29.191a336.741 336.741 0 0 1-15.274 3.915c-21.392 4.95-43.808 3.048-64.188-3.927h-.011c-51.562-17.61-90.186-67.625-66.791-121.278 3.015-6.919 7.064-13.895 12.248-20.881 10.234-13.761 24.885-27.521 44.765-40.804 100.565-67.169 186-59.293 235.082-14.685 8.143 7.387 15.285 15.797 21.337 25.041 7.909 12.093 13.95 25.609 17.888 40.171z"/><path style="fill:#865324" d="M1770.019 2479.797c-13.071-3.849-29.435-7.854-45.61-13.927-7.487-15.107-14.529-34.108-14.529-34.108 33.562 10.012 47.101 28.979 51.918 38.012 1.879 3.526 4.983 7.008 8.221 10.023z"/><path style="fill:#865324" d="M1754.482 2464.629c-24.607 12.882-121.973 24.011-155.847 31.843-75.49 17.455-163.641-50.327-130.99-125.206-8.744 55.378 14.028 96.571 58.748 103.646 47.212 7.464 89.852 2.647 100.242-19.234 10.379-21.871 47.231-52.444 79.174-45.004 21.453 4.998 58.073 40.161 48.673 53.955z"/><path style="fill:#c26925" d="M1637.571 2521.502c-48.147 3.471-84.523.323-111.177-6.785-40.159-10.702-58.292-30.392-61.485-49.894-1.491-8.989.2-17.933 4.361-25.941 0 0 6.052 11.403 20.046 25.92 14.006 14.517 42.573 32.227 88.74 28.334 7.776-.656 15.352-3.804 22.839-8.454 5.885-3.66 11.714-8.243 17.521-13.272 30.67-26.531 60.851-65.301 97.027-44.464 9.089 5.24 17.343 11.213 23.929 17.565 9.089 8.766 15.007 18.245 15.596 27.5 1.434 22.17-27.779 43.017-117.397 49.491z"/><path style="fill:#865324" d="M1637.571 2521.502c-48.147 3.471-84.523.323-111.177-6.785v-.012c72.798 13.283 133.615.312 157.711-12.303 24.084-12.593 68.949-16.353 70.863-30.392 1.434 22.171-27.779 43.018-117.397 49.492z"/><path style="fill:#c26925" d="M1827.042 2286.166c-9.604 16.035-50.759 34.219-49.846 25.105.674-6.697 12.005-39.694 23.575-60.307 4.142-7.413 8.326-13.227 12.061-15.614 8.551-5.489 11.949 14.309 13.311 30.78.885 10.727.899 20.036.899 20.036z"/><path style="fill:#865324" d="M1786.094 2301.494c10.467-14.509 17.318-42.358 23.636-39.783 6.318 2.574 11.818 15.512 7.547 19.808-4.271 4.296-31.183 19.975-31.183 19.975z"/><path style="fill:#c26925" d="M1949.468 2333.751c-2.345 2.808-11.654 10.292-23.056 18.24-17.116 11.949-38.936 24.923-49.004 24.698-16.751-.392 16.709-50.056 16.709-50.056 4.943-2.317 12.244-3.272 19.938-3.286 18.606-.028 39.569 5.42 35.413 10.404z"/><path style="fill:#865324" d="M1936.624 2336.873c-16.799 6.155-38.074 25.386-41.866 19.714-3.792-5.672-1.1-19.47 4.845-20.636 5.944-1.166 37.021.922 37.021.922z"/><path style="fill:#c26925" d="M1896.434 2372.52c-12.244 27.549-.197 36.142-10.18 64.659-1.46 4.185-3.412 8.805-5.968 13.971-1.629 3.272-3.609 5.981-5.897 8.172-25.822 24.852-89.682-15.348-98.71-25.022-9.829-10.531-96.533-22.817-93.374-60.729 3.159-37.911 58.425-43.667 89.162-67.398 14.126-10.909 27.549-25.134 52.402-30.202.014 0 .014-.014.028-.014a92.498 92.498 0 0 1 5.237-.9c9.197-1.319 19.882-1.418 32.547.225 51.603 6.672 48.794 65.645 34.753 97.238z"/><path style="fill:#865324" d="M1874.39 2459.323c-25.822 24.852-89.682-15.348-98.71-25.022-9.829-10.531-96.533-22.817-93.374-60.729 3.159-37.911 58.425-43.667 89.162-67.398 14.126-10.909 27.549-25.134 52.402-30.202-41.745 21.609-88.558 72.481-89.962 100.717-1.404 28.237 43.177 23.562 46.856 35.735 3.693 12.16 8.158 36.465 43.135 45.396 24.711 6.305 41.785 4.409 50.491 1.503z"/><path style="fill:#865324" d="M1816.855 2355.004a2.107 2.107 0 0 0-3.369-2.528l-11.405 15.207c-4.846 3.844-10.068 5.737-13.35 4.828-1.796-.5-3.064-1.824-3.876-4.048a2.105 2.105 0 1 0-3.956 1.445c1.612 4.411 4.535 6.056 6.703 6.66 3.638 1.016 8.3-.021 13.033-2.782-.41 4.024-.243 9.507 2.789 13.077 2.003 2.36 4.871 3.549 8.544 3.549.669 0 1.365-.038 2.087-.118a2.106 2.106 0 1 0-.459-4.188c-3.254.356-5.529-.285-6.958-1.965-2.974-3.495-1.886-10.983-1.117-14.025l11.334-15.112z"/><path style="fill:#ff901c" d="M1834.77 2373.338c.314 1.782 1.483 3.235 2.779 4.404a24.279 24.279 0 0 0 4.311 3.063c3.048 1.798 6.309 3.229 9.621 4.499 6.636 2.524 13.465 4.568 20.39 6.184 6.899 1.736 13.905 3.031 20.945 4.057 3.522.505 7.06.898 10.61 1.127 3.549.268 7.113.335 10.676.067-7.086 1.084-14.315.609-21.421-.124-7.117-.81-14.169-2.124-21.14-3.765-6.944-1.743-13.836-3.782-20.462-6.549-3.299-1.407-6.551-2.965-9.581-4.917a24.877 24.877 0 0 1-4.209-3.379c-1.261-1.255-2.36-2.858-2.519-4.667zM1830.562 2390.411c.151.468.228.956.437 1.393.243.422.429.874.715 1.266l.87 1.164.998 1.061a33.615 33.615 0 0 0 4.504 3.69c3.169 2.257 6.555 4.207 10.01 6.01 6.913 3.608 14.078 6.745 21.392 9.471 7.283 2.804 14.72 5.224 22.274 7.182 3.774.986 7.587 1.837 11.44 2.439 3.846.632 7.749 1.009 11.661.735-3.884.593-7.853.354-11.755-.053-3.905-.468-7.771-1.207-11.604-2.072-3.84-.845-7.616-1.944-11.367-3.106-3.748-1.175-7.473-2.424-11.148-3.815-7.317-2.854-14.54-5.991-21.407-9.836-3.422-1.935-6.78-4.005-9.907-6.408a34.189 34.189 0 0 1-4.365-3.986c-1.313-1.435-2.516-3.163-2.748-5.135zM1823.771 2403.235c.706 3.971 1.007 7.997 1.565 11.954.566 3.952 1.289 7.876 2.632 11.588a32.926 32.926 0 0 0 5.776 10.228c2.531 3.04 5.651 5.56 8.983 7.827-1.776-.937-3.585-1.866-5.212-3.086l-1.237-.891c-.39-.326-.76-.675-1.142-1.012-.749-.69-1.554-1.33-2.203-2.124-2.818-2.973-4.91-6.618-6.286-10.469-1.362-3.868-2.062-7.915-2.379-11.942-.169-2.016-.253-4.03-.335-6.039l-.162-6.034zM1793.09 2347.213c-1.803.2-3.592-.559-5.073-1.548a24.79 24.79 0 0 1-4.144-3.459c-2.512-2.583-4.681-5.464-6.711-8.421-4.022-5.948-7.382-12.302-10.462-18.765-2.985-6.51-5.666-13.164-7.866-19.981-2.12-6.82-4.015-13.813-4.351-20.975.441 3.546 1.211 7.028 2.174 10.453.925 3.435 2.011 6.826 3.201 10.178 2.397 6.698 5.049 13.312 8.113 19.732 2.953 6.471 6.305 12.76 10.089 18.768 1.899 2.996 3.947 5.91 6.311 8.543a24.321 24.321 0 0 0 3.854 3.621c1.401 1.038 3.057 1.898 4.865 1.854zM1777.184 2354.708c-1.978.163-3.911-.675-5.579-1.681a34.209 34.209 0 0 1-4.769-3.491c-2.972-2.592-5.665-5.474-8.237-8.447-5.125-5.972-9.628-12.433-13.87-19.042-2.089-3.328-4.05-6.732-5.942-10.174-1.879-3.449-3.704-6.933-5.29-10.531-1.605-3.586-3.092-7.23-4.323-10.966-1.169-3.745-2.188-7.588-2.373-11.513.503 3.889 1.644 7.642 3.023 11.287 1.352 3.658 2.939 7.229 4.651 10.734 3.412 7.018 7.252 13.83 11.44 20.416 4.117 6.631 8.606 13.036 13.508 19.101 2.45 3.031 5.03 5.965 7.869 8.626a33.604 33.604 0 0 0 4.506 3.686l1.237.768 1.313.624c.441.202.919.295 1.382.45.473.118.966.098 1.454.153zM1775.504 2364.446c-2.659.425-5.27 1.034-7.893 1.647-2.629.573-5.272 1.122-7.949 1.53-5.342.806-10.887.95-16.268-.222-5.352-1.237-10.376-3.985-14.217-7.886-3.868-3.891-6.62-8.684-8.61-13.674 1.31 2.353 2.559 4.732 4.169 6.871 1.542 2.172 3.22 4.258 5.192 6.026 3.865 3.605 8.62 6.206 13.779 7.295 5.135 1.237 10.521 1.092 15.817.522 5.316-.521 10.586-1.802 15.98-2.109z"/><path style="fill:#865324" d="M1827.984 2330.631h-.039c-5.375-.147-20.157-6.947-21.602-21.391a1.404 1.404 0 1 1 2.794-.279c1.286 12.863 14.775 18.751 18.884 18.862a1.403 1.403 0 0 1-.037 2.808zM1873.441 2355.11a.518.518 0 0 1-.037.011c-5.185 1.423-21.306-.782-26.891-14.181a1.403 1.403 0 0 1 .756-1.836 1.399 1.399 0 0 1 1.836.756c4.973 11.933 19.591 13.642 23.555 12.552a1.405 1.405 0 0 1 .781 2.698zM1859.731 2257.223c1.69.947 3.152 1.798 4.383 2.55.592.362 1.389 1.02 2.39 1.975.964.91 1.788 1.575 2.475 1.995 1.325.81 1.597 1.854.816 3.132-.448.733-1.095 1.221-1.939 1.465-.845.243-1.665.123-2.46-.363-.764-.467-1.585-1.12-2.465-1.957-.896-.847-1.726-1.504-2.49-1.97a63.029 63.029 0 0 0-10.688-5.216 6.03 6.03 0 0 1-.969-.464c-1.294-.791-1.617-1.716-.969-2.776.591-.967 1.648-1.541 3.173-1.723 6.995-.864 15.817-3.352 26.467-7.464-2.144-1.117-3.683-1.961-4.619-2.533-1.201-.734-2.761-1.806-4.683-3.216-1.922-1.41-2.92-2.396-2.995-2.955a2.319 2.319 0 0 1 .33-1.564c.467-.764 1.138-1.284 2.015-1.563.877-.278 1.689-.189 2.438.268.873.533 1.941 1.326 3.205 2.377 1.444 1.14 2.541 1.938 3.289 2.396 1.06.648 2.698 1.542 4.913 2.682 2.568 1.334 4.234 2.234 4.998 2.701 1.169.715 1.492 1.501.968 2.358-.81 1.325-2.514 2.308-5.109 2.947-2.798.689-6.445 1.768-10.941 3.239-6.031 2.052-9.875 3.279-11.533 3.679zM1842.05 2219.344c.852-1.74 1.619-3.247 2.302-4.519.328-.612.941-1.444 1.838-2.497.855-1.013 1.473-1.874 1.854-2.582.735-1.368 1.762-1.698 3.081-.99.757.407 1.281 1.025 1.571 1.854.29.83.216 1.656-.225 2.477-.424.789-1.03 1.646-1.817 2.571-.796.941-1.405 1.807-1.828 2.596a63.012 63.012 0 0 0-4.611 10.962c-.126.389-.262.72-.409.994-.718 1.336-1.623 1.71-2.718 1.122-.998-.536-1.63-1.56-1.897-3.072-1.253-6.935-4.229-15.605-8.929-26.009-.996 2.203-1.753 3.787-2.271 4.753-.666 1.24-1.649 2.858-2.95 4.855-1.301 1.998-2.229 3.049-2.784 3.156a2.317 2.317 0 0 1-1.58-.242c-.789-.424-1.346-1.065-1.672-1.925s-.283-1.676.132-2.449c.484-.901 1.216-2.012 2.194-3.332 1.057-1.506 1.794-2.646 2.208-3.418.588-1.094 1.389-2.78 2.403-5.055 1.188-2.638 1.994-4.352 2.418-5.141.648-1.207 1.415-1.573 2.301-1.098 1.368.735 2.445 2.381 3.228 4.937.844 2.755 2.125 6.336 3.844 10.743 2.386 5.907 3.825 9.676 4.317 11.309zM1837.434 2174.235c1.887.443 3.526.855 4.918 1.238.669.184 1.617.596 2.844 1.236 1.178.608 2.155 1.019 2.93 1.232 1.497.412 2.048 1.34 1.651 2.783-.228.829-.714 1.477-1.458 1.944-.745.468-1.566.579-2.464.332-.864-.237-1.833-.637-2.911-1.199-1.095-.566-2.074-.967-2.938-1.205a63.074 63.074 0 0 0-11.714-2.055 6.095 6.095 0 0 1-1.06-.177c-1.462-.402-2.029-1.202-1.699-2.4.3-1.092 1.158-1.937 2.572-2.533 6.482-2.766 14.272-7.598 23.368-14.496-2.369-.481-4.082-.866-5.139-1.156-1.357-.373-3.153-.971-5.39-1.794-2.237-.823-3.469-1.494-3.696-2.011a2.326 2.326 0 0 1-.116-1.595c.237-.863.739-1.549 1.504-2.059.765-.51 1.571-.649 2.417-.417.986.271 2.232.737 3.737 1.397 1.703.696 2.978 1.16 3.824 1.392 1.198.329 3.019.735 5.464 1.218 2.836.571 4.687.975 5.55 1.212 1.321.363 1.849 1.03 1.582 1.999-.412 1.497-1.777 2.913-4.094 4.246-2.498 1.437-5.704 3.482-9.617 6.14-5.228 3.643-8.583 5.885-10.065 6.728z"/><path style="fill:#b2b1ac" d="m1728.8 2157.055-204.239 375.125h-478.279l204.219-375.125z"/><path style="fill:#6d6967" d="m1748.108 2166.568-9.47 17.398-189.585 348.214h-24.492l194.953-358.046 9.286-17.079z"/><path style="fill:#a09993" d="m2194.582 2360.817 54.851-11.991s12.501 15.052 12.501 16.073 2.296 26.532 2.296 26.532l-52.3 11.48-2.551 23.981-40.309-29.594 25.512-36.481z"/><path style="fill:#c1c1c1" d="m2169.07 2397.3-2.551 44.391 43.37 2.806-.51-17.603zM2264.22 2391.422l-4.837 24.246-26.798 9.695-20.655-22.451z"/><path style="fill:#6d6967" d="m2232.585 2425.363-22.696 19.124-.51-17.593 2.551-23.982z"/><path style="fill:#a09993" d="m3599.926 2485.806 54.851-11.991s12.501 15.052 12.501 16.073 2.296 26.533 2.296 26.533l-52.3 11.48-2.551 23.981-40.309-29.594 25.512-36.482z"/><path style="fill:#6d6967" d="m3574.414 2522.288-2.551 44.391 43.37 2.806-.51-17.603zM3669.564 2516.41l-4.837 24.246-26.798 9.695-20.655-22.451z"/><path style="fill:#c1c1c1" d="m3637.929 2550.351-22.696 19.124-.51-17.593 2.551-23.982z"/><path style="fill:#8c5854" d="m2400.362 2317.388 40.139-22.064s41.159 33.336 39.118 38.778c-2.041 5.442-18.369 24.491-21.09 25.852-2.721 1.361-59.868-29.346-58.167-42.566z"/><path style="fill:#6d413f" d="M2450.72 2348.37s-29.582-36.347-34.049-30.304c-4.467 6.042-133.537 174.862-135.224 182.468-1.687 7.606 37.119 36.229 48.131 43.298 11.013 7.069 123.622-185.969 121.142-195.462z"/><path style="fill:#665c5e" d="M2509.398 1376.49c-13.455.454-26.919-5.365-35.748-16.855-6.361-8.277-14.497-15.228-24.182-20.657-20.811-11.669-28.223-37.998-16.555-58.811 11.669-20.812 38-28.222 58.811-16.555 19.941 11.181 36.911 25.774 50.437 43.375 14.538 18.918 10.988 46.041-7.931 60.579a43.015 43.015 0 0 1-24.832 8.924zM2233.132 1383.544a43.008 43.008 0 0 1-26.055-8.769c-19.018-14.408-22.756-41.506-8.348-60.523 14.875-19.634 34.504-35.846 58.343-48.185 21.19-10.969 47.257-2.684 58.225 18.507 10.968 21.188 2.682 47.257-18.507 58.225-12.15 6.29-22.243 14.46-29.189 23.628-8.497 11.214-21.407 17.117-34.469 17.117zM2665.855 1238.328c-13.461 0-26.723-6.271-35.158-18.049-32.085-44.797-79.989-78.452-138.532-97.331-22.707-7.323-35.18-31.668-27.857-54.376 7.321-22.708 31.662-35.177 54.376-27.857 76.29 24.602 139.313 69.297 182.256 129.253 13.894 19.397 9.431 46.385-9.966 60.277a42.994 42.994 0 0 1-25.119 8.083zM2077.621 1238.328a43.013 43.013 0 0 1-26.055-8.768c-19.018-14.408-22.756-41.504-8.348-60.523 38.863-51.298 95.517-92.257 163.837-118.451 22.273-8.54 47.262 2.593 55.804 24.872 8.541 22.278-2.594 47.262-24.873 55.804-53.248 20.415-96.782 51.519-125.897 89.951-8.496 11.213-21.406 17.115-34.468 17.115zM2820.427 1105.695c-13.462 0-26.723-6.27-35.16-18.049-77.078-107.618-190.009-151.861-271.172-170.024-23.284-5.211-37.935-28.31-32.725-51.593 5.208-23.283 28.294-37.935 51.593-32.725 65.473 14.652 125.72 38.674 179.071 71.396 57.375 35.192 105.649 79.817 143.479 132.635 13.892 19.397 9.43 46.385-9.968 60.278a43.01 43.01 0 0 1-25.118 8.082zM1923.049 1105.695a43.008 43.008 0 0 1-26.055-8.769c-19.018-14.408-22.756-41.504-8.348-60.523 33.58-44.324 76.226-83.375 126.754-116.068 47.842-30.956 101.701-55.568 160.081-73.151 22.849-6.885 46.944 6.06 53.825 28.906s-6.06 46.944-28.906 53.825c-102.502 30.874-188.76 87.222-242.883 158.664-8.496 11.213-21.406 17.116-34.468 17.116z"/><circle style="fill:#665c5e" cx="2371.736" cy="1478.907" r="41.808"/><path style="fill:#665c5e" d="M2273.441 808.588c-5.278-54.54 135.179-57.137 150.508-15.33 15.33 41.808-25.085 599.245-33.446 600.639-8.362 1.394-34.189 20.904-40.089-25.085-5.899-45.988-72.792-517.022-76.973-560.224z"/><path style="fill:#857b7c" d="M2509.398 1359.84c-13.455.454-26.919-5.365-35.748-16.855-6.361-8.277-14.497-15.228-24.182-20.657-20.811-11.669-28.223-37.998-16.555-58.811 11.669-20.812 38-28.222 58.811-16.555 19.941 11.181 36.911 25.774 50.437 43.375 14.538 18.918 10.988 46.041-7.931 60.579a43.015 43.015 0 0 1-24.832 8.924zM2233.132 1366.894a43.008 43.008 0 0 1-26.055-8.769c-19.018-14.408-22.756-41.506-8.348-60.523 14.875-19.634 34.504-35.846 58.343-48.185 21.19-10.969 47.257-2.684 58.225 18.507 10.968 21.188 2.682 47.257-18.507 58.225-12.15 6.29-22.243 14.46-29.189 23.628-8.497 11.214-21.407 17.117-34.469 17.117zM2665.855 1221.678c-13.461 0-26.723-6.271-35.158-18.049-32.085-44.797-79.989-78.452-138.532-97.331-22.707-7.323-35.18-31.667-27.857-54.376 7.321-22.708 31.662-35.177 54.376-27.857 76.29 24.602 139.313 69.297 182.256 129.253 13.894 19.397 9.431 46.385-9.966 60.277a42.994 42.994 0 0 1-25.119 8.083zM2077.621 1221.678a43.013 43.013 0 0 1-26.055-8.768c-19.018-14.408-22.756-41.504-8.348-60.523 38.863-51.298 95.517-92.258 163.837-118.451 22.273-8.54 47.262 2.593 55.804 24.872 8.541 22.278-2.594 47.262-24.873 55.804-53.248 20.415-96.782 51.519-125.897 89.951-8.496 11.213-21.406 17.115-34.468 17.115zM2820.427 1089.045c-13.462 0-26.723-6.27-35.16-18.049-77.078-107.618-190.009-151.861-271.172-170.024-23.284-5.211-37.935-28.31-32.725-51.593 5.208-23.283 28.294-37.935 51.593-32.725 65.473 14.652 125.72 38.674 179.071 71.396 57.375 35.192 105.649 79.817 143.479 132.635 13.892 19.397 9.43 46.385-9.968 60.278a43.004 43.004 0 0 1-25.118 8.082zM1923.049 1089.045a43.008 43.008 0 0 1-26.055-8.769c-19.018-14.408-22.756-41.504-8.348-60.523 33.58-44.324 76.226-83.375 126.754-116.068 47.842-30.956 101.701-55.568 160.081-73.151 22.849-6.885 46.944 6.06 53.825 28.906s-6.06 46.944-28.906 53.825c-102.502 30.874-188.76 87.222-242.883 158.664-8.496 11.213-21.406 17.116-34.468 17.116z"/><circle style="fill:#857b7c" cx="2371.736" cy="1462.257" r="41.808"/><path style="fill:#857b7c" d="M2273.441 791.938c-5.278-54.54 135.179-57.137 150.508-15.33 15.33 41.808-25.085 599.245-33.446 600.639-8.362 1.394-34.189 20.904-40.089-25.085-5.899-45.987-72.792-517.022-76.973-560.224z"/><path style="fill:#fc5761" d="M2441.521 1756.509c-159.876 55.106 9.524 222.465-65.991 268.727-75.516 46.262-81.639-71.434-81.639-71.434s-84.36 130.622-12.246 221.785c72.114 91.163 161.346 92.524 162.992 119.737 0 0 154.038-57.147 149.956-187.769-4.081-130.622-159.195-190.49-153.072-351.046z"/><path style="fill:#ffd254" d="M2421.877 2236.901c-46.687-12.501-88.017-76.281-36.482-132.918 51.534-56.637 37.758-127.56 57.657-154.603 0 0-6.633 50.004 18.369 67.352 25.002 17.348 44.391 23.981 32.655 69.393 0 0 28.573-3.062 23.471-59.188 0 0 47.452 117.355-62.76 203.076 0 0 29.083-52.044 10.715-103.069s-16.328-54.596-16.328-54.596-37.248 37.758-43.881 74.495c-6.632 36.738-5.101 65.311 16.584 90.058z"/><path style="fill:#fc5761" d="M2574.184 1767.224c-18.369 25.002-43.881 32.655-26.022 69.903 17.858 37.248 28.634 73.475 9.98 90.313 0 0 71.659-41.33 40.024-80.108-31.636-38.779-23.982-80.108-23.982-80.108zM2331.309 1735.078c-32.655 40.309-60.719 74.495-48.983 108.681s14.287 57.147 13.266 58.678 36.227-31.125 24.491-61.739c-11.735-30.614 11.226-105.62 11.226-105.62z"/><path style="fill:#857b7c" d="M3384.424 1978.974a2.53 2.53 0 0 1-.633-4.978 334.818 334.818 0 0 0 16.883-4.854 2.524 2.524 0 0 1 3.174 1.648 2.526 2.526 0 0 1-1.648 3.174 336.95 336.95 0 0 1-17.14 4.929 2.482 2.482 0 0 1-.636.081zm33.726-10.709a2.531 2.531 0 0 1-.902-4.893 282.314 282.314 0 0 0 16.189-6.744 2.521 2.521 0 0 1 3.35 1.255 2.531 2.531 0 0 1-1.255 3.35 286.744 286.744 0 0 1-16.48 6.868 2.554 2.554 0 0 1-.902.164zm32.197-14.66a2.528 2.528 0 0 1-1.201-4.758 239.98 239.98 0 0 0 15.109-8.852 2.53 2.53 0 1 1 2.717 4.269 247.22 247.22 0 0 1-15.43 9.039c-.38.206-.79.302-1.195.302zm29.818-19.022a2.529 2.529 0 0 1-1.524-4.551 206.962 206.962 0 0 0 13.506-11.097 2.53 2.53 0 1 1 3.374 3.77 211.956 211.956 0 0 1-13.837 11.369c-.454.343-.99.509-1.519.509zm26.308-23.623a2.531 2.531 0 0 1-1.853-4.254c3.99-4.286 7.779-8.77 11.262-13.328a2.538 2.538 0 0 1 3.548-.474 2.534 2.534 0 0 1 .474 3.548 187.436 187.436 0 0 1-11.579 13.703 2.527 2.527 0 0 1-1.852.805zm-65.346-23.802c-.054 0-.109-.003-.163-.005a130.163 130.163 0 0 1-17.886-2.372 2.528 2.528 0 0 1-1.969-2.987 2.52 2.52 0 0 1 2.987-1.969 125.314 125.314 0 0 0 17.189 2.278 2.53 2.53 0 0 1-.158 5.055zm17.691-.022a2.53 2.53 0 0 1-.158-5.054 151.084 151.084 0 0 0 17.276-2.125 2.533 2.533 0 0 1 2.94 2.041 2.532 2.532 0 0 1-2.04 2.94 156.537 156.537 0 0 1-17.854 2.194c-.055.001-.109.004-.164.004zm69.096-4.277a2.529 2.529 0 0 1-2.154-3.851 161.9 161.9 0 0 0 7.09-12.832c-1.68.763-3.36 1.512-5.037 2.241a2.529 2.529 0 1 1-2.016-4.64 331.836 331.836 0 0 0 15.917-7.438 2.53 2.53 0 1 1 2.263 4.525 350.152 350.152 0 0 1-5.435 2.656 2.53 2.53 0 0 1 .086 2.33 166.42 166.42 0 0 1-8.555 15.801 2.531 2.531 0 0 1-2.159 1.208zm-34.307-1.966a2.53 2.53 0 0 1-.709-4.958 179.304 179.304 0 0 0 5.838-1.816 320.535 320.535 0 0 0 10.771-3.775c1.312-.489 2.764.183 3.251 1.492s-.183 2.767-1.492 3.251a319.737 319.737 0 0 1-10.944 3.834c-2.013.665-4.014 1.29-6.005 1.87-.238.07-.475.102-.71.102zm-87.031-.894c-.292 0-.588-.049-.877-.156a108.945 108.945 0 0 1-16.414-7.651 2.529 2.529 0 1 1 2.52-4.388 103.62 103.62 0 0 0 15.648 7.29 2.532 2.532 0 0 1-.877 4.905zm-30.495-17.632c-.583 0-1.168-.2-1.645-.608-4.711-4.029-8.931-8.469-12.542-13.194a2.534 2.534 0 0 1 .474-3.548 2.542 2.542 0 0 1 3.547.474c3.395 4.444 7.367 8.624 11.811 12.424a2.53 2.53 0 0 1-1.645 4.452zm182.397-9.558a2.528 2.528 0 0 1-2.204-1.285 2.525 2.525 0 0 1 .956-3.446 364.312 364.312 0 0 0 15.087-9.039 2.535 2.535 0 0 1 3.491.788 2.532 2.532 0 0 1-.788 3.491 368.95 368.95 0 0 1-15.299 9.163 2.522 2.522 0 0 1-1.243.328zm-15.509-1.914a2.531 2.531 0 0 1-2.396-3.34 142.065 142.065 0 0 0 4.553-16.774 2.53 2.53 0 1 1 4.956 1.018 147.322 147.322 0 0 1-4.716 17.377 2.533 2.533 0 0 1-2.397 1.719zm-188.054-16.538a2.531 2.531 0 0 1-2.322-1.519c-2.485-5.712-4.17-11.643-5.008-17.631a2.53 2.53 0 0 1 2.154-2.856c1.381-.213 2.663.771 2.856 2.154.773 5.534 2.334 11.023 4.637 16.312a2.531 2.531 0 0 1-2.317 3.54zm233.492-.476a2.528 2.528 0 0 1-1.455-4.6 390.962 390.962 0 0 0 14.175-10.435 2.533 2.533 0 0 1 3.548.459 2.532 2.532 0 0 1-.459 3.548 393.929 393.929 0 0 1-14.358 10.568c-.443.311-.95.46-1.451.46zm-38.368-17.59a2.526 2.526 0 0 1-2.525-2.71c.208-2.927.314-5.889.316-8.805 0-2.863-.101-5.731-.304-8.525a2.527 2.527 0 0 1 2.34-2.705c1.369-.079 2.606.946 2.705 2.339.212 2.915.319 5.907.319 8.894a130.686 130.686 0 0 1-.331 9.163 2.528 2.528 0 0 1-2.52 2.349zm66.417-4.039a2.53 2.53 0 0 1-1.633-4.464 426.203 426.203 0 0 0 13.222-11.638 2.526 2.526 0 0 1 3.572.156 2.529 2.529 0 0 1-.153 3.575 429.12 429.12 0 0 1-13.38 11.777 2.519 2.519 0 0 1-1.628.594zm-266.285-12.505a2.534 2.534 0 0 1-2.505-2.903c.889-5.961 2.629-11.875 5.166-17.582a2.538 2.538 0 0 1 3.34-1.285 2.534 2.534 0 0 1 1.285 3.34c-2.354 5.289-3.965 10.764-4.785 16.273a2.533 2.533 0 0 1-2.501 2.157zm292.39-11.448a2.529 2.529 0 0 1-1.784-4.323 444.166 444.166 0 0 0 12.234-12.676 2.524 2.524 0 0 1 3.575-.136 2.531 2.531 0 0 1 .136 3.575 446.332 446.332 0 0 1-12.377 12.824 2.519 2.519 0 0 1-1.784.736zm-95.165-7.189a2.533 2.533 0 0 1-2.461-1.949c-1.344-5.707-3.162-11.213-5.403-16.364a2.529 2.529 0 1 1 4.64-2.016c2.359 5.425 4.274 11.218 5.689 17.219a2.532 2.532 0 0 1-2.465 3.11zm-183.208-13.457a2.53 2.53 0 0 1-2.014-4.059c3.513-4.627 7.651-9.113 12.303-13.333a2.53 2.53 0 0 1 3.399 3.745c-4.42 4.012-8.348 8.268-11.67 12.646a2.53 2.53 0 0 1-2.018 1.001zm302.48-5.331a2.53 2.53 0 0 1-1.92-4.177 446.112 446.112 0 0 0 11.211-13.6 2.527 2.527 0 0 1 3.552-.415 2.527 2.527 0 0 1 .415 3.552 452.205 452.205 0 0 1-11.339 13.758 2.52 2.52 0 0 1-1.919.882zm-133.438-13.424a2.524 2.524 0 0 1-2.07-1.072c-3.34-4.738-7.157-9.039-11.342-12.777a2.53 2.53 0 0 1 3.369-3.775c4.474 3.997 8.548 8.585 12.108 13.637a2.53 2.53 0 0 1-2.065 3.987zm-143.1-5.104a2.528 2.528 0 0 1-1.416-4.627c4.778-3.219 9.986-6.297 15.482-9.151a2.535 2.535 0 0 1 3.412 1.08 2.532 2.532 0 0 1-1.08 3.412c-5.326 2.764-10.368 5.744-14.988 8.854a2.492 2.492 0 0 1-1.41.432zm298.529-9.272a2.528 2.528 0 0 1-2.043-4.017 363.85 363.85 0 0 0 10.02-14.491 2.535 2.535 0 0 1 3.503-.731 2.532 2.532 0 0 1 .731 3.503 367.078 367.078 0 0 1-10.163 14.694 2.519 2.519 0 0 1-2.048 1.042zm-267.226-7.134a2.53 2.53 0 0 1-.956-4.872 224.027 224.027 0 0 1 6.885-2.68 148.443 148.443 0 0 1 10.04-3.33c1.356-.4 2.747.38 3.137 1.719a2.53 2.53 0 0 1-1.719 3.137c-3.187.929-6.45 2.011-9.699 3.216-2.3.852-4.543 1.727-6.732 2.621-.313.13-.637.189-.956.189zm85.581-1.794c-.4 0-.805-.094-1.181-.294a72.292 72.292 0 0 0-15.917-6.124 2.53 2.53 0 0 1 1.25-4.902c5.973 1.527 11.705 3.73 17.034 6.554a2.529 2.529 0 0 1-1.186 4.766zm-51.62-7.893a2.53 2.53 0 0 1-.349-5.035c6.174-.865 12.293-1.193 18.106-.966a2.528 2.528 0 0 1 2.431 2.624c-.054 1.396-1.257 2.49-2.624 2.431-5.521-.205-11.334.096-17.211.921a2.347 2.347 0 0 1-.353.025z"/><path style="fill:#b1736b" d="M2426.554 2347.708s46.262-7.483 45.582 0c-.68 7.484-23.702 198.654-27.499 205.457-3.796 6.803-44.616 23.131-57.542 21.09-12.926-2.041 31.295-221.104 39.459-226.547z"/><path style="fill:#8c5854" d="M2679.338 2429.331s11.446 29.597 9.505 42.988c-1.94 13.391-37.13 15.563-37.13 15.563l27.625-58.551z"/><path style="fill:#6d413f" d="M2464.367 2354.533s13.21-44.963 19.668-41.12 190.804 109.557 195.303 115.918-20.206 47.771-27.625 58.551c-7.418 10.78-185.959-123.636-187.346-133.349zM2201.166 2423.284s-11.446 29.597-9.506 42.988c1.941 13.391 37.13 15.563 37.13 15.563l-27.624-58.551z"/><path style="fill:#b1736b" d="M2416.137 2348.487s-13.21-44.963-19.668-41.12c-6.458 3.843-190.804 109.557-195.303 115.918-4.499 6.36 20.206 47.771 27.624 58.551 7.419 10.779 185.96-123.636 187.347-133.349z"/><path style="fill:#8c5854" d="M2462.646 2368.422s36.141-29.833 39.335-23.031c3.194 6.802 92.531 165.289 92.692 173.078.161 7.789-26.814 42.504-39 47.274-12.186 4.77-97.322-188.5-93.027-197.321z"/><path style="fill:#a09993" d="m2489.386 2529.486 68.776-15.035s15.675 18.873 15.675 20.153 2.879 33.269 2.879 33.269l-65.577 14.395-3.199 30.07-50.542-37.107 31.988-45.745z"/><path style="fill:#6d6967" d="m2457.398 2575.23-3.199 55.661 54.381 3.518-.64-22.072zM2576.704 2567.86l-6.066 30.402-33.6 12.156-25.899-28.15z"/><path style="fill:#c1c1c1" d="m2537.038 2610.418-28.458 23.979-.64-22.06 3.199-30.069z"/><path style="fill:#6d6967" d="m2330.636 2524.914-9.178 48.034-44.519 25.701v-43.141z"/><path style="fill:#a09993" d="m2330.636 2524.914-53.697 30.594-50.484-2.295-35.34-49.567 23.407-34.88 83.529 4.589z"/><path style="fill:#6d6967" d="m2191.115 2503.646 35.34 49.567-8.72 49.108-26.62-15.605z"/><path style="fill:#c1c1c1" d="M2276.939 2555.508v43.141l-59.204 3.672 8.72-49.108z"/><path style="fill:#6d6967" d="m2655.026 2513.799-28.146-1.726-17.965-23.577 24.674-3.164z"/><path style="fill:#a09993" d="m2655.026 2513.799-21.437-28.467-2.391-29.043 25.757-23.848 21.666 10.828 3.503 48.111z"/><path style="fill:#6d6967" d="m2656.955 2432.441-25.757 23.848-28.727-1.385 6.973-16.369z"/><path style="fill:#c1c1c1" d="m2633.589 2485.332-24.674 3.164-6.444-33.592 28.727 1.385z"/><path style="fill:#fff" d="M1403.103 2334.619c0 8.612 3.184 16.573 8.552 22.961-6.858 4.184-15.186 6.633-24.125 6.633-23.655 0-42.86-17.124-42.86-38.268 0-21.144 19.206-38.268 42.86-38.268 14.022 0 26.472 6 34.309 15.307-11.307 6.879-18.736 18.492-18.736 31.635z"/><path style="fill:#6d6967" d="m1512.234 2580.723-6.797 8.797-7.49 9.695-7.634-12.695 15.124-5.796s-21.083-10.205-16.328-13.613c4.674-3.347 19.919-31.758 20.39-32.635l.02-.02 2.715 46.267z"/><path style="fill:#c1c1c1" d="m1372.101 2556.232-1.367 31.962s-8.838 8.857-19.736 10.898c-10.879 2.041-30.615-21.777-30.615-21.777v-57.821l.02.021c.449 1.224 15.124 40.146 25.839 42.839 10.878 2.716 25.859-6.122 25.859-6.122z"/><path style="fill:#6d6967" d="m1447.616 2631.748-76.883-43.554 1.367-31.962s23.798-2.041 42.167 16.328c18.369 18.368 32.655 30.614 32.655 30.614l.694 28.574z"/><path style="fill:#c1c1c1" d="M1505.437 2580.723v36.738l-57.821 14.287-.693-28.574 43.39-16.654z"/><path style="fill:#a09993" d="m1505.437 2580.723-15.124 5.796-43.39 16.655s-14.287-12.246-32.655-30.614c-18.369-18.369-42.167-16.328-42.167-16.328s-14.98 8.838-25.859 6.123c-10.715-2.694-25.39-41.615-25.839-42.839l-.02-.021s38.778-14.98 72.801-19.062c34.023-4.082 116.335 34.023 116.335 34.023l-.02.02c-.47.878-15.716 29.288-20.39 32.635-4.755 3.408 16.328 13.612 16.328 13.612z"/><path style="fill:#c1c1c1" d="m1548.961 2591.695 2.172 2.811 2.394 3.098 2.44-4.057-4.833-1.852s6.738-3.261 5.218-4.351c-1.494-1.07-6.366-10.149-6.516-10.43l-.006-.007-.869 14.788z"/><path style="fill:#6d6967" d="m1593.745 2583.867.437 10.214s2.824 2.831 6.307 3.483c3.476.652 9.784-6.959 9.784-6.959v-18.479l-.006.007c-.144.391-4.833 12.83-8.258 13.691-3.477.868-8.264-1.957-8.264-1.957z"/><path style="fill:#c1c1c1" d="m1569.611 2608.001 24.57-13.919-.437-10.214s-7.605-.652-13.476 5.218c-5.87 5.87-10.436 9.784-10.436 9.784l-.221 9.131z"/><path style="fill:#6d6967" d="M1551.133 2591.695v11.74l18.478 4.566.222-9.132-13.867-5.322z"/><path style="fill:#a09993" d="m1551.133 2591.695 4.833 1.852 13.867 5.323s4.566-3.914 10.436-9.784c5.87-5.87 13.476-5.218 13.476-5.218s4.788 2.824 8.264 1.957c3.424-.861 8.114-13.3 8.258-13.691l.006-.007s-12.393-4.787-23.266-6.092c-10.873-1.304-37.179 10.873-37.179 10.873l.006.007c.15.281 5.022 9.36 6.516 10.43 1.521 1.088-5.217 4.35-5.217 4.35z"/><path style="fill:#857b7c" d="M2626.261 2797.619h118.054s54.145-145.57 94.976-177.525c0 0-94.088 33.73-127.818 126.043l-72.785-151.784 19.528 140.245s-71.898-29.292-74.561-29.292 43.494 20.416 42.606 92.313zM2673.571 2288.007h73.447s33.686-90.566 59.089-110.447c0 0-58.537 20.985-79.521 78.417l-45.283-94.432 12.149 87.253s-44.731-18.224-46.388-18.224 27.059 12.703 26.507 57.433zM1786.162 2577.72c-1.924 1.412-3.919 3.231-6.002 5.438.018.018.018.018 0 .018-23.338 25.138-53.578 100.13-56.649 167.318h-131.464c-6.144-39.367-14.123-83.942-16.594-97.641 7.167 32.888 43.233 62.193 43.233 62.193 11.863-37.955 11.722-73.261 8.332-99.794-3.636-28.51-11.033-46.922-11.333-47.682 9.533 9.321 17.848 20.937 24.785 32.535 15.57 25.968 24.238 51.865 24.238 51.865 6.196-27.698 4.749-58.079 1.306-83.041-4.184-30.223-11.298-52.519-11.298-52.519 12.993 8.208 22.384 20.849 29.181 35.43 4.219 9.056 7.432 18.854 9.868 28.792v.018a157.61 157.61 0 0 1 1.271 5.578c8.774 40.708 5.243 81.77 5.243 81.77 27.204-65.441 67.789-84.313 81.329-88.955 2.665-.917 4.289-1.27 4.554-1.323zM1120.461 2195.708c-1.924 1.412-3.919 3.231-6.002 5.437.018.018.018.018 0 .018-23.338 25.138-53.578 100.129-56.649 167.318H926.345c-6.144-39.367-14.123-83.942-16.594-97.641 7.167 32.888 43.233 62.193 43.233 62.193 11.863-37.955 11.722-73.261 8.332-99.794-3.636-28.51-11.033-46.922-11.333-47.681 9.533 9.321 17.848 20.937 24.785 32.535 15.57 25.968 24.238 51.865 24.238 51.865 6.196-27.698 4.749-58.079 1.306-83.042-4.184-30.222-11.298-52.519-11.298-52.519 12.993 8.209 22.384 20.849 29.181 35.43 4.219 9.056 7.432 18.854 9.868 28.792v.018a157.61 157.61 0 0 1 1.271 5.578c8.774 40.708 5.243 81.77 5.243 81.77 27.204-65.441 67.789-84.313 81.329-88.955 2.666-.917 4.29-1.27 4.555-1.322z"/><circle transform="rotate(-67.5 2761.755 1395.354)" style="fill:#857b7c" cx="2761.805" cy="1395.392" r="13.242"/><path style="fill:#857b7c" d="M2759.9 1404.695a508.122 508.122 0 0 0 1.075 39.916c.136 2.058 3.359 2.073 3.221 0a507.625 507.625 0 0 1-1.075-39.916c.026-2.073-3.195-2.074-3.221 0z"/><path style="fill:#857b7c" d="m2761.633 1420.466-23.958-10.745c-1.876-.841-3.516 1.934-1.626 2.781l23.958 10.745c1.876.842 3.516-1.933 1.626-2.781z"/><path style="fill:#857b7c" d="M2763.527 1424.299c9.306-5.534 18.487-11.593 28.817-15.05 1.956-.654 1.117-3.766-.856-3.106-10.609 3.55-20.03 9.691-29.587 15.374-1.78 1.059-.162 3.845 1.626 2.782zM2759.823 1444.272c-8.438 11.099-22.025 17.157-28.784 29.683-.984 1.824 1.795 3.453 2.781 1.626 6.703-12.422 20.376-18.623 28.785-29.683 1.254-1.65-1.542-3.257-2.782-1.626z"/><path style="fill:#857b7c" d="M2761.302 1446.181a615.377 615.377 0 0 0 14.025 33.907c.847 1.888 3.624.252 2.781-1.626a602.087 602.087 0 0 1-13.701-33.137c-.726-1.92-3.841-1.087-3.105.856z"/><circle transform="rotate(-76.714 2690.567 1395.417)" style="fill:#857b7c" cx="2690.333" cy="1395.392" r="13.242"/><path style="fill:#857b7c" d="M2689.016 1404.695a508.122 508.122 0 0 1-1.075 39.916c-.137 2.069 3.084 2.061 3.221 0a507.625 507.625 0 0 0 1.075-39.916c-.026-2.071-3.247-2.076-3.221 0z"/><path style="fill:#857b7c" d="m2692.13 1423.248 23.958-10.745c1.888-.847.252-3.624-1.626-2.781l-23.958 10.745c-1.888.846-.252 3.623 1.626 2.781z"/><path style="fill:#857b7c" d="M2690.237 1421.517c-9.558-5.684-18.977-11.824-29.587-15.374-1.97-.659-2.815 2.451-.856 3.106 10.329 3.456 19.512 9.516 28.817 15.05 1.786 1.062 3.408-1.722 1.626-2.782zM2689.533 1445.898c8.408 11.061 22.082 17.261 28.784 29.683.985 1.825 3.767.2 2.781-1.626-6.758-12.524-20.348-18.585-28.784-29.683-1.238-1.629-4.036-.026-2.781 1.626z"/><path style="fill:#857b7c" d="M2687.729 1445.325a600.985 600.985 0 0 1-13.701 33.137c-.842 1.876 1.933 3.516 2.781 1.626a615.055 615.055 0 0 0 14.025-33.907c.737-1.94-2.376-2.779-3.105-.856zM2688.435 1376.959c-9.664.716-15.569 15.032-15.569 23.622h35.611s1.432-24.158-20.042-23.622zM2649.415 1956.063c12.728-1.014 25.451-2.1 38.185-3.041 3.144-.232 5.689.052 6.717 3.319.494 1.569.594 3.252.835 4.871.449 3.023 1.056 5.902 3.418 8.015.561.502 1.638.53 2.008-.259l7.968-16.986-2.337-.305 5.792 16.981c.444 1.301 2.576 1.174 2.511-.34-.28-6.585 1.633-12.528 5.647-17.749l-2.008.259a89.915 89.915 0 0 1 12.691 15.967c.472.755 1.362.78 2.008.259 5.398-4.352 8.06-10.921 7.188-17.806l-2.382.645 7.907 14.687c.481.893 1.697.761 2.208 0 3.724-5.549 6.164-11.549 7.359-18.129h-2.466c2.195 7.103 6.683 12.845 13.054 16.674.589.354 1.407.135 1.749-.459 9.107-15.798 16.739-33.98 12.756-52.524-1.644-7.657-5.233-15.062-10.886-20.563-6.18-6.014-14.407-8.986-22.731-10.591-39.662-7.648-81.71-3.009-118.071 14.748-6.814 3.328-16.291 6.697-17.611 15.166-.722 4.629-.307 9.582-.36 14.256l-.196 17.475c-.238 21.232-1.215 42.949 3.795 63.763 1.859 7.725 4.671 15.919 10.805 21.333 6.761 5.967 16.733 7.156 25.285 8.598a217.504 217.504 0 0 0 61.634 1.517c11.6-1.373 23.098-3.644 34.323-6.879 8.082-2.329 16.375-5.447 22.673-11.216 5.531-5.066 8.8-12.474 6.999-19.981-1.825-7.604-7.965-13.686-15.614-15.267-.635-.131-1.435.179-1.573.893-1.104 5.732-2.994 11.095-5.767 16.239h2.208c-2.085-2.719-4.113-5.499-6.264-8.167-1.22-1.514-2.508-2.95-4.513-3.291-3.098-.527-5.153 2.031-6.744 4.29-3.113 4.42-6.288 9.733-11.695 4.377-3.05-3.021-5.459-6.88-10.021-7.623-8.595-1.401-15.001 7.383-22.721 9.408-11.279 2.959-12.171-16.446-23.441-13.231-2.7.77-3.165 3.883-5.468 4.588-1.915.586-2.408-.213-3.667-1.812-.754-.958-1.34-2.107-1.95-3.157a63.59 63.59 0 0 1-2.748-5.26c-3.773-8.158-5.784-16.914-6.132-25.886-.063-1.64-2.621-1.648-2.557 0 .264 6.81 1.395 13.524 3.587 19.987 1.925 5.677 4.528 12.388 8.569 16.9 1.259 1.405 3.047 2.854 5.063 2.677 2.345-.206 2.712-2.04 3.89-3.616 5.585-7.475 11.706 5.753 15.148 8.936 6.808 6.296 15.046.416 21.382-3.407 4.045-2.441 9.123-5.397 13.657-2.378 3.783 2.52 5.901 8.046 10.75 8.893 3.901.682 6.641-2.358 8.655-5.244 1.206-1.728 2.76-5.404 5.033-5.8 3.73-.65 7.986 7.507 9.979 10.106.547.713 1.706.932 2.208 0 2.872-5.326 4.88-10.904 6.025-16.849l-1.573.893c7.749 1.602 13.947 8.483 14.249 16.52.307 8.142-5.603 14.464-12.144 18.406-6.604 3.98-14.079 6.139-21.489 8.06a212.85 212.85 0 0 1-27.535 5.239 216.348 216.348 0 0 1-54.277-.211c-8.875-1.161-19.302-2.102-27.386-6.231-7.778-3.973-11.47-12.188-13.662-20.219-4.885-17.903-4.737-36.73-4.54-55.138.104-9.689.217-19.377.326-29.066.048-4.27-.36-8.85.358-13.07.952-5.593 5.716-7.753 10.262-10.197 32.542-17.494 69.077-23.388 105.648-19.812 9.915.97 20.642 1.868 29.729 6.314 8.24 4.031 14.109 11.22 17.112 19.827 6.752 19.346-1.309 39.209-10.982 55.987l1.749-.459c-5.805-3.489-9.881-8.678-11.879-15.146-.346-1.119-2.228-1.311-2.466 0-1.154 6.354-3.5 12.152-7.101 17.518h2.208l-7.907-14.687c-.567-1.053-2.546-.644-2.382.645.797 6.291-1.493 12.011-6.439 15.998l2.008.259a92.861 92.861 0 0 0-13.091-16.485c-.641-.642-1.516-.38-2.008.259-4.264 5.545-6.294 12.056-5.997 19.039l2.511-.34-5.792-16.981c-.322-.944-1.835-1.374-2.337-.305l-7.968 16.986 2.008-.259c-5.002-4.474-.585-15.766-9.205-17.038-3.004-.443-6.522.319-9.513.557l-10.182.811-22.062 1.757c-1.627.131-1.641 2.689.003 2.558z"/><path style="fill:#857b7c" d="M2668.594 1980.445c11.665 7.868 26.243 7.515 39.42 4.268 8.276-2.039 16.248-5.094 24.398-7.557a155.677 155.677 0 0 1 26.644-5.59c8.562-1.019 17.349-1.438 25.961-.86 1.635.11 7.886.402 8.1 3.022.082 1.007-2.99 4.957-3.711 5.129-.816.196-1.828-.058-2.66-.11-4.551-.286-9.099-.631-13.648-.946-8.403-.583-17.197-1.944-25.585-.707-7.549 1.113-14.303 5.129-21.541 7.347-18.031 5.526-37.511 4.502-54.99-2.451-1.529-.608-2.193 1.864-.68 2.466 16.257 6.467 34.258 7.865 51.301 3.818 8.914-2.116 17.056-7.17 26.084-8.607 9.53-1.517 19.861.306 29.425.969 4.209.292 8.704 1.086 12.92.771 2.487-.186 5.123-1.093 6.03-3.675 2.168-6.172-5.025-9.064-9.703-9.499-18.659-1.733-38.359 1.39-56.153 6.928-19.141 5.958-41.649 15.67-60.321 3.077-1.369-.923-2.65 1.291-1.291 2.207zM2650.36 1902.557c-5.617 3.112-5.733 13.019-4.294 18.426 1.912 7.187 9.752 9.72 16.525 9.718 2.599-.001 3.776-1.127 4.179-3.617.78-4.824.734-10.462.188-15.318-1.004-8.932-11.17-8.309-18.189-7.978-1.638.077-1.648 2.634 0 2.557 2.637-.124 5.262-.124 7.893.141 4.455.448 7.463 1.315 7.826 6.565.176 2.554.141 5.148.078 7.707-.076 3.094.063 6.915-3.732 7.233-5.663.475-11.464-3.3-12.485-8.823-.763-4.128-.886-12.083 3.302-14.404 1.439-.796.151-3.005-1.291-2.207z"/><path style="fill:#c1af9d" d="M3074.22 2429.331c-75.323 175.406-357.158 108.78-370.042 159.808-12.884 51.028 317.252 20.944 396.173 106.847 78.921 85.904 495.302 94.41 471.512-61.229s-100.74-168.981-290.954-149.426c-190.214 19.555-206.689-56-206.689-56z"/><path style="fill:#ce875b" d="M3130.496 2291.354s-2.963 14.291-8.525 31.824c-11.284 35.583-33.285 84.491-63.016 54.298-18.564-18.854-54.985 17.415-92.726 65.99-28.668 36.904-58.098 80.915-81.033 113.234-19.058 26.864-33.639 45.665-39.566 45.622-15.751-.118-65.646 2.019-100.016 1.836-14.624-.075-26.435-.569-31.621-1.836-17.351-4.252 58.164-18.199 73.474-25.125 15.139-6.84 75.257-184.228 104.193-300.22.311-1.224.612-2.438.913-3.651 11.349-45.998 34.112-66.173 64.208-68.385 23.697-1.751 51.946 7.623 82.751 24.255 16.889 9.126 34.563 20.433 52.665 33.296 12.584 8.944 25.393 18.64 38.299 28.862z"/><path style="fill:#b87255" d="M3092.197 2262.492c11.059 16.932 22.408 37.827 29.774 60.686-11.285 35.583-33.285 84.49-63.016 54.297-18.564-18.854-54.985 17.416-92.726 65.99-3.082-17.931-3.715-37.322 3.511-50.239 14.635-26.167 30.096-131.229 69.791-164.031l52.666 33.297zM2885.196 2556.7c-19.058 26.864-33.639 45.665-39.566 45.622-15.751-.118-65.646 2.019-100.016 1.836 35.626-4.188 95.249-26.403 114.973-38.332 7.687-4.649 16.481-7.441 24.609-9.126zM2956.78 2204.942c-12.24 26.026-49.004 59.816-65.12 72.035.311-1.224.612-2.438.913-3.651 11.348-45.997 34.111-66.172 64.207-68.384z"/><path style="fill:#905352" d="m2865.595 1752.572-32.242-8.876c16.221-5.869 26.572-18.067 27.149-18.76a4.08 4.08 0 1 0-6.27-5.226c-.162.193-16.037 18.931-38.121 18.931-.402 0-.809-.013-1.215-.025l-217.356-59.837-67.454-33.752a4.074 4.074 0 0 0-1.62-.424l-67.34-3.378-94.718-26.076a4.087 4.087 0 0 0-5.021 2.852 4.086 4.086 0 0 0 2.852 5.021l95.15 26.194c.287.078.582.126.879.14l66.931 3.358 67.045 33.546c.237.118.487.213.742.285l268.439 73.901c.363.1.727.148 1.086.148a4.087 4.087 0 0 0 3.934-3 4.083 4.083 0 0 0-2.85-5.022z"/><path style="fill:#ce875b" d="M2410.739 1576.649c-4.177-14.355 70.158 8.674 80.618 20.665 10.46 11.991-7.143 70.924-25.512 82.659s-69.393 9.184-72.454-14.032c-3.061-23.216 22.026-73.22 17.348-89.292zM2558.579 1615.958c2.597-8.923-43.611 5.392-50.113 12.845-6.502 7.454 4.44 44.087 15.859 51.382 11.418 7.295 43.135 5.709 45.039-8.722 1.902-14.432-13.692-45.514-10.785-55.505zM2620.846 1636.63c24.492 8.164 49.493 84.19 11.225 96.946s-53.235-13.131-40.904-29.271-3.487-38.591 6.208-50.326c9.695-11.736 23.471-17.349 23.471-17.349zM3137.7 2141.227c-50.894 16.396-167.917-1.879-242.068-52.687-22.795-15.622-41.542-34.316-53.063-56.026-48.982-92.318-53.063-248.457-90.825-270.908-37.752-22.441-44.559-69.673-15.644-61.191 41.499-13.303 47.619 14.592 55.103 49.294 7.484 34.691 72.798 223.182 149.332 256.843 40.436 17.781 101.262 17.995 150.427 17.147 43.904-.751 78.51-2.34 81.011 6.969 5.315 19.745 32.266 89.128-34.273 110.559z"/><path style="fill:#b87255" d="M3137.7 2141.227c-50.894 16.396-167.917-1.879-242.068-52.687 82.794 23.385 152.134-7.462 195.33-64.841 43.904-.751 78.51-2.34 81.011 6.969 5.315 19.745 32.266 89.128-34.273 110.559z"/><path style="fill:#6d6967" d="m3165.662 2695.986-6.797 8.797-7.49 9.695-7.634-12.695 15.124-5.796s-21.083-10.205-16.328-13.613c4.674-3.347 19.919-31.758 20.39-32.635l.02-.02 2.715 46.267zM3025.529 2671.495l-1.367 31.962s-8.838 8.857-19.736 10.898c-10.878 2.041-30.615-21.777-30.615-21.777v-57.821l.02.021c.449 1.224 15.124 40.146 25.839 42.839 10.878 2.716 25.859-6.122 25.859-6.122z"/><path style="fill:#9b9b9b" d="m3101.044 2747.01-76.883-43.554 1.367-31.962s23.798-2.041 42.167 16.328c18.369 18.369 32.655 30.615 32.655 30.615l.694 28.573z"/><path style="fill:#6d6967" d="M3158.865 2695.986v36.738l-57.821 14.286-.693-28.573 43.39-16.655z"/><path style="fill:#d2ccc7" d="m3158.865 2695.986-15.124 5.796-43.391 16.655s-14.287-12.246-32.655-30.615c-18.369-18.369-42.167-16.328-42.167-16.328s-14.98 8.838-25.859 6.123c-10.715-2.694-25.389-41.615-25.839-42.839l-.02-.021s38.778-14.98 72.801-19.062c34.023-4.082 116.335 34.023 116.335 34.023l-.02.02c-.47.878-15.716 29.288-20.39 32.635-4.755 3.408 16.329 13.613 16.329 13.613z"/><path style="fill:#b87255" d="M3396.121 2215.399c-10.796 87.558-150.745 131.112-190.238 86.047-10.918-12.47-19.756-32.35-26.491-55.718-4.184-14.512-7.573-30.37-10.165-46.636-10.715-67.536-7.633-142.113 9.042-156.542 26.431-27.247 110.621-7.204 168.298 55.698 11.858 12.939 22.614 27.695 31.492 44.248a204.554 204.554 0 0 1 7.266 14.879 191.694 191.694 0 0 1 4.898 12.082c6.041 16.348 7.673 31.717 5.898 45.942z"/><path style="fill:#c26925" d="M3502.088 2267.505c-4.266-25.023-10.859-48.861-20.491-69.883-6.551-14.307-14.164-28.512-22.675-42.492-24.818-40.778-57.27-79.7-93.599-114.111a682.14 682.14 0 0 0-7.98-7.409c-7.979 4.347-17.491 8.898-24.777 10.491-4.469.959-8.103.816-10.021-1.184-1.51-1.572-5.143-4.797-10.429-8.96-4.816-3.796-11.001-8.347-18.205-13.103h-.021c-9.613-6.347-21.022-13.042-33.451-18.756h-.021c-22.063-10.144-47.31-17.247-71.189-13.818a75.751 75.751 0 0 0-12.96 2.939c-12.123 3.918-21.879 9.123-29.717 15.327-13.389 10.594-21.267 24.022-25.962 38.86v.041c-5.041 15.899-6.449 33.35-7.122 50.453-.183 4.857-.327 9.674-.469 14.409-.653 5.755-7.959 6.98-17.348 5.51-6.653-1.021-14.348-3.408-21.43-6.47a786.514 786.514 0 0 1-4.49 17.594c-.795 2.98-1.592 5.898-2.367 8.756-13.287 48.759-24.471 80.863-30.349 106.844v.02c-5.163 22.675-6.306 40.636-1.347 60.923 11.001 44.901-26.757 43.881-27.777 81.128-1.021 37.248-13.042 117.192-25.41 157.848-4.388 14.389-7.551 25.9-9.633 34.737-3.817 16.104-4 23.308-1.184 23.002 4.347-.53 33.125-15.307 38.513-2.041 5.367 13.266 2.898 22.696 23.9 19.389 19.124-3.021 49.799-11.327 63.045-1.061a15.346 15.346 0 0 1 3.388 3.593c4.204 6.266 16.124 11.51 30.329 14.756h.02c18.186 4.164 40.126 5.062 54.31.734 2.265-.674 4.348-1.511 6.164-2.469 22.186-11.736 68.271-15.817 85.292 8.939 1.143 1.653 2.204 3.021 3.184 4.123 13.654 15.266 13.531-20.083 41.37-4.123 29.839 17.083 19.042 31.717 35.553 31.37 4.572-.102 10.654-.898 17.531-1.98 17.92-2.816 41.29-7.51 57.637-6.531 22.614 1.367 20.511 9.96 23.635 3.572.51-1.061 1.225-4.613 2.143-10 1.653-9.817 3.939-25.737 6.858-43.881 5.163-32.125 12.306-71.169 21.307-95.456.02-.041.041-.062.041-.103 13.51-36.246 32.96-153.112 16.204-251.527zm-289.858 39.799a41.187 41.187 0 0 1-6.348-5.858c-3.163-3.613-6.163-7.858-8.98-12.634-37.962-64.271-43.922-224.384-18.634-246.263 34.676-35.758 168.767 9.899 211.954 126.908 41.432 112.212-123.845 178.748-177.992 137.847z"/><path style="fill:#ce875b" d="M3178.31 1708.036c-3.204 25.043-17.328 58.372-44.411 80.25-14.797 12.002-33.473 20.573-56.352 22.491-1.755.144-3.551.265-5.368.327-68.372 2.551-37.758-61.739-29.083-79.598 8.674-17.858-8.674-28.063-23.471-33.676-14.797-5.613 29.084-18.369 45.411-58.678 0 0 13.266-50.514 63.638-49.493 50.391 1.021 54.738 78.578 49.636 118.377z"/><path style="fill:#905352" d="M3065.036 1594.762c-20.92-14.797-46.942-8.674-46.942-8.674s-14.542-17.603 16.838-33.421c31.38-15.818 46.687-6.123 46.687-6.123s-15.307-39.289-31.38-43.37c0 0 16.838-5.358 50.004 10.205 33.166 15.562 36.992 24.492 36.992 24.492s16.923-45.326 3.657-67.437c0 0 12.246 7.143 14.967 14.967 0 0 1.361-31.635-17.348-44.901 0 0 21.43 4.422 33.676 47.963 12.246 43.54 6.463 71.774 6.463 71.774s41.84 5.102 68.032 31.295c0 0-19.049-9.184-38.098-9.865 0 0 28.573 13.606 29.254 33.676 0 0-24.832-13.947-40.819-5.102 0 0 30.274-10.375 32.825 37.588 2.551 47.963-5.102 67.862 5.103 84.955 0 0-17.858-2.806-20.155-17.858 0 0-12.246 45.667-23.216 53.32 0 0 2.296-10.46-5.613-24.236 0 0-10.715 34.611-28.744 42.435 0 0 14.457-60.038 7.824-96.266-6.633-36.227-20.41-17.093-20.41-17.093s5.868-47.452-1.786-57.147c0 0-7.398 38.013-26.277 43.115 0 0 6.888-23.471-2.551-33.676s-9.439-28.063-9.439-28.063-33.421 56.127-57.912 57.147c-.001-.002 26.021-35.208 18.368-59.7z"/><path style="fill:#ce875b" d="M3144.634 1673.084c16.668-28.148 40.819-26.448 42.18-3.997 1.361 22.451-17.348 38.053-46.262 43.178s4.082-39.181 4.082-39.181z"/><path style="fill:#905352" d="M3039.184 1733.378c17.688.68 32.315 24.492 33.166 53.065.85 28.574 0 42.01 0 42.01s-21.09-5.273-25.002-15.647c0 0-3.232 20.75-10.035 23.131 0 0-29.303-10.715-20.689-40.649s8.954-46.942 5.893-50.344c0 0-1.743-.808-4.55-.17-.001-.001 10.034-10.546 21.217-11.396z"/><path style="fill:#ce875b" d="M3357.339 2033.609c-12.895 7.022-29.774 14.549-34.799 9.309-8.504-8.837-85.038-71.434-146.272-51.7-8.847 2.856-16.438 6.399-22.934 10.523l-.01.01c-38.492 24.405-39.158 68.964-40.329 108.563-1.095 9.835-21.668 6.421-38.772-.966 18.114-73.893 31.922-170.215 19.327-244.731-3.339-19.757-8.536-37.967-15.998-53.836 22.87-1.922 41.553-10.49 56.348-22.495 6.893 44.613 28.679 121.555 97.472 156.665 23.761 12.111 47.684 26.886 70.972 43.775 18.886 13.681 37.354 28.745 54.995 44.883z"/><path style="fill:#865324" d="M3101.773 2163.681c-15.458 13.213 1.276 38.013-3.572 53.575-4.847 15.562-47.452 33.166-26.277 60.719 21.175 27.553 59.443 7.143 55.871-12.756-3.572-19.899-13.777-32.029-6.633-37.699 7.143-5.671 22.407-28.632 6.866-45.98s-19.366-23.747-26.255-17.859zM3179.392 2245.728c-17.001-4-17.9-26.022-10.165-46.636 2.592 16.266 5.98 32.124 10.165 46.636zM3134.756 2360.022c-.327-17.022 34.369-25.86 42.187-39.126 6.286-10.674 7.49-24.492 19.96-32.083 2.817 4.776 5.817 9.021 8.98 12.634a41.187 41.187 0 0 0 6.348 5.858c-1.123 6.49-1.552 15.103.429 26.858 4.081 24.144-77.558 42.86-77.904 25.859zM3069.458 2322.536c9.764-5.325 28.233 4.422 13.947 37.758-14.287 33.336 26.533 25.512 20.75 48.643-5.783 23.131-60.549 15.988-68.032-4.422-7.484-20.41 18.029-25.316 20.41-48.885 2.38-23.569 5.442-29.012 12.925-33.094zM3209.774 2400.093c-8.121 13.922-9.184-6.463-16.668 3.061s-5.102 19.729-15.988 21.43c-10.885 1.701-21.43 1.701-21.43 11.225s10.205 14.287 5.443 28.573c-4.762 14.287 15.647 21.43 42.52 0 26.873-21.43 54.426-85.391 34.356-89.468-20.069-4.075-21.089 12.933-28.233 25.179zM3027.788 2468.805c25.922-7.855 59.826 10.205 64.29 6.761 4.465-3.444 15.18-32.911 26.278-24.364 11.098 8.547 19.134 32.571 4.167 40.394-14.967 7.824-19.729 3.742-20.75 15.988s10.205 24.832-14.287 22.11-34.356-26.873-48.643-23.471c-14.286 3.402-50.003-10.885-11.055-37.418zM3000.235 2563.547c-3.98 7.001-18.022 13.675-27.39 13.654 2.082-8.837 5.245-20.348 9.633-34.737 8.491 8.572 22.003 13.593 17.757 21.083zM3033.401 2539.899c5.094 13.288 12.756 28.744 35.887 19.049s21.26-27.043 32.485-13.436c11.225 13.606 36.227 43.881 26.533 49.663s-29.424 13.437-42.35-1.701-2.551-28.063-24.832-18.369c-22.281 9.695-38.948 11.736-38.098-1.021s6.463-44.39 10.375-34.185zM3074.22 2176.948c-10.552 20.756-13.062 49.657-8.919 58.514 4.164 8.838-20.001 51.351-27.818 9.858a94.956 94.956 0 0 1-.469-2.755v-.02c5.878-25.981 17.062-58.086 30.349-106.844 18.307 7.509 15.327 24.592 6.857 41.247zM3392.447 2131.189c-5.327 4.02-9.979 7.959-14.388 11.307-8.878-16.553-19.634-31.309-31.492-44.248 4.939-2.429 7.919-3.001 15.777-4.633 16.328-3.408-.183-30.288 14.797-23.655 14.96 6.633 27.717 19.899 13.94 37.248s20.919 9.184 1.366 23.981zM3436.491 2196.337c-10.878 9.531-32.655 9.531-19.042 19.042 13.593 9.531 22.104 24.492 11.225 19.736-7.776-3.388-19.532-13.716-32.554-19.716 1.776-14.225.144-29.594-5.898-45.942a191.694 191.694 0 0 0-4.898-12.082c4.551-4.123 9.408-6.123 19.878-2.878 24.145 7.49-12.246 26.573 6.797 33.349 19.043 6.796 35.371-1.041 24.492 8.491zM3502.088 2267.505c-21.124-.449-14.226-27.9-35.656-31.472-23.144-3.858-19.736-28.472-8.858-39.697 9.715-10.021-9.001-16.511 1.347-41.207 8.511 13.981 16.124 28.186 22.675 42.492 9.634 21.024 16.226 44.861 20.492 69.884zM3390.229 2298.385c16.668-40.139 35.377-52.385 40.479-40.819 5.103 11.566 18.203 2.721 18.456 15.307s-6.21 38.438-15.734 46.262c-9.524 7.823-43.201-20.75-43.201-20.75zM3464.044 2296.004c14.973 23.47 12.246 50.684-12.246 55.446-24.492 4.762-36.057 36.397-5.103 40.819s57.147-6.803 56.127-37.758c-1.021-30.955-.34-43.881-12.926-58.508s-28.667-4.412-25.852.001z"/><path style="fill:#865324" d="M3390.229 2371.86c9.525-32.315 36.152-30.274 29.471-10.545-6.68 19.729-21.809 28.914 1.063 35.036 22.872 6.123 14.368 48.303-12.845 51.705s-38.778-6.803-35.717-29.254c3.062-22.451 18.028-46.942 18.028-46.942zM3472.549 2421.863c-21.845 15.197-73.548 56.467-63.136 84.36 10.411 27.893 53.272 25.852 51.571 8.504-1.701-17.348-17.008-53.065.68-63.61 17.688-10.545 18.708-34.696 10.885-29.254zM3333.423 2467.104c1.361 24.492 24.832 25.172 34.016 14.287 9.184-10.885 25.172-13.606 20.75 1.701-4.422 15.307-10.205 45.582-44.901 45.922-34.697.34-15.647-27.553-34.697-18.369-19.049 9.185-37.078 23.811-26.532 2.721 10.545-21.089 51.364-46.262 51.364-46.262zM3216.748 2562.69c-5.442 17.348-2.381 28.233 11.225 27.213s16.328-.68 25.852-1.361 37.418-52.316 21.09-58.473c-16.328-6.158-58.167 32.621-58.167 32.621zM3279.807 2646.165c-.98-1.102-2.041-2.469-3.184-4.123-17.021-24.757-63.106-20.675-85.292-8.939-1.816.959-3.899 1.796-6.164 2.469 8.45-11.368 10.859-19.899 12.185-25.267 1.714-6.797-3.735-16.655 16.838-11.552 20.593 5.102 24.757 10.532 32.88 19.716 8.123 9.184 31.757 1.021 32.86 6.47.815 4.02 1.775 13.43-.123 21.226zM3322.198 2574.595c-14.586 29.173-45.582 16.328-45.582 25.512s46.942-12.926 54.426 2.381c7.483 15.307 61.909 6.803 47.623-9.524-14.287-16.328-24.832-29.594-21.771-41.5 3.061-11.905-24.492 2.722-34.696 23.131zM3404.857 2554.016c-7.082-11.943 21.175-18.507 31.635-6.83 10.46 11.677 14.542 55.275-2.806 63.325-17.348 8.051-40.054-9.298-38.268-18.737 1.785-9.44 22.45-15.818 9.439-37.758zM3457.677 2658.473c-.918 5.387-1.632 8.939-2.143 10-3.123 6.388-1.021-2.204-23.635-3.572-16.348-.979-39.717 3.714-57.637 6.531.552-28.594 10.634-53.82 26.002-42.411 15.817 11.736-3.307 31.635 20.165 21.043 23.451-10.593 35.452-35.084 35.962-2.674.062 4.183.551 7.858 1.286 11.083zM3485.842 2519.136c-9.001 24.287-16.144 63.331-21.307 95.456-5.655-3.246-10.348-7.694-11.716-13.124-2.715-10.838 14.817-49.33 33.023-82.332zM3150.083 2023.201c-10.552.327-5.796 8.838-15.307 32.655-6.143 15.348-14.552 5.531-14.185-10.409v-.041c4.695-14.838 12.573-28.267 25.962-38.86 7.816 3.818 12.143 16.369 3.53 16.655zM3111.978 2143.945c-37.023 16.246-23.818-8.123-16.328-28.125 9.389 1.47 16.695.245 17.348-5.51.143-4.736.286-9.552.469-14.409 6.47 3.184 22.186 1.285 33.207 13.695 13.614 15.307 4.082 17.348-34.696 34.349zM3260.417 2002.098c-8.021 16.225-44.718 24.308-57.106 10.552-8.021-8.919-12.593-18.185-14.083-24.369 23.879-3.429 49.126 3.673 71.189 13.817zM3312.115 2033.957c-5.062-.408-10.347 1.307-22.92 1.307-15.777 0-8.715-8.347 4.694-14.409h.021c7.204 4.755 13.389 9.306 18.205 13.102zM3365.323 2041.019c-2.388 6.185-16.593 12.736-33.594 17.042-19.716 5.001-2.143-5.388.837-13.96 7.286-1.593 16.797-6.144 24.777-10.491a690.878 690.878 0 0 1 7.98 7.409z"/><path style="fill:#857b7c" d="M3728.965 1675.668c.402-.93.726-1.796.952-2.575 1.383-4.763-1.587-4.119-5.862.395-2.878-12.935-9.126-27.262-17.621-18.895-8.058 7.937 5.668 22.31 12.091 26.034a71.802 71.802 0 0 0-2.117 3.436c-5.892-6.375-39.197-20.376-45.98-2.757-7.004 18.194 20.696 17.023 41.244 12.417a80.249 80.249 0 0 0-3.186 9.358c-.593 2.181 1.81.016 5.216-4.094 1.714 13.234 9.685 34.957 24.289 31.218 19.724-5.05.303-28.704-15.851-42.63a130.422 130.422 0 0 0 2.181-3.374c12.525 5.898 30.982 10.925 28.91-1.939-1.521-9.434-15.796-8.855-24.266-6.594z"/><path style="fill:#ce875b" d="M3175.248 2045.305c-46.82 46.82 74.495 230.629 100.007 303.083 25.512 72.454-184.197 278.082-192.871 280.633-8.674 2.551-57.147 6.633-63.27 9.184-6.123 2.551 77.046 3.572 89.292 5.613 12.246 2.041 263.114-130.281 297.13-299.257 34.017-168.974-165.317-364.227-230.288-299.256z"/><path style="fill:#b87255" d="M3147.536 1679.88c3.825-12.065 26.038-11.542 24.695-.134-1.342 11.408-17.448 6.174-19.998 11.542s4.429 14.08-1.745 10.724-4.697-16.629-2.952-22.132zM3133.899 1788.287s-31.201 39.77-40.35 76.331c-3.339-19.757-8.536-37.967-15.998-53.836 22.87-1.922 41.553-10.49 56.348-22.495zM3357.339 2033.609c-12.895 7.022-29.774 14.549-34.799 9.309-8.504-8.837-85.038-71.434-146.272-51.7-8.847 2.856-16.438 6.399-22.934 10.523 36.356-36.925 107.243-20.819 126.548-8.472 14.72 9.406 26.328 7.215 22.462-4.542 18.886 13.68 37.354 28.744 54.995 44.882z"/><path style="fill:#857b7c" d="M1733.364 1600.019c.724.44.958 1.382.522 2.11a429.436 429.436 0 0 1-5.672 9.235c-.457.719-1.478.91-2.13.479a1.543 1.543 0 0 1-.48-2.128 414.578 414.578 0 0 0 3.802-6.134 476.513 476.513 0 0 0 1.831-3.036 1.544 1.544 0 0 1 2.116-.533l.011.007zm-11.576 18.23.07.045c.704.481.884 1.441.404 2.145a222.976 222.976 0 0 1-6.34 8.83 1.553 1.553 0 0 1-2.162.298 1.543 1.543 0 0 1-.298-2.162 218.882 218.882 0 0 0 6.251-8.708 1.542 1.542 0 0 1 2.075-.448zm-13.094 17.151a1.542 1.542 0 0 1 .362 2.333 119.001 119.001 0 0 1-7.541 7.911 1.544 1.544 0 0 1-2.128-2.236 115.575 115.575 0 0 0 7.345-7.705 1.543 1.543 0 0 1 1.962-.303zm-15.662 14.783a1.542 1.542 0 0 1 .122 2.555 76.547 76.547 0 0 1-9.248 5.944 1.542 1.542 0 1 1-1.472-2.712 73.578 73.578 0 0 0 8.873-5.705 1.545 1.545 0 0 1 1.725-.082zm-18.896 10.205a1.543 1.543 0 0 1-.29 2.773 71.957 71.957 0 0 1-10.631 2.843 1.542 1.542 0 1 1-.568-3.033 69.101 69.101 0 0 0 10.172-2.72 1.535 1.535 0 0 1 1.317.137zm-21.102 4.024a1.542 1.542 0 0 1-.724 2.86 99.366 99.366 0 0 1-10.945-.082 1.543 1.543 0 0 1 .188-3.081 96.15 96.15 0 0 0 10.604.081c.32-.016.622.067.877.222zm-21.493-1.234c.515.313.819.915.723 1.548a1.54 1.54 0 0 1-1.755 1.296 158.13 158.13 0 0 1-10.703-2.009 1.543 1.543 0 1 1 .669-3.013c3.603.802 7.133 1.464 10.494 1.971.208.031.402.104.572.207zm-21.056-4.633a1.543 1.543 0 0 1-1.22 2.803 247.446 247.446 0 0 1-10.383-3.176 1.543 1.543 0 0 1 .965-2.932c3.5 1.153 6.949 2.208 10.252 3.136.14.041.268.097.386.169zm-20.503-6.719a1.543 1.543 0 0 1-1.338 2.766 368.216 368.216 0 0 1-10.109-3.908 1.531 1.531 0 0 1-.854-2.008 1.541 1.541 0 0 1 2.007-.855 367.923 367.923 0 0 0 10.026 3.876c.094.034.184.078.268.129zm-20.031-8.053a1.542 1.542 0 0 1-1.413 2.735l-.706-.306a179.302 179.302 0 0 0-9.232-3.702 1.539 1.539 0 0 1-.915-1.982 1.542 1.542 0 0 1 1.981-.914 181.608 181.608 0 0 1 9.393 3.768l.698.302c.069.029.133.063.194.099zm-20.259-7.448a1.544 1.544 0 0 1-1.242 2.797 152.916 152.916 0 0 0-10.346-2.685 1.543 1.543 0 0 1 .668-3.012c3.483.772 7.034 1.694 10.556 2.74.13.037.252.091.364.16zm-21.072-4.654a1.544 1.544 0 0 1-1.02 2.846 128.12 128.12 0 0 0-10.612-1.073 1.543 1.543 0 0 1 .18-3.081c3.565.208 7.222.579 10.868 1.099.213.03.41.103.584.209zm-21.537-1.234a1.543 1.543 0 0 1-.749 2.862c-3.583.118-7.152.411-10.606.873a1.543 1.543 0 0 1-.409-3.059 110.02 110.02 0 0 1 10.913-.899c.31-.01.604.073.851.223zm-21.361 2.896a1.543 1.543 0 0 1-.43 2.816 89.1 89.1 0 0 0-10.128 3.153 1.543 1.543 0 0 1-1.095-2.886 92.808 92.808 0 0 1 10.48-3.262 1.534 1.534 0 0 1 1.173.179zm-20.125 7.67a1.543 1.543 0 0 1-.075 2.678 77.4 77.4 0 0 0-8.968 5.617 1.543 1.543 0 0 1-1.816-2.496 80.353 80.353 0 0 1 9.327-5.842c.5-.267 1.08-.232 1.532.043zm-17.399 12.672a1.541 1.541 0 0 1 .274 2.426 74.143 74.143 0 0 0-7.028 7.888 1.538 1.538 0 0 1-2.164.281 1.542 1.542 0 0 1-.281-2.164 77.208 77.208 0 0 1 7.323-8.217 1.54 1.54 0 0 1 1.876-.214zm-13.135 17.044c.708.431.951 1.351.54 2.079a79.23 79.23 0 0 0-4.584 9.539 1.544 1.544 0 0 1-2.864-1.148 82.58 82.58 0 0 1 4.762-9.913 1.545 1.545 0 0 1 2.146-.557zm-8.057 19.972c.569.346.868 1.035.691 1.712a94.483 94.483 0 0 0-2.113 10.406 1.542 1.542 0 1 1-3.052-.445 97.266 97.266 0 0 1 2.181-10.749 1.543 1.543 0 0 1 2.293-.924zm-3.154 21.323c.465.283.765.803.741 1.386-.15 3.474-.139 7.059.032 10.655a1.542 1.542 0 1 1-3.082.148c-.177-3.69-.188-7.369-.034-10.936a1.543 1.543 0 0 1 2.343-1.253zm.987 21.55c.388.236.667.638.73 1.122a148.71 148.71 0 0 0 1.754 10.541 1.543 1.543 0 1 1-3.025.613 152.213 152.213 0 0 1-1.79-10.76 1.545 1.545 0 0 1 2.331-1.516zm4.268 21.157c.326.198.58.517.687.915a186.548 186.548 0 0 0 3.103 10.249 1.542 1.542 0 1 1-2.926.978 190.135 190.135 0 0 1-3.155-10.419 1.545 1.545 0 0 1 2.291-1.723zm6.815 20.488c.284.173.516.44.642.777 1.32 3.528 2.44 7.039 3.329 10.434a1.544 1.544 0 0 1-2.987.781 104.686 104.686 0 0 0-3.233-10.134 1.542 1.542 0 0 1 2.249-1.858zm5.364 20.871c.388.236.667.638.73 1.122.485 3.769.677 7.475.569 11.016a1.543 1.543 0 0 1-3.085-.094c.104-3.378-.08-6.92-.545-10.527a1.544 1.544 0 0 1 2.331-1.517zm-.762 21.473c.55.334.852.994.703 1.656a52.78 52.78 0 0 1-3.545 10.524 1.542 1.542 0 0 1-2.046.757 1.538 1.538 0 0 1-.757-2.047 49.727 49.727 0 0 0 3.336-9.909 1.543 1.543 0 0 1 2.309-.981zm-8.961 19.461a1.542 1.542 0 0 1 .434 2.244 58.194 58.194 0 0 1-7.459 8.162 1.543 1.543 0 0 1-2.074-2.284 55.234 55.234 0 0 0 7.064-7.727 1.543 1.543 0 0 1 2.035-.395zm-15.811 14.502a1.544 1.544 0 0 1 .038 2.612 83.184 83.184 0 0 1-9.605 5.34 1.544 1.544 0 0 1-1.324-2.788 80.066 80.066 0 0 0 9.248-5.141 1.539 1.539 0 0 1 1.643-.023zm-19.423 9.312a1.544 1.544 0 0 1-.296 2.776 121.166 121.166 0 0 1-10.492 3.098 1.544 1.544 0 0 1-.743-2.996 117.482 117.482 0 0 0 10.221-3.018c.454-.157.93-.09 1.31.14zm-20.937 5.235a1.543 1.543 0 0 1-.548 2.841c-3.505.583-7.143 1.06-10.817 1.417a1.542 1.542 0 1 1-.297-3.071 158.34 158.34 0 0 0 10.607-1.391c.38-.063.75.018 1.055.204zm-21.492 2.121a1.543 1.543 0 0 1-.744 2.861c-3.56.131-7.223.163-10.89.096a1.544 1.544 0 0 1 .057-3.086c3.609.066 7.216.034 10.72-.094.313-.012.608.071.857.223zm-21.6-.382a1.544 1.544 0 0 1-.908 2.858 227.439 227.439 0 0 1-10.831-1.015 1.544 1.544 0 0 1 .361-3.065c3.57.42 7.165.756 10.684 1.001.254.019.49.097.694.221zm-21.457-2.52a1.545 1.545 0 0 1-1.053 2.842 245.442 245.442 0 0 1-10.688-2.007 1.542 1.542 0 1 1 .638-3.019 243.04 243.04 0 0 0 10.552 1.981c.2.032.386.103.551.203zm-21.142-4.454a1.543 1.543 0 0 1-1.185 2.813 250.22 250.22 0 0 1-10.47-2.937 1.543 1.543 0 1 1 .897-2.952 246.861 246.861 0 0 0 10.341 2.9c.151.039.291.099.417.176zm-20.656-6.281a1.543 1.543 0 0 1-1.316 2.773 244.528 244.528 0 0 1-10.165-3.839 1.543 1.543 0 0 1 1.155-2.862 240.972 240.972 0 0 0 10.036 3.79c.103.037.2.084.29.138zm-65.877-36.356c.061.037.12.079.176.125a190.544 190.544 0 0 0 8.481 6.549c.689.502.84 1.467.338 2.155-.5.689-1.449.849-2.155.339a192.855 192.855 0 0 1-8.617-6.655 1.542 1.542 0 0 1 1.777-2.513zm45.854 28.276a1.544 1.544 0 0 1-1.445 2.72 233.256 233.256 0 0 1-9.783-4.754 1.551 1.551 0 0 1-.664-2.078 1.543 1.543 0 0 1 2.078-.665 228.855 228.855 0 0 0 9.652 4.69c.058.027.111.055.162.087zm-28.406-15.552.039.025a210.074 210.074 0 0 0 9.138 5.605c.77.44.988 1.371.562 2.109a1.544 1.544 0 0 1-2.109.562 213.286 213.286 0 0 1-9.272-5.687 1.546 1.546 0 0 1-.455-2.135 1.546 1.546 0 0 1 2.097-.479z"/><path style="fill:#857b7c" d="M1147.339 1782.297c-1.551-.609-2.991-1.093-4.285-1.422-7.904-2.009-6.681 2.837.975 9.613-21.1 5.448-44.302 16.51-30.079 30.009 13.491 12.803 36.354-10.552 42.118-21.316a117.614 117.614 0 0 0 5.764 3.289c-10.151 10.037-31.317 65.553-1.983 75.724 30.292 10.504 26.832-34.959 18.122-68.475a131.999 131.999 0 0 0 15.557 4.717c3.618.854-.074-2.976-7.018-8.345 21.656-3.551 56.918-17.856 49.963-41.652-9.392-32.138-47.194 1.093-69.186 28.416a212.643 212.643 0 0 0-5.667-3.398c9-20.913 16.239-51.527-4.789-47.408-15.421 3.021-13.679 26.453-9.492 40.248z"/></svg>