<svg xmlns="http://www.w3.org/2000/svg" xmlns:xlink="http://www.w3.org/1999/xlink" id="Layer_1" x="0" y="0" enable-background="new 0 0 850 850" version="1.1" viewBox="0 0 850 850" xml:space="preserve"><g><g><g><g><path fill="#eaeaea" d="M656.38,295.5L514.5,180.92H360.72L218.87,295.5c0,0,10.21,259.71,218.75,373.58
					C646.17,555.22,656.38,295.5,656.38,295.5z"/></g><g><path fill="#fff" d="M505.87,202.01H369.37l-126.02,101.8l0.14,3.69c0.09,2.31,2.49,57.36,27.06,125.24
					c22.72,62.87,69.54,148.59,163.56,199.91l3.52,1.92l3.52-1.92c94.02-51.33,140.85-137.05,163.58-199.91
					c24.55-67.88,26.96-122.93,27.04-125.24l0.15-3.69L505.87,202.01z"/></g><g><path fill="#f05a28" d="M622.42,308.4L502.58,211.6H372.67L252.82,308.4c0,0,8.62,219.39,184.8,315.59
					C613.81,527.79,622.42,308.4,622.42,308.4z"/></g><g><g><path fill="#fff" d="M265.29,431.23c0,3.45-2.78,6.24-6.23,6.24c-3.44,0-6.24-2.79-6.24-6.24c0-3.44,2.8-6.23,6.24-6.23
						C262.5,425,265.29,427.79,265.29,431.23z"/></g><g><path fill="#fff" d="M622.42,431.23c0,3.45-2.8,6.24-6.24,6.24c-3.44,0-6.23-2.79-6.23-6.24c0-3.44,2.79-6.23,6.23-6.23
						C619.62,425,622.42,427.79,622.42,431.23z"/></g></g><g><g><path fill="#fff" d="M337.54,563.16c0,3.44-2.78,6.23-6.23,6.23c-3.44,0-6.23-2.79-6.23-6.23c0-3.44,2.79-6.23,6.23-6.23
						C334.75,556.93,337.54,559.72,337.54,563.16z"/></g><g><path fill="#fff" d="M550.18,563.16c0,3.44-2.79,6.23-6.24,6.23c-3.43,0-6.23-2.79-6.23-6.23c0-3.44,2.8-6.23,6.23-6.23
						C547.39,556.93,550.18,559.72,550.18,563.16z"/></g></g><g><g><path fill="#fff" d="M237.64,302.47c0,3.44-2.8,6.23-6.24,6.23c-3.44,0-6.23-2.79-6.23-6.23c0-3.44,2.79-6.24,6.23-6.24
						C234.84,296.24,237.64,299.03,237.64,302.47z"/></g><g><path fill="#fff" d="M650.08,302.47c0,3.44-2.79,6.23-6.21,6.23c-3.46,0-6.24-2.79-6.24-6.23c0-3.44,2.78-6.24,6.24-6.24
						C647.29,296.24,650.08,299.03,650.08,302.47z"/></g></g><g><path fill="#fff" d="M443.86,652.07c0,3.43-2.8,6.23-6.24,6.23c-3.44,0-6.23-2.79-6.23-6.23c0-3.45,2.79-6.24,6.23-6.24
					C441.06,645.83,443.86,648.62,443.86,652.07z"/></g><g><g><path fill="#fff" d="M371.07,191.82c0,3.45-2.78,6.24-6.24,6.24c-3.43,0-6.23-2.79-6.23-6.24c0-3.45,2.8-6.24,6.23-6.24
						C368.28,185.58,371.07,188.36,371.07,191.82z"/></g><g><path fill="#fff" d="M516.65,191.82c0,3.45-2.79,6.24-6.24,6.24c-3.43,0-6.21-2.79-6.21-6.24c0-3.45,2.78-6.24,6.21-6.24
						C513.86,185.58,516.65,188.36,516.65,191.82z"/></g></g></g><g><g><path fill="#fff" d="M456.6,549.13c-5.33,5.19-11.65,7.8-18.98,7.8c-7.45,0-13.79-2.61-18.98-7.8
					c-5.19-5.19-7.79-11.53-7.79-18.98c0-7.32,2.6-13.66,7.79-18.98c5.19-5.2,11.52-7.78,18.98-7.78c7.33,0,13.65,2.59,18.98,7.78
					c5.19,5.32,7.79,11.66,7.79,18.98C464.39,537.6,461.78,543.95,456.6,549.13z M411.67,267.71l4.59,217.1h38.14l9.2-217.1H411.67z
					"/></g></g></g><g><g><g><path fill="#b897bf" d="M202.71,303.27c8.55,12.1,16.05,61,16.05,61l26.49-22.39l6.24,3.68c0,0-21.01,33.65-32.73,39.91
					c-11.72,6.25-22.49-23.8-22.49-23.8L202.71,303.27z"/></g><g><g><defs><path id="SVGID_31_" d="M157.25,608.99v-3.37c0-3.88,3.53-10.93,3.53-13.52c0-2.59,9.76,2.1,9.76,2.1s0.08,3.91,3.36,7.53
							c2.5,2.77,2.51,6.31,2.37,7.26H157.25z"/></defs><clipPath id="SVGID_2_"><use overflow="visible" xlink:href="#SVGID_31_"/></clipPath><rect width="1.19" height="19.48" x="157.25" y="589.51" fill="#3e3f88" clip-path="url(#SVGID_2_)"/><rect width="1.19" height="19.48" x="158.44" y="589.51" fill="#3f4089" clip-path="url(#SVGID_2_)"/><rect width="1.19" height="19.48" x="159.63" y="589.51" fill="#40418a" clip-path="url(#SVGID_2_)"/><rect width="1.19" height="19.48" x="160.82" y="589.51" fill="#41428b" clip-path="url(#SVGID_2_)"/><rect width="1.19" height="19.48" x="162.01" y="589.51" fill="#42438c" clip-path="url(#SVGID_2_)"/><rect width="1.19" height="19.48" x="163.21" y="589.51" fill="#43448d" clip-path="url(#SVGID_2_)"/><rect width="1.19" height="19.48" x="164.4" y="589.51" fill="#44458e" clip-path="url(#SVGID_2_)"/><rect width="1.19" height="19.48" x="165.59" y="589.51" fill="#45468f" clip-path="url(#SVGID_2_)"/><rect width="1.19" height="19.48" x="166.78" y="589.51" fill="#474891" clip-path="url(#SVGID_2_)"/><rect width="1.19" height="19.48" x="167.97" y="589.51" fill="#484992" clip-path="url(#SVGID_2_)"/><rect width="1.19" height="19.48" x="169.16" y="589.51" fill="#494a93" clip-path="url(#SVGID_2_)"/><rect width="1.19" height="19.48" x="170.36" y="589.51" fill="#4a4b94" clip-path="url(#SVGID_2_)"/><rect width="1.19" height="19.48" x="171.55" y="589.51" fill="#4b4c95" clip-path="url(#SVGID_2_)"/><rect width="1.19" height="19.48" x="172.74" y="589.51" fill="#4c4d96" clip-path="url(#SVGID_2_)"/><rect width="1.19" height="19.48" x="173.93" y="589.51" fill="#4d4e97" clip-path="url(#SVGID_2_)"/><rect width="1.19" height="19.48" x="175.12" y="589.51" fill="#4e4f98" clip-path="url(#SVGID_2_)"/><rect width=".09" height="19.48" x="176.32" y="589.51" fill="#4e4f98" clip-path="url(#SVGID_2_)"/></g></g><g><g><defs><path id="SVGID_33_" d="M223.88,608.99l-1.69-0.81l-0.79,0.81h-6.44c-0.64-1.9-2.82-9.14-0.85-14.15
							c2.28-5.82,9.35-4.27,9.35-4.27s4.79,6.86,7.57,8.09c2.78,1.23,13.37,5.63,14.63,8.48c0.38,0.85-0.27,1.43-0.08,1.85H223.88z"/></defs><clipPath id="SVGID_4_"><use overflow="visible" xlink:href="#SVGID_33_"/></clipPath><rect width="1.16" height="19.97" x="212.14" y="589.02" fill="#3e3f88" clip-path="url(#SVGID_4_)"/><rect width="2.03" height="19.97" x="213.3" y="589.02" fill="#3e3f88" clip-path="url(#SVGID_4_)"/><rect width="2.03" height="19.97" x="215.33" y="589.02" fill="#3f4089" clip-path="url(#SVGID_4_)"/><rect width="2.03" height="19.97" x="217.36" y="589.02" fill="#40418a" clip-path="url(#SVGID_4_)"/><rect width="2.03" height="19.97" x="219.39" y="589.02" fill="#41428b" clip-path="url(#SVGID_4_)"/><rect width="2.03" height="19.97" x="221.42" y="589.02" fill="#42438c" clip-path="url(#SVGID_4_)"/><rect width="2.03" height="19.97" x="223.45" y="589.02" fill="#43448d" clip-path="url(#SVGID_4_)"/><rect width="2.03" height="19.97" x="225.48" y="589.02" fill="#44458e" clip-path="url(#SVGID_4_)"/><rect width="2.03" height="19.97" x="227.51" y="589.02" fill="#45468f" clip-path="url(#SVGID_4_)"/><rect width="2.03" height="19.97" x="229.54" y="589.02" fill="#474891" clip-path="url(#SVGID_4_)"/><rect width="2.03" height="19.97" x="231.57" y="589.02" fill="#484992" clip-path="url(#SVGID_4_)"/><rect width="2.03" height="19.97" x="233.6" y="589.02" fill="#494a93" clip-path="url(#SVGID_4_)"/><rect width="2.03" height="19.97" x="235.63" y="589.02" fill="#4a4b94" clip-path="url(#SVGID_4_)"/><rect width="2.03" height="19.97" x="237.66" y="589.02" fill="#4b4c95" clip-path="url(#SVGID_4_)"/><rect width="2.03" height="19.97" x="239.69" y="589.02" fill="#4c4d96" clip-path="url(#SVGID_4_)"/><rect width="2.03" height="19.97" x="241.71" y="589.02" fill="#4d4e97" clip-path="url(#SVGID_4_)"/><rect width="2.03" height="19.97" x="243.74" y="589.02" fill="#4e4f98" clip-path="url(#SVGID_4_)"/><rect width=".26" height="19.97" x="245.77" y="589.02" fill="#4e4f98" clip-path="url(#SVGID_4_)"/></g></g><g><path fill="#302120" d="M202.24,392.16c3.66,54.44,13.65,125.8,24.49,200.86c0,0-2.13,3.55-14.18,1.69l-37.12-159.38
					c-0.16-0.42-0.56-0.7-1-0.7c-0.57,0-1.05,0.46-1.07,1.05c-0.43,12.01-4.18,48.76-2.16,159.54c0,0-6.34,3.57-13.09,0
					c0,0-23.93-163.85-18.42-195.23L202.24,392.16z"/></g><g><path fill="#b897bf" d="M205.52,338.32c0,0.97-0.01,1.95-0.01,2.94c-0.03,2.57-0.06,5.19-0.11,7.84c0,0.98-0.03,1.98-0.06,2.96
					c-0.04,2.86-0.11,5.73-0.2,8.57c-0.03,1.01-0.06,2.02-0.08,3.02c-0.07,2.64-0.16,5.27-0.25,7.81c-0.03,1.01-0.07,2.02-0.1,3
					c-0.11,2.83-0.23,5.56-0.32,8.14c-0.04,1.02-0.08,2.03-0.14,3.02c-0.08,2.19-0.18,4.27-0.27,6.19c-0.06,1.07-0.1,2.09-0.15,3.06
					c-0.1,2.11-0.2,3.97-0.27,5.51c-0.07,1.33-0.14,2.42-0.18,3.28c-0.07,1.34-0.11,2.06-0.11,2.06s-7.66,8.46-24.55,11.2
					c-29.71,4.83-39.86-6.12-39.86-6.12s-0.15-1.62-0.39-4.44c-0.1-0.94-0.18-2.01-0.29-3.2c-0.18-2.15-0.41-4.68-0.66-7.49
					c-0.08-0.98-0.17-2.01-0.25-3.06c-0.22-2.45-0.45-5.09-0.67-7.85c-0.08-0.98-0.17-1.99-0.25-3c-0.23-2.68-0.45-5.47-0.69-8.3
					c-0.08-1-0.16-1.99-0.24-3c-0.18-2.31-0.37-4.66-0.56-7c-0.07-1-0.14-1.99-0.23-2.99c-1.63-21.26-2.92-42.01-2.17-45.8
					c1.32-6.58,10.05-14.96,22.49-18.53c3.18-0.91,6.58-1.5,10.16-1.67c4.85-0.23,9.42-0.27,13.61-0.04
					c10.74,0.58,19.06,2.9,23.51,8.27c0.18,0.19,0.34,0.39,0.49,0.59c0.38,0.51,0.7,1.34,1,2.5c0.27,1.04,0.49,2.32,0.69,3.81
					c0.13,0.89,0.23,1.86,0.32,2.9c0.21,2.09,0.37,4.47,0.48,7.06c0.04,0.94,0.08,1.92,0.11,2.92c0.07,2.09,0.13,4.29,0.15,6.58
					c0.01,0.97,0.03,1.93,0.04,2.93C205.52,334.02,205.52,336.15,205.52,338.32z"/></g><g><g><path fill="#f7a3a0" d="M250.59,329.84c0,0-2.02,4.46-3.43,6.4c-1.41,1.94-3.93,7.81,0.9,10.44c4.83,2.63,14.74-4.37,14.74-4.37
						c3.22-3.25,2.13-6.99,2.13-6.99c1.55-1.42,0.59-4.86,0.59-4.86l1.67-3.26c-3.58-1.81-3.26,2.04-7.34,5.48
						c-0.98,0.83-3.7,1.44-5.01,1.98l0,0c-1.77,0.73-3.35,1.11-3.35,1.11s0,0,0-0.01c0.03-0.24,0.37-3.44,0.22-5.06
						C251.54,329,250.59,329.84,250.59,329.84z"/></g></g><g><path fill="#dfdfde" d="M162.38,294.66c0,0-6.27,1.94-2.24,4.35c4.02,2.41,11.05,7.55,18.08,4.26
					C185.25,299.97,185.2,292.48,162.38,294.66z"/></g><g><path fill="#f7a3a0" d="M179.06,290.49c0,0-1.99,5.03,0.33,8.82c0,0-7.37,6.17-17.01-1.46c0,0,4.93-12.2,0.39-20.8
					c0,0,1.13,0.06,2.91,0.26C165.69,277.3,167.77,290.49,179.06,290.49z"/></g><g><path fill="#f78480" d="M165.68,277.3c-1.26-0.14-2.19-0.21-2.63-0.24c0.02,0.24,0.02,0.49,0.05,0.73c0.84,1.84,1.29,3.8,1.47,5.77
					c1.68,4,4.64,7.37,8.6,9.36c1.41,0.71,2.96,1.28,4.63,1.63c0.16,0.03,0.3,0.04,0.46,0.06c0.06-2.29,0.79-4.13,0.79-4.13
					C167.77,290.49,165.68,277.3,165.68,277.3z"/></g><g><g><path fill="#f7a3a0" d="M134.23,438.09c0,0,1.72,2.69,2.14,3.98c0.5,1.55,0.21,5.36,0.21,5.36s-0.14,0.36-0.66,0.01
						c-0.81-0.54-0.08-2.58-1.33-3.2C133.34,443.64,134.23,438.09,134.23,438.09z"/></g><g><path fill="#f7a3a0" d="M125.33,433.57c0,0,6.68-0.83,8.17,1.08c0,0,1.14,5.62,1.75,7.42c0.67,1.98,0.31,8.88-0.72,10.09
						c-2.73,3.19-2.87,3-3.53,2.28c-0.66-0.72,1.64-2.47,1.82-3.48c0.08-0.49-0.58-2.83-0.58-2.83c0.02,1.02-0.46,2.64-1.51,3.29
						c-1.31,0.8-2.4,1.63-3.07,1.21c-1.22-0.77,1.86-2.58,1.63-3.45c-0.08-0.32-0.35-2.34-0.35-2.34c-0.33,0.58-0.35,1.61-0.76,2.09
						c-0.52,0.61-2.93,2.31-3.37,1.71c-0.69-0.94,1.54-2.4,1.55-3.32c0.01-0.37-0.31-1.95-0.31-1.95s-0.6,1.28-1,1.63
						c-0.47,0.4-2.62,1.45-2.75,0.95c-0.34-1.32,1.79-1.86,2.01-3.75c0.18-1.57-0.53-5.19,0.39-6.76
						C125.59,435.85,125.33,433.57,125.33,433.57z"/></g></g><g><path fill="#b897bf" d="M168.87,351.72c0.99-28.14-10.08-56.51-10.08-56.51c-13.56,1.64-21.07,10.32-23.02,12.9
					c-6.62,6.7-15.38,36.75-16.93,65.52c-1.59,29.63,6.17,59.92,6.17,59.92c1.56,1.51,8.42,1.73,8.42,1.73
					c3.21-10.99,1.12-59.35,1.12-59.35s0.3-1.33,0.78-3.52"/></g><g><path fill="#302120" d="M189.22,269.96c0,0,1.85-3.41,2.79-7.4c0.91-3.84-0.48-5.31-0.48-5.31s5.86-7.83,0.09-13.51
					c-4.56-4.48-19.21-4.56-27.84,0.07c-9.9,5.31-4.58,12.12-5.85,18.74c-1.32,6.85,1.4,15.73,1.4,15.73s0.75,6.87,8.36,3.85
					C173.58,279.81,182.66,267.94,189.22,269.96z"/></g><g><g><g><g><path fill="#f7a3a0" d="M187.24,270.46c0,0,3.26-2.91,4.18,0.86c0.92,3.77-1.44,10.54-5.31,8.55L187.24,270.46z"/></g></g></g></g><g><g><g><g><path fill="#f7a3a0" d="M188.01,283.18c0,0-1.81,10.67-11.92,8.56c-1.67-0.35-3.22-0.92-4.63-1.63
								c-7.11-3.57-11-11.61-10.03-19.67c0.35-2.87,0.64-5.35,0.64-5.35l0.76-6.28c0,0,0.63-11.46,10.68-11.5
								c7.34-0.03,13.77,2.63,16.43,7.37c0.09,0.15,0.17,0.31,0.24,0.47c0.81,1.64,1.19,3.52,1.02,5.61l-1.6,11.23l-0.39,2.75
								L188.01,283.18z"/></g></g></g></g><g><g><g><g><path fill="#302120" d="M166.41,266.43c0.02,1.26-0.93,2.23-2,1.78l0,0c-1.1-0.56-2.33-3.13-2.33-3.13l-0.71-6.06
								c0,0,1.41-13.17,11.46-13.21c7.34-0.03,16.3,2.71,17.12,8.86c0.02,0.18,0.17,0.31,0.24,0.47c-1.48-0.94-2.73-0.61-5.4,0.08
								c-3.87,0.99-7.22-2.03-10.79-4.09c-2.98-1.72-5.43,0.93-4.54,2.98c0,0,1.07,2.13-0.95,5.59
								C166.48,263.15,166.35,263.68,166.41,266.43z"/></g></g></g></g><g><g><g><g><path fill="#f7a3a0" d="M166.87,266.39c0,0-2.91-6.53-6.53-2.61c-2.98,3.23-0.2,13.8,5.01,11.45L166.87,266.39z"/></g></g></g></g></g><g><g><path fill="#302120" d="M692.68,251.13c0,0-7.41,12.18-6.4,32.16c1.01,19.98,14.43,41.82,14.43,41.82s12.79-0.74,18.89-8.87
					c6.1-8.13,0.63-29.67,5.11-41.28C729.2,263.36,692.68,251.13,692.68,251.13z"/></g><g><g><path fill="#b897bf" d="M691.16,312.89c0,0-1-14.53-5.89-14.53c-10.24,0-28.47,40-29,45.87c-0.9,9.89,7.93,10.48,16.58,11.28
						c8.47,0.79,10.04-13.53,10.04-13.53L691.16,312.89z"/></g><g><g><g><g><defs><polygon id="SVGID_35_" points="697.76 595.25 697.51 607.5 699.28 607.54 701.56 593.57"/></defs><clipPath id="SVGID_6_"><use overflow="visible" xlink:href="#SVGID_35_"/></clipPath><rect width=".13" height="13.97" x="697.51" y="593.57" fill="#ac695e" clip-path="url(#SVGID_6_)"/><rect width=".13" height="13.97" x="697.63" y="593.57" fill="#ab685e" clip-path="url(#SVGID_6_)"/><rect width=".13" height="13.97" x="697.76" y="593.57" fill="#aa685d" clip-path="url(#SVGID_6_)"/><rect width=".13" height="13.97" x="697.89" y="593.57" fill="#a9675d" clip-path="url(#SVGID_6_)"/><rect width=".13" height="13.97" x="698.01" y="593.57" fill="#a8665c" clip-path="url(#SVGID_6_)"/><rect width=".13" height="13.97" x="698.14" y="593.57" fill="#a7665c" clip-path="url(#SVGID_6_)"/><rect width=".13" height="13.97" x="698.27" y="593.57" fill="#a6655b" clip-path="url(#SVGID_6_)"/><rect width=".13" height="13.97" x="698.39" y="593.57" fill="#a5645b" clip-path="url(#SVGID_6_)"/><rect width=".13" height="13.97" x="698.52" y="593.57" fill="#a4645a" clip-path="url(#SVGID_6_)"/><rect width=".13" height="13.97" x="698.65" y="593.57" fill="#a3635a" clip-path="url(#SVGID_6_)"/><rect width=".13" height="13.97" x="698.77" y="593.57" fill="#a26359" clip-path="url(#SVGID_6_)"/><rect width=".13" height="13.97" x="698.9" y="593.57" fill="#a16259" clip-path="url(#SVGID_6_)"/><rect width=".13" height="13.97" x="699.03" y="593.57" fill="#a06158" clip-path="url(#SVGID_6_)"/><rect width=".13" height="13.97" x="699.15" y="593.57" fill="#9f6158" clip-path="url(#SVGID_6_)"/><rect width=".13" height="13.97" x="699.28" y="593.57" fill="#9e6057" clip-path="url(#SVGID_6_)"/><rect width=".13" height="13.97" x="699.41" y="593.57" fill="#9d5f57" clip-path="url(#SVGID_6_)"/><rect width=".13" height="13.97" x="699.53" y="593.57" fill="#9b5f56" clip-path="url(#SVGID_6_)"/><rect width=".13" height="13.97" x="699.66" y="593.57" fill="#9a5e56" clip-path="url(#SVGID_6_)"/><rect width=".13" height="13.97" x="699.79" y="593.57" fill="#995d55" clip-path="url(#SVGID_6_)"/><rect width=".13" height="13.97" x="699.91" y="593.57" fill="#985d55" clip-path="url(#SVGID_6_)"/><rect width=".13" height="13.97" x="700.04" y="593.57" fill="#975c54" clip-path="url(#SVGID_6_)"/><rect width=".13" height="13.97" x="700.17" y="593.57" fill="#965b54" clip-path="url(#SVGID_6_)"/><rect width=".13" height="13.97" x="700.29" y="593.57" fill="#955b53" clip-path="url(#SVGID_6_)"/><rect width=".13" height="13.97" x="700.42" y="593.57" fill="#945a53" clip-path="url(#SVGID_6_)"/><rect width=".13" height="13.97" x="700.55" y="593.57" fill="#935a52" clip-path="url(#SVGID_6_)"/><rect width=".13" height="13.97" x="700.67" y="593.57" fill="#925952" clip-path="url(#SVGID_6_)"/><rect width=".13" height="13.97" x="700.8" y="593.57" fill="#915851" clip-path="url(#SVGID_6_)"/><rect width=".13" height="13.97" x="700.93" y="593.57" fill="#905851" clip-path="url(#SVGID_6_)"/><rect width=".13" height="13.97" x="701.05" y="593.57" fill="#8f5750" clip-path="url(#SVGID_6_)"/><rect width=".13" height="13.97" x="701.18" y="593.57" fill="#8e5650" clip-path="url(#SVGID_6_)"/><rect width=".13" height="13.97" x="701.31" y="593.57" fill="#8d564f" clip-path="url(#SVGID_6_)"/><rect width=".13" height="13.97" x="701.43" y="593.57" fill="#8c554f" clip-path="url(#SVGID_6_)"/></g></g><g><path fill="#f7a3a0" d="M685.52,487.47c0,0,1.9,19.16,4.94,24.89c3.05,5.72-2.4,81.42-4.99,87.52
								c-0.57,1.35-1.35,2.56-2.15,3.62c-2.83,3.72-3.46,4.48,0.32,4.49c4.86,0.01,9.12-0.7,10.06-2.23
								c1.63-2.65,3.07-11.77,6.4-11.76c0,0,2.27-3.4,1.7-5.19c-0.85-2.69-3.23-1.31-3.21-5.06c0.02-3.74,16.13-60.68,13.61-68.97
								c-2.52-8.29-4.31-9.28-4.27-19.13C707.98,485.79,685.52,487.47,685.52,487.47z"/></g><g><g><defs><path id="SVGID_37_" d="M698.95,585.7c-1.49,6.85-7.24,20.03-10.79,20.39c-4.61,0-4.87-0.19-4.84-2.58
										c-2.82,3.72-8.19,6.11-4.41,6.12c4.86,0.01,14.62-0.23,15.56-1.77c1.63-2.65,2.56-12.68,5.89-12.67l-1.09,12.35l1.77,0.04
										c0,0,2.69-17,2.12-18.7C702.39,586.55,699.89,586.11,698.95,585.7z"/></defs><clipPath id="SVGID_8_"><use overflow="visible" xlink:href="#SVGID_37_"/></clipPath><rect width="2.48" height="23.94" x="675.13" y="585.7" fill="#ac695e" clip-path="url(#SVGID_8_)"/><rect width=".8" height="23.94" x="677.61" y="585.7" fill="#ac695e" clip-path="url(#SVGID_8_)"/><rect width=".8" height="23.94" x="678.41" y="585.7" fill="#ab685e" clip-path="url(#SVGID_8_)"/><rect width=".8" height="23.94" x="679.21" y="585.7" fill="#aa685d" clip-path="url(#SVGID_8_)"/><rect width=".8" height="23.94" x="680.02" y="585.7" fill="#a9675d" clip-path="url(#SVGID_8_)"/><rect width=".8" height="23.94" x="680.82" y="585.7" fill="#a8665c" clip-path="url(#SVGID_8_)"/><rect width=".8" height="23.94" x="681.62" y="585.7" fill="#a7665c" clip-path="url(#SVGID_8_)"/><rect width=".8" height="23.94" x="682.42" y="585.7" fill="#a6655b" clip-path="url(#SVGID_8_)"/><rect width=".8" height="23.94" x="683.22" y="585.7" fill="#a5645b" clip-path="url(#SVGID_8_)"/><rect width=".8" height="23.94" x="684.02" y="585.7" fill="#a4645a" clip-path="url(#SVGID_8_)"/><rect width=".8" height="23.94" x="684.82" y="585.7" fill="#a3635a" clip-path="url(#SVGID_8_)"/><rect width=".8" height="23.94" x="685.62" y="585.7" fill="#a26359" clip-path="url(#SVGID_8_)"/><rect width=".8" height="23.94" x="686.42" y="585.7" fill="#a16259" clip-path="url(#SVGID_8_)"/><rect width=".8" height="23.94" x="687.23" y="585.7" fill="#a06158" clip-path="url(#SVGID_8_)"/><rect width=".8" height="23.94" x="688.03" y="585.7" fill="#9f6158" clip-path="url(#SVGID_8_)"/><rect width=".8" height="23.94" x="688.83" y="585.7" fill="#9e6057" clip-path="url(#SVGID_8_)"/><rect width=".8" height="23.94" x="689.63" y="585.7" fill="#9d5f57" clip-path="url(#SVGID_8_)"/><rect width=".8" height="23.94" x="690.43" y="585.7" fill="#9b5f56" clip-path="url(#SVGID_8_)"/><rect width=".8" height="23.94" x="691.23" y="585.7" fill="#9a5e56" clip-path="url(#SVGID_8_)"/><rect width=".8" height="23.94" x="692.03" y="585.7" fill="#995d55" clip-path="url(#SVGID_8_)"/><rect width=".8" height="23.94" x="692.83" y="585.7" fill="#985d55" clip-path="url(#SVGID_8_)"/><rect width=".8" height="23.94" x="693.63" y="585.7" fill="#975c54" clip-path="url(#SVGID_8_)"/><rect width=".8" height="23.94" x="694.43" y="585.7" fill="#965b54" clip-path="url(#SVGID_8_)"/><rect width=".8" height="23.94" x="695.24" y="585.7" fill="#955b53" clip-path="url(#SVGID_8_)"/><rect width=".8" height="23.94" x="696.04" y="585.7" fill="#945a53" clip-path="url(#SVGID_8_)"/><rect width=".8" height="23.94" x="696.84" y="585.7" fill="#935a52" clip-path="url(#SVGID_8_)"/><rect width=".8" height="23.94" x="697.64" y="585.7" fill="#925952" clip-path="url(#SVGID_8_)"/><rect width=".8" height="23.94" x="698.44" y="585.7" fill="#915851" clip-path="url(#SVGID_8_)"/><rect width=".8" height="23.94" x="699.24" y="585.7" fill="#905851" clip-path="url(#SVGID_8_)"/><rect width=".8" height="23.94" x="700.04" y="585.7" fill="#8f5750" clip-path="url(#SVGID_8_)"/><rect width=".8" height="23.94" x="700.84" y="585.7" fill="#8e5650" clip-path="url(#SVGID_8_)"/><rect width=".8" height="23.94" x="701.64" y="585.7" fill="#8d564f" clip-path="url(#SVGID_8_)"/><rect width=".8" height="23.94" x="702.45" y="585.7" fill="#8c554f" clip-path="url(#SVGID_8_)"/><rect width=".49" height="23.94" x="703.25" y="585.7" fill="#8c554f" clip-path="url(#SVGID_8_)"/></g></g></g><g><g><path fill="#f7a3a0" d="M695.72,467.99c0,0-18.14,26.64-16.98,34.53c1.16,7.89,4.99,14.26,1.7,25.03
								c-3.29,10.77-29.31,49.82-29.93,56.97c-0.26,3.01,0.93,3.29,0.93,3.29c-0.05,5.19-2.15,10.74-3.55,11.82
								c-1.8,1.37-3.82,8.21-5.53,8.21c-1.71,0-16.12,1.18-16.12,1.18c-0.37-2.53,4.04-0.5,6.62-5.75
								c2.58-5.25,4.15-13.13,7.44-23.77c3.29-10.64,16.77-59.18,16.82-70.35c0.05-11.17-1.28-11.23,0.97-18.58
								c2.25-7.35,10.67-21.13,10.67-21.13L695.72,467.99z"/></g><g><g><defs><path id="SVGID_39_" d="M630.81,605.86c-4.33,1.52-8.59,1.74-8.29,3.77c0,0,18.19-0.2,19.9-0.2c1.71,0,3.67-8.44,5.46-9.82
										c1.8-1.38,0.13,9.86,0.13,9.86l2.23-0.02c0,0,1.4-11.54,3.12-15.87c1.37-3.45-0.55-4.91-1.93-5.78
										C645.8,596.04,644.92,607.83,630.81,605.86z"/></defs><clipPath id="SVGID_10_"><use overflow="visible" xlink:href="#SVGID_39_"/></clipPath><rect width=".28" height="21.83" x="622.22" y="587.8" fill="#ac695e" clip-path="url(#SVGID_10_)"/><rect width=".98" height="21.83" x="622.51" y="587.8" fill="#ac695e" clip-path="url(#SVGID_10_)"/><rect width=".98" height="21.83" x="623.49" y="587.8" fill="#ab685e" clip-path="url(#SVGID_10_)"/><rect width=".98" height="21.83" x="624.47" y="587.8" fill="#aa685d" clip-path="url(#SVGID_10_)"/><rect width=".98" height="21.83" x="625.44" y="587.8" fill="#a9675d" clip-path="url(#SVGID_10_)"/><rect width=".98" height="21.83" x="626.42" y="587.8" fill="#a8665c" clip-path="url(#SVGID_10_)"/><rect width=".98" height="21.83" x="627.4" y="587.8" fill="#a7665c" clip-path="url(#SVGID_10_)"/><rect width=".98" height="21.83" x="628.38" y="587.8" fill="#a6655b" clip-path="url(#SVGID_10_)"/><rect width=".98" height="21.83" x="629.36" y="587.8" fill="#a5645b" clip-path="url(#SVGID_10_)"/><rect width=".98" height="21.83" x="630.34" y="587.8" fill="#a4645a" clip-path="url(#SVGID_10_)"/><rect width=".98" height="21.83" x="631.32" y="587.8" fill="#a3635a" clip-path="url(#SVGID_10_)"/><rect width=".98" height="21.83" x="632.3" y="587.8" fill="#a26359" clip-path="url(#SVGID_10_)"/><rect width=".98" height="21.83" x="633.28" y="587.8" fill="#a16259" clip-path="url(#SVGID_10_)"/><rect width=".98" height="21.83" x="634.26" y="587.8" fill="#a06158" clip-path="url(#SVGID_10_)"/><rect width=".98" height="21.83" x="635.24" y="587.8" fill="#9f6158" clip-path="url(#SVGID_10_)"/><rect width=".98" height="21.83" x="636.22" y="587.8" fill="#9e6057" clip-path="url(#SVGID_10_)"/><rect width=".98" height="21.83" x="637.19" y="587.8" fill="#9d5f57" clip-path="url(#SVGID_10_)"/><rect width=".98" height="21.83" x="638.17" y="587.8" fill="#9b5f56" clip-path="url(#SVGID_10_)"/><rect width=".98" height="21.83" x="639.15" y="587.8" fill="#9a5e56" clip-path="url(#SVGID_10_)"/><rect width=".98" height="21.83" x="640.13" y="587.8" fill="#995d55" clip-path="url(#SVGID_10_)"/><rect width=".98" height="21.83" x="641.11" y="587.8" fill="#985d55" clip-path="url(#SVGID_10_)"/><rect width=".98" height="21.83" x="642.09" y="587.8" fill="#975c54" clip-path="url(#SVGID_10_)"/><rect width=".98" height="21.83" x="643.07" y="587.8" fill="#965b54" clip-path="url(#SVGID_10_)"/><rect width=".98" height="21.83" x="644.05" y="587.8" fill="#955b53" clip-path="url(#SVGID_10_)"/><rect width=".98" height="21.83" x="645.03" y="587.8" fill="#945a53" clip-path="url(#SVGID_10_)"/><rect width=".98" height="21.83" x="646.01" y="587.8" fill="#935a52" clip-path="url(#SVGID_10_)"/><rect width=".98" height="21.83" x="646.99" y="587.8" fill="#925952" clip-path="url(#SVGID_10_)"/><rect width=".98" height="21.83" x="647.97" y="587.8" fill="#915851" clip-path="url(#SVGID_10_)"/><rect width=".98" height="21.83" x="648.94" y="587.8" fill="#905851" clip-path="url(#SVGID_10_)"/><rect width=".98" height="21.83" x="649.92" y="587.8" fill="#8f5750" clip-path="url(#SVGID_10_)"/><rect width=".98" height="21.83" x="650.9" y="587.8" fill="#8e5650" clip-path="url(#SVGID_10_)"/><rect width=".98" height="21.83" x="651.88" y="587.8" fill="#8d564f" clip-path="url(#SVGID_10_)"/><rect width=".98" height="21.83" x="652.86" y="587.8" fill="#8c554f" clip-path="url(#SVGID_10_)"/><rect width=".9" height="21.83" x="653.84" y="587.8" fill="#8c554f" clip-path="url(#SVGID_10_)"/></g></g></g></g><g><path fill="#302120" d="M635.19,568.32c0,0,74.01,3.78,83.05-6.99c0,0,0.19-27.32,1.63-47.95c2.01-28.87,12.99-74.85-3.81-104.26
						c-2.76-4.83-12.52-17.99-12.52-17.99l-27.93-23.27c-23.81,105-21.38,105.68-22.25,116.03
						C650.96,512.35,635.19,568.32,635.19,568.32z"/></g><g><path fill="#d1b4d6" d="M685.28,298.37c0,0,6.54-2.06,36.91,3.59l-1.19,22.5c0,0-15.87,58.09-13.36,68.03
						c0,0-15.16,7.72-37.68-0.83c0,0,5.65-47.45,3.6-54.41c-2.05-6.97-6.14-13.28-0.33-20.51
						C679.03,309.51,685.28,298.37,685.28,298.37z"/></g><g><path fill="#f7a3a0" d="M702.45,347.48c-3.45,1.85-5.7,4.54-13.14,6.16c4.36,2.62,9.35,5.34,14.1,7.47
						c1.13-4.64,1.95-8.47,2.08-13.11C705.33,348.05,702.63,347.44,702.45,347.48z"/></g><g><path fill="#b897bf" d="M730.9,309.85c-2.21-5.39-8.71-7.9-8.71-7.9c-7.51-0.67-10.05,28.45-10.05,28.45l-2.99,16.81
						c-0.61,0.5-2.85,0.01-3.65,0.27c-0.14,4.64-0.95,8.99-2.08,13.63c7.43,3.32,14.28,5.18,17.25,2.9
						C727.41,358.82,733.12,315.25,730.9,309.85z"/></g><g><path fill="#b897bf" d="M697.91,359.11c0,0,3.26,1.68,4.54,2.66c1.28,0.99,6.81,2.95,8.71,2.26c1.91-0.68,2.99-5.56,2.1-12.41
						c-0.89-6.85-5.5-5.19-7.52-4.69c-2.01,0.5-3.74,0.55-3.74,0.55S695.93,355.61,697.91,359.11z"/></g><g><path fill="#b897bf" d="M673.98,344.08c0,0-3.52-3.55-4.99-4.68c-1.47-1.13-3.39-0.3-5.63,0.69c-2.24,0.98-1.15-1.13-5.5,1.33
						c-4.35,2.46-5.44,6.65-3.78,9.46c1.66,2.81,8.03,6.43,11.52,3.75C669.09,351.94,673.98,344.08,673.98,344.08z"/></g><g><path fill="#f7a3a0" d="M667.14,331.15c-2.95-0.49-12.14,1.97-12.14,1.97s-2.44,2.61-2.44,4.29c0,0.28,0.21,0.43,0.54,0.39
						c-0.63,0.36-0.94,0.65-0.69,0.84c1.22,0.94,10.82-2.62,11.39-2.18c0.57,0.44-10.91,1.88-9.98,3.49
						c0.39,0.67,4.8-0.39,7.58-1.14c-2.42,0.72-5.95,1.9-5.95,2.61c0,1.09,10.01-0.58,12.2-0.58c0.82,0,2.15,0.67,3.66,1.4
						c0.68-0.09,1.14,0.15,1.42,0.08c0,0,7.49-0.13,17.03,0.79C679.37,338.31,667.94,331.28,667.14,331.15z M656.75,336.27
						c-0.77,0.29-1.51,0.58-2.18,0.86c0.64-0.47,1.17-1.51,2.08-2.01c1.86-1.02,4.68-1.58,5.1-1.26
						C662.25,334.25,659.43,335.26,656.75,336.27z"/></g><g><path fill="#f7a3a0" d="M710.86,337.57c-0.5,1.86-1.38,7.49-1.57,8.82c0,0-1.24-0.68-1.65-0.35h-0.01
						c-4.08,1.68-9.84,6.29-21.09,8.13c-11.05,1.78-26.11,2.7-26.11-3.08c0-5.77,7.54-8.93,12.33-8.93c0,0,7.49,0.04,17.03,0.95
						c0.01,0,0.01,0,0.02,0C699.34,344.04,709.87,336.98,710.86,337.57z"/></g></g><g><path fill="#f78480" d="M700.81,285.28l-7.46,17.69c0,0-2.84,11.04,1.3,12.96c4.14,1.93,15.42-9.81,15.42-12.26
					c0-2.45,2.49-25.3,2.49-25.3L700.81,285.28z"/></g><g><path fill="#f7a3a0" d="M718.59,255.07c0,0-19.55-9.53-25.05,5.46c-5.5,14.99-2.87,31.56,8.06,32.35
					C715.07,293.85,733.5,265.45,718.59,255.07z"/></g><g><path fill="#302120" d="M692.68,251.13c8.39-9.9,19.55-6.74,28.64-3.76c9.08,2.98,10.93,19.43,6.09,38.78
					c-4.83,19.35,2.11,22.67,1.46,32.21c0,0-2.27-10.11-10.62-13.76c-4.8-2.1-14.47-7.12-8.84-24.14
					c6.38-19.27-9.69-11.86-12.89-27.16l-7.38,14.71C689.14,268.01,689.85,254.47,692.68,251.13z"/></g><g><path fill="#5a403e" d="M709.8,262.13c0,0,4.04,6.89,3.04,15.17c0,0,3.81-4.14,5.22-0.03c1.41,4.11-6.22,9.06-6.22,9.06
					s-0.83,9.96,2.31,10.43c3.14,0.48,13.15-17.71,11.9-24.39C724.79,265.68,719.71,258.62,709.8,262.13z"/></g><g><ellipse cx="711.98" cy="278.58" fill="#f7a3a0" rx="4.79" ry="3.63" transform="rotate(-60 711.993 278.592)"/></g></g></g></g></svg>